G04*
G04 #@! TF.GenerationSoftware,Altium Limited,Altium Designer,21.0.8 (223)*
G04*
G04 Layer_Color=65535*
%FSTAX24Y24*%
%MOIN*%
G70*
G04*
G04 #@! TF.SameCoordinates,CEE82333-CCAB-4651-B785-5805AFDC4109*
G04*
G04*
G04 #@! TF.FilePolarity,Positive*
G04*
G01*
G75*
%ADD10C,0.0070*%
%ADD11C,0.0079*%
%ADD12C,0.0100*%
D10*
X001021Y016212D02*
Y016392D01*
X000481Y016212D02*
Y016392D01*
X001071Y004812D02*
Y004992D01*
X000531Y004812D02*
Y004992D01*
X000529Y006608D02*
Y006788D01*
X001069Y006608D02*
Y006788D01*
X000529Y009158D02*
Y009338D01*
X001069Y009158D02*
Y009338D01*
D11*
X0004Y01699D02*
X0011D01*
X0004Y01561D02*
X0011D01*
Y016461D02*
Y01699D01*
Y01561D02*
Y016156D01*
X0004Y01561D02*
Y016156D01*
Y016461D02*
Y01699D01*
X00045Y00559D02*
X00115D01*
X00045Y00421D02*
X00115D01*
Y005061D02*
Y00559D01*
Y00421D02*
Y004756D01*
X00045Y00421D02*
Y004756D01*
Y005061D02*
Y00559D01*
Y00601D02*
X00115D01*
X00045Y00739D02*
X00115D01*
X00045Y00601D02*
Y006539D01*
Y006844D02*
Y00739D01*
X00115Y006844D02*
Y00739D01*
Y00601D02*
Y006539D01*
X00045Y00856D02*
X00115D01*
X00045Y00994D02*
X00115D01*
X00045Y00856D02*
Y009089D01*
Y009394D02*
Y00994D01*
X00115Y009394D02*
Y00994D01*
Y00856D02*
Y009089D01*
X02915Y008D02*
X03015D01*
X02915Y007D02*
X03015D01*
X02915D02*
Y011D01*
X03015Y007D02*
Y011D01*
X02915D02*
X03015D01*
X02735Y0015D02*
Y0025D01*
X03135D01*
X02735Y0015D02*
X03135D01*
Y0025D01*
X03035Y0015D02*
Y0025D01*
X0236Y01535D02*
Y01635D01*
X0226Y01535D02*
Y01635D01*
X0256D01*
Y01535D02*
Y01635D01*
X0226Y01535D02*
X0256D01*
X02015Y0009D02*
X02115D01*
X02015Y0069D02*
X02115D01*
Y0009D02*
Y0069D01*
X02015Y0009D02*
Y0069D01*
Y0059D02*
X02115D01*
X0264Y0015D02*
Y0025D01*
X0224Y0015D02*
X0264D01*
X0224Y0025D02*
X0264D01*
X0224Y0015D02*
Y0025D01*
X0234Y0015D02*
Y0025D01*
X0013Y0008D02*
Y0088D01*
Y0008D02*
X0023D01*
Y0088D01*
X0013D02*
X0023D01*
X0013Y0018D02*
X0023D01*
X0295Y01535D02*
Y01635D01*
X0305Y01535D02*
Y01635D01*
X0265Y01535D02*
X0305D01*
X0265Y01635D02*
X0305D01*
X0265Y01535D02*
Y01635D01*
X0023Y0092D02*
Y0172D01*
X0013D02*
X0023D01*
X0013Y0092D02*
Y0172D01*
Y0092D02*
X0023D01*
X0013Y0162D02*
X0023D01*
X02015Y0157D02*
X02115D01*
Y0077D02*
Y0167D01*
X02015D02*
X02115D01*
X02015Y0077D02*
Y0167D01*
Y0077D02*
X02115D01*
X0234Y0049D02*
Y0129D01*
Y0049D02*
X0254D01*
Y0129D01*
X0234D02*
X0254D01*
X0244Y0119D02*
Y0129D01*
X0234Y0119D02*
X0244D01*
D12*
X01115Y000431D02*
Y000825D01*
X011347D01*
X011412Y000759D01*
Y000628D01*
X011347Y000562D01*
X01115D01*
X011806Y000759D02*
X01174Y000825D01*
X011609D01*
X011544Y000759D01*
Y000497D01*
X011609Y000431D01*
X01174D01*
X011806Y000497D01*
X011937Y000825D02*
Y000431D01*
X012134D01*
X0122Y000497D01*
Y000562D01*
X012134Y000628D01*
X011937D01*
X012134D01*
X0122Y000694D01*
Y000759D01*
X012134Y000825D01*
X011937D01*
X012987D02*
Y000431D01*
X01279D01*
X012724Y000497D01*
Y000628D01*
X01279Y000694D01*
X012987D01*
X013315Y000431D02*
X013183D01*
X013118Y000497D01*
Y000628D01*
X013183Y000694D01*
X013315D01*
X01338Y000628D01*
Y000562D01*
X013118D01*
X013511Y000431D02*
X013708D01*
X013774Y000497D01*
X013708Y000562D01*
X013577D01*
X013511Y000628D01*
X013577Y000694D01*
X013774D01*
X013905Y000431D02*
X014036D01*
X013971D01*
Y000694D01*
X013905D01*
X014364Y0003D02*
X01443D01*
X014495Y000366D01*
Y000694D01*
X014299D01*
X014233Y000628D01*
Y000497D01*
X014299Y000431D01*
X014495D01*
X014627D02*
Y000694D01*
X014823D01*
X014889Y000628D01*
Y000431D01*
X015414Y000825D02*
Y000431D01*
X015611D01*
X015676Y000497D01*
Y000562D01*
Y000628D01*
X015611Y000694D01*
X015414D01*
X015807D02*
Y000497D01*
X015873Y000431D01*
X01607D01*
Y000366D01*
X016004Y0003D01*
X015938D01*
X01607Y000431D02*
Y000694D01*
X016594Y000825D02*
Y000431D01*
Y000628D01*
X016857D01*
Y000825D01*
Y000431D01*
X017054D02*
X017185D01*
X01725Y000497D01*
Y000628D01*
X017185Y000694D01*
X017054D01*
X016988Y000628D01*
Y000497D01*
X017054Y000431D01*
X017447Y000694D02*
X017578D01*
X017644Y000628D01*
Y000431D01*
X017447D01*
X017382Y000497D01*
X017447Y000562D01*
X017644D01*
X017775Y000431D02*
Y000694D01*
X017972D01*
X018038Y000628D01*
Y000431D01*
X018169Y000825D02*
Y000431D01*
X018366D01*
X018431Y000497D01*
Y000562D01*
X018366Y000628D01*
X018169D01*
X018366D01*
X018431Y000694D01*
Y000759D01*
X018366Y000825D01*
X018169D01*
X018562D02*
Y000431D01*
Y000562D01*
X018825Y000825D01*
X018628Y000628D01*
X018825Y000431D01*
X018956D02*
Y000694D01*
X019087Y000825D01*
X019218Y000694D01*
Y000431D01*
Y000628D01*
X018956D01*
X00545Y00125D02*
Y00185D01*
X00565Y00165D01*
X00585Y00185D01*
Y00125D01*
X00615D02*
X00635D01*
X00645Y00135D01*
Y00155D01*
X00635Y00165D01*
X00615D01*
X00605Y00155D01*
Y00135D01*
X00615Y00125D01*
X007049Y00185D02*
Y00125D01*
X00675D01*
X00665Y00135D01*
Y00155D01*
X00675Y00165D01*
X007049D01*
X007249D02*
Y00135D01*
X007349Y00125D01*
X007649D01*
Y00165D01*
X007849Y00125D02*
X008049D01*
X007949D01*
Y00185D01*
X007849D01*
X008649Y00125D02*
X008449D01*
X008349Y00135D01*
Y00155D01*
X008449Y00165D01*
X008649D01*
X008749Y00155D01*
Y00145D01*
X008349D01*
X009949Y00175D02*
X009849Y00185D01*
X009649D01*
X009549Y00175D01*
Y00165D01*
X009649Y00155D01*
X009849D01*
X009949Y00145D01*
Y00135D01*
X009849Y00125D01*
X009649D01*
X009549Y00135D01*
X010148Y00185D02*
X010348D01*
X010248D01*
Y00125D01*
X010148D01*
X010348D01*
X010648D02*
Y00185D01*
X010848Y00165D01*
X011048Y00185D01*
Y00125D01*
X011648Y00175D02*
X011548Y00185D01*
X011348D01*
X011248Y00175D01*
Y00135D01*
X011348Y00125D01*
X011548D01*
X011648Y00135D01*
X011948Y00125D02*
X012148D01*
X012248Y00135D01*
Y00155D01*
X012148Y00165D01*
X011948D01*
X011848Y00155D01*
Y00135D01*
X011948Y00125D01*
X012448D02*
Y00165D01*
X012548D01*
X012648Y00155D01*
Y00125D01*
Y00155D01*
X012748Y00165D01*
X012848Y00155D01*
Y00125D01*
X013647D02*
Y00165D01*
X013847Y00185D01*
X014047Y00165D01*
Y00125D01*
Y00155D01*
X013647D01*
X014247Y00185D02*
X014647D01*
Y00175D01*
X014247Y00135D01*
Y00125D01*
X015247Y00185D02*
X015047Y00175D01*
X014847Y00155D01*
Y00135D01*
X014947Y00125D01*
X015147D01*
X015247Y00135D01*
Y00145D01*
X015147Y00155D01*
X014847D01*
X015447Y00185D02*
X015847D01*
Y00175D01*
X015447Y00135D01*
Y00125D01*
X016446D02*
X016047D01*
X016446Y00165D01*
Y00175D01*
X016346Y00185D01*
X016147D01*
X016047Y00175D01*
X017046D02*
X016946Y00185D01*
X016746D01*
X016646Y00175D01*
Y00165D01*
X016746Y00155D01*
X016946D01*
X017046Y00145D01*
Y00135D01*
X016946Y00125D01*
X016746D01*
X016646Y00135D01*
X000741Y015268D02*
X000682Y015327D01*
X000564D01*
X000505Y015268D01*
Y015032D01*
X000564Y014973D01*
X000682D01*
X000741Y015032D01*
X001095Y014973D02*
X000859D01*
X001095Y015209D01*
Y015268D01*
X001036Y015327D01*
X000918D01*
X000859Y015268D01*
X000741Y003918D02*
X000682Y003977D01*
X000564D01*
X000505Y003918D01*
Y003682D01*
X000564Y003623D01*
X000682D01*
X000741Y003682D01*
X000859Y003918D02*
X000918Y003977D01*
X001036D01*
X001095Y003918D01*
Y003859D01*
X001036Y0038D01*
X000977D01*
X001036D01*
X001095Y003741D01*
Y003682D01*
X001036Y003623D01*
X000918D01*
X000859Y003682D01*
X000746Y010575D02*
X000687Y010634D01*
X000569D01*
X00051Y010575D01*
Y010339D01*
X000569Y01028D01*
X000687D01*
X000746Y010339D01*
X000864Y01028D02*
X000982D01*
X000923D01*
Y010634D01*
X000864Y010575D01*
X000746Y008025D02*
X000687Y008084D01*
X000569D01*
X00051Y008025D01*
Y007789D01*
X000569Y00773D01*
X000687D01*
X000746Y007789D01*
X001041Y00773D02*
Y008084D01*
X000864Y007907D01*
X0011D01*
X026236Y005604D02*
X026D01*
Y00525D01*
X026236D01*
X026Y005427D02*
X026118D01*
X026354Y00525D02*
Y005604D01*
X026531D01*
X02659Y005545D01*
Y005427D01*
X026531Y005368D01*
X026354D01*
X026186Y006654D02*
X02595D01*
Y0063D01*
X026186D01*
X02595Y006477D02*
X026068D01*
X026304Y0063D02*
Y006654D01*
X02654Y0063D01*
Y006654D01*
X0259Y00725D02*
Y007604D01*
X026018Y007486D01*
X026136Y007604D01*
Y00725D01*
X026254D02*
Y007604D01*
X026431D01*
X02649Y007545D01*
Y007427D01*
X026431Y007368D01*
X026254D01*
X02585Y00825D02*
Y008604D01*
X025968Y008486D01*
X026086Y008604D01*
Y00825D01*
X026204D02*
Y008604D01*
X02644Y00825D01*
Y008604D01*
X0258Y009654D02*
Y0093D01*
X025977D01*
X026036Y009359D01*
Y009595D01*
X025977Y009654D01*
X0258D01*
X026154D02*
X02639D01*
Y009595D01*
X026154Y009359D01*
Y0093D01*
X02575Y010654D02*
Y0103D01*
X025927D01*
X025986Y010359D01*
Y010595D01*
X025927Y010654D01*
X02575D01*
X026104Y010595D02*
X026163Y010654D01*
X026281D01*
X02634Y010595D01*
Y010536D01*
X026281Y010477D01*
X02634Y010418D01*
Y010359D01*
X026281Y0103D01*
X026163D01*
X026104Y010359D01*
Y010418D01*
X026163Y010477D01*
X026104Y010536D01*
Y010595D01*
X026163Y010477D02*
X026281D01*
X0257Y011654D02*
Y0113D01*
X025877D01*
X025936Y011359D01*
Y011595D01*
X025877Y011654D01*
X0257D01*
X026054Y011359D02*
X026113Y0113D01*
X026231D01*
X02629Y011359D01*
Y011595D01*
X026231Y011654D01*
X026113D01*
X026054Y011595D01*
Y011536D01*
X026113Y011477D01*
X02629D01*
X02565Y012654D02*
Y0123D01*
X025827D01*
X025886Y012359D01*
Y012595D01*
X025827Y012654D01*
X02565D01*
X026004Y0123D02*
X026122D01*
X026063D01*
Y012654D01*
X026004Y012595D01*
X026299D02*
X026358Y012654D01*
X026477D01*
X026536Y012595D01*
Y012359D01*
X026477Y0123D01*
X026358D01*
X026299Y012359D01*
Y012595D01*
X0224Y005604D02*
Y00525D01*
X022577D01*
X022636Y005309D01*
Y005545D01*
X022577Y005604D01*
X0224D01*
X022754Y00525D02*
X022872D01*
X022813D01*
Y005604D01*
X022754Y005545D01*
X023049Y00525D02*
X023167D01*
X023108D01*
Y005604D01*
X023049Y005545D01*
X0225Y00625D02*
Y006486D01*
X022618Y006604D01*
X022736Y006486D01*
Y00625D01*
Y006427D01*
X0225D01*
X022854Y00625D02*
X022972D01*
X022913D01*
Y006604D01*
X022854Y006545D01*
X0225Y007604D02*
Y00725D01*
X022677D01*
X022736Y007309D01*
Y007545D01*
X022677Y007604D01*
X0225D01*
X02309D02*
X022854D01*
Y007427D01*
X022972Y007486D01*
X023031D01*
X02309Y007427D01*
Y007309D01*
X023031Y00725D01*
X022913D01*
X022854Y007309D01*
X02245Y008654D02*
Y0083D01*
X022627D01*
X022686Y008359D01*
Y008595D01*
X022627Y008654D01*
X02245D01*
X022981Y0083D02*
Y008654D01*
X022804Y008477D01*
X02304D01*
X02245Y009604D02*
Y00925D01*
X022627D01*
X022686Y009309D01*
Y009545D01*
X022627Y009604D01*
X02245D01*
X022804Y00925D02*
X022922D01*
X022863D01*
Y009604D01*
X022804Y009545D01*
X0224Y010654D02*
Y0103D01*
X022577D01*
X022636Y010359D01*
Y010595D01*
X022577Y010654D01*
X0224D01*
X022754Y010595D02*
X022813Y010654D01*
X022931D01*
X02299Y010595D01*
Y010359D01*
X022931Y0103D01*
X022813D01*
X022754Y010359D01*
Y010595D01*
X0222Y011654D02*
Y011418D01*
X022318Y0113D01*
X022436Y011418D01*
Y011654D01*
X022554Y0113D02*
X022672D01*
X022613D01*
Y011536D01*
X022554D01*
X022849Y0113D02*
Y011536D01*
X023026D01*
X023086Y011477D01*
Y0113D01*
X0222Y01225D02*
Y012604D01*
X022377D01*
X022436Y012545D01*
Y012427D01*
X022377Y012368D01*
X0222D01*
X022318D02*
X022436Y01225D01*
X02279Y012545D02*
X022731Y012604D01*
X022613D01*
X022554Y012545D01*
Y012486D01*
X022613Y012427D01*
X022731D01*
X02279Y012368D01*
Y012309D01*
X022731Y01225D01*
X022613D01*
X022554Y012309D01*
X022908Y012604D02*
X023145D01*
X023026D01*
Y01225D01*
X0027Y009854D02*
Y0095D01*
X002877D01*
X002936Y009559D01*
Y009795D01*
X002877Y009854D01*
X0027D01*
X00329D02*
X003172Y009795D01*
X003054Y009677D01*
Y009559D01*
X003113Y0095D01*
X003231D01*
X00329Y009559D01*
Y009618D01*
X003231Y009677D01*
X003054D01*
X00265Y0165D02*
Y016736D01*
X002768Y016854D01*
X002886Y016736D01*
Y0165D01*
Y016677D01*
X00265D01*
X00324Y0165D02*
X003004D01*
X00324Y016736D01*
Y016795D01*
X003181Y016854D01*
X003063D01*
X003004Y016795D01*
X0225Y003045D02*
X022559Y003104D01*
X022677D01*
X022736Y003045D01*
Y002986D01*
X022677Y002927D01*
X022618D01*
X022677D01*
X022736Y002868D01*
Y002809D01*
X022677Y00275D01*
X022559D01*
X0225Y002809D01*
X022854Y003104D02*
Y002868D01*
X022972Y00275D01*
X02309Y002868D01*
Y003104D01*
X023208Y003045D02*
X023267Y003104D01*
X023386D01*
X023445Y003045D01*
Y002986D01*
X023386Y002927D01*
X023326D01*
X023386D01*
X023445Y002868D01*
Y002809D01*
X023386Y00275D01*
X023267D01*
X023208Y002809D01*
X0256Y003104D02*
Y00275D01*
X025777D01*
X025836Y002809D01*
Y003045D01*
X025777Y003104D01*
X0256D01*
X025954Y003045D02*
X026013Y003104D01*
X026131D01*
X02619Y003045D01*
Y002986D01*
X026131Y002927D01*
X026072D01*
X026131D01*
X02619Y002868D01*
Y002809D01*
X026131Y00275D01*
X026013D01*
X025954Y002809D01*
X0246Y003104D02*
Y00275D01*
X024777D01*
X024836Y002809D01*
Y003045D01*
X024777Y003104D01*
X0246D01*
X02519Y00275D02*
X024954D01*
X02519Y002986D01*
Y003045D01*
X025131Y003104D01*
X025013D01*
X024954Y003045D01*
X025036Y014995D02*
X024977Y015054D01*
X024859D01*
X0248Y014995D01*
Y014759D01*
X024859Y0147D01*
X024977D01*
X025036Y014759D01*
Y014877D01*
X024918D01*
X025154Y0147D02*
Y015054D01*
X02539Y0147D01*
Y015054D01*
X025508D02*
Y0147D01*
X025686D01*
X025745Y014759D01*
Y014995D01*
X025686Y015054D01*
X025508D01*
X0238D02*
Y0147D01*
X023977D01*
X024036Y014759D01*
Y014995D01*
X023977Y015054D01*
X0238D01*
X02439D02*
X024272Y014995D01*
X024154Y014877D01*
Y014759D01*
X024213Y0147D01*
X024331D01*
X02439Y014759D01*
Y014818D01*
X024331Y014877D01*
X024154D01*
X022486Y015104D02*
X02225D01*
Y014927D01*
X022368Y014986D01*
X022427D01*
X022486Y014927D01*
Y014809D01*
X022427Y01475D01*
X022309D01*
X02225Y014809D01*
X022604Y015104D02*
Y014868D01*
X022722Y01475D01*
X02284Y014868D01*
Y015104D01*
X0234Y017194D02*
Y0168D01*
X023597D01*
X023662Y016866D01*
Y017128D01*
X023597Y017194D01*
X0234D01*
X023794D02*
Y0168D01*
Y016997D01*
X024056D01*
Y017194D01*
Y0168D01*
X024187Y017194D02*
X02445D01*
X024318D01*
Y0168D01*
X024581D02*
X024712D01*
X024646D01*
Y017194D01*
X024581Y017128D01*
X024909Y0168D02*
X02504D01*
X024974D01*
Y017194D01*
X024909Y017128D01*
X0277Y01675D02*
Y017144D01*
X027831Y017012D01*
X027962Y017144D01*
Y01675D01*
X028356Y016816D02*
Y017078D01*
X02829Y017144D01*
X028159D01*
X028094Y017078D01*
Y016816D01*
X028159Y01675D01*
X02829D01*
X028225Y016881D02*
X028356Y01675D01*
X02829D02*
X028356Y016816D01*
X028487Y01675D02*
X028618D01*
X028553D01*
Y017144D01*
X028487Y017078D01*
X028815D02*
X028881Y017144D01*
X029012D01*
X029078Y017078D01*
Y017012D01*
X029012Y016947D01*
X028946D01*
X029012D01*
X029078Y016881D01*
Y016816D01*
X029012Y01675D01*
X028881D01*
X028815Y016816D01*
X029471Y017144D02*
X029209D01*
Y016947D01*
X02934Y017012D01*
X029405D01*
X029471Y016947D01*
Y016816D01*
X029405Y01675D01*
X029274D01*
X029209Y016816D01*
X026786Y015104D02*
X02655D01*
Y014927D01*
X026668Y014986D01*
X026727D01*
X026786Y014927D01*
Y014809D01*
X026727Y01475D01*
X026609D01*
X02655Y014809D01*
X026904Y015104D02*
Y014868D01*
X027022Y01475D01*
X02714Y014868D01*
Y015104D01*
X027736Y015045D02*
X027677Y015104D01*
X027559D01*
X0275Y015045D01*
Y014809D01*
X027559Y01475D01*
X027677D01*
X027736Y014809D01*
Y014927D01*
X027618D01*
X027854Y01475D02*
Y015104D01*
X02809Y01475D01*
Y015104D01*
X028208D02*
Y01475D01*
X028386D01*
X028445Y014809D01*
Y015045D01*
X028386Y015104D01*
X028208D01*
X02975Y01465D02*
Y014886D01*
X029868Y015004D01*
X029986Y014886D01*
Y01465D01*
Y014827D01*
X02975D01*
X03034Y01465D02*
X030104D01*
X03034Y014886D01*
Y014945D01*
X030281Y015004D01*
X030163D01*
X030104Y014945D01*
X028325Y0083D02*
X028719D01*
Y008497D01*
X028653Y008562D01*
X028391D01*
X028325Y008497D01*
Y0083D01*
X028719Y00889D02*
Y008759D01*
X028653Y008694D01*
X028522D01*
X028456Y008759D01*
Y00889D01*
X028522Y008956D01*
X028588D01*
Y008694D01*
X028325Y009087D02*
X028719D01*
Y009284D01*
X028653Y00935D01*
X028588D01*
X028522D01*
X028456Y009284D01*
Y009087D01*
Y009481D02*
X028653D01*
X028719Y009546D01*
Y009743D01*
X028456D01*
X02885Y010005D02*
Y010071D01*
X028784Y010137D01*
X028456D01*
Y00994D01*
X028522Y009874D01*
X028653D01*
X028719Y00994D01*
Y010137D01*
X03045Y007604D02*
Y007368D01*
X030568Y00725D01*
X030686Y007368D01*
Y007604D01*
X030804D02*
Y00725D01*
X030981D01*
X03104Y007309D01*
Y007545D01*
X030981Y007604D01*
X030804D01*
X031158D02*
Y00725D01*
X031336D01*
X031395Y007309D01*
Y007545D01*
X031336Y007604D01*
X031158D01*
X03045Y00825D02*
Y008604D01*
X030627D01*
X030686Y008545D01*
Y008427D01*
X030627Y008368D01*
X03045D01*
X030568D02*
X030686Y00825D01*
X030804Y008604D02*
X03104Y00825D01*
Y008604D02*
X030804Y00825D01*
X031158D02*
X031277D01*
X031217D01*
Y008604D01*
X031158Y008545D01*
X03035Y009654D02*
X030586D01*
X030468D01*
Y0093D01*
X030704Y009654D02*
X03094Y0093D01*
Y009654D02*
X030704Y0093D01*
X031058D02*
X031177D01*
X031117D01*
Y009654D01*
X031058Y009595D01*
X030636Y010595D02*
X030577Y010654D01*
X030459D01*
X0304Y010595D01*
Y010359D01*
X030459Y0103D01*
X030577D01*
X030636Y010359D01*
Y010477D01*
X030518D01*
X030754Y0103D02*
Y010654D01*
X03099Y0103D01*
Y010654D01*
X031108D02*
Y0103D01*
X031286D01*
X031345Y010359D01*
Y010595D01*
X031286Y010654D01*
X031108D01*
X030812Y003194D02*
X03055D01*
Y002997D01*
X030681Y003062D01*
X030747D01*
X030812Y002997D01*
Y002866D01*
X030747Y0028D01*
X030616D01*
X03055Y002866D01*
X030944Y003194D02*
Y002931D01*
X031075Y0028D01*
X031206Y002931D01*
Y003194D01*
X029586Y003095D02*
X029527Y003154D01*
X029409D01*
X02935Y003095D01*
Y002859D01*
X029409Y0028D01*
X029527D01*
X029586Y002859D01*
Y002977D01*
X029468D01*
X029704Y0028D02*
Y003154D01*
X02994Y0028D01*
Y003154D01*
X030058D02*
Y0028D01*
X030236D01*
X030295Y002859D01*
Y003095D01*
X030236Y003154D01*
X030058D01*
X02835Y003194D02*
X028612D01*
X028481D01*
Y0028D01*
X029006D02*
X028744D01*
X029006Y003062D01*
Y003128D01*
X02894Y003194D01*
X028809D01*
X028744Y003128D01*
X02735Y0028D02*
Y003194D01*
X027547D01*
X027612Y003128D01*
Y002997D01*
X027547Y002931D01*
X02735D01*
X027481D02*
X027612Y0028D01*
X028006D02*
X027744D01*
X028006Y003062D01*
Y003128D01*
X02794Y003194D01*
X027809D01*
X027744Y003128D01*
X028712Y001028D02*
X028647Y001094D01*
X028516D01*
X02845Y001028D01*
Y000962D01*
X028516Y000897D01*
X028647D01*
X028712Y000831D01*
Y000766D01*
X028647Y0007D01*
X028516D01*
X02845Y000766D01*
X028844Y001094D02*
Y0007D01*
X02904D01*
X029106Y000766D01*
Y001028D01*
X02904Y001094D01*
X028844D01*
X0295Y001028D02*
X029434Y001094D01*
X029303D01*
X029237Y001028D01*
Y000962D01*
X029303Y000897D01*
X029434D01*
X0295Y000831D01*
Y000766D01*
X029434Y0007D01*
X029303D01*
X029237Y000766D01*
X029631Y001028D02*
X029696Y001094D01*
X029828D01*
X029893Y001028D01*
Y000766D01*
X029828Y0007D01*
X029696D01*
X029631Y000766D01*
Y001028D01*
X030024Y0007D02*
X030155D01*
X03009D01*
Y001094D01*
X030024Y001028D01*
X030352Y0007D02*
X030483D01*
X030418D01*
Y001094D01*
X030352Y001028D01*
X022912Y001044D02*
X022847Y001109D01*
X022716D01*
X02265Y001044D01*
Y000978D01*
X022716Y000912D01*
X022847D01*
X022912Y000847D01*
Y000781D01*
X022847Y000716D01*
X022716D01*
X02265Y000781D01*
X023306Y001044D02*
X02324Y001109D01*
X023109D01*
X023044Y001044D01*
Y000781D01*
X023109Y000716D01*
X02324D01*
X023306Y000781D01*
Y000912D01*
X023175D01*
X023437Y000716D02*
Y001109D01*
X023634D01*
X0237Y001044D01*
Y000912D01*
X023634Y000847D01*
X023437D01*
X023831Y001044D02*
X023896Y001109D01*
X024028D01*
X024093Y001044D01*
Y000978D01*
X024028Y000912D01*
X023962D01*
X024028D01*
X024093Y000847D01*
Y000781D01*
X024028Y000716D01*
X023896D01*
X023831Y000781D01*
X024224Y001044D02*
X02429Y001109D01*
X024421D01*
X024487Y001044D01*
Y000781D01*
X024421Y000716D01*
X02429D01*
X024224Y000781D01*
Y001044D01*
X024618Y00065D02*
X02488D01*
X025011Y001109D02*
X025143D01*
X025077D01*
Y000716D01*
X025011D01*
X025143D01*
X025602D02*
X025339D01*
X025602Y000978D01*
Y001044D01*
X025536Y001109D01*
X025405D01*
X025339Y001044D01*
X025995D02*
X02593Y001109D01*
X025799D01*
X025733Y001044D01*
Y000781D01*
X025799Y000716D01*
X02593D01*
X025995Y000781D01*
M02*
