M48
;Layer_Color=9474304
;FILE_FORMAT=2:4
INCH,LZ
;TYPE=PLATED
T1F00S00C0.0157
T2F00S00C0.0280
T3F00S00C0.0433
T4F00S00C0.1181
%
T01
X0233Y0032
X022725Y00385
X02235Y004492
X02175Y00685
X021772Y007681
X02175Y0081
X0218Y008628
X0243Y013298
X02325Y0149
X021748Y007267
X0102Y00845
X00875Y00795
X006983Y007917
X0069Y0136
X008092Y013619
X005057Y007293
T02
X02395Y00345
X0258
T03
X0018Y0013
Y0023
Y0033
Y0043
X02065Y0044
Y0034
Y0024
Y0014
X0229Y002
X0239
X0249
X0259
X02785
X02885
X02985
X03085
X02965Y0075
Y0085
Y0095
Y0105
X0249Y0104
X0239
Y0114
Y0124
X0249
Y0114
Y0094
X0239
Y0084
Y0074
Y0064
Y0054
X0249
Y0064
Y0074
Y0084
X0251Y01585
X0241
X0231
X027
X028
X029
X03
X02065Y0162
Y0152
Y0142
Y0132
Y0122
Y0112
Y0102
Y0092
Y0082
Y0064
Y0054
X0018Y0053
Y0063
Y0073
Y0083
Y0097
Y0107
Y0117
Y0127
Y0137
Y0147
Y0157
Y0167
T04
X02735Y0044
Y0135
M30
