G04*
G04 #@! TF.GenerationSoftware,Altium Limited,Altium Designer,21.0.8 (223)*
G04*
G04 Layer_Color=128*
%FSTAX24Y24*%
%MOIN*%
G70*
G04*
G04 #@! TF.SameCoordinates,CEE82333-CCAB-4651-B785-5805AFDC4109*
G04*
G04*
G04 #@! TF.FilePolarity,Positive*
G04*
G01*
G75*
%ADD27C,0.0020*%
D27*
X029433Y0105D02*
X029867D01*
X02965Y010283D02*
Y010717D01*
X029433Y0095D02*
X029867D01*
X02965Y009283D02*
Y009717D01*
X029433Y0085D02*
X029867D01*
X02965Y008283D02*
Y008717D01*
X029433Y0075D02*
X029867D01*
X02965Y007283D02*
Y007717D01*
X030633Y002D02*
X031067D01*
X03085Y001783D02*
Y002217D01*
X029633Y002D02*
X030067D01*
X02985Y001783D02*
Y002217D01*
X028633Y002D02*
X029067D01*
X02885Y001783D02*
Y002217D01*
X027633Y002D02*
X028067D01*
X02785Y001783D02*
Y002217D01*
X024883Y01585D02*
X025317D01*
X0251Y015633D02*
Y016067D01*
X023883Y01585D02*
X024317D01*
X0241Y015633D02*
Y016067D01*
X022883Y01585D02*
X023317D01*
X0231Y015633D02*
Y016067D01*
X020433Y0064D02*
X020867D01*
X02065Y006183D02*
Y006617D01*
X020433Y0054D02*
X020867D01*
X02065Y005183D02*
Y005617D01*
X020433Y0044D02*
X020867D01*
X02065Y004183D02*
Y004617D01*
X020433Y0034D02*
X020867D01*
X02065Y003183D02*
Y003617D01*
X020433Y0024D02*
X020867D01*
X02065Y002183D02*
Y002617D01*
X020433Y0014D02*
X020867D01*
X02065Y001183D02*
Y001617D01*
X022683Y002D02*
X023117D01*
X0229Y001783D02*
Y002217D01*
X023683Y002D02*
X024117D01*
X0239Y001783D02*
Y002217D01*
X024683Y002D02*
X025117D01*
X0249Y001783D02*
Y002217D01*
X025683Y002D02*
X026117D01*
X0259Y001783D02*
Y002217D01*
X001583Y0083D02*
X002017D01*
X0018Y008083D02*
Y008517D01*
X001583Y0073D02*
X002017D01*
X0018Y007083D02*
Y007517D01*
X001583Y0063D02*
X002017D01*
X0018Y006083D02*
Y006517D01*
X001583Y0053D02*
X002017D01*
X0018Y005083D02*
Y005517D01*
X001583Y0043D02*
X002017D01*
X0018Y004083D02*
Y004517D01*
X001583Y0033D02*
X002017D01*
X0018Y003083D02*
Y003517D01*
X001583Y0023D02*
X002017D01*
X0018Y002083D02*
Y002517D01*
X001583Y0013D02*
X002017D01*
X0018Y001083D02*
Y001517D01*
X026783Y01585D02*
X027217D01*
X027Y015633D02*
Y016067D01*
X027783Y01585D02*
X028217D01*
X028Y015633D02*
Y016067D01*
X028783Y01585D02*
X029217D01*
X029Y015633D02*
Y016067D01*
X029783Y01585D02*
X030217D01*
X03Y015633D02*
Y016067D01*
X001583Y0097D02*
X002017D01*
X0018Y009483D02*
Y009917D01*
X001583Y0107D02*
X002017D01*
X0018Y010483D02*
Y010917D01*
X001583Y0117D02*
X002017D01*
X0018Y011483D02*
Y011917D01*
X001583Y0127D02*
X002017D01*
X0018Y012483D02*
Y012917D01*
X001583Y0137D02*
X002017D01*
X0018Y013483D02*
Y013917D01*
X001583Y0147D02*
X002017D01*
X0018Y014483D02*
Y014917D01*
X001583Y0157D02*
X002017D01*
X0018Y015483D02*
Y015917D01*
X001583Y0167D02*
X002017D01*
X0018Y016483D02*
Y016917D01*
X020433Y0152D02*
X020867D01*
X02065Y014983D02*
Y015417D01*
X020433Y0082D02*
X020867D01*
X02065Y007983D02*
Y008417D01*
X020433Y0092D02*
X020867D01*
X02065Y008983D02*
Y009417D01*
X020433Y0102D02*
X020867D01*
X02065Y009983D02*
Y010417D01*
X020433Y0112D02*
X020867D01*
X02065Y010983D02*
Y011417D01*
X020433Y0122D02*
X020867D01*
X02065Y011983D02*
Y012417D01*
X020433Y0132D02*
X020867D01*
X02065Y012983D02*
Y013417D01*
X020433Y0142D02*
X020867D01*
X02065Y013983D02*
Y014417D01*
X020433Y0162D02*
X020867D01*
X02065Y015983D02*
Y016417D01*
X023683Y0124D02*
X024117D01*
X0239Y012183D02*
Y012617D01*
X023683Y0114D02*
X024117D01*
X0239Y011183D02*
Y011617D01*
X023683Y0104D02*
X024117D01*
X0239Y010183D02*
Y010617D01*
X023683Y0094D02*
X024117D01*
X0239Y009183D02*
Y009617D01*
X023683Y0084D02*
X024117D01*
X0239Y008183D02*
Y008617D01*
X023683Y0074D02*
X024117D01*
X0239Y007183D02*
Y007617D01*
X023683Y0064D02*
X024117D01*
X0239Y006183D02*
Y006617D01*
X023683Y0054D02*
X024117D01*
X0239Y005183D02*
Y005617D01*
X024683Y0054D02*
X025117D01*
X0249Y005183D02*
Y005617D01*
X024683Y0064D02*
X025117D01*
X0249Y006183D02*
Y006617D01*
X024683Y0074D02*
X025117D01*
X0249Y007183D02*
Y007617D01*
X024683Y0084D02*
X025117D01*
X0249Y008183D02*
Y008617D01*
X024683Y0094D02*
X025117D01*
X0249Y009183D02*
Y009617D01*
X024683Y0104D02*
X025117D01*
X0249Y010183D02*
Y010617D01*
X024683Y0114D02*
X025117D01*
X0249Y011183D02*
Y011617D01*
X024683Y0124D02*
X025117D01*
X0249Y012183D02*
Y012617D01*
X026759Y0044D02*
X027941D01*
X02735Y003809D02*
Y004991D01*
X026759Y0135D02*
X027941D01*
X02735Y012909D02*
Y014091D01*
X006821Y0136D02*
X006979D01*
X0069Y013521D02*
Y013679D01*
X023171Y0149D02*
X023329D01*
X02325Y014821D02*
Y014979D01*
X024221Y013298D02*
X024379D01*
X0243Y013219D02*
Y013377D01*
X008013Y013619D02*
X008171D01*
X008092Y01354D02*
Y013698D01*
X008671Y00795D02*
X008829D01*
X00875Y007871D02*
Y008029D01*
X006904Y007917D02*
X007061D01*
X006983Y007839D02*
Y007996D01*
X004979Y007293D02*
X005136D01*
X005057Y007214D02*
Y007371D01*
X010121Y00845D02*
X010279D01*
X0102Y008371D02*
Y008529D01*
X021671Y00685D02*
X021829D01*
X02175Y006771D02*
Y006929D01*
X021669Y007267D02*
X021827D01*
X021748Y007188D02*
Y007346D01*
X021693Y007681D02*
X021851D01*
X021772Y007603D02*
Y00776D01*
X021671Y0081D02*
X021829D01*
X02175Y008021D02*
Y008179D01*
X021721Y008628D02*
X021879D01*
X0218Y008549D02*
Y008706D01*
X022647Y00385D02*
X022804D01*
X022725Y003771D02*
Y003929D01*
X022271Y004492D02*
X022429D01*
X02235Y004413D02*
Y004571D01*
X023221Y0032D02*
X023379D01*
X0233Y003121D02*
Y003279D01*
X02381Y00345D02*
X02409D01*
X02395Y00331D02*
Y00359D01*
X02566Y00345D02*
X02594D01*
X0258Y00331D02*
Y00359D01*
M02*
