G04*
G04 #@! TF.GenerationSoftware,Altium Limited,Altium Designer,21.0.8 (223)*
G04*
G04 Layer_Color=128*
%FSTAX24Y24*%
%MOIN*%
G70*
G04*
G04 #@! TF.SameCoordinates,1A30FD0F-2F50-4216-9531-F08C28C5B71E*
G04*
G04*
G04 #@! TF.FilePolarity,Positive*
G04*
G01*
G75*
G36*
X027956Y01082D02*
X027964Y01082D01*
X027973Y010818D01*
X027982Y010817D01*
X02799Y010815D01*
X027999Y010812D01*
X028007Y010809D01*
X028015Y010806D01*
X028023Y010802D01*
X028031Y010798D01*
X028038Y010793D01*
X028045Y010789D01*
X028052Y010783D01*
X028059Y010777D01*
X028065Y010771D01*
X028071Y010765D01*
X028077Y010758D01*
X028082Y010752D01*
X028087Y010744D01*
X028092Y010737D01*
X028096Y010729D01*
X0281Y010721D01*
X028103Y010713D01*
X028106Y010705D01*
X028108Y010696D01*
X028111Y010688D01*
X028112Y010679D01*
X028113Y010671D01*
X028114Y010662D01*
X028114Y010653D01*
X028114Y010644D01*
X028113Y010636D01*
X028112Y010627D01*
X028111Y010618D01*
X028108Y01061D01*
X028106Y010601D01*
X028103Y010593D01*
X0281Y010585D01*
X028096Y010577D01*
X028092Y010569D01*
X028087Y010562D01*
X028082Y010555D01*
X028077Y010548D01*
X028071Y010541D01*
X028065Y010535D01*
X028059Y010529D01*
X028052Y010523D01*
X028045Y010518D01*
X028038Y010513D01*
X028031Y010508D01*
X028023Y010504D01*
X028015Y0105D01*
X028007Y010497D01*
X027999Y010494D01*
X02799Y010492D01*
X027982Y010489D01*
X027973Y010488D01*
X027964Y010487D01*
X027956Y010486D01*
X027947Y010486D01*
X027553D01*
X027544Y010486D01*
X027536Y010487D01*
X027527Y010488D01*
X027518Y010489D01*
X02751Y010492D01*
X027501Y010494D01*
X027493Y010497D01*
X027485Y0105D01*
X027477Y010504D01*
X027469Y010508D01*
X027462Y010513D01*
X027455Y010518D01*
X027448Y010523D01*
X027441Y010529D01*
X027435Y010535D01*
X027429Y010541D01*
X027423Y010548D01*
X027418Y010555D01*
X027413Y010562D01*
X027408Y010569D01*
X027404Y010577D01*
X0274Y010585D01*
X027397Y010593D01*
X027394Y010601D01*
X027392Y01061D01*
X027389Y010618D01*
X027388Y010627D01*
X027387Y010636D01*
X027386Y010644D01*
X027386Y010653D01*
X027386Y010662D01*
X027387Y010671D01*
X027388Y010679D01*
X027389Y010688D01*
X027392Y010696D01*
X027394Y010705D01*
X027397Y010713D01*
X0274Y010721D01*
X027404Y010729D01*
X027408Y010737D01*
X027413Y010744D01*
X027418Y010752D01*
X027423Y010758D01*
X027429Y010765D01*
X027435Y010771D01*
X027441Y010777D01*
X027448Y010783D01*
X027455Y010789D01*
X027462Y010793D01*
X027469Y010798D01*
X027477Y010802D01*
X027485Y010806D01*
X027493Y010809D01*
X027501Y010812D01*
X02751Y010815D01*
X027518Y010817D01*
X027527Y010818D01*
X027536Y01082D01*
X027544Y01082D01*
X027553Y01082D01*
X027947D01*
X027956Y01082D01*
D02*
G37*
G36*
Y013635D02*
X027964Y013635D01*
X027973Y013633D01*
X027982Y013632D01*
X02799Y01363D01*
X027999Y013627D01*
X028007Y013624D01*
X028015Y013621D01*
X028023Y013617D01*
X028031Y013613D01*
X028038Y013608D01*
X028045Y013603D01*
X028052Y013598D01*
X028059Y013592D01*
X028065Y013586D01*
X028071Y01358D01*
X028077Y013573D01*
X028082Y013566D01*
X028087Y013559D01*
X028092Y013552D01*
X028096Y013544D01*
X0281Y013536D01*
X028103Y013528D01*
X028106Y01352D01*
X028108Y013511D01*
X028111Y013503D01*
X028112Y013494D01*
X028113Y013486D01*
X028114Y013477D01*
X028114Y013468D01*
X028114Y013459D01*
X028113Y013451D01*
X028112Y013442D01*
X028111Y013433D01*
X028108Y013425D01*
X028106Y013416D01*
X028103Y013408D01*
X0281Y0134D01*
X028096Y013392D01*
X028092Y013384D01*
X028087Y013377D01*
X028082Y01337D01*
X028077Y013363D01*
X028071Y013356D01*
X028065Y01335D01*
X028059Y013344D01*
X028052Y013338D01*
X028045Y013333D01*
X028038Y013328D01*
X028031Y013323D01*
X028023Y013319D01*
X028015Y013315D01*
X028007Y013312D01*
X027999Y013309D01*
X02799Y013306D01*
X027982Y013304D01*
X027973Y013303D01*
X027964Y013302D01*
X027956Y013301D01*
X027947Y013301D01*
X027553D01*
X027544Y013301D01*
X027536Y013302D01*
X027527Y013303D01*
X027518Y013304D01*
X02751Y013306D01*
X027501Y013309D01*
X027493Y013312D01*
X027485Y013315D01*
X027477Y013319D01*
X027469Y013323D01*
X027462Y013328D01*
X027455Y013333D01*
X027448Y013338D01*
X027441Y013344D01*
X027435Y01335D01*
X027429Y013356D01*
X027423Y013363D01*
X027418Y01337D01*
X027413Y013377D01*
X027408Y013384D01*
X027404Y013392D01*
X0274Y0134D01*
X027397Y013408D01*
X027394Y013416D01*
X027392Y013425D01*
X027389Y013433D01*
X027388Y013442D01*
X027387Y013451D01*
X027386Y013459D01*
X027386Y013468D01*
X027386Y013477D01*
X027387Y013486D01*
X027388Y013494D01*
X027389Y013503D01*
X027392Y013511D01*
X027394Y01352D01*
X027397Y013528D01*
X0274Y013536D01*
X027404Y013544D01*
X027408Y013552D01*
X027413Y013559D01*
X027418Y013566D01*
X027423Y013573D01*
X027429Y01358D01*
X027435Y013586D01*
X027441Y013592D01*
X027448Y013598D01*
X027455Y013603D01*
X027462Y013608D01*
X027469Y013613D01*
X027477Y013617D01*
X027485Y013621D01*
X027493Y013624D01*
X027501Y013627D01*
X02751Y01363D01*
X027518Y013632D01*
X027527Y013633D01*
X027536Y013635D01*
X027544Y013635D01*
X027553Y013635D01*
X027947D01*
X027956Y013635D01*
D02*
G37*
%LPC*%
G36*
X027947Y010722D02*
X027553D01*
X02755Y010722D01*
X027546Y010722D01*
X027542Y010721D01*
X027539Y010721D01*
X027535Y01072D01*
X027532Y010719D01*
X027528Y010717D01*
X027525Y010716D01*
X027522Y010715D01*
X027519Y010713D01*
X027516Y010711D01*
X027513Y010709D01*
X02751Y010707D01*
X027507Y010704D01*
X027504Y010702D01*
X027502Y010699D01*
X0275Y010697D01*
X027497Y010694D01*
X027495Y010691D01*
X027493Y010688D01*
X027492Y010684D01*
X02749Y010681D01*
X027489Y010678D01*
X027488Y010674D01*
X027487Y010671D01*
X027486Y010667D01*
X027485Y010664D01*
X027485Y01066D01*
X027484Y010657D01*
X027484Y010653D01*
X027484Y01065D01*
X027485Y010646D01*
X027485Y010642D01*
X027486Y010639D01*
X027487Y010635D01*
X027488Y010632D01*
X027489Y010628D01*
X02749Y010625D01*
X027492Y010622D01*
X027493Y010619D01*
X027495Y010616D01*
X027497Y010613D01*
X0275Y01061D01*
X027502Y010607D01*
X027504Y010604D01*
X027507Y010602D01*
X02751Y0106D01*
X027513Y010597D01*
X027516Y010595D01*
X027519Y010593D01*
X027522Y010592D01*
X027525Y01059D01*
X027528Y010589D01*
X027532Y010588D01*
X027535Y010587D01*
X027539Y010586D01*
X027542Y010585D01*
X027546Y010585D01*
X02755Y010584D01*
X027553Y010584D01*
X027947D01*
X02795Y010584D01*
X027954Y010585D01*
X027958Y010585D01*
X027961Y010586D01*
X027965Y010587D01*
X027968Y010588D01*
X027972Y010589D01*
X027975Y01059D01*
X027978Y010592D01*
X027981Y010593D01*
X027984Y010595D01*
X027987Y010597D01*
X02799Y0106D01*
X027993Y010602D01*
X027996Y010604D01*
X027998Y010607D01*
X028Y01061D01*
X028003Y010613D01*
X028005Y010616D01*
X028007Y010619D01*
X028008Y010622D01*
X02801Y010625D01*
X028011Y010628D01*
X028012Y010632D01*
X028013Y010635D01*
X028014Y010639D01*
X028015Y010642D01*
X028015Y010646D01*
X028016Y01065D01*
X028016Y010653D01*
X028016Y010657D01*
X028015Y01066D01*
X028015Y010664D01*
X028014Y010667D01*
X028013Y010671D01*
X028012Y010674D01*
X028011Y010678D01*
X02801Y010681D01*
X028008Y010684D01*
X028007Y010688D01*
X028005Y010691D01*
X028003Y010694D01*
X028Y010697D01*
X027998Y010699D01*
X027996Y010702D01*
X027993Y010704D01*
X02799Y010707D01*
X027987Y010709D01*
X027984Y010711D01*
X027981Y010713D01*
X027978Y010715D01*
X027975Y010716D01*
X027972Y010717D01*
X027968Y010719D01*
X027965Y01072D01*
X027961Y010721D01*
X027958Y010721D01*
X027954Y010722D01*
X02795Y010722D01*
X027947Y010722D01*
D02*
G37*
G36*
Y013537D02*
X027553D01*
X02755Y013537D01*
X027546Y013537D01*
X027542Y013536D01*
X027539Y013535D01*
X027535Y013535D01*
X027532Y013534D01*
X027528Y013532D01*
X027525Y013531D01*
X027522Y013529D01*
X027519Y013528D01*
X027516Y013526D01*
X027513Y013524D01*
X02751Y013522D01*
X027507Y013519D01*
X027504Y013517D01*
X027502Y013514D01*
X0275Y013511D01*
X027497Y013509D01*
X027495Y013506D01*
X027493Y013503D01*
X027492Y013499D01*
X02749Y013496D01*
X027489Y013493D01*
X027488Y013489D01*
X027487Y013486D01*
X027486Y013482D01*
X027485Y013479D01*
X027485Y013475D01*
X027484Y013472D01*
X027484Y013468D01*
X027484Y013464D01*
X027485Y013461D01*
X027485Y013457D01*
X027486Y013454D01*
X027487Y01345D01*
X027488Y013447D01*
X027489Y013443D01*
X02749Y01344D01*
X027492Y013437D01*
X027493Y013434D01*
X027495Y013431D01*
X027497Y013428D01*
X0275Y013425D01*
X027502Y013422D01*
X027504Y013419D01*
X027507Y013417D01*
X02751Y013415D01*
X027513Y013412D01*
X027516Y01341D01*
X027519Y013408D01*
X027522Y013407D01*
X027525Y013405D01*
X027528Y013404D01*
X027532Y013403D01*
X027535Y013402D01*
X027539Y013401D01*
X027542Y0134D01*
X027546Y0134D01*
X02755Y013399D01*
X027553Y013399D01*
X027947D01*
X02795Y013399D01*
X027954Y0134D01*
X027958Y0134D01*
X027961Y013401D01*
X027965Y013402D01*
X027968Y013403D01*
X027972Y013404D01*
X027975Y013405D01*
X027978Y013407D01*
X027981Y013408D01*
X027984Y01341D01*
X027987Y013412D01*
X02799Y013415D01*
X027993Y013417D01*
X027996Y013419D01*
X027998Y013422D01*
X028Y013425D01*
X028003Y013428D01*
X028005Y013431D01*
X028007Y013434D01*
X028008Y013437D01*
X02801Y01344D01*
X028011Y013443D01*
X028012Y013447D01*
X028013Y01345D01*
X028014Y013454D01*
X028015Y013457D01*
X028015Y013461D01*
X028016Y013464D01*
X028016Y013468D01*
X028016Y013472D01*
X028015Y013475D01*
X028015Y013479D01*
X028014Y013482D01*
X028013Y013486D01*
X028012Y013489D01*
X028011Y013493D01*
X02801Y013496D01*
X028008Y013499D01*
X028007Y013503D01*
X028005Y013506D01*
X028003Y013509D01*
X028Y013511D01*
X027998Y013514D01*
X027996Y013517D01*
X027993Y013519D01*
X02799Y013522D01*
X027987Y013524D01*
X027984Y013526D01*
X027981Y013528D01*
X027978Y013529D01*
X027975Y013531D01*
X027972Y013532D01*
X027968Y013534D01*
X027965Y013535D01*
X027961Y013535D01*
X027958Y013536D01*
X027954Y013537D01*
X02795Y013537D01*
X027947Y013537D01*
D02*
G37*
%LPD*%
M02*
