G04*
G04 #@! TF.GenerationSoftware,Altium Limited,Altium Designer,21.0.8 (223)*
G04*
G04 Layer_Color=128*
%FSTAX24Y24*%
%MOIN*%
G70*
G04*
G04 #@! TF.SameCoordinates,1A30FD0F-2F50-4216-9531-F08C28C5B71E*
G04*
G04*
G04 #@! TF.FilePolarity,Positive*
G04*
G01*
G75*
%ADD129C,0.0020*%
D129*
X00205Y0058D02*
X00235D01*
X0022Y00565D02*
Y00595D01*
X00205Y00485D02*
X00235D01*
X0022Y0047D02*
Y005D01*
X015783Y0014D02*
X016217D01*
X016Y001183D02*
Y001617D01*
X014783Y0014D02*
X015217D01*
X015Y001183D02*
Y001617D01*
X013783Y0014D02*
X014217D01*
X014Y001183D02*
Y001617D01*
X012783Y0014D02*
X013217D01*
X013Y001183D02*
Y001617D01*
X011783Y0014D02*
X012217D01*
X012Y001183D02*
Y001617D01*
X000559Y0011D02*
X001741D01*
X00115Y000509D02*
Y001691D01*
X044909Y02675D02*
X046091D01*
X0455Y026159D02*
Y027341D01*
X044909Y0011D02*
X046091D01*
X0455Y000509D02*
Y001691D01*
X003255Y0251D02*
X003845D01*
X00355Y024805D02*
Y025395D01*
X033233Y00125D02*
X033667D01*
X03345Y001033D02*
Y001467D01*
X032233Y00125D02*
X032667D01*
X03245Y001033D02*
Y001467D01*
X031233Y00125D02*
X031667D01*
X03145Y001033D02*
Y001467D01*
X030233Y00125D02*
X030667D01*
X03045Y001033D02*
Y001467D01*
X000755Y0251D02*
X001345D01*
X00105Y024805D02*
Y025395D01*
X002255Y0231D02*
X002845D01*
X00255Y022805D02*
Y023395D01*
X024183Y02655D02*
X024617D01*
X0244Y026333D02*
Y026767D01*
X027758Y012572D02*
X027915D01*
X027837Y012494D02*
Y012651D01*
X027364Y012317D02*
X027522D01*
X027443Y012238D02*
Y012395D01*
X027758Y012061D02*
X027915D01*
X027837Y011982D02*
Y012139D01*
X027364Y011805D02*
X027522D01*
X027443Y011726D02*
Y011883D01*
X027758Y011549D02*
X027915D01*
X027837Y01147D02*
Y011628D01*
X027681Y013468D02*
X027819D01*
X02775Y013399D02*
Y013537D01*
X027681Y010653D02*
X027819D01*
X02775Y010584D02*
Y010722D01*
X001983Y00385D02*
X002417D01*
X0022Y003633D02*
Y004067D01*
X001983Y00285D02*
X002417D01*
X0022Y002633D02*
Y003067D01*
X001983Y00825D02*
X002417D01*
X0022Y008033D02*
Y008467D01*
X001983Y00725D02*
X002417D01*
X0022Y007033D02*
Y007467D01*
X016883Y0207D02*
X017317D01*
X0171Y020483D02*
Y020917D01*
X016883Y0197D02*
X017317D01*
X0171Y019483D02*
Y019917D01*
X016883Y0187D02*
X017317D01*
X0171Y018483D02*
Y018917D01*
X032333Y02655D02*
X032767D01*
X03255Y026333D02*
Y026767D01*
X031333Y02655D02*
X031767D01*
X03155Y026333D02*
Y026767D01*
X030333Y02655D02*
X030767D01*
X03055Y026333D02*
Y026767D01*
X029333Y02655D02*
X029767D01*
X02955Y026333D02*
Y026767D01*
X044433Y00305D02*
X044867D01*
X04465Y002833D02*
Y003267D01*
X03781Y00455D02*
X03817D01*
X03799Y00437D02*
Y00473D01*
X03683Y00455D02*
X03719D01*
X03701Y00437D02*
Y00473D01*
X03582Y00455D02*
X03618D01*
X036Y00437D02*
Y00473D01*
X038683Y02065D02*
X039117D01*
X0389Y020433D02*
Y020867D01*
X04123Y00815D02*
X04159D01*
X04141Y00797D02*
Y00833D01*
X04222Y00815D02*
X04258D01*
X0424Y00797D02*
Y00833D01*
X028283Y02655D02*
X028717D01*
X0285Y026333D02*
Y026767D01*
X027283Y02655D02*
X027717D01*
X0275Y026333D02*
Y026767D01*
X026283Y02655D02*
X026717D01*
X0265Y026333D02*
Y026767D01*
X025283Y02655D02*
X025717D01*
X0255Y026333D02*
Y026767D01*
X040233Y0267D02*
X040667D01*
X04045Y026483D02*
Y026917D01*
X041233Y0267D02*
X041667D01*
X04145Y026483D02*
Y026917D01*
X042233Y0267D02*
X042667D01*
X04245Y026483D02*
Y026917D01*
X043233Y0267D02*
X043667D01*
X04345Y026483D02*
Y026917D01*
X037803Y00125D02*
X038197D01*
X038Y001053D02*
Y001447D01*
X036803Y00125D02*
X037197D01*
X037Y001053D02*
Y001447D01*
X035803Y00125D02*
X036197D01*
X036Y001053D02*
Y001447D01*
X044603Y0184D02*
X044997D01*
X0448Y018203D02*
Y018597D01*
X044603Y0194D02*
X044997D01*
X0448Y019203D02*
Y019597D01*
X044603Y0204D02*
X044997D01*
X0448Y020203D02*
Y020597D01*
X044433Y00615D02*
X044867D01*
X04465Y005933D02*
Y006367D01*
X044433Y00515D02*
X044867D01*
X04465Y004933D02*
Y005367D01*
X044433Y00415D02*
X044867D01*
X04465Y003933D02*
Y004367D01*
X004921Y0073D02*
X005079D01*
X005Y007221D02*
Y007379D01*
X033091Y00665D02*
X033209D01*
X03315Y006591D02*
Y006709D01*
X040041Y00755D02*
X040159D01*
X0401Y007491D02*
Y007609D01*
X040197Y008806D02*
X040315D01*
X040256Y008747D02*
Y008865D01*
X029141Y012228D02*
X029259D01*
X0292Y012169D02*
Y012287D01*
X028978Y01305D02*
X029096D01*
X029037Y012991D02*
Y013109D01*
X034773Y010362D02*
X035127D01*
X03495Y010185D02*
Y010539D01*
X036269Y010362D02*
X036623D01*
X036446Y010185D02*
Y010539D01*
X037773Y01036D02*
X038127D01*
X03795Y010183D02*
Y010537D01*
X037765Y011937D02*
X038119D01*
X037942Y01176D02*
Y012114D01*
X037815Y013354D02*
X038169D01*
X037992Y013177D02*
Y013531D01*
X042571Y01285D02*
X042729D01*
X04265Y012771D02*
Y012929D01*
X042121Y012814D02*
X042279D01*
X0422Y012736D02*
Y012893D01*
X041671Y012814D02*
X041829D01*
X04175Y012736D02*
Y012893D01*
X041202Y012815D02*
X041359D01*
X041281Y012736D02*
Y012893D01*
X042521Y013854D02*
X042679D01*
X0426Y013776D02*
Y013933D01*
X042971Y012984D02*
X043129D01*
X04305Y012906D02*
Y013063D01*
X042943Y0137D02*
X0431D01*
X043021Y013621D02*
Y013779D01*
X042071Y01385D02*
X042229D01*
X04215Y013771D02*
Y013929D01*
X041668Y013847D02*
X041826D01*
X041747Y013768D02*
Y013926D01*
X0412Y013838D02*
X041358D01*
X041279Y013759D02*
Y013916D01*
X044821Y0127D02*
X044979D01*
X0449Y012621D02*
Y012779D01*
X044821Y0131D02*
X044979D01*
X0449Y013021D02*
Y013179D01*
X044821Y013516D02*
X044979D01*
X0449Y013437D02*
Y013594D01*
X044821Y01395D02*
X044979D01*
X0449Y013871D02*
Y014029D01*
X043378Y012918D02*
X043536D01*
X043457Y012839D02*
Y012997D01*
X043372Y013784D02*
X04353D01*
X043451Y013706D02*
Y013863D01*
X040276Y012996D02*
X040433D01*
X040354Y012917D02*
Y013074D01*
X040771Y012996D02*
X040929D01*
X04085Y012917D02*
Y013074D01*
X040771Y013704D02*
X040929D01*
X04085Y013626D02*
Y013783D01*
X040271Y013704D02*
X040429D01*
X04035Y013626D02*
Y013783D01*
X044123Y012666D02*
X044281D01*
X044202Y012588D02*
Y012745D01*
X044121Y014D02*
X044279D01*
X0442Y013921D02*
Y014079D01*
X03125Y0156D02*
X031408D01*
X031329Y015521D02*
Y015679D01*
X01391Y010167D02*
X01419D01*
X01405Y010027D02*
Y010307D01*
X01011Y0102D02*
X01039D01*
X01025Y01006D02*
Y01034D01*
X010321Y00945D02*
X010479D01*
X0104Y009371D02*
Y009529D01*
X004871Y00285D02*
X005029D01*
X00495Y002771D02*
Y002929D01*
X010771Y00645D02*
X010929D01*
X01085Y006371D02*
Y006529D01*
X016021Y0035D02*
X016179D01*
X0161Y003421D02*
Y003579D01*
X011721Y00345D02*
X011879D01*
X0118Y003371D02*
Y003529D01*
X009971Y00505D02*
X010129D01*
X01005Y004971D02*
Y005129D01*
X009571Y0042D02*
X009729D01*
X00965Y004121D02*
Y004279D01*
X009271Y0027D02*
X009429D01*
X00935Y002621D02*
Y002779D01*
X010821Y00745D02*
X010979D01*
X0109Y007371D02*
Y007529D01*
X008621Y00785D02*
X008779D01*
X0087Y007771D02*
Y007929D01*
X008771Y003629D02*
X008929D01*
X00885Y00355D02*
Y003707D01*
X008821Y006029D02*
X008979D01*
X0089Y00595D02*
Y006107D01*
X018771Y0053D02*
X018929D01*
X01885Y005221D02*
Y005379D01*
X016641Y00895D02*
X016759D01*
X0167Y008891D02*
Y009009D01*
X024641Y01295D02*
X024759D01*
X0247Y012891D02*
Y013009D01*
X015191Y0075D02*
X015309D01*
X01525Y007441D02*
Y007559D01*
X014711Y00665D02*
X014789D01*
X01475Y006611D02*
Y006689D01*
X015941Y00971D02*
X016059D01*
X016Y009651D02*
Y009769D01*
X015066Y009505D02*
X015224D01*
X015145Y009426D02*
Y009584D01*
X013921Y00705D02*
X014079D01*
X014Y006971D02*
Y007129D01*
X029221Y006216D02*
X029379D01*
X0293Y006137D02*
Y006294D01*
X028686Y003896D02*
X028844D01*
X028765Y003817D02*
Y003974D01*
X022521Y02435D02*
X022679D01*
X0226Y024271D02*
Y024429D01*
X030406Y024885D02*
X030564D01*
X030485Y024806D02*
Y024964D01*
X023051Y025829D02*
X023208D01*
X023129Y025751D02*
Y025908D01*
X025611Y0251D02*
X025768D01*
X02569Y025021D02*
Y025179D01*
X042241Y021581D02*
X042359D01*
X0423Y021522D02*
Y02164D01*
X028671Y02175D02*
X028829D01*
X02875Y021671D02*
Y021829D01*
X031821Y0188D02*
X031979D01*
X0319Y018721D02*
Y018879D01*
X026471Y02175D02*
X026629D01*
X02655Y021671D02*
Y021829D01*
X030821Y02175D02*
X030979D01*
X0309Y021671D02*
Y021829D01*
X027021Y02495D02*
X027179D01*
X0271Y024871D02*
Y025029D01*
X023371Y0219D02*
X023529D01*
X02345Y021821D02*
Y021979D01*
X013971Y0035D02*
X014129D01*
X01405Y003421D02*
Y003579D01*
X008671Y00135D02*
X008829D01*
X00875Y001271D02*
Y001429D01*
X035091Y00555D02*
X035209D01*
X03515Y005491D02*
Y005609D01*
X035121Y0031D02*
X035279D01*
X0352Y003021D02*
Y003179D01*
X035121Y0025D02*
X035279D01*
X0352Y002421D02*
Y002579D01*
X036021Y00755D02*
X036179D01*
X0361Y007471D02*
Y007629D01*
X04546Y0174D02*
X04574D01*
X0456Y01726D02*
Y01754D01*
X040771Y0169D02*
X040929D01*
X04085Y016821D02*
Y016979D01*
X021471Y0208D02*
X021629D01*
X02155Y020721D02*
Y020879D01*
X023821Y01515D02*
X023979D01*
X0239Y015071D02*
Y015229D01*
X040021Y00305D02*
X040179D01*
X0401Y002971D02*
Y003129D01*
X040591Y0047D02*
X040709D01*
X04065Y004641D02*
Y004759D01*
X024421Y007D02*
X024579D01*
X0245Y006921D02*
Y007079D01*
X026307Y006353D02*
X026386D01*
X026347Y006313D02*
Y006392D01*
X020921Y004D02*
X021079D01*
X021Y003921D02*
Y004079D01*
X020271Y00195D02*
X020429D01*
X02035Y001871D02*
Y002029D01*
X021071Y007D02*
X021229D01*
X02115Y006921D02*
Y007079D01*
X030671Y0201D02*
X030829D01*
X03075Y020021D02*
Y020179D01*
X027057Y02005D02*
X027214D01*
X027135Y019971D02*
Y020129D01*
X035971Y0188D02*
X036129D01*
X03605Y018721D02*
Y018879D01*
X034521Y01915D02*
X034679D01*
X0346Y019071D02*
Y019229D01*
X028421Y02005D02*
X028579D01*
X0285Y019971D02*
Y020129D01*
X029141Y01355D02*
X029259D01*
X0292Y013491D02*
Y013609D01*
X037921Y0213D02*
X038079D01*
X038Y021221D02*
Y021379D01*
X038621Y0094D02*
X038779D01*
X0387Y009321D02*
Y009479D01*
X024047Y020824D02*
X024204D01*
X024126Y020746D02*
Y020903D01*
X018771Y0154D02*
X018929D01*
X01885Y015321D02*
Y015479D01*
X018271Y01485D02*
X018429D01*
X01835Y014771D02*
Y014929D01*
X018921Y00785D02*
X019079D01*
X019Y007771D02*
Y007929D01*
X018571Y0256D02*
X018729D01*
X01865Y025521D02*
Y025679D01*
X043821Y0217D02*
X043979D01*
X0439Y021621D02*
Y021779D01*
X039214Y024192D02*
X039371D01*
X039292Y024114D02*
Y024271D01*
X036321Y0242D02*
X036479D01*
X0364Y024121D02*
Y024279D01*
X034471Y0242D02*
X034629D01*
X03455Y024121D02*
Y024279D01*
X037287Y020948D02*
X037444D01*
X037365Y020869D02*
Y021027D01*
X035734Y019563D02*
X035892D01*
X035813Y019484D02*
Y019642D01*
X018321Y0214D02*
X018479D01*
X0184Y021321D02*
Y021479D01*
X015421Y01735D02*
X015579D01*
X0155Y017271D02*
Y017429D01*
X017771Y0174D02*
X017929D01*
X01785Y017321D02*
Y017479D01*
X017771Y01385D02*
X017929D01*
X01785Y013771D02*
Y013929D01*
X027661Y00665D02*
X027739D01*
X0277Y006611D02*
Y006689D01*
X035091Y0065D02*
X035209D01*
X03515Y006441D02*
Y006559D01*
X037993Y002854D02*
X03815D01*
X038071Y002776D02*
Y002933D01*
X034571Y00335D02*
X034729D01*
X03465Y003271D02*
Y003429D01*
X027221Y002D02*
X027379D01*
X0273Y001921D02*
Y002079D01*
X021321Y00195D02*
X021479D01*
X0214Y001871D02*
Y002029D01*
X024371Y01165D02*
X024529D01*
X02445Y011571D02*
Y011729D01*
X024691Y01345D02*
X024809D01*
X02475Y013391D02*
Y013509D01*
X013591Y008D02*
X013709D01*
X01365Y007941D02*
Y008059D01*
X043423Y005585D02*
X04358D01*
X043502Y005506D02*
Y005664D01*
X032691Y00755D02*
X032809D01*
X03275Y007491D02*
Y007609D01*
X030121Y0068D02*
X030279D01*
X0302Y006721D02*
Y006879D01*
X033341Y0075D02*
X033459D01*
X0334Y007441D02*
Y007559D01*
X026921Y01545D02*
X027079D01*
X027Y015371D02*
Y015529D01*
X025769Y0159D02*
X025926D01*
X025848Y015821D02*
Y015979D01*
X040591Y00975D02*
X040709D01*
X04065Y009691D02*
Y009809D01*
X031721Y0039D02*
X031879D01*
X0318Y003821D02*
Y003979D01*
X033621Y01965D02*
X033779D01*
X0337Y019571D02*
Y019729D01*
X034071Y0192D02*
X034229D01*
X03415Y019121D02*
Y019279D01*
X033221Y0201D02*
X033379D01*
X0333Y020021D02*
Y020179D01*
X042371Y01575D02*
X042529D01*
X04245Y015671D02*
Y015829D01*
X038621Y01885D02*
X038779D01*
X0387Y018771D02*
Y018929D01*
X038621Y0071D02*
X038779D01*
X0387Y007021D02*
Y007179D01*
X031773Y01335D02*
X032127D01*
X03195Y013173D02*
Y013527D01*
X031773Y01185D02*
X032127D01*
X03195Y011673D02*
Y012027D01*
X031781Y016346D02*
X032135D01*
X031958Y016169D02*
Y016523D01*
X033171Y02565D02*
X033329D01*
X03325Y025571D02*
Y025729D01*
X005971Y021D02*
X006129D01*
X00605Y020921D02*
Y021079D01*
X043421Y00295D02*
X043579D01*
X0435Y002871D02*
Y003029D01*
X002571Y0119D02*
X002729D01*
X00265Y011821D02*
Y011979D01*
X037521Y007837D02*
X037679D01*
X0376Y007759D02*
Y007916D01*
X025121Y0036D02*
X025279D01*
X0252Y003521D02*
Y003679D01*
X04481Y01065D02*
X04509D01*
X04495Y01051D02*
Y01079D01*
X005771Y0231D02*
X005929D01*
X00585Y023021D02*
Y023179D01*
X012871Y0215D02*
X013029D01*
X01295Y021421D02*
Y021579D01*
X012821Y0256D02*
X012979D01*
X0129Y025521D02*
Y025679D01*
X036273Y01335D02*
X036627D01*
X03645Y013173D02*
Y013527D01*
X037773Y01485D02*
X038127D01*
X03795Y014673D02*
Y015027D01*
X037773Y01635D02*
X038127D01*
X03795Y016173D02*
Y016527D01*
X036273Y01635D02*
X036627D01*
X03645Y016173D02*
Y016527D01*
X034773Y01635D02*
X035127D01*
X03495Y016173D02*
Y016527D01*
X034773Y01485D02*
X035127D01*
X03495Y014673D02*
Y015027D01*
X033273Y01335D02*
X033627D01*
X03345Y013173D02*
Y013527D01*
X034773Y01185D02*
X035127D01*
X03495Y011673D02*
Y012027D01*
X033273Y01035D02*
X033627D01*
X03345Y010173D02*
Y010527D01*
X031773Y0104D02*
X032127D01*
X03195Y010223D02*
Y010577D01*
X031773Y01485D02*
X032127D01*
X03195Y014673D02*
Y015027D01*
X033273Y01635D02*
X033627D01*
X03345Y016173D02*
Y016527D01*
M02*
