G04*
G04 #@! TF.GenerationSoftware,Altium Limited,Altium Designer,21.0.8 (223)*
G04*
G04 Layer_Color=16711935*
%FSTAX24Y24*%
%MOIN*%
G70*
G04*
G04 #@! TF.SameCoordinates,1A30FD0F-2F50-4216-9531-F08C28C5B71E*
G04*
G04*
G04 #@! TF.FilePolarity,Negative*
G04*
G01*
G75*
%ADD88C,0.0680*%
%ADD89C,0.0710*%
%ADD90R,0.0710X0.0710*%
%ADD91R,0.1080X0.1680*%
%ADD92R,0.1680X0.1080*%
%ADD93R,0.0710X0.0710*%
%ADD94C,0.0434*%
%ADD95O,0.0730X0.0980*%
%ADD96O,0.0780X0.0940*%
%ADD97C,0.0780*%
%ADD98R,0.0780X0.0780*%
%ADD99R,0.0780X0.0780*%
G36*
X027346Y010446D02*
Y010859D01*
X028154D01*
Y010446D01*
X027346D01*
D02*
G37*
G36*
X027346Y013261D02*
Y013676D01*
X028154D01*
Y013261D01*
X027346D01*
D02*
G37*
D88*
X0022Y0058D02*
D03*
Y00485D02*
D03*
D89*
X016Y0014D02*
D03*
X015D02*
D03*
X014D02*
D03*
X013D02*
D03*
X03245Y00125D02*
D03*
X03145D02*
D03*
X03045D02*
D03*
X0022Y00385D02*
D03*
Y00825D02*
D03*
X0171Y0207D02*
D03*
Y0197D02*
D03*
X03255Y02655D02*
D03*
X03155D02*
D03*
X03055D02*
D03*
X0285D02*
D03*
X0275D02*
D03*
X0265D02*
D03*
X04045Y0267D02*
D03*
X04145D02*
D03*
X04245D02*
D03*
X04465Y00615D02*
D03*
Y00515D02*
D03*
D90*
X012Y0014D02*
D03*
X03345Y00125D02*
D03*
X02955Y02655D02*
D03*
X04465Y00305D02*
D03*
X0389Y02065D02*
D03*
X0255Y02655D02*
D03*
X04345Y0267D02*
D03*
D91*
X00355Y0251D02*
D03*
X00105D02*
D03*
D92*
X00255Y0231D02*
D03*
D93*
X0244Y02655D02*
D03*
X0022Y00285D02*
D03*
Y00725D02*
D03*
X0171Y0187D02*
D03*
X04465Y00415D02*
D03*
D94*
X027837Y012572D02*
D03*
X027443Y012317D02*
D03*
X027837Y012061D02*
D03*
X027443Y011805D02*
D03*
X027837Y011549D02*
D03*
D95*
X03799Y00455D02*
D03*
X03701D02*
D03*
X036D02*
D03*
D96*
X04141Y00815D02*
D03*
X0424D02*
D03*
D97*
X038Y00125D02*
D03*
X037D02*
D03*
X0448Y0184D02*
D03*
Y0194D02*
D03*
D98*
X036Y00125D02*
D03*
D99*
X0448Y0204D02*
D03*
M02*
