G04*
G04 #@! TF.GenerationSoftware,Altium Limited,Altium Designer,21.0.8 (223)*
G04*
G04 Layer_Color=65535*
%FSTAX24Y24*%
%MOIN*%
G70*
G04*
G04 #@! TF.SameCoordinates,1A30FD0F-2F50-4216-9531-F08C28C5B71E*
G04*
G04*
G04 #@! TF.FilePolarity,Positive*
G04*
G01*
G75*
%ADD10C,0.0079*%
%ADD11C,0.0098*%
%ADD12C,0.0100*%
%ADD13C,0.0118*%
%ADD14C,0.0050*%
%ADD15C,0.0039*%
%ADD16C,0.0070*%
%ADD17C,0.0040*%
G36*
X036Y00399D02*
X03575Y00374D01*
X03625D01*
X036Y00399D01*
D02*
G37*
D10*
X038139Y018862D02*
G03*
X038139Y018862I-000039J0D01*
G01*
X027128Y021914D02*
G03*
X027128Y021914I-000039J0D01*
G01*
X024978D02*
G03*
X024978Y021914I-000039J0D01*
G01*
X029328D02*
G03*
X029328Y021914I-000039J0D01*
G01*
X031528D02*
G03*
X031528Y021914I-000039J0D01*
G01*
X040878Y019164D02*
G03*
X040878Y019164I-000039J0D01*
G01*
X040254Y006012D02*
G03*
X040254Y006012I-000039J0D01*
G01*
X040204Y003762D02*
G03*
X040204Y003762I-000039J0D01*
G01*
X010343Y026289D02*
G03*
X010343Y026289I-000039J0D01*
G01*
X013351Y005286D02*
G03*
X013351Y005286I-000039J0D01*
G01*
X015827Y005268D02*
G03*
X015827Y005268I-000039J0D01*
G01*
X006925Y001138D02*
G03*
X006925Y001138I-000039J0D01*
G01*
Y003388D02*
G03*
X006925Y003388I-000039J0D01*
G01*
Y005888D02*
G03*
X006925Y005888I-000039J0D01*
G01*
X006975Y008388D02*
G03*
X006975Y008388I-000039J0D01*
G01*
X0355Y001D02*
G03*
X0355Y0015I0J00025D01*
G01*
X04455Y0209D02*
G03*
X04505Y0209I00025J0D01*
G01*
X018387Y007648D02*
X019855D01*
X018387D02*
Y010463D01*
X022808Y001152D02*
X023005D01*
Y000758D02*
X024166D01*
X023005D02*
Y001152D01*
X017434Y009841D02*
X018056Y010463D01*
X018387D01*
X024166Y000758D02*
Y009321D01*
X022808Y007648D02*
X023213D01*
X018595Y001152D02*
X019855D01*
X023213Y007648D02*
Y009321D01*
X018595Y000758D02*
Y001152D01*
X017434Y000758D02*
Y009841D01*
Y000758D02*
X018595D01*
X023213Y009321D02*
X024166D01*
X04185Y00046D02*
X04255D01*
X04185Y00184D02*
X04255D01*
X04185Y00046D02*
Y000989D01*
Y001294D02*
Y00184D01*
X04255Y001294D02*
Y00184D01*
Y00046D02*
Y000989D01*
X04285Y001311D02*
Y00184D01*
Y00046D02*
Y001006D01*
X04355Y00046D02*
Y001006D01*
Y001311D02*
Y00184D01*
X04285Y00046D02*
X04355D01*
X04285Y00184D02*
X04355D01*
X02641Y02417D02*
Y02464D01*
X02449D02*
X02641D01*
X02449Y02386D02*
Y02464D01*
X02531Y02399D02*
X02559D01*
X02531Y02452D02*
X02559D01*
X02449Y02386D02*
X02641D01*
Y02417D01*
X02669Y02386D02*
Y02433D01*
Y02386D02*
X02861D01*
Y02464D01*
X02751Y02451D02*
X02779D01*
X02751Y02398D02*
X02779D01*
X02669Y02464D02*
X02861D01*
X02669Y02433D02*
Y02464D01*
X03076Y02417D02*
Y02464D01*
X02884D02*
X03076D01*
X02884Y02386D02*
Y02464D01*
X02966Y02399D02*
X02994D01*
X02966Y02452D02*
X02994D01*
X02884Y02386D02*
X03076D01*
Y02417D01*
X02449Y02076D02*
Y02123D01*
Y02076D02*
X02641D01*
Y02154D01*
X02531Y02141D02*
X02559D01*
X02531Y02088D02*
X02559D01*
X02449Y02154D02*
X02641D01*
X02449Y02123D02*
Y02154D01*
X02669Y02076D02*
Y02123D01*
Y02076D02*
X02861D01*
Y02154D01*
X02751Y02141D02*
X02779D01*
X02751Y02088D02*
X02779D01*
X02669Y02154D02*
X02861D01*
X02669Y02123D02*
Y02154D01*
X02889Y02076D02*
Y02123D01*
Y02076D02*
X03081D01*
Y02154D01*
X02971Y02141D02*
X02999D01*
X02971Y02088D02*
X02999D01*
X02889Y02154D02*
X03081D01*
X02889Y02123D02*
Y02154D01*
X03104Y02076D02*
Y02123D01*
Y02076D02*
X03296D01*
Y02154D01*
X03186Y02141D02*
X03214D01*
X03186Y02088D02*
X03214D01*
X03104Y02154D02*
X03296D01*
X03104Y02123D02*
Y02154D01*
X03099Y02386D02*
Y02433D01*
Y02386D02*
X03291D01*
Y02464D01*
X03181Y02451D02*
X03209D01*
X03181Y02398D02*
X03209D01*
X03099Y02464D02*
X03291D01*
X03099Y02433D02*
Y02464D01*
X03254Y0199D02*
Y0206D01*
X03116Y0199D02*
Y0206D01*
X032011Y0199D02*
X03254D01*
X03116D02*
X031706D01*
X03116Y0206D02*
X031706D01*
X032011D02*
X03254D01*
X023399Y025064D02*
X024099D01*
X023399Y023684D02*
X024099D01*
Y024535D02*
Y025064D01*
Y023684D02*
Y02423D01*
X023399Y023684D02*
Y02423D01*
Y024535D02*
Y025064D01*
X010399Y003864D02*
X011099D01*
X010399Y002484D02*
X011099D01*
Y003335D02*
Y003864D01*
Y002484D02*
Y00303D01*
X010399Y002484D02*
Y00303D01*
Y003335D02*
Y003864D01*
X0115Y0009D02*
Y0019D01*
X0165D01*
X0115Y0009D02*
X0165D01*
Y0019D01*
X0125Y0009D02*
Y0019D01*
X03704Y0028D02*
Y0035D01*
X03566Y0028D02*
Y0035D01*
X036511Y0028D02*
X03704D01*
X03566D02*
X036206D01*
X03566Y0035D02*
X036206D01*
X036511D02*
X03704D01*
X03687Y006689D02*
X03758D01*
X03687Y006144D02*
Y006689D01*
X03758Y006144D02*
Y006689D01*
Y005311D02*
Y005839D01*
X03687Y005311D02*
X03758D01*
X03687D02*
Y005839D01*
X03597Y005311D02*
X03668D01*
Y005856D01*
X03597Y005311D02*
Y005856D01*
Y006161D02*
Y006689D01*
X03668D01*
Y006161D02*
Y006689D01*
X0378Y00531D02*
X0385D01*
X0378Y00669D02*
X0385D01*
X0378Y00531D02*
Y005839D01*
Y006144D02*
Y00669D01*
X0385Y006144D02*
Y00669D01*
Y00531D02*
Y005839D01*
X04194Y0172D02*
Y0179D01*
X04056Y0172D02*
Y0179D01*
X041411Y0172D02*
X04194D01*
X04056D02*
X041106D01*
X04056Y0179D02*
X041106D01*
X041411D02*
X04194D01*
X04411Y0162D02*
Y0169D01*
X04549Y0162D02*
Y0169D01*
X04411D02*
X044639D01*
X044944D02*
X04549D01*
X044944Y0162D02*
X04549D01*
X04411D02*
X044639D01*
X0396Y02124D02*
X0403D01*
X0396Y01986D02*
X0403D01*
Y020711D02*
Y02124D01*
Y01986D02*
Y020406D01*
X0396Y01986D02*
Y020406D01*
Y020711D02*
Y02124D01*
X0104Y00436D02*
X0111D01*
X0104Y00574D02*
X0111D01*
X0104Y00436D02*
Y004889D01*
Y005194D02*
Y00574D01*
X0111Y005194D02*
Y00574D01*
Y00436D02*
Y004889D01*
X04425Y02565D02*
X04484D01*
X04425Y02355D02*
Y02565D01*
Y02355D02*
X04505D01*
X04493Y02446D02*
Y02474D01*
X04436Y02446D02*
Y02474D01*
X04505Y02355D02*
Y02565D01*
X04484D02*
X04505D01*
X020211Y02398D02*
X020739D01*
X020211Y02327D02*
Y02398D01*
Y02327D02*
X020739D01*
X021044D02*
X021589D01*
X021044Y02398D02*
X021589D01*
Y02327D02*
Y02398D01*
X03402Y00454D02*
X03449D01*
Y00646D01*
X03371D02*
X03449D01*
X03384Y00536D02*
Y00564D01*
X03437Y00536D02*
Y00564D01*
X03371Y00454D02*
Y00646D01*
Y00454D02*
X03402D01*
X03175Y0026D02*
Y00281D01*
X02965Y0026D02*
X03175D01*
X03056Y00329D02*
X03084D01*
X03056Y00272D02*
X03084D01*
X02965Y0026D02*
Y0034D01*
X03175D01*
Y00281D02*
Y0034D01*
X029649Y00361D02*
Y00408D01*
Y00361D02*
X031569D01*
Y00439D01*
X030469Y00426D02*
X030749D01*
X030469Y00373D02*
X030749D01*
X029649Y00439D02*
X031569D01*
X029649Y00408D02*
Y00439D01*
X02858Y00361D02*
X02889D01*
Y00169D02*
Y00361D01*
X02823Y00251D02*
Y00279D01*
X02876Y00251D02*
Y00279D01*
X02811Y00169D02*
X02889D01*
X02811D02*
Y00361D01*
X02858D01*
X03953Y00416D02*
X03984D01*
Y00224D02*
Y00416D01*
X03918Y00306D02*
Y00334D01*
X03971Y00306D02*
Y00334D01*
X03906Y00224D02*
X03984D01*
X03906D02*
Y00416D01*
X03953D01*
X03458Y02386D02*
X03489D01*
Y02194D02*
Y02386D01*
X03423Y02276D02*
Y02304D01*
X03476Y02276D02*
Y02304D01*
X03411Y02194D02*
X03489D01*
X03411D02*
Y02386D01*
X03458D01*
X04081Y02301D02*
Y02332D01*
X03889Y02301D02*
X04081D01*
X03971Y02367D02*
X03999D01*
X03971Y02314D02*
X03999D01*
X03889Y02301D02*
Y02379D01*
X04081D01*
Y02332D02*
Y02379D01*
X0389Y0217D02*
Y02229D01*
Y0217D02*
X041D01*
Y0225D01*
X03981Y02238D02*
X04009D01*
X03981Y02181D02*
X04009D01*
X0389Y0225D02*
X041D01*
X0389Y02229D02*
Y0225D01*
X04226Y01899D02*
X04257D01*
X04226D02*
Y02091D01*
X04292Y01981D02*
Y02009D01*
X04239Y01981D02*
Y02009D01*
X04226Y02091D02*
X04304D01*
Y01899D02*
Y02091D01*
X04257Y01899D02*
X04304D01*
X04054Y01853D02*
Y01884D01*
X04246D01*
X04136Y01818D02*
X04164D01*
X04136Y01871D02*
X04164D01*
X04246Y01806D02*
Y01884D01*
X04054Y01806D02*
X04246D01*
X04054D02*
Y01853D01*
X04473Y02331D02*
X04504D01*
Y02139D02*
Y02331D01*
X04438Y02221D02*
Y02249D01*
X04491Y02221D02*
Y02249D01*
X04426Y02139D02*
X04504D01*
X04426D02*
Y02331D01*
X04473D01*
X043369Y02336D02*
Y02367D01*
X041449Y02336D02*
X043369D01*
X042269Y02402D02*
X042549D01*
X042269Y02349D02*
X042549D01*
X041449Y02336D02*
Y02414D01*
X043369D01*
Y02367D02*
Y02414D01*
X04155Y02465D02*
Y02524D01*
Y02465D02*
X04365D01*
Y02545D01*
X04246Y02533D02*
X04274D01*
X04246Y02476D02*
X04274D01*
X04155Y02545D02*
X04365D01*
X04155Y02524D02*
Y02545D01*
X023511Y02013D02*
X024039D01*
X023511Y01942D02*
Y02013D01*
Y01942D02*
X024039D01*
X024344D02*
X024889D01*
X024344Y02013D02*
X024889D01*
Y01942D02*
Y02013D01*
X020561Y02023D02*
X021089D01*
X020561Y01952D02*
Y02023D01*
Y01952D02*
X021089D01*
X021394D02*
X021939D01*
X021394Y02023D02*
X021939D01*
Y01952D02*
Y02023D01*
X01963Y01811D02*
X01994D01*
Y01619D02*
Y01811D01*
X01928Y01701D02*
Y01729D01*
X01981Y01701D02*
Y01729D01*
X01916Y01619D02*
X01994D01*
X01916D02*
Y01811D01*
X01963D01*
X02608Y01806D02*
X02639D01*
Y01614D02*
Y01806D01*
X02573Y01696D02*
Y01724D01*
X02626Y01696D02*
Y01724D01*
X02561Y01614D02*
X02639D01*
X02561D02*
Y01806D01*
X02608D01*
X024411Y01617D02*
X024939D01*
Y01688D01*
X024411D02*
X024939D01*
X023561D02*
X024106D01*
X023561Y01617D02*
X024106D01*
X023561D02*
Y01688D01*
X020661Y01693D02*
X021189D01*
X020661Y01622D02*
Y01693D01*
Y01622D02*
X021189D01*
X021494D02*
X022039D01*
X021494Y01693D02*
X022039D01*
Y01622D02*
Y01693D01*
X02195Y01085D02*
Y01144D01*
Y01085D02*
X02405D01*
Y01165D01*
X02286Y01153D02*
X02314D01*
X02286Y01096D02*
X02314D01*
X02195Y01165D02*
X02405D01*
X02195Y01144D02*
Y01165D01*
X042061Y01297D02*
X042589D01*
Y01368D01*
X042061D02*
X042589D01*
X041211D02*
X041756D01*
X041211Y01297D02*
X041756D01*
X041211D02*
Y01368D01*
X04205Y01175D02*
X04264D01*
X04205Y00965D02*
Y01175D01*
Y00965D02*
X04285D01*
X04273Y01056D02*
Y01084D01*
X04216Y01056D02*
Y01084D01*
X04285Y00965D02*
Y01175D01*
X04264D02*
X04285D01*
X0409D02*
X04149D01*
X0409Y00965D02*
Y01175D01*
Y00965D02*
X0417D01*
X04158Y01056D02*
Y01084D01*
X04101Y01056D02*
Y01084D01*
X0417Y00965D02*
Y01175D01*
X04149D02*
X0417D01*
X04216Y00224D02*
X04247D01*
X04216D02*
Y00416D01*
X04282Y00306D02*
Y00334D01*
X04229Y00306D02*
Y00334D01*
X04216Y00416D02*
X04294D01*
Y00224D02*
Y00416D01*
X04247Y00224D02*
X04294D01*
X02995Y00075D02*
Y00175D01*
X03395D01*
X02995Y00075D02*
X03395D01*
Y00175D01*
X03295Y00075D02*
Y00175D01*
X02536Y0051D02*
Y0058D01*
X02674Y0051D02*
Y0058D01*
X02536D02*
X025889D01*
X026194D02*
X02674D01*
X026194Y0051D02*
X02674D01*
X02536D02*
X025889D01*
X02484Y00448D02*
Y00479D01*
X02676D01*
X02566Y00413D02*
X02594D01*
X02566Y00466D02*
X02594D01*
X02676Y00401D02*
Y00479D01*
X02484Y00401D02*
X02676D01*
X02484D02*
Y00448D01*
X02536Y0024D02*
Y0031D01*
X02674Y0024D02*
Y0031D01*
X02536D02*
X025889D01*
X026194D02*
X02674D01*
X026194Y0024D02*
X02674D01*
X02536D02*
X025889D01*
X02484Y00168D02*
Y00199D01*
X02676D01*
X02566Y00133D02*
X02594D01*
X02566Y00186D02*
X02594D01*
X02676Y00121D02*
Y00199D01*
X02484Y00121D02*
X02676D01*
X02484D02*
Y00168D01*
X01287Y008411D02*
Y008939D01*
Y008411D02*
X01358D01*
Y008939D01*
Y009244D02*
Y009789D01*
X01287Y009244D02*
Y009789D01*
X01358D01*
X01223Y009261D02*
Y009789D01*
X01152D02*
X01223D01*
X01152Y009261D02*
Y009789D01*
Y008411D02*
Y008956D01*
X01223Y008411D02*
Y008956D01*
X01152Y008411D02*
X01223D01*
X01319Y00755D02*
Y00825D01*
X01181Y00755D02*
Y00825D01*
X012661Y00755D02*
X01319D01*
X01181D02*
X012356D01*
X01181Y00825D02*
X012356D01*
X012661D02*
X01319D01*
X011903Y01145D02*
X011982D01*
X012257D02*
X012297D01*
X011982Y011253D02*
Y011607D01*
Y011253D02*
X012257Y01145D01*
X011982Y011607D02*
X012257Y01145D01*
Y011253D02*
Y011647D01*
X013576Y0108D02*
Y01135D01*
X01065Y0108D02*
X013576D01*
X0135Y01135D02*
X013576D01*
X0135Y0108D02*
Y01135D01*
Y01155D02*
Y0121D01*
Y01155D02*
X013576D01*
X01065Y0108D02*
Y010987D01*
X013576Y01155D02*
Y0121D01*
X01065Y011913D02*
Y0121D01*
X013576D01*
X0142Y01315D02*
X01479D01*
X0142Y01105D02*
Y01315D01*
Y01105D02*
X015D01*
X01488Y01196D02*
Y01224D01*
X01431Y01196D02*
Y01224D01*
X015Y01105D02*
Y01315D01*
X01479D02*
X015D01*
X01756Y011047D02*
Y011197D01*
X01574Y01105D02*
Y01128D01*
X015744Y011047D02*
X01756D01*
X0159Y01294D02*
X01739D01*
Y01404D01*
X01589D02*
X01739D01*
X01589Y01295D02*
Y01404D01*
X015744Y011197D02*
X01756D01*
Y015803D01*
X015744D02*
X01756D01*
X015744Y011197D02*
Y015803D01*
X0143Y018353D02*
Y018432D01*
Y018707D02*
Y018747D01*
X014143Y018432D02*
X014497D01*
X0143Y018707D02*
X014497Y018432D01*
X014143D02*
X0143Y018707D01*
X014103D02*
X014497D01*
X0144Y020026D02*
X01495D01*
Y0171D02*
Y020026D01*
X0144Y01995D02*
Y020026D01*
Y01995D02*
X01495D01*
X01365D02*
X0142D01*
Y020026D01*
X014763Y0171D02*
X01495D01*
X01365Y020026D02*
X0142D01*
X01365Y0171D02*
X013837D01*
X01365D02*
Y020026D01*
X01381Y00556D02*
Y00587D01*
X01189Y00556D02*
X01381D01*
X01271Y00622D02*
X01299D01*
X01271Y00569D02*
X01299D01*
X01189Y00556D02*
Y00634D01*
X01381D01*
Y00587D02*
Y00634D01*
Y00246D02*
Y00277D01*
X01189Y00246D02*
X01381D01*
X01271Y00312D02*
X01299D01*
X01271Y00259D02*
X01299D01*
X01189Y00246D02*
Y00324D01*
X01381D01*
Y00277D02*
Y00324D01*
X01621Y00246D02*
Y00277D01*
X01429Y00246D02*
X01621D01*
X01511Y00312D02*
X01539D01*
X01511Y00259D02*
X01539D01*
X01429Y00246D02*
Y00324D01*
X01621D01*
Y00277D02*
Y00324D01*
Y00556D02*
Y00587D01*
X01429Y00556D02*
X01621D01*
X01511Y00622D02*
X01539D01*
X01511Y00569D02*
X01539D01*
X01429Y00556D02*
Y00634D01*
X01621D01*
Y00587D02*
Y00634D01*
X00756Y00289D02*
X00787D01*
X00756D02*
Y00481D01*
X00822Y00371D02*
Y00399D01*
X00769Y00371D02*
Y00399D01*
X00756Y00481D02*
X00834D01*
Y00289D02*
Y00481D01*
X00787Y00289D02*
X00834D01*
X00756Y00074D02*
X00787D01*
X00756D02*
Y00266D01*
X00822Y00156D02*
Y00184D01*
X00769Y00156D02*
Y00184D01*
X00756Y00266D02*
X00834D01*
Y00074D02*
Y00266D01*
X00787Y00074D02*
X00834D01*
X00366Y00289D02*
X00397D01*
X00366D02*
Y00481D01*
X00432Y00371D02*
Y00399D01*
X00379Y00371D02*
Y00399D01*
X00366Y00481D02*
X00444D01*
Y00289D02*
Y00481D01*
X00397Y00289D02*
X00444D01*
X00413Y00261D02*
X00444D01*
Y00069D02*
Y00261D01*
X00378Y00151D02*
Y00179D01*
X00431Y00151D02*
Y00179D01*
X00366Y00069D02*
X00444D01*
X00366D02*
Y00261D01*
X00413D01*
Y00741D02*
X00444D01*
Y00549D02*
Y00741D01*
X00378Y00631D02*
Y00659D01*
X00431Y00631D02*
Y00659D01*
X00366Y00549D02*
X00444D01*
X00366D02*
Y00741D01*
X00413D01*
X00751Y00544D02*
X00782D01*
X00751D02*
Y00736D01*
X00817Y00626D02*
Y00654D01*
X00764Y00626D02*
Y00654D01*
X00751Y00736D02*
X00829D01*
Y00544D02*
Y00736D01*
X00782Y00544D02*
X00829D01*
X00751Y00789D02*
X00782D01*
X00751D02*
Y00981D01*
X00817Y00871D02*
Y00899D01*
X00764Y00871D02*
Y00899D01*
X00751Y00981D02*
X00829D01*
Y00789D02*
Y00981D01*
X00782Y00789D02*
X00829D01*
X00366D02*
X00397D01*
X00366D02*
Y00981D01*
X00432Y00871D02*
Y00899D01*
X00379Y00871D02*
Y00899D01*
X00366Y00981D02*
X00444D01*
Y00789D02*
Y00981D01*
X00397Y00789D02*
X00444D01*
X00896Y01335D02*
X00955D01*
Y01545D01*
X00875D02*
X00955D01*
X00887Y01426D02*
Y01454D01*
X00944Y01426D02*
Y01454D01*
X00875Y01335D02*
Y01545D01*
Y01335D02*
X00896D01*
X006718Y01465D02*
X006797D01*
X006403D02*
X006443D01*
X006718Y014493D02*
Y014847D01*
X006443Y01465D02*
X006718Y014847D01*
X006443Y01465D02*
X006718Y014493D01*
X006443Y014453D02*
Y014847D01*
X005124Y01475D02*
Y0153D01*
X00805D01*
X005124Y01475D02*
X0052D01*
Y0153D01*
Y014D02*
Y01455D01*
X005124D02*
X0052D01*
X00805Y015113D02*
Y0153D01*
X005124Y014D02*
Y01455D01*
X00805Y014D02*
Y014187D01*
X005124Y014D02*
X00805D01*
X01206Y02161D02*
Y02192D01*
X01014Y02161D02*
X01206D01*
X01096Y02227D02*
X01124D01*
X01096Y02174D02*
X01124D01*
X01014Y02161D02*
Y02239D01*
X01206D01*
Y02192D02*
Y02239D01*
X00749Y02208D02*
Y02239D01*
X00941D01*
X00831Y02173D02*
X00859D01*
X00831Y02226D02*
X00859D01*
X00941Y02161D02*
Y02239D01*
X00749Y02161D02*
X00941D01*
X00749D02*
Y02208D01*
X0067Y02181D02*
Y0224D01*
X0046D02*
X0067D01*
X0046Y0216D02*
Y0224D01*
X00551Y02172D02*
X00579D01*
X00551Y02229D02*
X00579D01*
X0046Y0216D02*
X0067D01*
Y02181D01*
X00508Y025919D02*
X00539D01*
Y023999D02*
Y025919D01*
X00473Y024819D02*
Y025099D01*
X00526Y024819D02*
Y025099D01*
X00461Y023999D02*
X00539D01*
X00461D02*
Y025919D01*
X00508D01*
X035561Y02393D02*
X036089D01*
X035561Y02322D02*
Y02393D01*
Y02322D02*
X036089D01*
X036394D02*
X036939D01*
X036394Y02393D02*
X036939D01*
Y02322D02*
Y02393D01*
X01948Y02396D02*
X01979D01*
Y02204D02*
Y02396D01*
X01913Y02286D02*
Y02314D01*
X01966Y02286D02*
Y02314D01*
X01901Y02204D02*
X01979D01*
X01901D02*
Y02396D01*
X01948D01*
X023849Y025999D02*
X024951D01*
Y027101D01*
X023849D02*
X024951D01*
X023849Y025999D02*
Y027101D01*
X027179Y010494D02*
Y013628D01*
Y010494D02*
X027317D01*
X027179Y013628D02*
X027317D01*
X028321Y010494D02*
Y013628D01*
X028183Y010494D02*
X028321D01*
X028183Y013628D02*
X028321D01*
X01441Y0137D02*
X015D01*
Y0158D01*
X0142D02*
X015D01*
X01432Y01461D02*
Y01489D01*
X01489Y01461D02*
Y01489D01*
X0142Y0137D02*
Y0158D01*
Y0137D02*
X01441D01*
X03255Y00645D02*
X03314D01*
X03255Y00435D02*
Y00645D01*
Y00435D02*
X03335D01*
X03323Y00526D02*
Y00554D01*
X03266Y00526D02*
Y00554D01*
X03335Y00435D02*
Y00645D01*
X03314D02*
X03335D01*
X03141Y00454D02*
X03172D01*
X03141D02*
Y00646D01*
X03207Y00536D02*
Y00564D01*
X03154Y00536D02*
Y00564D01*
X03141Y00646D02*
X03219D01*
Y00454D02*
Y00646D01*
X03172Y00454D02*
X03219D01*
X026Y00726D02*
X0267D01*
X026Y00864D02*
X0267D01*
X026Y00726D02*
Y007789D01*
Y008094D02*
Y00864D01*
X0267Y008094D02*
Y00864D01*
Y00726D02*
Y007789D01*
X01983Y02636D02*
X02281D01*
X01894D02*
X01983D01*
X01894Y02484D02*
Y02636D01*
X02281Y02484D02*
Y02636D01*
X01894Y02484D02*
X02281D01*
X02133Y01491D02*
X02431D01*
X02044D02*
X02133D01*
X02044Y01339D02*
Y01491D01*
X02431Y01339D02*
Y01491D01*
X02044Y01339D02*
X02431D01*
X03469Y02636D02*
X03767D01*
X0338D02*
X03469D01*
X0338Y02484D02*
Y02636D01*
X03767Y02484D02*
Y02636D01*
X0338Y02484D02*
X03767D01*
X02517Y00669D02*
X02564D01*
Y00861D01*
X02486D02*
X02564D01*
X02499Y00751D02*
Y00779D01*
X02552Y00751D02*
Y00779D01*
X02486Y00669D02*
Y00861D01*
Y00669D02*
X02517D01*
X01926Y01456D02*
X01973D01*
X01926Y01264D02*
Y01456D01*
Y01264D02*
X02004D01*
X01991Y01346D02*
Y01374D01*
X01938Y01346D02*
Y01374D01*
X02004Y01264D02*
Y01456D01*
X01973D02*
X02004D01*
X03771Y02371D02*
X03818D01*
X03771Y02179D02*
Y02371D01*
Y02179D02*
X03849D01*
X03836Y02261D02*
Y02289D01*
X03783Y02261D02*
Y02289D01*
X03849Y02179D02*
Y02371D01*
X03818D02*
X03849D01*
X0017Y00235D02*
Y00435D01*
Y00235D02*
X0027D01*
Y00435D01*
X0017D02*
X0027D01*
X0017Y00675D02*
Y00875D01*
Y00675D02*
X0027D01*
Y00875D01*
X0017D02*
X0027D01*
X0166Y0192D02*
X0176D01*
X0166Y0182D02*
X0176D01*
X0166D02*
Y0212D01*
X0176D01*
Y0182D02*
Y0212D01*
X03005Y02605D02*
Y02705D01*
X02905Y02605D02*
Y02705D01*
X03305D01*
X02905Y02605D02*
X03305D01*
Y02705D01*
X044099Y002499D02*
X045201D01*
X044099D02*
Y003601D01*
X045201D01*
Y002499D02*
Y003601D01*
X038349Y021201D02*
X039451D01*
Y020099D02*
Y021201D01*
X038349Y020099D02*
X039451D01*
X038349D02*
Y021201D01*
X026Y02605D02*
Y02705D01*
X025Y02605D02*
Y02705D01*
X029D01*
X025Y02605D02*
X029D01*
Y02705D01*
X04295Y0262D02*
Y0272D01*
X04395Y0262D02*
Y0272D01*
X03995Y0262D02*
X04395D01*
X03995Y0272D02*
X04395D01*
X03995Y0262D02*
Y0272D01*
X0355Y001933D02*
X0385D01*
Y000567D02*
Y001933D01*
X0355Y000567D02*
X0385D01*
X0355D02*
Y0015D01*
Y001D02*
Y001933D01*
X045483Y0179D02*
Y0209D01*
X044117Y0179D02*
X045483D01*
X044117D02*
Y0209D01*
X04505D01*
X04455D02*
X045483D01*
X02869Y00645D02*
X0289D01*
Y00435D02*
Y00645D01*
X02821Y00526D02*
Y00554D01*
X02878Y00526D02*
Y00554D01*
X0281Y00435D02*
X0289D01*
X0281D02*
Y00645D01*
X02869D01*
X0222Y02185D02*
X02241D01*
X0222D02*
Y02395D01*
X02289Y02276D02*
Y02304D01*
X02232Y02276D02*
Y02304D01*
X0222Y02395D02*
X023D01*
Y02185D02*
Y02395D01*
X02241Y02185D02*
X023D01*
X005197Y012856D02*
X009803D01*
Y01104D02*
Y012856D01*
X005197Y01104D02*
X009803D01*
X005197D02*
Y012856D01*
X00695Y01271D02*
X00804D01*
Y01121D02*
Y01271D01*
X00694Y01121D02*
X00804D01*
X00694D02*
Y0127D01*
X005047Y01104D02*
Y012856D01*
X00505Y01286D02*
X00528D01*
X005047Y01104D02*
X005197D01*
X00925Y0239D02*
X00946D01*
X00925D02*
Y026D01*
X00994Y02481D02*
Y02509D01*
X00937Y02481D02*
Y02509D01*
X00925Y026D02*
X01005D01*
Y0239D02*
Y026D01*
X00946Y0239D02*
X01005D01*
X04216Y00641D02*
X04263D01*
X04216Y00449D02*
Y00641D01*
Y00449D02*
X04294D01*
X04281Y00531D02*
Y00559D01*
X04228Y00531D02*
Y00559D01*
X04294Y00449D02*
Y00641D01*
X04263D02*
X04294D01*
X03906Y00636D02*
X03953D01*
X03906Y00444D02*
Y00636D01*
Y00444D02*
X03984D01*
X03971Y00526D02*
Y00554D01*
X03918Y00526D02*
Y00554D01*
X03984Y00444D02*
Y00636D01*
X03953D02*
X03984D01*
X04415Y00465D02*
X04515D01*
X04415Y00365D02*
X04515D01*
X04415D02*
Y00665D01*
X04515D01*
Y00365D02*
Y00665D01*
D11*
X020899Y022049D02*
G03*
X020899Y022049I-000049J0D01*
G01*
X036299Y021999D02*
G03*
X036299Y021999I-000049J0D01*
G01*
X02181Y01822D02*
G03*
X02181Y01822I-000049J0D01*
G01*
X02471D02*
G03*
X02471Y01822I-000049J0D01*
G01*
X023642Y02655D02*
G03*
X023642Y02655I-000049J0D01*
G01*
X044699Y002243D02*
G03*
X044699Y002243I-000049J0D01*
G01*
X038949Y021457D02*
G03*
X038949Y021457I-000049J0D01*
G01*
X015744Y011117D02*
X017556D01*
X005117Y011044D02*
Y012856D01*
D12*
X011758Y01875D02*
G03*
X011758Y01875I-002339J0D01*
G01*
X002086Y012457D02*
G03*
X002086Y012457I-000156J0D01*
G01*
X0017Y0063D02*
X0027D01*
Y0043D02*
Y0063D01*
X0017Y0043D02*
Y0063D01*
X007056Y021112D02*
X01182D01*
Y016348D02*
Y021112D01*
X010678Y016348D02*
X01182D01*
X007056D02*
X010678D01*
X007056D02*
Y021112D01*
X001666Y020434D02*
X004366D01*
X004934Y019866D01*
Y017734D02*
Y019866D01*
X001666Y017166D02*
X004366D01*
X004934Y017734D01*
X001666Y017166D02*
Y020434D01*
X005951Y023651D02*
Y025816D01*
X006384Y026249D01*
X008116D01*
X008549Y023651D02*
Y025816D01*
X008116Y026249D02*
X008549Y025816D01*
X005951Y023651D02*
X008549D01*
X04326Y01167D02*
Y01182D01*
X04464Y0117D02*
Y01182D01*
X043261D02*
X044639D01*
X043261Y01172D02*
X044639D01*
X043261Y01163D02*
X044639D01*
X043261Y00739D02*
Y0117D01*
Y00739D02*
X044639D01*
Y0117D01*
X04445Y00919D02*
Y00984D01*
X04343Y00919D02*
X04445D01*
X04343D02*
Y00984D01*
X04445D01*
X014986Y000654D02*
X01475D01*
Y000477D01*
X014868Y000536D01*
X014927D01*
X014986Y000477D01*
Y000359D01*
X014927Y0003D01*
X014809D01*
X01475Y000359D01*
X015104Y000654D02*
Y000418D01*
X015222Y0003D01*
X01534Y000418D01*
Y000654D01*
X013836Y000595D02*
X013777Y000654D01*
X013659D01*
X0136Y000595D01*
Y000359D01*
X013659Y0003D01*
X013777D01*
X013836Y000359D01*
Y000477D01*
X013718D01*
X013954Y0003D02*
Y000654D01*
X01419Y0003D01*
Y000654D01*
X014308D02*
Y0003D01*
X014486D01*
X014545Y000359D01*
Y000595D01*
X014486Y000654D01*
X014308D01*
X000686Y004895D02*
X000627Y004954D01*
X000509D01*
X00045Y004895D01*
Y004659D01*
X000509Y0046D01*
X000627D01*
X000686Y004659D01*
Y004777D01*
X000568D01*
X000804Y0046D02*
Y004954D01*
X00104Y0046D01*
Y004954D01*
X001158D02*
Y0046D01*
X001336D01*
X001395Y004659D01*
Y004895D01*
X001336Y004954D01*
X001158D01*
X00045Y005895D02*
X000509Y005954D01*
X000627D01*
X000686Y005895D01*
Y005836D01*
X000627Y005777D01*
X000568D01*
X000627D01*
X000686Y005718D01*
Y005659D01*
X000627Y0056D01*
X000509D01*
X00045Y005659D01*
X000804Y005954D02*
Y005718D01*
X000922Y0056D01*
X00104Y005718D01*
Y005954D01*
X001158Y005895D02*
X001217Y005954D01*
X001336D01*
X001395Y005895D01*
Y005836D01*
X001336Y005777D01*
X001276D01*
X001336D01*
X001395Y005718D01*
Y005659D01*
X001336Y0056D01*
X001217D01*
X001158Y005659D01*
X038965Y00405D02*
X038755D01*
X03865Y003945D01*
X038755Y00384D01*
X038965D01*
Y003735D02*
X03865D01*
Y003578D01*
X038702Y003525D01*
X038755D01*
X038807D01*
X03886Y003578D01*
Y003735D01*
Y003368D02*
Y003263D01*
X038807Y00321D01*
X03865D01*
Y003368D01*
X038702Y00342D01*
X038755Y003368D01*
Y00321D01*
X038912Y003053D02*
X03886D01*
Y003105D01*
Y003D01*
Y003053D01*
X038702D01*
X03865Y003D01*
X04305Y027715D02*
Y027505D01*
X043155Y0274D01*
X04326Y027505D01*
Y027715D01*
X043365D02*
Y0274D01*
X043522D01*
X043575Y027452D01*
Y027662D01*
X043522Y027715D01*
X043365D01*
X04368D02*
Y0274D01*
X043837D01*
X04389Y027452D01*
Y027662D01*
X043837Y027715D01*
X04368D01*
X042Y0274D02*
Y027715D01*
X042157D01*
X04221Y027662D01*
Y027557D01*
X042157Y027505D01*
X042D01*
X042105D02*
X04221Y0274D01*
X042315Y027715D02*
X042525Y0274D01*
Y027715D02*
X042315Y0274D01*
X04263D02*
X042735D01*
X042682D01*
Y027715D01*
X04263Y027662D01*
X04095Y027715D02*
X04116D01*
X041055D01*
Y0274D01*
X041265Y027715D02*
X041475Y0274D01*
Y027715D02*
X041265Y0274D01*
X04158D02*
X041685D01*
X041632D01*
Y027715D01*
X04158Y027662D01*
X04011D02*
X040057Y027715D01*
X039952D01*
X0399Y027662D01*
Y027452D01*
X039952Y0274D01*
X040057D01*
X04011Y027452D01*
Y027557D01*
X040005D01*
X040215Y0274D02*
Y027715D01*
X040425Y0274D01*
Y027715D01*
X04053D02*
Y0274D01*
X040687D01*
X04074Y027452D01*
Y027662D01*
X040687Y027715D01*
X04053D01*
X03235Y02725D02*
Y027565D01*
X032455Y02746D01*
X03256Y027565D01*
Y02725D01*
X032665D02*
X03277D01*
X032717D01*
Y02746D01*
X032665D01*
X03056Y027512D02*
X030507Y027565D01*
X030402D01*
X03035Y027512D01*
Y027302D01*
X030402Y02725D01*
X030507D01*
X03056Y027302D01*
X030875Y027512D02*
X030822Y027565D01*
X030717D01*
X030665Y027512D01*
Y02746D01*
X030717Y027407D01*
X030822D01*
X030875Y027355D01*
Y027302D01*
X030822Y02725D01*
X030717D01*
X030665Y027302D01*
X0313Y02725D02*
Y027565D01*
X031405Y02746D01*
X03151Y027565D01*
Y02725D01*
X031667D02*
X031772D01*
X031825Y027302D01*
Y027407D01*
X031772Y02746D01*
X031667D01*
X031615Y027407D01*
Y027302D01*
X031667Y02725D01*
X02941Y027512D02*
X029357Y027565D01*
X029252D01*
X0292Y027512D01*
Y027302D01*
X029252Y02725D01*
X029357D01*
X02941Y027302D01*
X029515Y02725D02*
X02962D01*
X029567D01*
Y027565D01*
X029515D01*
X029777Y02725D02*
Y027565D01*
Y027355D02*
X029935Y02746D01*
X029777Y027355D02*
X029935Y02725D01*
X02826Y027512D02*
X028207Y027565D01*
X028102D01*
X02805Y027512D01*
Y027302D01*
X028102Y02725D01*
X028207D01*
X02826Y027302D01*
Y027407D01*
X028155D01*
X028365Y02725D02*
Y027565D01*
X028575Y02725D01*
Y027565D01*
X02868D02*
Y02725D01*
X028837D01*
X02889Y027302D01*
Y027512D01*
X028837Y027565D01*
X02868D01*
X02721Y027512D02*
X027157Y027565D01*
X027052D01*
X027Y027512D01*
Y027302D01*
X027052Y02725D01*
X027157D01*
X02721Y027302D01*
Y027407D01*
X027105D01*
X027315Y02725D02*
Y027565D01*
X027525Y02725D01*
Y027565D01*
X02763D02*
Y02725D01*
X027787D01*
X02784Y027302D01*
Y027512D01*
X027787Y027565D01*
X02763D01*
X02641D02*
X0262D01*
Y027407D01*
X026305Y02746D01*
X026357D01*
X02641Y027407D01*
Y027302D01*
X026357Y02725D01*
X026252D01*
X0262Y027302D01*
X026515Y027565D02*
Y027355D01*
X02662Y02725D01*
X026725Y027355D01*
Y027565D01*
X018655Y0205D02*
X01897D01*
X018655Y02029D01*
X01897D01*
X018655Y020028D02*
Y020133D01*
X018707Y020185D01*
X018812D01*
X018865Y020133D01*
Y020028D01*
X018812Y019975D01*
X01876D01*
Y020185D01*
X018917Y019818D02*
X018865D01*
Y01987D01*
Y019765D01*
Y019818D01*
X018707D01*
X018655Y019765D01*
Y019608D02*
Y019503D01*
Y019555D01*
X01897D01*
Y019608D01*
X018655Y019346D02*
Y019241D01*
Y019293D01*
X018865D01*
Y019346D01*
X01855Y018978D02*
Y018926D01*
X018602Y018873D01*
X018865D01*
Y019031D01*
X018812Y019083D01*
X018707D01*
X018655Y019031D01*
Y018873D01*
X01897Y018768D02*
X018655D01*
X018812D01*
X018865Y018716D01*
Y018611D01*
X018812Y018558D01*
X018655D01*
X018917Y018401D02*
X018865D01*
Y018453D01*
Y018348D01*
Y018401D01*
X018707D01*
X018655Y018348D01*
X026712Y02014D02*
X026765Y020193D01*
Y020298D01*
X026712Y02035D01*
X02666D01*
X026607Y020298D01*
Y020193D01*
X026555Y02014D01*
X026502D01*
X02645Y020193D01*
Y020298D01*
X026502Y02035D01*
X026712Y019983D02*
X02666D01*
Y020035D01*
Y01993D01*
Y019983D01*
X026502D01*
X02645Y01993D01*
X02666Y01972D02*
Y019615D01*
X026607Y019563D01*
X02645D01*
Y01972D01*
X026502Y019773D01*
X026555Y01972D01*
Y019563D01*
X026712Y019405D02*
X02666D01*
Y019458D01*
Y019353D01*
Y019405D01*
X026502D01*
X02645Y019353D01*
X02666Y019196D02*
X026502D01*
X02645Y019143D01*
Y018986D01*
X02666D01*
X02645Y018881D02*
Y018723D01*
X026502Y018671D01*
X026555Y018723D01*
Y018828D01*
X026607Y018881D01*
X02666Y018828D01*
Y018671D01*
X02495Y027512D02*
X025002Y027565D01*
X025107D01*
X02516Y027512D01*
Y02746D01*
X025107Y027407D01*
X025055D01*
X025107D01*
X02516Y027355D01*
Y027302D01*
X025107Y02725D01*
X025002D01*
X02495Y027302D01*
X025265Y02725D02*
Y027302D01*
X025317D01*
Y02725D01*
X025265D01*
X025527Y027512D02*
X02558Y027565D01*
X025685D01*
X025737Y027512D01*
Y02746D01*
X025685Y027407D01*
X025632D01*
X025685D01*
X025737Y027355D01*
Y027302D01*
X025685Y02725D01*
X02558D01*
X025527Y027302D01*
X025842Y027565D02*
Y027355D01*
X025947Y02725D01*
X026052Y027355D01*
Y027565D01*
X0239Y02725D02*
X024005D01*
X023952D01*
Y027565D01*
X0239Y027512D01*
X024162Y027565D02*
Y027355D01*
X024267Y02725D01*
X024372Y027355D01*
Y027565D01*
X024477Y027512D02*
X02453Y027565D01*
X024635D01*
X024687Y027512D01*
Y02746D01*
X024635Y027407D01*
X024687Y027355D01*
Y027302D01*
X024635Y02725D01*
X02453D01*
X024477Y027302D01*
Y027355D01*
X02453Y027407D01*
X024477Y02746D01*
Y027512D01*
X02453Y027407D02*
X024635D01*
X0339Y00765D02*
Y007912D01*
X034031Y008044D01*
X034162Y007912D01*
Y00765D01*
Y007847D01*
X0339D01*
X034294Y008044D02*
X034556D01*
Y007978D01*
X034294Y007716D01*
Y00765D01*
X03495Y008044D02*
X034818Y007978D01*
X034687Y007847D01*
Y007716D01*
X034753Y00765D01*
X034884D01*
X03495Y007716D01*
Y007781D01*
X034884Y007847D01*
X034687D01*
X035081Y008044D02*
X035343D01*
Y007978D01*
X035081Y007716D01*
Y00765D01*
X035737D02*
X035474D01*
X035737Y007912D01*
Y007978D01*
X035671Y008044D01*
X03554D01*
X035474Y007978D01*
X03613D02*
X036065Y008044D01*
X035933D01*
X035868Y007978D01*
Y007912D01*
X035933Y007847D01*
X036065D01*
X03613Y007781D01*
Y007716D01*
X036065Y00765D01*
X035933D01*
X035868Y007716D01*
X0357Y019162D02*
X035831Y0189D01*
X035962Y019162D01*
X03629Y0189D02*
X036159D01*
X036094Y018966D01*
Y019097D01*
X036159Y019162D01*
X03629D01*
X036356Y019097D01*
Y019031D01*
X036094D01*
X036487Y019162D02*
Y0189D01*
Y019031D01*
X036553Y019097D01*
X036618Y019162D01*
X036684D01*
X036881Y0189D02*
X037012D01*
X036946D01*
Y019294D01*
X036881Y019228D01*
X037209Y0189D02*
Y018966D01*
X037274D01*
Y0189D01*
X037209D01*
X037537Y019228D02*
X037602Y019294D01*
X037733D01*
X037799Y019228D01*
Y019162D01*
X037733Y019097D01*
X037668D01*
X037733D01*
X037799Y019031D01*
Y018966D01*
X037733Y0189D01*
X037602D01*
X037537Y018966D01*
X02805Y01965D02*
X02795Y01975D01*
X02775D01*
X02765Y01965D01*
Y01955D01*
X02775Y01945D01*
X02795D01*
X02805Y01935D01*
Y01925D01*
X02795Y01915D01*
X02775D01*
X02765Y01925D01*
X02825Y01975D02*
X02845D01*
X02835D01*
Y01915D01*
X02825D01*
X02845D01*
X02875D02*
Y01975D01*
X02895Y01955D01*
X02915Y01975D01*
Y01915D01*
X029749Y01965D02*
X029649Y01975D01*
X029449D01*
X029349Y01965D01*
Y01925D01*
X029449Y01915D01*
X029649D01*
X029749Y01925D01*
X030049Y01915D02*
X030249D01*
X030349Y01925D01*
Y01945D01*
X030249Y01955D01*
X030049D01*
X029949Y01945D01*
Y01925D01*
X030049Y01915D01*
X030549D02*
Y01955D01*
X030649D01*
X030749Y01945D01*
Y01915D01*
Y01945D01*
X030849Y01955D01*
X030949Y01945D01*
Y01915D01*
X031749D02*
Y01955D01*
X031949Y01975D01*
X032149Y01955D01*
Y01915D01*
Y01945D01*
X031749D01*
X032348Y01915D02*
X032548D01*
X032448D01*
Y01955D01*
X032348D01*
X032848D02*
Y01915D01*
Y01935D01*
X032948Y01945D01*
X033048Y01955D01*
X033148D01*
X034048Y01975D02*
Y01915D01*
X034448D01*
X034748D02*
X034948D01*
X035048Y01925D01*
Y01945D01*
X034948Y01955D01*
X034748D01*
X034648Y01945D01*
Y01925D01*
X034748Y01915D01*
X035447Y01895D02*
X035547D01*
X035647Y01905D01*
Y01955D01*
X035348D01*
X035248Y01945D01*
Y01925D01*
X035348Y01915D01*
X035647D01*
X036047Y01895D02*
X036147D01*
X036247Y01905D01*
Y01955D01*
X035947D01*
X035847Y01945D01*
Y01925D01*
X035947Y01915D01*
X036247D01*
X036747D02*
X036547D01*
X036447Y01925D01*
Y01945D01*
X036547Y01955D01*
X036747D01*
X036847Y01945D01*
Y01935D01*
X036447D01*
X037047Y01955D02*
Y01915D01*
Y01935D01*
X037147Y01945D01*
X037247Y01955D01*
X037347D01*
X03865Y019712D02*
X038702Y019765D01*
X038807D01*
X03886Y019712D01*
Y01966D01*
X038807Y019607D01*
X038755D01*
X038807D01*
X03886Y019555D01*
Y019502D01*
X038807Y01945D01*
X038702D01*
X03865Y019502D01*
X038965Y019765D02*
Y019555D01*
X03907Y01945D01*
X039175Y019555D01*
Y019765D01*
X04346Y020462D02*
X043407Y020515D01*
X043302D01*
X04325Y020462D01*
Y020252D01*
X043302Y0202D01*
X043407D01*
X04346Y020252D01*
Y020357D01*
X043355D01*
X043565Y0202D02*
Y020515D01*
X043775Y0202D01*
Y020515D01*
X04388D02*
Y0202D01*
X044037D01*
X04409Y020252D01*
Y020462D01*
X044037Y020515D01*
X04388D01*
X04346Y019562D02*
X043407Y019615D01*
X043302D01*
X04325Y019562D01*
Y019352D01*
X043302Y0193D01*
X043407D01*
X04346Y019352D01*
Y019457D01*
X043355D01*
X043565Y0193D02*
X04367D01*
X043617D01*
Y019615D01*
X043565Y019562D01*
X044037Y0193D02*
X043827D01*
X044037Y01951D01*
Y019562D01*
X043985Y019615D01*
X04388D01*
X043827Y019562D01*
X04361Y018515D02*
X0434D01*
Y018357D01*
X043505Y01841D01*
X043557D01*
X04361Y018357D01*
Y018252D01*
X043557Y0182D01*
X043452D01*
X0434Y018252D01*
X043715Y018515D02*
Y018305D01*
X04382Y0182D01*
X043925Y018305D01*
Y018515D01*
X0438Y017594D02*
Y0172D01*
X043997D01*
X044062Y017266D01*
Y017528D01*
X043997Y017594D01*
X0438D01*
X044194D02*
Y0172D01*
Y017397D01*
X044456D01*
Y017594D01*
Y0172D01*
X044587Y017594D02*
X04485D01*
X044718D01*
Y0172D01*
X044981D02*
X045112D01*
X045046D01*
Y017594D01*
X044981Y017528D01*
X045309Y0172D02*
X04544D01*
X045374D01*
Y017594D01*
X045309Y017528D01*
X0347Y0267D02*
Y027094D01*
X034897D01*
X034962Y027028D01*
Y026897D01*
X034897Y026831D01*
X0347D01*
X035094Y027094D02*
Y0267D01*
X035225Y026831D01*
X035356Y0267D01*
Y027094D01*
X035487Y0267D02*
Y027094D01*
X035684D01*
X03575Y027028D01*
Y026897D01*
X035684Y026831D01*
X035487D01*
X035618D02*
X03575Y0267D01*
X035881Y027094D02*
Y0267D01*
Y026831D01*
X036143Y027094D01*
X035946Y026897D01*
X036143Y0267D01*
X036537Y027094D02*
X036274D01*
Y0267D01*
X036537D01*
X036274Y026897D02*
X036405D01*
X036668Y027094D02*
Y027028D01*
X036799Y026897D01*
X03693Y027028D01*
Y027094D01*
X036799Y026897D02*
Y0267D01*
X01985Y02665D02*
Y027044D01*
X020047D01*
X020112Y026978D01*
Y026847D01*
X020047Y026781D01*
X01985D01*
X019981D02*
X020112Y02665D01*
X020506Y027044D02*
X020244D01*
Y02665D01*
X020506D01*
X020244Y026847D02*
X020375D01*
X0209Y026978D02*
X020834Y027044D01*
X020703D01*
X020637Y026978D01*
Y026912D01*
X020703Y026847D01*
X020834D01*
X0209Y026781D01*
Y026716D01*
X020834Y02665D01*
X020703D01*
X020637Y026716D01*
X021293Y027044D02*
X021031D01*
Y02665D01*
X021293D01*
X021031Y026847D02*
X021162D01*
X021424Y027044D02*
X021687D01*
X021555D01*
Y02665D01*
X0218Y013194D02*
Y0128D01*
X021997D01*
X022062Y012866D01*
Y012931D01*
X021997Y012997D01*
X0218D01*
X021997D01*
X022062Y013062D01*
Y013128D01*
X021997Y013194D01*
X0218D01*
X02239D02*
X022259D01*
X022194Y013128D01*
Y012866D01*
X022259Y0128D01*
X02239D01*
X022456Y012866D01*
Y013128D01*
X02239Y013194D01*
X022784D02*
X022653D01*
X022587Y013128D01*
Y012866D01*
X022653Y0128D01*
X022784D01*
X02285Y012866D01*
Y013128D01*
X022784Y013194D01*
X022981D02*
X023243D01*
X023112D01*
Y0128D01*
X0272Y010204D02*
Y009909D01*
X027259Y00985D01*
X027377D01*
X027436Y009909D01*
Y010204D01*
X02779Y010145D02*
X027731Y010204D01*
X027613D01*
X027554Y010145D01*
Y010086D01*
X027613Y010027D01*
X027731D01*
X02779Y009968D01*
Y009909D01*
X027731Y00985D01*
X027613D01*
X027554Y009909D01*
X027908Y010204D02*
Y00985D01*
X028086D01*
X028145Y009909D01*
Y009968D01*
X028086Y010027D01*
X027908D01*
X028086D01*
X028145Y010086D01*
Y010145D01*
X028086Y010204D01*
X027908D01*
X0434Y01455D02*
Y014786D01*
X043518Y014904D01*
X043636Y014786D01*
Y01455D01*
Y014727D01*
X0434D01*
X043754Y01455D02*
Y014786D01*
X043931D01*
X04399Y014727D01*
Y01455D01*
X044167Y014845D02*
Y014786D01*
X044108D01*
X044226D01*
X044167D01*
Y014609D01*
X044226Y01455D01*
X044581D02*
X044463D01*
X044404Y014609D01*
Y014727D01*
X044463Y014786D01*
X044581D01*
X04464Y014727D01*
Y014668D01*
X044404D01*
X044758Y01455D02*
Y014786D01*
X044935D01*
X044994Y014727D01*
Y01455D01*
X0408Y009165D02*
Y008955D01*
X040905Y00885D01*
X04101Y008955D01*
Y009165D01*
X041115D02*
Y00885D01*
X041272D01*
X041325Y008902D01*
Y008955D01*
Y009007D01*
X041272Y00906D01*
X041115D01*
X041482D02*
X041587D01*
X04164Y009007D01*
Y00885D01*
X041482D01*
X04143Y008902D01*
X041482Y008955D01*
X04164D01*
X041797Y009112D02*
Y00906D01*
X041745D01*
X04185D01*
X041797D01*
Y008902D01*
X04185Y00885D01*
X04341Y003312D02*
X043357Y003365D01*
X043252D01*
X0432Y003312D01*
Y003102D01*
X043252Y00305D01*
X043357D01*
X04341Y003102D01*
Y003207D01*
X043305D01*
X043515Y00305D02*
X04362D01*
X043567D01*
Y003365D01*
X043515Y003312D01*
X043777D02*
X04383Y003365D01*
X043935D01*
X043987Y003312D01*
Y00326D01*
X043935Y003207D01*
X043882D01*
X043935D01*
X043987Y003155D01*
Y003102D01*
X043935Y00305D01*
X04383D01*
X043777Y003102D01*
X04366Y004012D02*
X043607Y004065D01*
X043502D01*
X04345Y004012D01*
Y003802D01*
X043502Y00375D01*
X043607D01*
X04366Y003802D01*
Y003907D01*
X043555D01*
X043765Y004012D02*
X043817Y004065D01*
X043922D01*
X043975Y004012D01*
Y00396D01*
X043922Y003907D01*
X043975Y003855D01*
Y003802D01*
X043922Y00375D01*
X043817D01*
X043765Y003802D01*
Y003855D01*
X043817Y003907D01*
X043765Y00396D01*
Y004012D01*
X043817Y003907D02*
X043922D01*
X04341Y004912D02*
X043357Y004965D01*
X043252D01*
X0432Y004912D01*
Y004702D01*
X043252Y00465D01*
X043357D01*
X04341Y004702D01*
Y004807D01*
X043305D01*
X043515Y00465D02*
X04362D01*
X043567D01*
Y004965D01*
X043515Y004912D01*
X043777D02*
X04383Y004965D01*
X043935D01*
X043987Y004912D01*
Y00486D01*
X043935Y004807D01*
X043987Y004755D01*
Y004702D01*
X043935Y00465D01*
X04383D01*
X043777Y004702D01*
Y004755D01*
X04383Y004807D01*
X043777Y00486D01*
Y004912D01*
X04383Y004807D02*
X043935D01*
X0436Y0058D02*
Y00601D01*
X043705Y006115D01*
X04381Y00601D01*
Y0058D01*
Y005957D01*
X0436D01*
X043915Y0058D02*
X04402D01*
X043967D01*
Y006115D01*
X043915Y006062D01*
X03781Y002312D02*
X037757Y002365D01*
X037652D01*
X0376Y002312D01*
Y002102D01*
X037652Y00205D01*
X037757D01*
X03781Y002102D01*
Y002207D01*
X037705D01*
X037915Y00205D02*
Y002365D01*
X038125Y00205D01*
Y002365D01*
X03823D02*
Y00205D01*
X038387D01*
X03844Y002102D01*
Y002312D01*
X038387Y002365D01*
X03823D01*
X0367Y0021D02*
Y00231D01*
X036805Y002415D01*
X03691Y00231D01*
Y0021D01*
Y002257D01*
X0367D01*
X037015Y002362D02*
X037067Y002415D01*
X037172D01*
X037225Y002362D01*
Y002152D01*
X037172Y0021D01*
X037067D01*
X037015Y002152D01*
Y002362D01*
X03586Y002415D02*
X03565D01*
Y002257D01*
X035755Y00231D01*
X035807D01*
X03586Y002257D01*
Y002152D01*
X035807Y0021D01*
X035702D01*
X03565Y002152D01*
X035965Y002415D02*
Y002205D01*
X03607Y0021D01*
X036175Y002205D01*
Y002415D01*
X0388Y0008D02*
Y001194D01*
X038931Y001062D01*
X039062Y001194D01*
Y0008D01*
X039456Y000866D02*
Y001128D01*
X03939Y001194D01*
X039259D01*
X039194Y001128D01*
Y000866D01*
X039259Y0008D01*
X03939D01*
X039325Y000931D02*
X039456Y0008D01*
X03939D02*
X039456Y000866D01*
X039587Y0008D02*
X039718D01*
X039653D01*
Y001194D01*
X039587Y001128D01*
X039915D02*
X039981Y001194D01*
X040112D01*
X040178Y001128D01*
Y001062D01*
X040112Y000997D01*
X040046D01*
X040112D01*
X040178Y000931D01*
Y000866D01*
X040112Y0008D01*
X039981D01*
X039915Y000866D01*
X040571Y001194D02*
X040309D01*
Y000997D01*
X04044Y001062D01*
X040505D01*
X040571Y000997D01*
Y000866D01*
X040505Y0008D01*
X040374D01*
X040309Y000866D01*
X027912Y000878D02*
X027847Y000944D01*
X027716D01*
X02765Y000878D01*
Y000812D01*
X027716Y000747D01*
X027847D01*
X027912Y000681D01*
Y000616D01*
X027847Y00055D01*
X027716D01*
X02765Y000616D01*
X028044Y000944D02*
Y00055D01*
X02824D01*
X028306Y000616D01*
Y000878D01*
X02824Y000944D01*
X028044D01*
X0287Y000878D02*
X028634Y000944D01*
X028503D01*
X028437Y000878D01*
Y000812D01*
X028503Y000747D01*
X028634D01*
X0287Y000681D01*
Y000616D01*
X028634Y00055D01*
X028503D01*
X028437Y000616D01*
X028831Y000878D02*
X028896Y000944D01*
X029028D01*
X029093Y000878D01*
Y000616D01*
X029028Y00055D01*
X028896D01*
X028831Y000616D01*
Y000878D01*
X029224Y00055D02*
X029355D01*
X02929D01*
Y000944D01*
X029224Y000878D01*
X029552Y00055D02*
X029683D01*
X029618D01*
Y000944D01*
X029552Y000878D01*
X03325Y002265D02*
X03346D01*
X033355D01*
Y00195D01*
X033775D02*
X033565D01*
X033775Y00216D01*
Y002212D01*
X033722Y002265D01*
X033617D01*
X033565Y002212D01*
X03225Y00195D02*
Y002265D01*
X032407D01*
X03246Y002212D01*
Y002107D01*
X032407Y002055D01*
X03225D01*
X032355D02*
X03246Y00195D01*
X032775D02*
X032565D01*
X032775Y00216D01*
Y002212D01*
X032722Y002265D01*
X032617D01*
X032565Y002212D01*
X03126D02*
X031207Y002265D01*
X031102D01*
X03105Y002212D01*
Y002002D01*
X031102Y00195D01*
X031207D01*
X03126Y002002D01*
Y002107D01*
X031155D01*
X031365Y00195D02*
Y002265D01*
X031575Y00195D01*
Y002265D01*
X03168D02*
Y00195D01*
X031837D01*
X03189Y002002D01*
Y002212D01*
X031837Y002265D01*
X03168D01*
X03016D02*
X02995D01*
Y002107D01*
X030055Y00216D01*
X030107D01*
X03016Y002107D01*
Y002002D01*
X030107Y00195D01*
X030002D01*
X02995Y002002D01*
X030265Y002265D02*
Y002055D01*
X03037Y00195D01*
X030475Y002055D01*
Y002265D01*
X015936Y018854D02*
X0157D01*
Y018677D01*
X015818Y018736D01*
X015877D01*
X015936Y018677D01*
Y018559D01*
X015877Y0185D01*
X015759D01*
X0157Y018559D01*
X016054Y018854D02*
Y018618D01*
X016172Y0185D01*
X01629Y018618D01*
Y018854D01*
X0155Y019854D02*
Y019618D01*
X015618Y0195D01*
X015736Y019618D01*
Y019854D01*
X015854Y0195D02*
X015972D01*
X015913D01*
Y019736D01*
X015854D01*
X016208Y0195D02*
X016327D01*
X016386Y019559D01*
Y019677D01*
X016327Y019736D01*
X016208D01*
X016149Y019677D01*
Y019559D01*
X016208Y0195D01*
X01525Y020795D02*
X015309Y020854D01*
X015427D01*
X015486Y020795D01*
Y020736D01*
X015427Y020677D01*
X015368D01*
X015427D01*
X015486Y020618D01*
Y020559D01*
X015427Y0205D01*
X015309D01*
X01525Y020559D01*
X015604Y0205D02*
Y020559D01*
X015663D01*
Y0205D01*
X015604D01*
X015899Y020795D02*
X015958Y020854D01*
X016077D01*
X016136Y020795D01*
Y020736D01*
X016077Y020677D01*
X016017D01*
X016077D01*
X016136Y020618D01*
Y020559D01*
X016077Y0205D01*
X015958D01*
X015899Y020559D01*
X016254Y020854D02*
Y020618D01*
X016372Y0205D01*
X01649Y020618D01*
Y020854D01*
X01125Y0003D02*
Y000654D01*
X011427D01*
X011486Y000595D01*
Y000477D01*
X011427Y000418D01*
X01125D01*
X011368D02*
X011486Y0003D01*
X011604Y000654D02*
X01184Y0003D01*
Y000654D02*
X011604Y0003D01*
X012195D02*
X011958D01*
X012195Y000536D01*
Y000595D01*
X012136Y000654D01*
X012017D01*
X011958Y000595D01*
X0124Y000654D02*
X012636D01*
X012518D01*
Y0003D01*
X012754Y000654D02*
X01299Y0003D01*
Y000654D02*
X012754Y0003D01*
X013345D02*
X013108D01*
X013345Y000536D01*
Y000595D01*
X013286Y000654D01*
X013167D01*
X013108Y000595D01*
X000712Y002928D02*
X000647Y002994D01*
X000516D01*
X00045Y002928D01*
Y002862D01*
X000516Y002797D01*
X000647D01*
X000712Y002731D01*
Y002666D01*
X000647Y0026D01*
X000516D01*
X00045Y002666D01*
X000844Y002994D02*
Y0026D01*
X00104D01*
X001106Y002666D01*
Y002928D01*
X00104Y002994D01*
X000844D01*
X001237Y0026D02*
Y002862D01*
X001368Y002994D01*
X0015Y002862D01*
Y0026D01*
Y002797D01*
X001237D01*
X000762Y003978D02*
X000697Y004044D01*
X000566D01*
X0005Y003978D01*
Y003912D01*
X000566Y003847D01*
X000697D01*
X000762Y003781D01*
Y003716D01*
X000697Y00365D01*
X000566D01*
X0005Y003716D01*
X001156Y003978D02*
X00109Y004044D01*
X000959D01*
X000894Y003978D01*
Y003716D01*
X000959Y00365D01*
X00109D01*
X001156Y003716D01*
X001287Y004044D02*
Y00365D01*
X00155D01*
X00086Y007312D02*
X000807Y007365D01*
X000702D01*
X00065Y007312D01*
Y007102D01*
X000702Y00705D01*
X000807D01*
X00086Y007102D01*
Y007207D01*
X000755D01*
X000965Y00705D02*
X00107D01*
X001017D01*
Y007365D01*
X000965Y007312D01*
X001227Y007365D02*
X001437D01*
Y007312D01*
X001227Y007102D01*
Y00705D01*
X00081Y008362D02*
X000757Y008415D01*
X000652D01*
X0006Y008362D01*
Y008152D01*
X000652Y0081D01*
X000757D01*
X00081Y008152D01*
Y008257D01*
X000705D01*
X001125Y008415D02*
X000915D01*
Y008257D01*
X00102Y00831D01*
X001072D01*
X001125Y008257D01*
Y008152D01*
X001072Y0081D01*
X000967D01*
X000915Y008152D01*
X041431Y000986D02*
X041372Y000927D01*
Y000809D01*
X041431Y00075D01*
X041667D01*
X041726Y000809D01*
Y000927D01*
X041667Y000986D01*
X041431Y001104D02*
X041372Y001163D01*
Y001281D01*
X041431Y00134D01*
X04149D01*
X041549Y001281D01*
Y001222D01*
Y001281D01*
X041608Y00134D01*
X041667D01*
X041726Y001281D01*
Y001163D01*
X041667Y001104D01*
X041372Y001695D02*
Y001458D01*
X041549D01*
X04149Y001576D01*
Y001636D01*
X041549Y001695D01*
X041667D01*
X041726Y001636D01*
Y001517D01*
X041667Y001458D01*
X010523Y002418D02*
X010464Y002477D01*
X010346D01*
X010287Y002418D01*
Y002182D01*
X010346Y002123D01*
X010464D01*
X010523Y002182D01*
X010641Y002418D02*
X0107Y002477D01*
X010818D01*
X010877Y002418D01*
Y002359D01*
X010818Y0023D01*
X010759D01*
X010818D01*
X010877Y002241D01*
Y002182D01*
X010818Y002123D01*
X0107D01*
X010641Y002182D01*
X010995Y002123D02*
X011113D01*
X011054D01*
Y002477D01*
X010995Y002418D01*
X010696Y006375D02*
X010637Y006434D01*
X010519D01*
X01046Y006375D01*
Y006139D01*
X010519Y00608D01*
X010637D01*
X010696Y006139D01*
X010814Y006375D02*
X010873Y006434D01*
X010991D01*
X01105Y006375D01*
Y006316D01*
X010991Y006257D01*
X010932D01*
X010991D01*
X01105Y006198D01*
Y006139D01*
X010991Y00608D01*
X010873D01*
X010814Y006139D01*
X011168Y006375D02*
X011227Y006434D01*
X011346D01*
X011405Y006375D01*
Y006139D01*
X011346Y00608D01*
X011227D01*
X011168Y006139D01*
Y006375D01*
X023613Y025442D02*
X023553Y025501D01*
X023435D01*
X023376Y025442D01*
Y025206D01*
X023435Y025147D01*
X023553D01*
X023613Y025206D01*
X023967Y025147D02*
X023731D01*
X023967Y025383D01*
Y025442D01*
X023908Y025501D01*
X02379D01*
X023731Y025442D01*
X024085Y025501D02*
X024321D01*
Y025442D01*
X024085Y025206D01*
Y025147D01*
X030064Y020368D02*
X030005Y020427D01*
X029887D01*
X029828Y020368D01*
Y020132D01*
X029887Y020073D01*
X030005D01*
X030064Y020132D01*
X030418Y020073D02*
X030182D01*
X030418Y020309D01*
Y020368D01*
X030359Y020427D01*
X030241D01*
X030182Y020368D01*
X030772Y020427D02*
X030536D01*
Y02025D01*
X030654Y020309D01*
X030713D01*
X030772Y02025D01*
Y020132D01*
X030713Y020073D01*
X030595D01*
X030536Y020132D01*
X035232Y003064D02*
X035173Y003005D01*
Y002887D01*
X035232Y002828D01*
X035468D01*
X035527Y002887D01*
Y003005D01*
X035468Y003064D01*
X035527Y003418D02*
Y003182D01*
X035291Y003418D01*
X035232D01*
X035173Y003359D01*
Y003241D01*
X035232Y003182D01*
Y003536D02*
X035173Y003595D01*
Y003713D01*
X035232Y003772D01*
X035468D01*
X035527Y003713D01*
Y003595D01*
X035468Y003536D01*
X035232D01*
X041393Y016918D02*
X041334Y016977D01*
X041216D01*
X041157Y016918D01*
Y016682D01*
X041216Y016623D01*
X041334D01*
X041393Y016682D01*
X041511Y016623D02*
X04163D01*
X04157D01*
Y016977D01*
X041511Y016918D01*
X041807Y016682D02*
X041866Y016623D01*
X041984D01*
X042043Y016682D01*
Y016918D01*
X041984Y016977D01*
X041866D01*
X041807Y016918D01*
Y016859D01*
X041866Y0168D01*
X042043D01*
X044493Y016018D02*
X044434Y016077D01*
X044316D01*
X044257Y016018D01*
Y015782D01*
X044316Y015723D01*
X044434D01*
X044493Y015782D01*
X044611Y015723D02*
X04473D01*
X04467D01*
Y016077D01*
X044611Y016018D01*
X044907D02*
X044966Y016077D01*
X045084D01*
X045143Y016018D01*
Y015959D01*
X045084Y0159D01*
X045143Y015841D01*
Y015782D01*
X045084Y015723D01*
X044966D01*
X044907Y015782D01*
Y015841D01*
X044966Y0159D01*
X044907Y015959D01*
Y016018D01*
X044966Y0159D02*
X045084D01*
X02568Y003443D02*
Y003757D01*
X025838D01*
X02589Y003705D01*
Y0036D01*
X025838Y003548D01*
X02568D01*
X025785D02*
X02589Y003443D01*
X026152D02*
Y003757D01*
X025995Y0036D01*
X026205D01*
X02652Y003443D02*
X02631D01*
X02652Y003652D01*
Y003705D01*
X026467Y003757D01*
X026362D01*
X02631Y003705D01*
X016832Y005113D02*
X016773Y005054D01*
Y004936D01*
X016832Y004877D01*
X016891D01*
X01695Y004936D01*
Y005054D01*
X017009Y005113D01*
X017068D01*
X017127Y005054D01*
Y004936D01*
X017068Y004877D01*
X016773Y005231D02*
Y005349D01*
Y00529D01*
X017127D01*
Y005231D01*
Y005349D01*
Y005526D02*
X016773D01*
X016891Y005644D01*
X016773Y005762D01*
X017127D01*
X016832Y00647D02*
X016773Y006411D01*
Y006293D01*
X016832Y006234D01*
X016891D01*
X01695Y006293D01*
Y006411D01*
X017009Y00647D01*
X017068D01*
X017127Y006411D01*
Y006293D01*
X017068Y006234D01*
X017127Y006648D02*
Y006766D01*
X017068Y006825D01*
X01695D01*
X016891Y006766D01*
Y006648D01*
X01695Y006589D01*
X017068D01*
X017127Y006648D01*
X016891Y007179D02*
Y007002D01*
X01695Y006943D01*
X017068D01*
X017127Y007002D01*
Y007179D01*
Y007297D02*
X016773D01*
X017009D02*
X016891Y007474D01*
X017009Y007297D02*
X017127Y007474D01*
Y007828D02*
Y00771D01*
X017068Y007651D01*
X01695D01*
X016891Y00771D01*
Y007828D01*
X01695Y007887D01*
X017009D01*
Y007651D01*
X016832Y008064D02*
X016891D01*
Y008005D01*
Y008123D01*
Y008064D01*
X017068D01*
X017127Y008123D01*
X010422Y015847D02*
Y015519D01*
X010488Y015453D01*
X010619D01*
X010684Y015519D01*
Y015847D01*
X011078Y015453D02*
X010816D01*
X011078Y015716D01*
Y015781D01*
X011012Y015847D01*
X010881D01*
X010816Y015781D01*
X014764Y022527D02*
Y022232D01*
X014823Y022173D01*
X014941D01*
X015Y022232D01*
Y022527D01*
X015118Y022173D02*
X015236D01*
X015177D01*
Y022527D01*
X015118Y022468D01*
X003457Y00338D02*
X003143D01*
Y003538D01*
X003195Y00359D01*
X0033D01*
X003352Y003538D01*
Y00338D01*
Y003485D02*
X003457Y00359D01*
X003143Y003905D02*
Y003695D01*
X0033D01*
X003248Y0038D01*
Y003852D01*
X0033Y003905D01*
X003405D01*
X003457Y003852D01*
Y003748D01*
X003405Y003695D01*
X003143Y00422D02*
X003195Y004115D01*
X0033Y00401D01*
X003405D01*
X003457Y004062D01*
Y004167D01*
X003405Y00422D01*
X003352D01*
X0033Y004167D01*
Y00401D01*
X007407Y00353D02*
X007093D01*
Y003688D01*
X007145Y00374D01*
X00725D01*
X007302Y003688D01*
Y00353D01*
Y003635D02*
X007407Y00374D01*
X007093Y004055D02*
Y003845D01*
X00725D01*
X007198Y00395D01*
Y004002D01*
X00725Y004055D01*
X007355D01*
X007407Y004002D01*
Y003898D01*
X007355Y003845D01*
X007093Y00437D02*
Y00416D01*
X00725D01*
X007198Y004265D01*
Y004317D01*
X00725Y00437D01*
X007355D01*
X007407Y004317D01*
Y004212D01*
X007355Y00416D01*
X003457Y00603D02*
X003143D01*
Y006188D01*
X003195Y00624D01*
X0033D01*
X003352Y006188D01*
Y00603D01*
Y006135D02*
X003457Y00624D01*
X003143Y006555D02*
Y006345D01*
X0033D01*
X003248Y00645D01*
Y006502D01*
X0033Y006555D01*
X003405D01*
X003457Y006502D01*
Y006398D01*
X003405Y006345D01*
X003457Y006817D02*
X003143D01*
X0033Y00666D01*
Y00687D01*
X007307Y00608D02*
X006993D01*
Y006238D01*
X007045Y00629D01*
X00715D01*
X007202Y006238D01*
Y00608D01*
Y006185D02*
X007307Y00629D01*
X006993Y006605D02*
Y006395D01*
X00715D01*
X007098Y0065D01*
Y006552D01*
X00715Y006605D01*
X007255D01*
X007307Y006552D01*
Y006448D01*
X007255Y006395D01*
X007045Y00671D02*
X006993Y006762D01*
Y006867D01*
X007045Y00692D01*
X007098D01*
X00715Y006867D01*
Y006815D01*
Y006867D01*
X007202Y00692D01*
X007255D01*
X007307Y006867D01*
Y006762D01*
X007255Y00671D01*
X01153Y009993D02*
Y010307D01*
X011688D01*
X01174Y010255D01*
Y01015D01*
X011688Y010098D01*
X01153D01*
X011635D02*
X01174Y009993D01*
X012055Y010307D02*
X011845D01*
Y01015D01*
X01195Y010202D01*
X012002D01*
X012055Y01015D01*
Y010045D01*
X012002Y009993D01*
X011898D01*
X011845Y010045D01*
X01237Y009993D02*
X01216D01*
X01237Y010202D01*
Y010255D01*
X012317Y010307D01*
X012212D01*
X01216Y010255D01*
X04222Y00675D02*
Y007065D01*
X042377D01*
X04243Y007012D01*
Y006907D01*
X042377Y006855D01*
X04222D01*
X042325D02*
X04243Y00675D01*
X042745Y007065D02*
X042535D01*
Y006907D01*
X04264Y00696D01*
X042692D01*
X042745Y006907D01*
Y006802D01*
X042692Y00675D01*
X042587D01*
X042535Y006802D01*
X04285Y00675D02*
X042955D01*
X042902D01*
Y007065D01*
X04285Y007012D01*
X03912Y0067D02*
Y007015D01*
X039277D01*
X03933Y006962D01*
Y006857D01*
X039277Y006805D01*
X03912D01*
X039225D02*
X03933Y0067D01*
X039645Y007015D02*
X039435D01*
Y006857D01*
X03954Y00691D01*
X039592D01*
X039645Y006857D01*
Y006752D01*
X039592Y0067D01*
X039487D01*
X039435Y006752D01*
X03975Y006962D02*
X039802Y007015D01*
X039907D01*
X03996Y006962D01*
Y006752D01*
X039907Y0067D01*
X039802D01*
X03975Y006752D01*
Y006962D01*
X01283Y009993D02*
Y010307D01*
X012988D01*
X01304Y010255D01*
Y01015D01*
X012988Y010098D01*
X01283D01*
X012935D02*
X01304Y009993D01*
X013302D02*
Y010307D01*
X013145Y01015D01*
X013355D01*
X01346Y010045D02*
X013512Y009993D01*
X013617D01*
X01367Y010045D01*
Y010255D01*
X013617Y010307D01*
X013512D01*
X01346Y010255D01*
Y010202D01*
X013512Y01015D01*
X01367D01*
X003457Y00128D02*
X003143D01*
Y001438D01*
X003195Y00149D01*
X0033D01*
X003352Y001438D01*
Y00128D01*
Y001385D02*
X003457Y00149D01*
Y001752D02*
X003143D01*
X0033Y001595D01*
Y001805D01*
X003195Y00191D02*
X003143Y001962D01*
Y002067D01*
X003195Y00212D01*
X003248D01*
X0033Y002067D01*
X003352Y00212D01*
X003405D01*
X003457Y002067D01*
Y001962D01*
X003405Y00191D01*
X003352D01*
X0033Y001962D01*
X003248Y00191D01*
X003195D01*
X0033Y001962D02*
Y002067D01*
X007407Y00138D02*
X007093D01*
Y001538D01*
X007145Y00159D01*
X00725D01*
X007302Y001538D01*
Y00138D01*
Y001485D02*
X007407Y00159D01*
Y001852D02*
X007093D01*
X00725Y001695D01*
Y001905D01*
X007093Y00201D02*
Y00222D01*
X007145D01*
X007355Y00201D01*
X007407D01*
X003628Y009973D02*
Y010327D01*
X003805D01*
X003864Y010268D01*
Y01015D01*
X003805Y010091D01*
X003628D01*
X003746D02*
X003864Y009973D01*
X004159D02*
Y010327D01*
X003982Y01015D01*
X004218D01*
X004572Y010327D02*
X004454Y010268D01*
X004336Y01015D01*
Y010032D01*
X004395Y009973D01*
X004513D01*
X004572Y010032D01*
Y010091D01*
X004513Y01015D01*
X004336D01*
X007428Y009973D02*
Y010327D01*
X007605D01*
X007664Y010268D01*
Y01015D01*
X007605Y010091D01*
X007428D01*
X007546D02*
X007664Y009973D01*
X007959D02*
Y010327D01*
X007782Y01015D01*
X008018D01*
X008372Y010327D02*
X008136D01*
Y01015D01*
X008254Y010209D01*
X008313D01*
X008372Y01015D01*
Y010032D01*
X008313Y009973D01*
X008195D01*
X008136Y010032D01*
X04308Y002193D02*
Y002507D01*
X043238D01*
X04329Y002455D01*
Y00235D01*
X043238Y002298D01*
X04308D01*
X043185D02*
X04329Y002193D01*
X043552D02*
Y002507D01*
X043395Y00235D01*
X043605D01*
X043867Y002193D02*
Y002507D01*
X04371Y00235D01*
X04392D01*
X03908Y001593D02*
Y001907D01*
X039238D01*
X03929Y001855D01*
Y00175D01*
X039238Y001698D01*
X03908D01*
X039185D02*
X03929Y001593D01*
X039552D02*
Y001907D01*
X039395Y00175D01*
X039605D01*
X03971Y001855D02*
X039762Y001907D01*
X039867D01*
X03992Y001855D01*
Y001802D01*
X039867Y00175D01*
X039815D01*
X039867D01*
X03992Y001698D01*
Y001645D01*
X039867Y001593D01*
X039762D01*
X03971Y001645D01*
X02492Y00895D02*
Y009265D01*
X025077D01*
X02513Y009212D01*
Y009107D01*
X025077Y009055D01*
X02492D01*
X025025D02*
X02513Y00895D01*
X025392D02*
Y009265D01*
X025235Y009107D01*
X025445D01*
X02555Y00895D02*
X025655D01*
X025602D01*
Y009265D01*
X02555Y009212D01*
X02538Y000643D02*
Y000957D01*
X025538D01*
X02559Y000905D01*
Y0008D01*
X025538Y000748D01*
X02538D01*
X025485D02*
X02559Y000643D01*
X025852D02*
Y000957D01*
X025695Y0008D01*
X025905D01*
X02601Y000905D02*
X026062Y000957D01*
X026167D01*
X02622Y000905D01*
Y000695D01*
X026167Y000643D01*
X026062D01*
X02601Y000695D01*
Y000905D01*
X03158Y024943D02*
Y025257D01*
X031738D01*
X03179Y025205D01*
Y0251D01*
X031738Y025048D01*
X03158D01*
X031685D02*
X03179Y024943D01*
X031895Y025205D02*
X031948Y025257D01*
X032052D01*
X032105Y025205D01*
Y025152D01*
X032052Y0251D01*
X032D01*
X032052D01*
X032105Y025048D01*
Y024995D01*
X032052Y024943D01*
X031948D01*
X031895Y024995D01*
X03221D02*
X032262Y024943D01*
X032367D01*
X03242Y024995D01*
Y025205D01*
X032367Y025257D01*
X032262D01*
X03221Y025205D01*
Y025152D01*
X032262Y0251D01*
X03242D01*
X03158Y021693D02*
Y022007D01*
X031738D01*
X03179Y021955D01*
Y02185D01*
X031738Y021798D01*
X03158D01*
X031685D02*
X03179Y021693D01*
X031895Y021955D02*
X031948Y022007D01*
X032052D01*
X032105Y021955D01*
Y021902D01*
X032052Y02185D01*
X032D01*
X032052D01*
X032105Y021798D01*
Y021745D01*
X032052Y021693D01*
X031948D01*
X031895Y021745D01*
X03221Y021955D02*
X032262Y022007D01*
X032367D01*
X03242Y021955D01*
Y021902D01*
X032367Y02185D01*
X03242Y021798D01*
Y021745D01*
X032367Y021693D01*
X032262D01*
X03221Y021745D01*
Y021798D01*
X032262Y02185D01*
X03221Y021902D01*
Y021955D01*
X032262Y02185D02*
X032367D01*
X02733Y024843D02*
Y025157D01*
X027488D01*
X02754Y025105D01*
Y025D01*
X027488Y024948D01*
X02733D01*
X027435D02*
X02754Y024843D01*
X027645Y025105D02*
X027698Y025157D01*
X027802D01*
X027855Y025105D01*
Y025052D01*
X027802Y025D01*
X02775D01*
X027802D01*
X027855Y024948D01*
Y024895D01*
X027802Y024843D01*
X027698D01*
X027645Y024895D01*
X02796Y025157D02*
X02817D01*
Y025105D01*
X02796Y024895D01*
Y024843D01*
X02728Y021643D02*
Y021957D01*
X027438D01*
X02749Y021905D01*
Y0218D01*
X027438Y021748D01*
X02728D01*
X027385D02*
X02749Y021643D01*
X027595Y021905D02*
X027648Y021957D01*
X027752D01*
X027805Y021905D01*
Y021852D01*
X027752Y0218D01*
X0277D01*
X027752D01*
X027805Y021748D01*
Y021695D01*
X027752Y021643D01*
X027648D01*
X027595Y021695D01*
X02812Y021957D02*
X028015Y021905D01*
X02791Y0218D01*
Y021695D01*
X027962Y021643D01*
X028067D01*
X02812Y021695D01*
Y021748D01*
X028067Y0218D01*
X02791D01*
X03128Y006793D02*
Y007107D01*
X031438D01*
X03149Y007055D01*
Y00695D01*
X031438Y006898D01*
X03128D01*
X031385D02*
X03149Y006793D01*
X031595Y007055D02*
X031648Y007107D01*
X031752D01*
X031805Y007055D01*
Y007002D01*
X031752Y00695D01*
X0317D01*
X031752D01*
X031805Y006898D01*
Y006845D01*
X031752Y006793D01*
X031648D01*
X031595Y006845D01*
X03212Y007107D02*
X03191D01*
Y00695D01*
X032015Y007002D01*
X032067D01*
X03212Y00695D01*
Y006845D01*
X032067Y006793D01*
X031962D01*
X03191Y006845D01*
X02813Y001193D02*
Y001507D01*
X028288D01*
X02834Y001455D01*
Y00135D01*
X028288Y001298D01*
X02813D01*
X028235D02*
X02834Y001193D01*
X028445Y001455D02*
X028498Y001507D01*
X028602D01*
X028655Y001455D01*
Y001402D01*
X028602Y00135D01*
X02855D01*
X028602D01*
X028655Y001298D01*
Y001245D01*
X028602Y001193D01*
X028498D01*
X028445Y001245D01*
X028917Y001193D02*
Y001507D01*
X02876Y00135D01*
X02897D01*
X03013Y004643D02*
Y004957D01*
X030288D01*
X03034Y004905D01*
Y0048D01*
X030288Y004748D01*
X03013D01*
X030235D02*
X03034Y004643D01*
X030445Y004905D02*
X030498Y004957D01*
X030602D01*
X030655Y004905D01*
Y004852D01*
X030602Y0048D01*
X03055D01*
X030602D01*
X030655Y004748D01*
Y004695D01*
X030602Y004643D01*
X030498D01*
X030445Y004695D01*
X03076Y004905D02*
X030812Y004957D01*
X030917D01*
X03097Y004905D01*
Y004852D01*
X030917Y0048D01*
X030865D01*
X030917D01*
X03097Y004748D01*
Y004695D01*
X030917Y004643D01*
X030812D01*
X03076Y004695D01*
X03373Y006743D02*
Y007057D01*
X033888D01*
X03394Y007005D01*
Y0069D01*
X033888Y006848D01*
X03373D01*
X033835D02*
X03394Y006743D01*
X034045Y007005D02*
X034098Y007057D01*
X034202D01*
X034255Y007005D01*
Y006952D01*
X034202Y0069D01*
X03415D01*
X034202D01*
X034255Y006848D01*
Y006795D01*
X034202Y006743D01*
X034098D01*
X034045Y006795D01*
X03457Y006743D02*
X03436D01*
X03457Y006952D01*
Y007005D01*
X034517Y007057D01*
X034412D01*
X03436Y007005D01*
X019033Y024193D02*
Y024507D01*
X01919D01*
X019243Y024455D01*
Y02435D01*
X01919Y024298D01*
X019033D01*
X019138D02*
X019243Y024193D01*
X019348Y024455D02*
X0194Y024507D01*
X019505D01*
X019557Y024455D01*
Y024402D01*
X019505Y02435D01*
X019452D01*
X019505D01*
X019557Y024298D01*
Y024245D01*
X019505Y024193D01*
X0194D01*
X019348Y024245D01*
X019662Y024193D02*
X019767D01*
X019715D01*
Y024507D01*
X019662Y024455D01*
X02493Y024843D02*
Y025157D01*
X025088D01*
X02514Y025105D01*
Y025D01*
X025088Y024948D01*
X02493D01*
X025035D02*
X02514Y024843D01*
X025245Y025105D02*
X025298Y025157D01*
X025402D01*
X025455Y025105D01*
Y025052D01*
X025402Y025D01*
X02535D01*
X025402D01*
X025455Y024948D01*
Y024895D01*
X025402Y024843D01*
X025298D01*
X025245Y024895D01*
X02556Y025105D02*
X025612Y025157D01*
X025717D01*
X02577Y025105D01*
Y024895D01*
X025717Y024843D01*
X025612D01*
X02556Y024895D01*
Y025105D01*
X02503Y021693D02*
Y022007D01*
X025188D01*
X02524Y021955D01*
Y02185D01*
X025188Y021798D01*
X02503D01*
X025135D02*
X02524Y021693D01*
X025555D02*
X025345D01*
X025555Y021902D01*
Y021955D01*
X025502Y022007D01*
X025398D01*
X025345Y021955D01*
X02566Y021745D02*
X025712Y021693D01*
X025817D01*
X02587Y021745D01*
Y021955D01*
X025817Y022007D01*
X025712D01*
X02566Y021955D01*
Y021902D01*
X025712Y02185D01*
X02587D01*
X02938Y024893D02*
Y025207D01*
X029538D01*
X02959Y025155D01*
Y02505D01*
X029538Y024998D01*
X02938D01*
X029485D02*
X02959Y024893D01*
X029905D02*
X029695D01*
X029905Y025102D01*
Y025155D01*
X029852Y025207D01*
X029748D01*
X029695Y025155D01*
X03001D02*
X030062Y025207D01*
X030167D01*
X03022Y025155D01*
Y025102D01*
X030167Y02505D01*
X03022Y024998D01*
Y024945D01*
X030167Y024893D01*
X030062D01*
X03001Y024945D01*
Y024998D01*
X030062Y02505D01*
X03001Y025102D01*
Y025155D01*
X030062Y02505D02*
X030167D01*
X02933Y021693D02*
Y022007D01*
X029488D01*
X02954Y021955D01*
Y02185D01*
X029488Y021798D01*
X02933D01*
X029435D02*
X02954Y021693D01*
X029855D02*
X029645D01*
X029855Y021902D01*
Y021955D01*
X029802Y022007D01*
X029698D01*
X029645Y021955D01*
X02996Y022007D02*
X03017D01*
Y021955D01*
X02996Y021745D01*
Y021693D01*
X02043Y024243D02*
Y024557D01*
X020588D01*
X02064Y024505D01*
Y0244D01*
X020588Y024348D01*
X02043D01*
X020535D02*
X02064Y024243D01*
X020955D02*
X020745D01*
X020955Y024452D01*
Y024505D01*
X020902Y024557D01*
X020798D01*
X020745Y024505D01*
X02127Y024557D02*
X021165Y024505D01*
X02106Y0244D01*
Y024295D01*
X021112Y024243D01*
X021217D01*
X02127Y024295D01*
Y024348D01*
X021217Y0244D01*
X02106D01*
X03408Y021343D02*
Y021657D01*
X034238D01*
X03429Y021605D01*
Y0215D01*
X034238Y021448D01*
X03408D01*
X034185D02*
X03429Y021343D01*
X034605D02*
X034395D01*
X034605Y021552D01*
Y021605D01*
X034552Y021657D01*
X034448D01*
X034395Y021605D01*
X03492Y021657D02*
X03471D01*
Y0215D01*
X034815Y021552D01*
X034867D01*
X03492Y0215D01*
Y021395D01*
X034867Y021343D01*
X034762D01*
X03471Y021395D01*
X01932Y0149D02*
Y015215D01*
X019477D01*
X01953Y015162D01*
Y015057D01*
X019477Y015005D01*
X01932D01*
X019425D02*
X01953Y0149D01*
X019845D02*
X019635D01*
X019845Y01511D01*
Y015162D01*
X019792Y015215D01*
X019687D01*
X019635Y015162D01*
X020107Y0149D02*
Y015215D01*
X01995Y015057D01*
X02016D01*
X035579Y006915D02*
Y00723D01*
X035736D01*
X035789Y007177D01*
Y007072D01*
X035736Y00702D01*
X035579D01*
X035684D02*
X035789Y006915D01*
X036104D02*
X035894D01*
X036104Y007125D01*
Y007177D01*
X036051Y00723D01*
X035946D01*
X035894Y007177D01*
X036209D02*
X036261Y00723D01*
X036366D01*
X036418Y007177D01*
Y007125D01*
X036366Y007072D01*
X036314D01*
X036366D01*
X036418Y00702D01*
Y006967D01*
X036366Y006915D01*
X036261D01*
X036209Y006967D01*
X03562Y02427D02*
Y024585D01*
X035777D01*
X03583Y024532D01*
Y024427D01*
X035777Y024375D01*
X03562D01*
X035725D02*
X03583Y02427D01*
X036145D02*
X035935D01*
X036145Y02448D01*
Y024532D01*
X036092Y024585D01*
X035987D01*
X035935Y024532D01*
X03646Y02427D02*
X03625D01*
X03646Y02448D01*
Y024532D01*
X036407Y024585D01*
X036302D01*
X03625Y024532D01*
X042333Y021043D02*
Y021357D01*
X04249D01*
X042543Y021305D01*
Y0212D01*
X04249Y021148D01*
X042333D01*
X042438D02*
X042543Y021043D01*
X042857D02*
X042648D01*
X042857Y021252D01*
Y021305D01*
X042805Y021357D01*
X0427D01*
X042648Y021305D01*
X042962Y021043D02*
X043067D01*
X043015D01*
Y021357D01*
X042962Y021305D01*
X04213Y017593D02*
Y017907D01*
X042288D01*
X04234Y017855D01*
Y01775D01*
X042288Y017698D01*
X04213D01*
X042235D02*
X04234Y017593D01*
X042655D02*
X042445D01*
X042655Y017802D01*
Y017855D01*
X042602Y017907D01*
X042498D01*
X042445Y017855D01*
X04276D02*
X042812Y017907D01*
X042917D01*
X04297Y017855D01*
Y017645D01*
X042917Y017593D01*
X042812D01*
X04276Y017645D01*
Y017855D01*
X036756Y006893D02*
Y007207D01*
X036914D01*
X036966Y007155D01*
Y00705D01*
X036914Y006998D01*
X036756D01*
X036861D02*
X036966Y006893D01*
X037071D02*
X037176D01*
X037124D01*
Y007207D01*
X037071Y007155D01*
X037334Y006945D02*
X037386Y006893D01*
X037491D01*
X037544Y006945D01*
Y007155D01*
X037491Y007207D01*
X037386D01*
X037334Y007155D01*
Y007102D01*
X037386Y00705D01*
X037544D01*
X016493Y003244D02*
X016807D01*
Y003086D01*
X016755Y003034D01*
X01665D01*
X016598Y003086D01*
Y003244D01*
Y003139D02*
X016493Y003034D01*
Y002929D02*
Y002824D01*
Y002876D01*
X016807D01*
X016755Y002929D01*
Y002666D02*
X016807Y002614D01*
Y002509D01*
X016755Y002456D01*
X016702D01*
X01665Y002509D01*
X016598Y002456D01*
X016545D01*
X016493Y002509D01*
Y002614D01*
X016545Y002666D01*
X016598D01*
X01665Y002614D01*
X016702Y002666D01*
X016755D01*
X01665Y002614D02*
Y002509D01*
X014806Y006543D02*
Y006857D01*
X014964D01*
X015016Y006805D01*
Y0067D01*
X014964Y006648D01*
X014806D01*
X014911D02*
X015016Y006543D01*
X015121D02*
X015226D01*
X015174D01*
Y006857D01*
X015121Y006805D01*
X015384Y006857D02*
X015594D01*
Y006805D01*
X015384Y006595D01*
Y006543D01*
X011757Y002456D02*
X011443D01*
Y002614D01*
X011495Y002666D01*
X0116D01*
X011652Y002614D01*
Y002456D01*
Y002561D02*
X011757Y002666D01*
Y002771D02*
Y002876D01*
Y002824D01*
X011443D01*
X011495Y002771D01*
X011443Y003244D02*
X011495Y003139D01*
X0116Y003034D01*
X011705D01*
X011757Y003086D01*
Y003191D01*
X011705Y003244D01*
X011652D01*
X0116Y003191D01*
Y003034D01*
X012256Y006543D02*
Y006857D01*
X012414D01*
X012466Y006805D01*
Y0067D01*
X012414Y006648D01*
X012256D01*
X012361D02*
X012466Y006543D01*
X012571D02*
X012676D01*
X012624D01*
Y006857D01*
X012571Y006805D01*
X013044Y006857D02*
X012834D01*
Y0067D01*
X012939Y006752D01*
X012991D01*
X013044Y0067D01*
Y006595D01*
X012991Y006543D01*
X012886D01*
X012834Y006595D01*
X019256Y015643D02*
Y015957D01*
X019414D01*
X019466Y015905D01*
Y0158D01*
X019414Y015748D01*
X019256D01*
X019361D02*
X019466Y015643D01*
X019571D02*
X019676D01*
X019624D01*
Y015957D01*
X019571Y015905D01*
X019991Y015643D02*
Y015957D01*
X019834Y0158D01*
X020044D01*
X020906Y015743D02*
Y016057D01*
X021064D01*
X021116Y016005D01*
Y0159D01*
X021064Y015848D01*
X020906D01*
X021011D02*
X021116Y015743D01*
X021221D02*
X021326D01*
X021274D01*
Y016057D01*
X021221Y016005D01*
X021484D02*
X021536Y016057D01*
X021641D01*
X021694Y016005D01*
Y015952D01*
X021641Y0159D01*
X021589D01*
X021641D01*
X021694Y015848D01*
Y015795D01*
X021641Y015743D01*
X021536D01*
X021484Y015795D01*
X026606Y017043D02*
Y017357D01*
X026764D01*
X026816Y017305D01*
Y0172D01*
X026764Y017148D01*
X026606D01*
X026711D02*
X026816Y017043D01*
X026921D02*
X027026D01*
X026974D01*
Y017357D01*
X026921Y017305D01*
X027394Y017043D02*
X027184D01*
X027394Y017252D01*
Y017305D01*
X027341Y017357D01*
X027236D01*
X027184Y017305D01*
X041559Y014293D02*
Y014607D01*
X041716D01*
X041769Y014555D01*
Y01445D01*
X041716Y014398D01*
X041559D01*
X041664D02*
X041769Y014293D01*
X041874D02*
X041979D01*
X041926D01*
Y014607D01*
X041874Y014555D01*
X042136Y014293D02*
X042241D01*
X042189D01*
Y014607D01*
X042136Y014555D01*
X020856Y019093D02*
Y019407D01*
X021014D01*
X021066Y019355D01*
Y01925D01*
X021014Y019198D01*
X020856D01*
X020961D02*
X021066Y019093D01*
X021171D02*
X021276D01*
X021224D01*
Y019407D01*
X021171Y019355D01*
X021434D02*
X021486Y019407D01*
X021591D01*
X021644Y019355D01*
Y019145D01*
X021591Y019093D01*
X021486D01*
X021434Y019145D01*
Y019355D01*
X024138Y015693D02*
Y016007D01*
X024295D01*
X024348Y015955D01*
Y01585D01*
X024295Y015798D01*
X024138D01*
X024243D02*
X024348Y015693D01*
X024452Y015745D02*
X024505Y015693D01*
X02461D01*
X024662Y015745D01*
Y015955D01*
X02461Y016007D01*
X024505D01*
X024452Y015955D01*
Y015902D01*
X024505Y01585D01*
X024662D01*
X022738Y019643D02*
Y019957D01*
X022895D01*
X022948Y019905D01*
Y0198D01*
X022895Y019748D01*
X022738D01*
X022843D02*
X022948Y019643D01*
X023052Y019905D02*
X023105Y019957D01*
X02321D01*
X023262Y019905D01*
Y019852D01*
X02321Y0198D01*
X023262Y019748D01*
Y019695D01*
X02321Y019643D01*
X023105D01*
X023052Y019695D01*
Y019748D01*
X023105Y0198D01*
X023052Y019852D01*
Y019905D01*
X023105Y0198D02*
X02321D01*
X039588Y022593D02*
Y022907D01*
X039745D01*
X039798Y022855D01*
Y02275D01*
X039745Y022698D01*
X039588D01*
X039693D02*
X039798Y022593D01*
X039902Y022907D02*
X040112D01*
Y022855D01*
X039902Y022645D01*
Y022593D01*
X03777Y02405D02*
Y024365D01*
X037927D01*
X03798Y024312D01*
Y024207D01*
X037927Y024155D01*
X03777D01*
X037875D02*
X03798Y02405D01*
X038295Y024365D02*
X03819Y024312D01*
X038085Y024207D01*
Y024102D01*
X038137Y02405D01*
X038242D01*
X038295Y024102D01*
Y024155D01*
X038242Y024207D01*
X038085D01*
X045193Y022612D02*
X045507D01*
Y022455D01*
X045455Y022402D01*
X04535D01*
X045298Y022455D01*
Y022612D01*
Y022507D02*
X045193Y022402D01*
X045507Y022088D02*
Y022298D01*
X04535D01*
X045402Y022193D01*
Y02214D01*
X04535Y022088D01*
X045245D01*
X045193Y02214D01*
Y022245D01*
X045245Y022298D01*
X004672Y026253D02*
Y026647D01*
X004869D01*
X004934Y026581D01*
Y02645D01*
X004869Y026384D01*
X004672D01*
X004803D02*
X004934Y026253D01*
X005262D02*
Y026647D01*
X005066Y02645D01*
X005328D01*
X043538Y023643D02*
Y023957D01*
X043695D01*
X043748Y023905D01*
Y0238D01*
X043695Y023748D01*
X043538D01*
X043643D02*
X043748Y023643D01*
X043852Y023905D02*
X043905Y023957D01*
X04401D01*
X044062Y023905D01*
Y023852D01*
X04401Y0238D01*
X043957D01*
X04401D01*
X044062Y023748D01*
Y023695D01*
X04401Y023643D01*
X043905D01*
X043852Y023695D01*
X010722Y022603D02*
Y022997D01*
X010919D01*
X010984Y022931D01*
Y0228D01*
X010919Y022734D01*
X010722D01*
X010853D02*
X010984Y022603D01*
X011378D02*
X011116D01*
X011378Y022866D01*
Y022931D01*
X011312Y022997D01*
X011181D01*
X011116Y022931D01*
X008188Y022603D02*
Y022997D01*
X008384D01*
X00845Y022931D01*
Y0228D01*
X008384Y022734D01*
X008188D01*
X008319D02*
X00845Y022603D01*
X008581D02*
X008712D01*
X008647D01*
Y022997D01*
X008581Y022931D01*
X005903Y004869D02*
Y005131D01*
X005838Y005197D01*
X005706D01*
X005641Y005131D01*
Y004869D01*
X005706Y004803D01*
X005838D01*
X005772Y004934D02*
X005903Y004803D01*
X005838D02*
X005903Y004869D01*
X006297Y004803D02*
X006034D01*
X006297Y005066D01*
Y005131D01*
X006231Y005197D01*
X0061D01*
X006034Y005131D01*
X006428Y004803D02*
X006559D01*
X006494D01*
Y005197D01*
X006428Y005131D01*
X005714Y007332D02*
Y007568D01*
X005655Y007627D01*
X005537D01*
X005478Y007568D01*
Y007332D01*
X005537Y007273D01*
X005655D01*
X005596Y007391D02*
X005714Y007273D01*
X005655D02*
X005714Y007332D01*
X006068Y007273D02*
X005832D01*
X006068Y007509D01*
Y007568D01*
X006009Y007627D01*
X005891D01*
X005832Y007568D01*
X006186D02*
X006245Y007627D01*
X006363D01*
X006422Y007568D01*
Y007332D01*
X006363Y007273D01*
X006245D01*
X006186Y007332D01*
Y007568D01*
X040743Y006382D02*
Y006618D01*
X040684Y006677D01*
X040566D01*
X040507Y006618D01*
Y006382D01*
X040566Y006323D01*
X040684D01*
X040625Y006441D02*
X040743Y006323D01*
X040684D02*
X040743Y006382D01*
X040861Y006323D02*
X04098D01*
X04092D01*
Y006677D01*
X040861Y006618D01*
X041157Y006382D02*
X041216Y006323D01*
X041334D01*
X041393Y006382D01*
Y006618D01*
X041334Y006677D01*
X041216D01*
X041157Y006618D01*
Y006559D01*
X041216Y0065D01*
X041393D01*
X00582Y002569D02*
Y002831D01*
X005755Y002897D01*
X005624D01*
X005558Y002831D01*
Y002569D01*
X005624Y002503D01*
X005755D01*
X005689Y002634D02*
X00582Y002503D01*
X005755D02*
X00582Y002569D01*
X005952Y002503D02*
X006083D01*
X006017D01*
Y002897D01*
X005952Y002831D01*
X00628D02*
X006345Y002897D01*
X006476D01*
X006542Y002831D01*
Y002766D01*
X006476Y0027D01*
X006542Y002634D01*
Y002569D01*
X006476Y002503D01*
X006345D01*
X00628Y002569D01*
Y002634D01*
X006345Y0027D01*
X00628Y002766D01*
Y002831D01*
X006345Y0027D02*
X006476D01*
X005693Y009932D02*
Y010168D01*
X005634Y010227D01*
X005516D01*
X005457Y010168D01*
Y009932D01*
X005516Y009873D01*
X005634D01*
X005575Y009991D02*
X005693Y009873D01*
X005634D02*
X005693Y009932D01*
X005811Y009873D02*
X00593D01*
X00587D01*
Y010227D01*
X005811Y010168D01*
X006107Y010227D02*
X006343D01*
Y010168D01*
X006107Y009932D01*
Y009873D01*
X040843Y004232D02*
Y004468D01*
X040784Y004527D01*
X040666D01*
X040607Y004468D01*
Y004232D01*
X040666Y004173D01*
X040784D01*
X040725Y004291D02*
X040843Y004173D01*
X040784D02*
X040843Y004232D01*
X040961Y004173D02*
X04108D01*
X04102D01*
Y004527D01*
X040961Y004468D01*
X041493Y004527D02*
X041375Y004468D01*
X041257Y00435D01*
Y004232D01*
X041316Y004173D01*
X041434D01*
X041493Y004232D01*
Y004291D01*
X041434Y00435D01*
X041257D01*
X031068Y022543D02*
X030832D01*
X030773Y022484D01*
Y022366D01*
X030832Y022307D01*
X031068D01*
X031127Y022366D01*
Y022484D01*
X031009Y022425D02*
X031127Y022543D01*
Y022484D02*
X031068Y022543D01*
X031127Y022661D02*
Y02278D01*
Y02272D01*
X030773D01*
X030832Y022661D01*
X030773Y023193D02*
Y022957D01*
X03095D01*
X030891Y023075D01*
Y023134D01*
X03095Y023193D01*
X031068D01*
X031127Y023134D01*
Y023016D01*
X031068Y022957D01*
X026668Y022643D02*
X026432D01*
X026373Y022584D01*
Y022466D01*
X026432Y022407D01*
X026668D01*
X026727Y022466D01*
Y022584D01*
X026609Y022525D02*
X026727Y022643D01*
Y022584D02*
X026668Y022643D01*
X026727Y022761D02*
Y02288D01*
Y02282D01*
X026373D01*
X026432Y022761D01*
X026727Y023234D02*
X026373D01*
X02655Y023057D01*
Y023293D01*
X030316Y006795D02*
Y007005D01*
X030264Y007057D01*
X030159D01*
X030106Y007005D01*
Y006795D01*
X030159Y006743D01*
X030264D01*
X030211Y006848D02*
X030316Y006743D01*
X030264D02*
X030316Y006795D01*
X030421Y006743D02*
X030526D01*
X030474D01*
Y007057D01*
X030421Y007005D01*
X030684D02*
X030736Y007057D01*
X030841D01*
X030894Y007005D01*
Y006952D01*
X030841Y0069D01*
X030789D01*
X030841D01*
X030894Y006848D01*
Y006795D01*
X030841Y006743D01*
X030736D01*
X030684Y006795D01*
X034532Y003707D02*
X034768D01*
X034827Y003766D01*
Y003884D01*
X034768Y003943D01*
X034532D01*
X034473Y003884D01*
Y003766D01*
X034591Y003825D02*
X034473Y003707D01*
Y003766D02*
X034532Y003707D01*
X034473Y003589D02*
Y00347D01*
Y00353D01*
X034827D01*
X034768Y003589D01*
X034473Y003057D02*
Y003293D01*
X034709Y003057D01*
X034768D01*
X034827Y003116D01*
Y003234D01*
X034768Y003293D01*
X024518Y022802D02*
X024282D01*
X024223Y022743D01*
Y022625D01*
X024282Y022566D01*
X024518D01*
X024577Y022625D01*
Y022743D01*
X024459Y022684D02*
X024577Y022802D01*
Y022743D02*
X024518Y022802D01*
X024577Y02292D02*
Y023039D01*
Y02298D01*
X024223D01*
X024282Y02292D01*
X024577Y023216D02*
Y023334D01*
Y023275D01*
X024223D01*
X024282Y023216D01*
X028918Y022593D02*
X028682D01*
X028623Y022534D01*
Y022416D01*
X028682Y022357D01*
X028918D01*
X028977Y022416D01*
Y022534D01*
X028859Y022475D02*
X028977Y022593D01*
Y022534D02*
X028918Y022593D01*
X028977Y022711D02*
Y02283D01*
Y02277D01*
X028623D01*
X028682Y022711D01*
Y023007D02*
X028623Y023066D01*
Y023184D01*
X028682Y023243D01*
X028918D01*
X028977Y023184D01*
Y023066D01*
X028918Y023007D01*
X028682D01*
X020841Y021332D02*
Y021568D01*
X020782Y021627D01*
X020664D01*
X020605Y021568D01*
Y021332D01*
X020664Y021273D01*
X020782D01*
X020723Y021391D02*
X020841Y021273D01*
X020782D02*
X020841Y021332D01*
X020959D02*
X021018Y021273D01*
X021136D01*
X021195Y021332D01*
Y021568D01*
X021136Y021627D01*
X021018D01*
X020959Y021568D01*
Y021509D01*
X021018Y02145D01*
X021195D01*
X036141Y021332D02*
Y021568D01*
X036082Y021627D01*
X035964D01*
X035905Y021568D01*
Y021332D01*
X035964Y021273D01*
X036082D01*
X036023Y021391D02*
X036141Y021273D01*
X036082D02*
X036141Y021332D01*
X036259Y021568D02*
X036318Y021627D01*
X036436D01*
X036495Y021568D01*
Y021509D01*
X036436Y02145D01*
X036495Y021391D01*
Y021332D01*
X036436Y021273D01*
X036318D01*
X036259Y021332D01*
Y021391D01*
X036318Y02145D01*
X036259Y021509D01*
Y021568D01*
X036318Y02145D02*
X036436D01*
X041348Y021095D02*
Y021305D01*
X041295Y021357D01*
X04119D01*
X041138Y021305D01*
Y021095D01*
X04119Y021043D01*
X041295D01*
X041243Y021148D02*
X041348Y021043D01*
X041295D02*
X041348Y021095D01*
X041452Y021357D02*
X041662D01*
Y021305D01*
X041452Y021095D01*
Y021043D01*
X016341Y004282D02*
Y004518D01*
X016282Y004577D01*
X016164D01*
X016105Y004518D01*
Y004282D01*
X016164Y004223D01*
X016282D01*
X016223Y004341D02*
X016341Y004223D01*
X016282D02*
X016341Y004282D01*
X016695Y004577D02*
X016577Y004518D01*
X016459Y0044D01*
Y004282D01*
X016518Y004223D01*
X016636D01*
X016695Y004282D01*
Y004341D01*
X016636Y0044D01*
X016459D01*
X013791Y004332D02*
Y004568D01*
X013732Y004627D01*
X013614D01*
X013555Y004568D01*
Y004332D01*
X013614Y004273D01*
X013732D01*
X013673Y004391D02*
X013791Y004273D01*
X013732D02*
X013791Y004332D01*
X014145Y004627D02*
X013909D01*
Y00445D01*
X014027Y004509D01*
X014086D01*
X014145Y00445D01*
Y004332D01*
X014086Y004273D01*
X013968D01*
X013909Y004332D01*
X022341Y018582D02*
Y018818D01*
X022282Y018877D01*
X022164D01*
X022105Y018818D01*
Y018582D01*
X022164Y018523D01*
X022282D01*
X022223Y018641D02*
X022341Y018523D01*
X022282D02*
X022341Y018582D01*
X022636Y018523D02*
Y018877D01*
X022459Y0187D01*
X022695D01*
X023141Y017682D02*
Y017918D01*
X023082Y017977D01*
X022964D01*
X022905Y017918D01*
Y017682D01*
X022964Y017623D01*
X023082D01*
X023023Y017741D02*
X023141Y017623D01*
X023082D02*
X023141Y017682D01*
X023259Y017918D02*
X023318Y017977D01*
X023436D01*
X023495Y017918D01*
Y017859D01*
X023436Y0178D01*
X023377D01*
X023436D01*
X023495Y017741D01*
Y017682D01*
X023436Y017623D01*
X023318D01*
X023259Y017682D01*
X039448Y025795D02*
Y026005D01*
X039395Y026057D01*
X03929D01*
X039238Y026005D01*
Y025795D01*
X03929Y025743D01*
X039395D01*
X039343Y025848D02*
X039448Y025743D01*
X039395D02*
X039448Y025795D01*
X039762Y025743D02*
X039552D01*
X039762Y025952D01*
Y026005D01*
X03971Y026057D01*
X039605D01*
X039552Y026005D01*
X0415Y022917D02*
Y023183D01*
X041433Y02325D01*
X0413D01*
X041233Y023183D01*
Y022917D01*
X0413Y02285D01*
X041433D01*
X041367Y022983D02*
X0415Y02285D01*
X041433D02*
X0415Y022917D01*
X041633Y02285D02*
X041767D01*
X0417D01*
Y02325D01*
X041633Y023183D01*
X005738Y016947D02*
Y016553D01*
X006D01*
X006131D02*
X006262D01*
X006197D01*
Y016947D01*
X006131Y016881D01*
X001408Y026953D02*
X001539D01*
X001474D01*
Y027347D01*
X001408Y027281D01*
X001998Y026953D02*
X001736D01*
X001998Y027216D01*
Y027281D01*
X001933Y027347D01*
X001802D01*
X001736Y027281D01*
X00213Y027347D02*
Y027084D01*
X002261Y026953D01*
X002392Y027084D01*
Y027347D01*
X00168Y016424D02*
X001811D01*
X001746D01*
Y01603D01*
X00168D01*
X001811D01*
X00227Y016358D02*
X002205Y016424D01*
X002074D01*
X002008Y016358D01*
Y016096D01*
X002074Y01603D01*
X002205D01*
X00227Y016096D01*
X002402Y01603D02*
X002533D01*
X002467D01*
Y016424D01*
X002402Y016358D01*
X005322Y015947D02*
Y015553D01*
X005519D01*
X005584Y015619D01*
Y015881D01*
X005519Y015947D01*
X005322D01*
X005716Y015881D02*
X005781Y015947D01*
X005912D01*
X005978Y015881D01*
Y015816D01*
X005912Y01575D01*
X005847D01*
X005912D01*
X005978Y015684D01*
Y015619D01*
X005912Y015553D01*
X005781D01*
X005716Y015619D01*
X009955Y011227D02*
Y010873D01*
X010132D01*
X010191Y010932D01*
Y011168D01*
X010132Y011227D01*
X009955D01*
X010545Y010873D02*
X010309D01*
X010545Y011109D01*
Y011168D01*
X010486Y011227D01*
X010368D01*
X010309Y011168D01*
X014014Y020677D02*
Y020323D01*
X014191D01*
X01425Y020382D01*
Y020618D01*
X014191Y020677D01*
X014014D01*
X014368Y020323D02*
X014486D01*
X014427D01*
Y020677D01*
X014368Y020618D01*
X01229Y007305D02*
X012238Y007357D01*
X012133D01*
X01208Y007305D01*
Y007095D01*
X012133Y007043D01*
X012238D01*
X01229Y007095D01*
X012395Y007305D02*
X012448Y007357D01*
X012552D01*
X012605Y007305D01*
Y007252D01*
X012552Y0072D01*
X0125D01*
X012552D01*
X012605Y007148D01*
Y007095D01*
X012552Y007043D01*
X012448D01*
X012395Y007095D01*
X012867Y007043D02*
Y007357D01*
X01271Y0072D01*
X01292D01*
X02274Y010605D02*
X022688Y010657D01*
X022583D01*
X02253Y010605D01*
Y010395D01*
X022583Y010343D01*
X022688D01*
X02274Y010395D01*
X022845Y010605D02*
X022898Y010657D01*
X023002D01*
X023055Y010605D01*
Y010552D01*
X023002Y0105D01*
X02295D01*
X023002D01*
X023055Y010448D01*
Y010395D01*
X023002Y010343D01*
X022898D01*
X022845Y010395D01*
X02316Y010605D02*
X023212Y010657D01*
X023317D01*
X02337Y010605D01*
Y010552D01*
X023317Y0105D01*
X023265D01*
X023317D01*
X02337Y010448D01*
Y010395D01*
X023317Y010343D01*
X023212D01*
X02316Y010395D01*
X02714Y005505D02*
X027088Y005557D01*
X026983D01*
X02693Y005505D01*
Y005295D01*
X026983Y005243D01*
X027088D01*
X02714Y005295D01*
X027245Y005505D02*
X027298Y005557D01*
X027402D01*
X027455Y005505D01*
Y005452D01*
X027402Y0054D01*
X02735D01*
X027402D01*
X027455Y005348D01*
Y005295D01*
X027402Y005243D01*
X027298D01*
X027245Y005295D01*
X02777Y005243D02*
X02756D01*
X02777Y005452D01*
Y005505D01*
X027717Y005557D01*
X027612D01*
X02756Y005505D01*
X02619Y009205D02*
X026138Y009257D01*
X026033D01*
X02598Y009205D01*
Y008995D01*
X026033Y008943D01*
X026138D01*
X02619Y008995D01*
X026505Y008943D02*
X026295D01*
X026505Y009152D01*
Y009205D01*
X026452Y009257D01*
X026348D01*
X026295Y009205D01*
X02661Y008995D02*
X026662Y008943D01*
X026767D01*
X02682Y008995D01*
Y009205D01*
X026767Y009257D01*
X026662D01*
X02661Y009205D01*
Y009152D01*
X026662Y0091D01*
X02682D01*
X02714Y002905D02*
X027088Y002957D01*
X026983D01*
X02693Y002905D01*
Y002695D01*
X026983Y002643D01*
X027088D01*
X02714Y002695D01*
X027455Y002643D02*
X027245D01*
X027455Y002852D01*
Y002905D01*
X027402Y002957D01*
X027298D01*
X027245Y002905D01*
X02756D02*
X027612Y002957D01*
X027717D01*
X02777Y002905D01*
Y002852D01*
X027717Y0028D01*
X02777Y002748D01*
Y002695D01*
X027717Y002643D01*
X027612D01*
X02756Y002695D01*
Y002748D01*
X027612Y0028D01*
X02756Y002852D01*
Y002905D01*
X027612Y0028D02*
X027717D01*
X03282Y007052D02*
X032767Y007105D01*
X032662D01*
X03261Y007052D01*
Y006842D01*
X032662Y00679D01*
X032767D01*
X03282Y006842D01*
X033135Y00679D02*
X032925D01*
X033135Y007D01*
Y007052D01*
X033082Y007105D01*
X032977D01*
X032925Y007052D01*
X03345Y007105D02*
X033345Y007052D01*
X03324Y006947D01*
Y006842D01*
X033292Y00679D01*
X033397D01*
X03345Y006842D01*
Y006895D01*
X033397Y006947D01*
X03324D01*
X02837Y007052D02*
X028317Y007105D01*
X028212D01*
X02816Y007052D01*
Y006842D01*
X028212Y00679D01*
X028317D01*
X02837Y006842D01*
X028685Y00679D02*
X028475D01*
X028685Y007D01*
Y007052D01*
X028632Y007105D01*
X028527D01*
X028475Y007052D01*
X028947Y00679D02*
Y007105D01*
X02879Y006947D01*
X029D01*
X032205Y00316D02*
X032257Y003212D01*
Y003317D01*
X032205Y00337D01*
X031995D01*
X031943Y003317D01*
Y003212D01*
X031995Y00316D01*
X031943Y002845D02*
Y003055D01*
X032152Y002845D01*
X032205D01*
X032257Y002898D01*
Y003002D01*
X032205Y003055D01*
Y00274D02*
X032257Y002688D01*
Y002583D01*
X032205Y00253D01*
X032152D01*
X0321Y002583D01*
Y002635D01*
Y002583D01*
X032048Y00253D01*
X031995D01*
X031943Y002583D01*
Y002688D01*
X031995Y00274D01*
X044105Y00151D02*
X044157Y001562D01*
Y001667D01*
X044105Y00172D01*
X043895D01*
X043843Y001667D01*
Y001562D01*
X043895Y00151D01*
X043843Y001195D02*
Y001405D01*
X044052Y001195D01*
X044105D01*
X044157Y001248D01*
Y001352D01*
X044105Y001405D01*
X043843Y00088D02*
Y00109D01*
X044052Y00088D01*
X044105D01*
X044157Y000933D01*
Y001038D01*
X044105Y00109D01*
X037943Y007155D02*
X03789Y007207D01*
X037785D01*
X037733Y007155D01*
Y006945D01*
X037785Y006893D01*
X03789D01*
X037943Y006945D01*
X038257Y006893D02*
X038048D01*
X038257Y007102D01*
Y007155D01*
X038205Y007207D01*
X0381D01*
X038048Y007155D01*
X038362Y006893D02*
X038467D01*
X038415D01*
Y007207D01*
X038362Y007155D01*
X02247Y024552D02*
X022417Y024605D01*
X022312D01*
X02226Y024552D01*
Y024342D01*
X022312Y02429D01*
X022417D01*
X02247Y024342D01*
X022575Y02429D02*
X02268D01*
X022627D01*
Y024605D01*
X022575Y024552D01*
X022837Y024605D02*
X023047D01*
Y024552D01*
X022837Y024342D01*
Y02429D01*
X041066Y012255D02*
X041014Y012307D01*
X040909D01*
X040856Y012255D01*
Y012045D01*
X040909Y011993D01*
X041014D01*
X041066Y012045D01*
X041171Y011993D02*
X041276D01*
X041224D01*
Y012307D01*
X041171Y012255D01*
X041644Y012307D02*
X041539Y012255D01*
X041434Y01215D01*
Y012045D01*
X041486Y011993D01*
X041591D01*
X041644Y012045D01*
Y012098D01*
X041591Y01215D01*
X041434D01*
X040134Y021845D02*
X040186Y021793D01*
X040291D01*
X040344Y021845D01*
Y022055D01*
X040291Y022107D01*
X040186D01*
X040134Y022055D01*
X040029Y022107D02*
X039924D01*
X039976D01*
Y021793D01*
X040029Y021845D01*
X039556Y021793D02*
X039766D01*
Y02195D01*
X039661Y021898D01*
X039609D01*
X039556Y02195D01*
Y022055D01*
X039609Y022107D01*
X039714D01*
X039766Y022055D01*
X010181Y01468D02*
X010247Y014745D01*
Y014876D01*
X010181Y014942D01*
X009919D01*
X009853Y014876D01*
Y014745D01*
X009919Y01468D01*
X009853Y014548D02*
Y014417D01*
Y014483D01*
X010247D01*
X010181Y014548D01*
X009853Y014024D02*
X010247D01*
X01005Y01422D01*
Y013958D01*
X005372Y013528D02*
X005307Y013594D01*
X005176D01*
X00511Y013528D01*
Y013266D01*
X005176Y0132D01*
X005307D01*
X005372Y013266D01*
X005504Y0132D02*
X005635D01*
X005569D01*
Y013594D01*
X005504Y013528D01*
X005832D02*
X005897Y013594D01*
X006028D01*
X006094Y013528D01*
Y013462D01*
X006028Y013397D01*
X005963D01*
X006028D01*
X006094Y013331D01*
Y013266D01*
X006028Y0132D01*
X005897D01*
X005832Y013266D01*
X042266Y012255D02*
X042214Y012307D01*
X042109D01*
X042056Y012255D01*
Y012045D01*
X042109Y011993D01*
X042214D01*
X042266Y012045D01*
X042371Y011993D02*
X042476D01*
X042424D01*
Y012307D01*
X042371Y012255D01*
X042844Y011993D02*
X042634D01*
X042844Y012202D01*
Y012255D01*
X042791Y012307D01*
X042686D01*
X042634Y012255D01*
X014483Y016433D02*
X014417Y0165D01*
X014283D01*
X014217Y016433D01*
Y016167D01*
X014283Y0161D01*
X014417D01*
X014483Y016167D01*
X014617Y0161D02*
X01475D01*
X014683D01*
Y0165D01*
X014617Y016433D01*
X01495Y0161D02*
X015083D01*
X015017D01*
Y0165D01*
X01495Y016433D01*
X014493Y010718D02*
X014434Y010777D01*
X014316D01*
X014257Y010718D01*
Y010482D01*
X014316Y010423D01*
X014434D01*
X014493Y010482D01*
X014611Y010423D02*
X01473D01*
X01467D01*
Y010777D01*
X014611Y010718D01*
X014907D02*
X014966Y010777D01*
X015084D01*
X015143Y010718D01*
Y010482D01*
X015084Y010423D01*
X014966D01*
X014907Y010482D01*
Y010718D01*
X016641Y016418D02*
X016582Y016477D01*
X016464D01*
X016405Y016418D01*
Y016182D01*
X016464Y016123D01*
X016582D01*
X016641Y016182D01*
X016759D02*
X016818Y016123D01*
X016936D01*
X016995Y016182D01*
Y016418D01*
X016936Y016477D01*
X016818D01*
X016759Y016418D01*
Y016359D01*
X016818Y0163D01*
X016995D01*
X040048Y021505D02*
X039995Y021557D01*
X03989D01*
X039838Y021505D01*
Y021295D01*
X03989Y021243D01*
X039995D01*
X040048Y021295D01*
X040152Y021505D02*
X040205Y021557D01*
X04031D01*
X040362Y021505D01*
Y021452D01*
X04031Y0214D01*
X040362Y021348D01*
Y021295D01*
X04031Y021243D01*
X040205D01*
X040152Y021295D01*
Y021348D01*
X040205Y0214D01*
X040152Y021452D01*
Y021505D01*
X040205Y0214D02*
X04031D01*
X045041Y011568D02*
X044982Y011627D01*
X044864D01*
X044805Y011568D01*
Y011332D01*
X044864Y011273D01*
X044982D01*
X045041Y011332D01*
X045159Y011627D02*
X045395D01*
Y011568D01*
X045159Y011332D01*
Y011273D01*
X045505Y024452D02*
X045557Y024505D01*
Y02461D01*
X045505Y024662D01*
X045295D01*
X045243Y02461D01*
Y024505D01*
X045295Y024452D01*
X045557Y024138D02*
X045505Y024243D01*
X0454Y024348D01*
X045295D01*
X045243Y024295D01*
Y02419D01*
X045295Y024138D01*
X045348D01*
X0454Y02419D01*
Y024348D01*
X009546Y026635D02*
X009487Y026694D01*
X009369D01*
X00931Y026635D01*
Y026399D01*
X009369Y02634D01*
X009487D01*
X009546Y026399D01*
X0099Y026694D02*
X009664D01*
Y026517D01*
X009782Y026576D01*
X009841D01*
X0099Y026517D01*
Y026399D01*
X009841Y02634D01*
X009723D01*
X009664Y026399D01*
X007134Y027531D02*
X007069Y027597D01*
X006938D01*
X006872Y027531D01*
Y027269D01*
X006938Y027203D01*
X007069D01*
X007134Y027269D01*
X007462Y027203D02*
Y027597D01*
X007266Y0274D01*
X007528D01*
X003934Y022081D02*
X003869Y022147D01*
X003738D01*
X003672Y022081D01*
Y021819D01*
X003738Y021753D01*
X003869D01*
X003934Y021819D01*
X004066Y022081D02*
X004131Y022147D01*
X004262D01*
X004328Y022081D01*
Y022016D01*
X004262Y02195D01*
X004197D01*
X004262D01*
X004328Y021884D01*
Y021819D01*
X004262Y021753D01*
X004131D01*
X004066Y021819D01*
X000834Y019981D02*
X000769Y020047D01*
X000638D01*
X000572Y019981D01*
Y019719D01*
X000638Y019653D01*
X000769D01*
X000834Y019719D01*
X001228Y019653D02*
X000966D01*
X001228Y019916D01*
Y019981D01*
X001162Y020047D01*
X001031D01*
X000966Y019981D01*
X0425Y025955D02*
X042448Y026007D01*
X042343D01*
X04229Y025955D01*
Y025745D01*
X042343Y025693D01*
X042448D01*
X0425Y025745D01*
X042605Y025693D02*
X04271D01*
X042657D01*
Y026007D01*
X042605Y025955D01*
D13*
X011248Y013859D02*
G03*
X011248Y013859I-000098J0D01*
G01*
X013371Y0136D02*
Y0152D01*
X010729Y0136D02*
Y0152D01*
X013371D01*
X010729Y0136D02*
X013371D01*
D14*
X038344Y018104D02*
X039704D01*
Y017944D02*
Y018104D01*
Y008596D02*
Y008774D01*
X038344Y008596D02*
X039704D01*
X030196D02*
X031556D01*
X030196D02*
Y008754D01*
Y017954D02*
Y018104D01*
X031556D01*
X026982Y022544D02*
Y023056D01*
X028218Y022544D02*
Y023056D01*
X026982D02*
X027356D01*
X027844D02*
X028218D01*
X024832Y022544D02*
Y023056D01*
X026068Y022544D02*
Y023056D01*
X024832D02*
X025206D01*
X025694D02*
X026068D01*
X029182Y022544D02*
Y023056D01*
X030418Y022544D02*
Y023056D01*
X029182D02*
X029556D01*
X030044D02*
X030418D01*
X031382Y022544D02*
Y023056D01*
X032618Y022544D02*
Y023056D01*
X031382D02*
X031756D01*
X032244D02*
X032618D01*
X041594Y020306D02*
X041968D01*
X040732D02*
X041106D01*
X041968Y019794D02*
Y020306D01*
X040732Y019794D02*
Y020306D01*
X02197Y01735D02*
Y01891D01*
X02073D02*
X02197D01*
X02073Y01735D02*
X02197D01*
X02073D02*
Y01891D01*
X02487Y01735D02*
Y01891D01*
X02363D02*
X02487D01*
X02363Y01735D02*
X02487D01*
X02363D02*
Y01891D01*
X041356Y004882D02*
Y005256D01*
Y005744D02*
Y006118D01*
X040844Y004882D02*
X041356D01*
X040844Y006118D02*
X041356D01*
X041306Y002632D02*
Y003006D01*
Y003494D02*
Y003868D01*
X040794Y002632D02*
X041306D01*
X040794Y003868D02*
X041306D01*
X012781Y02295D02*
X013681D01*
X012781D02*
Y02695D01*
X013681D01*
X012182Y004144D02*
X012556D01*
X013044D02*
X013418D01*
X012182D02*
Y004656D01*
X013418Y004144D02*
Y004656D01*
X014658Y004127D02*
X015032D01*
X01552D02*
X015894D01*
X014658D02*
Y004639D01*
X015894Y004127D02*
Y004639D01*
X005744Y001894D02*
Y002268D01*
Y001032D02*
Y001406D01*
Y002268D02*
X006256D01*
X005744Y001032D02*
X006256D01*
X005744Y004144D02*
Y004518D01*
Y003282D02*
Y003656D01*
Y004518D02*
X006256D01*
X005744Y003282D02*
X006256D01*
X005744Y006644D02*
Y007018D01*
Y005782D02*
Y006156D01*
Y007018D02*
X006256D01*
X005744Y005782D02*
X006256D01*
X005794Y009144D02*
Y009518D01*
Y008282D02*
Y008656D01*
Y009518D02*
X006306D01*
X005794Y008282D02*
X006306D01*
D15*
X043489Y014049D02*
X043619D01*
X043489Y013649D02*
Y014049D01*
X043493Y012668D02*
X043623D01*
X043493D02*
Y013068D01*
X044931Y012672D02*
Y014052D01*
X044788D02*
X044931D01*
X044788Y012672D02*
X044931D01*
D16*
X041929Y001058D02*
Y001238D01*
X042469Y001058D02*
Y001238D01*
X042931Y001062D02*
Y001242D01*
X043471Y001062D02*
Y001242D01*
X031762Y019979D02*
X031942D01*
X031762Y020519D02*
X031942D01*
X02402Y024286D02*
Y024466D01*
X02348Y024286D02*
Y024466D01*
X01102Y003086D02*
Y003266D01*
X01048Y003086D02*
Y003266D01*
X036262Y002879D02*
X036442D01*
X036262Y003419D02*
X036442D01*
X037496Y005908D02*
Y006088D01*
X036956Y005908D02*
Y006088D01*
X036054Y005912D02*
Y006092D01*
X036594Y005912D02*
Y006092D01*
X037879Y005908D02*
Y006088D01*
X038419Y005908D02*
Y006088D01*
X041162Y017279D02*
X041342D01*
X041162Y017819D02*
X041342D01*
X044708Y016821D02*
X044888D01*
X044708Y016281D02*
X044888D01*
X040221Y020462D02*
Y020642D01*
X039681Y020462D02*
Y020642D01*
X010479Y004958D02*
Y005138D01*
X011019Y004958D02*
Y005138D01*
X020808Y023894D02*
X020988D01*
X020808Y023354D02*
X020988D01*
X024108Y020044D02*
X024288D01*
X024108Y019504D02*
X024288D01*
X021158Y020144D02*
X021338D01*
X021158Y019604D02*
X021338D01*
X024162Y016256D02*
X024342D01*
X024162Y016796D02*
X024342D01*
X021258Y016844D02*
X021438D01*
X021258Y016304D02*
X021438D01*
X041812Y013056D02*
X041992D01*
X041812Y013596D02*
X041992D01*
X025958Y005721D02*
X026138D01*
X025958Y005181D02*
X026138D01*
X025958Y003021D02*
X026138D01*
X025958Y002481D02*
X026138D01*
X012956Y009008D02*
Y009188D01*
X013496Y009008D02*
Y009188D01*
X012144Y009012D02*
Y009192D01*
X011604Y009012D02*
Y009192D01*
X012412Y007629D02*
X012592D01*
X012412Y008169D02*
X012592D01*
X-00195Y0233D02*
Y0266D01*
X0035Y0233D02*
Y0266D01*
X-00195D02*
X0035D01*
X-00195Y0233D02*
X0035D01*
X-00125D02*
Y0266D01*
X036158Y023844D02*
X036338D01*
X036158Y023304D02*
X036338D01*
X026079Y007858D02*
Y008038D01*
X026619Y007858D02*
Y008038D01*
X0355Y004D02*
X03855D01*
X0355D02*
Y0051D01*
X03855D01*
Y004D02*
Y0051D01*
X0365Y004D02*
Y0051D01*
X0429Y00765D02*
Y00865D01*
X0409D02*
X0429D01*
X0409Y00765D02*
Y00865D01*
Y00765D02*
X0429D01*
X004294Y015697D02*
X004295Y012077D01*
X001616D02*
X004295D01*
X001616D02*
X001617Y015697D01*
X004294D01*
D17*
X02555Y01876D02*
X02557D01*
X02555Y02006D02*
X02558D01*
X02633D02*
X02635D01*
X02633Y01876D02*
X02635D01*
X02555D02*
Y02006D01*
X02635Y01876D02*
Y02006D01*
X01915Y01869D02*
X01917D01*
X01915Y01999D02*
X01918D01*
X01993D02*
X01995D01*
X01993Y01869D02*
X01995D01*
X01915D02*
Y01999D01*
X01995Y01869D02*
Y01999D01*
M02*
