G04*
G04 #@! TF.GenerationSoftware,Altium Limited,Altium Designer,21.0.8 (223)*
G04*
G04 Layer_Physical_Order=2*
G04 Layer_Color=16711680*
%FSTAX24Y24*%
%MOIN*%
G70*
G04*
G04 #@! TF.SameCoordinates,1A30FD0F-2F50-4216-9531-F08C28C5B71E*
G04*
G04*
G04 #@! TF.FilePolarity,Positive*
G04*
G01*
G75*
%ADD12C,0.0100*%
%ADD103C,0.0236*%
%ADD104C,0.0374*%
%ADD105C,0.0600*%
%ADD106C,0.0630*%
%ADD107R,0.0630X0.0630*%
%ADD108C,0.1575*%
%ADD109R,0.1000X0.1600*%
%ADD110R,0.1600X0.1000*%
%ADD111R,0.0630X0.0630*%
%ADD112C,0.0354*%
%ADD113C,0.0138*%
%ADD114O,0.0650X0.0900*%
%ADD115O,0.0700X0.0860*%
%ADD116C,0.0700*%
%ADD117R,0.0700X0.0700*%
%ADD118R,0.0700X0.0700*%
%ADD119C,0.0315*%
%ADD120C,0.0236*%
%ADD121C,0.0500*%
%ADD122C,0.0157*%
%ADD123C,0.0197*%
G36*
X044764Y027573D02*
X044659Y027468D01*
X044557Y027328D01*
X044478Y027173D01*
X044425Y027008D01*
X044398Y026837D01*
Y026663D01*
X044425Y026492D01*
X044478Y026327D01*
X044557Y026172D01*
X044659Y026032D01*
X044782Y025909D01*
X044922Y025807D01*
X045077Y025728D01*
X045242Y025675D01*
X045413Y025648D01*
X045587D01*
X045758Y025675D01*
X045923Y025728D01*
X046078Y025807D01*
X046218Y025909D01*
X046227Y025918D01*
X046273Y025898D01*
X046273Y001952D01*
X046227Y001932D01*
X046218Y001941D01*
X046078Y002043D01*
X045923Y002122D01*
X045758Y002175D01*
X045587Y002202D01*
X045413D01*
X045242Y002175D01*
X045077Y002122D01*
X044922Y002043D01*
X044782Y001941D01*
X044659Y001818D01*
X044557Y001678D01*
X044478Y001523D01*
X044425Y001358D01*
X044398Y001187D01*
Y001013D01*
X044425Y000842D01*
X044478Y000677D01*
X044557Y000522D01*
X044626Y000427D01*
X044601Y000377D01*
X002049Y000377D01*
X002024Y000427D01*
X002093Y000522D01*
X002172Y000677D01*
X002225Y000842D01*
X002252Y001013D01*
Y001187D01*
X002225Y001358D01*
X002172Y001523D01*
X002093Y001678D01*
X001991Y001818D01*
X001868Y001941D01*
X001728Y002043D01*
X001573Y002122D01*
X001408Y002175D01*
X001237Y002202D01*
X001063D01*
X000892Y002175D01*
X000727Y002122D01*
X000572Y002043D01*
X000432Y001941D01*
X000423Y001932D01*
X000377Y001952D01*
X000377Y027623D01*
X026897Y027623D01*
X026913Y027575D01*
X026891Y027559D01*
X026512Y02718D01*
X026438D01*
X026316Y027156D01*
X026202Y027108D01*
X026174Y02709D01*
X02613Y027113D01*
Y02718D01*
X02487D01*
Y02718D01*
X02377D01*
Y026441D01*
X023478Y026149D01*
X02342Y026207D01*
X023312Y02627D01*
X023192Y026302D01*
X023068D01*
X023059Y026306D01*
X022963Y026318D01*
X01815D01*
X018055Y026306D01*
X017966Y026269D01*
X01789Y02621D01*
X01624Y02456D01*
X016181Y024484D01*
X016144Y024395D01*
X016132Y0243D01*
Y0203D01*
X016144Y020205D01*
X016181Y020116D01*
X01624Y02004D01*
X016478Y019801D01*
X01647Y019762D01*
Y019638D01*
X016494Y019516D01*
X016542Y019402D01*
X01656Y019374D01*
X016537Y01933D01*
X01647D01*
Y018626D01*
X00914D01*
X006408Y021358D01*
X006303Y021438D01*
X006181Y021489D01*
X00605Y021506D01*
X005919Y021489D01*
X005797Y021438D01*
X005692Y021358D01*
X005612Y021253D01*
X005561Y021131D01*
X005544Y021D01*
X005561Y020869D01*
X005612Y020747D01*
X005692Y020642D01*
X008573Y017761D01*
X008678Y017681D01*
X0088Y01763D01*
X008931Y017613D01*
X015056D01*
X015081Y01757D01*
X01506Y017532D01*
X015028Y017412D01*
Y017398D01*
X00899Y01136D01*
X008931Y011284D01*
X008894Y011195D01*
X008882Y0111D01*
Y008331D01*
X008842Y008301D01*
X008762Y008322D01*
X008638D01*
X008518Y00829D01*
X00841Y008228D01*
X008322Y00814D01*
X00826Y008032D01*
X008228Y007912D01*
Y007788D01*
X00826Y007668D01*
X008322Y00756D01*
X00841Y007472D01*
X008518Y00741D01*
X008532Y007406D01*
Y006329D01*
X008522Y006319D01*
X00846Y006211D01*
X008428Y006091D01*
Y005967D01*
X00846Y005846D01*
X008507Y005765D01*
Y003954D01*
X008472Y003919D01*
X00841Y003811D01*
X008378Y003691D01*
Y003566D01*
X00841Y003446D01*
X008472Y003339D01*
X008482Y003329D01*
Y001741D01*
X00846Y001728D01*
X008372Y00164D01*
X00831Y001532D01*
X008278Y001412D01*
Y001288D01*
X00831Y001168D01*
X008372Y00106D01*
X00846Y000972D01*
X008568Y00091D01*
X008688Y000878D01*
X008812D01*
X008932Y00091D01*
X00904Y000972D01*
X009128Y00106D01*
X00919Y001168D01*
X009222Y001288D01*
Y001412D01*
X009211Y001455D01*
X009218Y001508D01*
Y002205D01*
X009258Y002236D01*
X009288Y002228D01*
X009412D01*
X009532Y00226D01*
X00964Y002322D01*
X009728Y00241D01*
X00979Y002518D01*
X009822Y002638D01*
Y002762D01*
X00979Y002882D01*
X009728Y00299D01*
X00964Y003078D01*
X009618Y003091D01*
Y003728D01*
X009712D01*
X009832Y00376D01*
X00994Y003822D01*
X010028Y00391D01*
X01009Y004018D01*
X010122Y004138D01*
Y004152D01*
X011302Y005332D01*
X018101D01*
X01812Y005286D01*
X016561Y003727D01*
X016511Y003733D01*
X016478Y00379D01*
X01639Y003878D01*
X016282Y00394D01*
X016162Y003972D01*
X016038D01*
X015918Y00394D01*
X01581Y003878D01*
X0158Y003868D01*
X01435D01*
X01434Y003878D01*
X014232Y00394D01*
X014112Y003972D01*
X013988D01*
X013868Y00394D01*
X01376Y003878D01*
X013725Y003843D01*
X012064D01*
X011982Y00389D01*
X011862Y003922D01*
X011738D01*
X011618Y00389D01*
X01151Y003828D01*
X011422Y00374D01*
X01136Y003632D01*
X011328Y003512D01*
Y003388D01*
X01136Y003268D01*
X011422Y00316D01*
X01151Y003072D01*
X011618Y00301D01*
X011738Y002978D01*
X011862D01*
X011982Y00301D01*
X01209Y003072D01*
X012125Y003107D01*
X013786D01*
X013868Y00306D01*
X013988Y003028D01*
X014112D01*
X014232Y00306D01*
X01434Y003122D01*
X01435Y003132D01*
X0158D01*
X01581Y003122D01*
X015867Y003089D01*
X015873Y003039D01*
X014846Y002012D01*
X014816Y002006D01*
X014702Y001958D01*
X014598Y001889D01*
X014511Y001802D01*
X014442Y001698D01*
X01441Y001621D01*
X014354Y001617D01*
X014332Y001655D01*
X014255Y001732D01*
X01416Y001787D01*
X014055Y001815D01*
X01405D01*
Y0014D01*
Y000985D01*
X014055D01*
X01416Y001013D01*
X014255Y001068D01*
X014332Y001145D01*
X014354Y001183D01*
X01441Y001179D01*
X014442Y001102D01*
X014511Y000998D01*
X014598Y000911D01*
X014702Y000842D01*
X014816Y000794D01*
X014938Y00077D01*
X015062D01*
X015184Y000794D01*
X015298Y000842D01*
X015402Y000911D01*
X015466Y000975D01*
X0155Y000993D01*
X015534Y000975D01*
X015598Y000911D01*
X015702Y000842D01*
X015816Y000794D01*
X015938Y00077D01*
X016062D01*
X016184Y000794D01*
X016298Y000842D01*
X016402Y000911D01*
X016489Y000998D01*
X016558Y001102D01*
X016606Y001216D01*
X01663Y001338D01*
Y001462D01*
X016606Y001584D01*
X016558Y001698D01*
X016489Y001802D01*
X016402Y001889D01*
X016298Y001958D01*
X016288Y001963D01*
X016278Y002012D01*
X019208Y004942D01*
X019288Y005047D01*
X019339Y005169D01*
X019356Y0053D01*
X019384Y005332D01*
X0316D01*
X031695Y005344D01*
X031784Y005381D01*
X03186Y00544D01*
X032804Y006383D01*
X032884Y006303D01*
X032983Y006246D01*
X033051Y006228D01*
X034282Y004998D01*
Y00365D01*
X034272Y00364D01*
X03421Y003532D01*
X034178Y003412D01*
Y003288D01*
X03421Y003168D01*
X034272Y00306D01*
X03436Y002972D01*
X034453Y002918D01*
X03444Y002868D01*
X0278D01*
X027705Y002856D01*
X027616Y002819D01*
X02754Y00276D01*
X027252Y002472D01*
X027238D01*
X027118Y00244D01*
X02701Y002378D01*
X026975Y002343D01*
X021664D01*
X021582Y00239D01*
X021462Y002422D01*
X021408D01*
X021389Y002469D01*
X022152Y003232D01*
X0249D01*
X02491Y003222D01*
X025018Y00316D01*
X025138Y003128D01*
X025262D01*
X025382Y00316D01*
X02549Y003222D01*
X025578Y00331D01*
X02564Y003418D01*
X025672Y003538D01*
Y003662D01*
X02564Y003782D01*
X025578Y00389D01*
X02549Y003978D01*
X025382Y00404D01*
X025262Y004072D01*
X025138D01*
X025018Y00404D01*
X02491Y003978D01*
X0249Y003968D01*
X022D01*
X021905Y003956D01*
X021816Y003919D01*
X02174Y00386D01*
X020302Y002422D01*
X020288D01*
X020168Y00239D01*
X02006Y002328D01*
X019972Y00224D01*
X01991Y002132D01*
X019878Y002012D01*
Y001888D01*
X01991Y001768D01*
X019972Y00166D01*
X02006Y001572D01*
X020168Y00151D01*
X020288Y001478D01*
X020412D01*
X020532Y00151D01*
X02064Y001572D01*
X020728Y00166D01*
X02079Y001768D01*
X020822Y001888D01*
Y001902D01*
X020881Y001961D01*
X020928Y001942D01*
Y001888D01*
X02096Y001768D01*
X021022Y00166D01*
X02111Y001572D01*
X021218Y00151D01*
X021338Y001478D01*
X021462D01*
X021582Y00151D01*
X02169Y001572D01*
X021725Y001607D01*
X027036D01*
X027118Y00156D01*
X027238Y001528D01*
X027362D01*
X027482Y00156D01*
X02759Y001622D01*
X027678Y00171D01*
X02774Y001818D01*
X027772Y001938D01*
Y001952D01*
X027952Y002132D01*
X030589D01*
X030609Y002086D01*
X030403Y00188D01*
X030388D01*
X030266Y001856D01*
X030152Y001808D01*
X030048Y001739D01*
X029961Y001652D01*
X029892Y001548D01*
X029844Y001434D01*
X02982Y001312D01*
Y001188D01*
X029844Y001066D01*
X029892Y000952D01*
X029961Y000848D01*
X030048Y000761D01*
X030152Y000692D01*
X030266Y000644D01*
X030388Y00062D01*
X030512D01*
X030634Y000644D01*
X030748Y000692D01*
X030852Y000761D01*
X030939Y000848D01*
X031008Y000952D01*
X03104Y001029D01*
X031096Y001033D01*
X031118Y000995D01*
X031195Y000918D01*
X03129Y000863D01*
X031395Y000835D01*
X0314D01*
Y00125D01*
X0315D01*
Y000835D01*
X031505D01*
X03161Y000863D01*
X031705Y000918D01*
X031782Y000995D01*
X031804Y001033D01*
X03186Y001029D01*
X031892Y000952D01*
X031961Y000848D01*
X032048Y000761D01*
X032152Y000692D01*
X032266Y000644D01*
X032388Y00062D01*
X032512D01*
X032634Y000644D01*
X032748Y000692D01*
X032776Y00071D01*
X03282Y000687D01*
Y00062D01*
X03408D01*
Y001344D01*
X03519D01*
X035335Y001199D01*
Y000585D01*
X036665D01*
Y000615D01*
X036715Y000648D01*
X036806Y000611D01*
X036935Y000585D01*
X037065D01*
X037194Y000611D01*
X037315Y000661D01*
X037424Y000733D01*
X037517Y000826D01*
X037589Y000935D01*
X037598Y000955D01*
X037654Y00096D01*
X037724Y00089D01*
X037826Y000831D01*
X037941Y0008D01*
X03795D01*
Y00125D01*
Y0017D01*
X037941D01*
X037826Y001669D01*
X037724Y00161D01*
X037654Y00154D01*
X037598Y001545D01*
X037589Y001565D01*
X037517Y001674D01*
X037424Y001767D01*
X037315Y001839D01*
X037194Y001889D01*
X037065Y001915D01*
X036935D01*
X036869Y001902D01*
X035672Y003098D01*
Y003162D01*
X03564Y003282D01*
X035578Y00339D01*
X03549Y003478D01*
X035382Y00354D01*
X035262Y003572D01*
X035138D01*
X035077Y003556D01*
X035028Y00364D01*
X035018Y00365D01*
Y00515D01*
X035006Y005245D01*
X034969Y005334D01*
X03491Y00541D01*
X033572Y006749D01*
X033554Y006817D01*
X033497Y006916D01*
X033417Y006996D01*
X033499Y007078D01*
X033567Y007096D01*
X033666Y007153D01*
X033747Y007234D01*
X033804Y007333D01*
X033833Y007443D01*
Y007469D01*
X035633D01*
X03566Y007368D01*
X035722Y00726D01*
X03581Y007172D01*
X035918Y00711D01*
X036038Y007078D01*
X036162D01*
X036282Y00711D01*
X03639Y007172D01*
X0364Y007182D01*
X038001D01*
X03802Y007136D01*
X037632Y006748D01*
X037552Y006643D01*
X037501Y006521D01*
X037484Y00639D01*
Y005179D01*
X037434Y005155D01*
X037367Y00521D01*
X037256Y005269D01*
X037135Y005306D01*
X03701Y005318D01*
X036885Y005306D01*
X036764Y005269D01*
X036653Y00521D01*
X036555Y00513D01*
X03653Y005099D01*
X03648D01*
X036455Y00513D01*
X036357Y00521D01*
X036246Y005269D01*
X036125Y005306D01*
X036Y005318D01*
X035875Y005306D01*
X035754Y005269D01*
X035643Y00521D01*
X035545Y00513D01*
X035465Y005032D01*
X035406Y004921D01*
X035369Y0048D01*
X035357Y004675D01*
Y004425D01*
X035369Y0043D01*
X035406Y004179D01*
X035465Y004068D01*
X035545Y00397D01*
X035643Y00389D01*
X035754Y003831D01*
X035875Y003794D01*
X036Y003782D01*
X036125Y003794D01*
X036246Y003831D01*
X036357Y00389D01*
X036455Y00397D01*
X03648Y004001D01*
X03653D01*
X036555Y00397D01*
X036653Y00389D01*
X036764Y003831D01*
X036885Y003794D01*
X03701Y003782D01*
X037135Y003794D01*
X037256Y003831D01*
X037367Y00389D01*
X037465Y00397D01*
X037475Y003983D01*
X037525D01*
X037535Y00397D01*
X037633Y00389D01*
X037744Y003831D01*
X037865Y003794D01*
X03799Y003782D01*
X038115Y003794D01*
X038236Y003831D01*
X038347Y00389D01*
X038445Y00397D01*
X038525Y004068D01*
X038584Y004179D01*
X038621Y0043D01*
X038633Y004425D01*
Y004675D01*
X038621Y0048D01*
X038584Y004921D01*
X038525Y005032D01*
X038496Y005067D01*
Y00618D01*
X039058Y006742D01*
X039138Y006847D01*
X039175Y006934D01*
X039234Y006946D01*
X039732Y006448D01*
Y00335D01*
X039722Y00334D01*
X03966Y003232D01*
X039628Y003112D01*
Y002988D01*
X03966Y002868D01*
X039722Y00276D01*
X03981Y002672D01*
X039918Y00261D01*
X040038Y002578D01*
X040162D01*
X040282Y00261D01*
X04039Y002672D01*
X040478Y00276D01*
X04054Y002868D01*
X040572Y002988D01*
Y003112D01*
X04054Y003232D01*
X040478Y00334D01*
X040468Y00335D01*
Y00425D01*
X040518Y004287D01*
X040593Y004267D01*
X040707D01*
X040817Y004296D01*
X040916Y004353D01*
X040997Y004434D01*
X041054Y004533D01*
X041083Y004643D01*
Y004757D01*
X041054Y004867D01*
X041018Y004929D01*
Y007469D01*
X041068Y007499D01*
X041154Y007453D01*
X04128Y007415D01*
X04141Y007402D01*
X04154Y007415D01*
X041666Y007453D01*
X041781Y007514D01*
X041871Y007588D01*
X041905Y007594D01*
X041939Y007588D01*
X042029Y007514D01*
X042144Y007453D01*
X04227Y007415D01*
X0424Y007402D01*
X04253Y007415D01*
X042656Y007453D01*
X042771Y007514D01*
X042872Y007598D01*
X04291Y007644D01*
X0433D01*
X043431Y007661D01*
X043553Y007712D01*
X043658Y007792D01*
X045308Y009442D01*
X045388Y009547D01*
X045439Y009669D01*
X045456Y0098D01*
Y010397D01*
X045476Y010432D01*
X045515Y010576D01*
Y010724D01*
X045476Y010868D01*
X045402Y010997D01*
X045297Y011102D01*
X045168Y011176D01*
X045024Y011215D01*
X044876D01*
X044732Y011176D01*
X044603Y011102D01*
X044498Y010997D01*
X044424Y010868D01*
X044385Y010724D01*
Y010576D01*
X044424Y010432D01*
X044444Y010397D01*
Y01001D01*
X04309Y008656D01*
X04291D01*
X042872Y008702D01*
X042771Y008786D01*
X042656Y008847D01*
X04253Y008885D01*
X0424Y008898D01*
X04227Y008885D01*
X042144Y008847D01*
X042029Y008786D01*
X041939Y008712D01*
X041905Y008706D01*
X041871Y008712D01*
X041781Y008786D01*
X041666Y008847D01*
X04154Y008885D01*
X04141Y008898D01*
X04128Y008885D01*
X041154Y008847D01*
X041068Y008801D01*
X041018Y008831D01*
Y009521D01*
X041054Y009583D01*
X041083Y009693D01*
Y009807D01*
X041054Y009917D01*
X040997Y010016D01*
X040916Y010097D01*
X040817Y010154D01*
X040707Y010183D01*
X040593D01*
X040483Y010154D01*
X040384Y010097D01*
X040303Y010016D01*
X040246Y009917D01*
X040217Y009807D01*
Y009693D01*
X040246Y009583D01*
X040282Y009521D01*
Y009239D01*
X040199D01*
X040089Y009209D01*
X040017Y009168D01*
X039192D01*
X039165Y00921D01*
X039189Y009269D01*
X039206Y0094D01*
Y01885D01*
X039189Y018981D01*
X039138Y019103D01*
X039103Y01915D01*
X039125Y019195D01*
X040268D01*
X040363Y019207D01*
X040452Y019244D01*
X040528Y019302D01*
X042407Y021181D01*
X04246Y021195D01*
X042554Y02125D01*
X042631Y021327D01*
X042685Y021421D01*
X042713Y021526D01*
Y021635D01*
X042685Y02174D01*
X042631Y021835D01*
X042554Y021912D01*
X04246Y021966D01*
X042354Y021994D01*
X042246D01*
X04214Y021966D01*
X042046Y021912D01*
X041969Y021835D01*
X041915Y02174D01*
X041911Y021727D01*
X040115Y019931D01*
X036113D01*
X036103Y019941D01*
X036026Y019985D01*
X036017Y020047D01*
X03655Y02058D01*
X037065D01*
X037075Y02057D01*
X037183Y020508D01*
X037303Y020475D01*
X037427D01*
X037548Y020508D01*
X037655Y02057D01*
X037743Y020658D01*
X037805Y020766D01*
X037813Y020793D01*
X037858Y020816D01*
X037869Y020811D01*
X038Y020794D01*
X038131Y020811D01*
X03822Y020848D01*
X03827Y020814D01*
Y02002D01*
X03953D01*
Y02128D01*
X038524D01*
X038506Y0213D01*
Y02185D01*
X038489Y021981D01*
X038438Y022103D01*
X038358Y022208D01*
X036784Y023782D01*
X036803Y023828D01*
X038989D01*
X039002Y023814D01*
X03911Y023752D01*
X03923Y02372D01*
X039355D01*
X039475Y023752D01*
X039583Y023814D01*
X039592Y023824D01*
X041255D01*
X043379Y0217D01*
X04264Y02096D01*
X04264Y02096D01*
X04059Y01891D01*
X040531Y018834D01*
X040494Y018745D01*
X040482Y01865D01*
Y0172D01*
X040472Y01719D01*
X04041Y017082D01*
X040378Y016962D01*
Y016838D01*
X04041Y016718D01*
X040472Y01661D01*
X04056Y016522D01*
X040668Y01646D01*
X040788Y016428D01*
X040912D01*
X041032Y01646D01*
X04114Y016522D01*
X041228Y01661D01*
X04129Y016718D01*
X041322Y016838D01*
Y016962D01*
X04129Y017082D01*
X041228Y01719D01*
X041218Y0172D01*
Y018498D01*
X04316Y02044D01*
X04316Y02044D01*
X043948Y021228D01*
X043962D01*
X044082Y02126D01*
X04419Y021322D01*
X044225Y021357D01*
X044686Y020896D01*
X044667Y02085D01*
X04435D01*
Y02045D01*
X0448D01*
Y02035D01*
X04435D01*
Y01995D01*
X04435D01*
X04436Y0199D01*
X044283Y019824D01*
X044211Y019715D01*
X044161Y019594D01*
X044135Y019465D01*
Y019335D01*
X044161Y019206D01*
X044211Y019085D01*
X044283Y018976D01*
X04436Y0189D01*
X044283Y018824D01*
X044211Y018715D01*
X044161Y018594D01*
X044135Y018465D01*
Y018335D01*
X044161Y018206D01*
X044211Y018085D01*
X044283Y017976D01*
X044376Y017883D01*
X044485Y017811D01*
X044606Y017761D01*
X044735Y017735D01*
X044865D01*
X044994Y017761D01*
X045092Y017801D01*
X04514Y017776D01*
X045144Y01777D01*
X045148Y017748D01*
X045147Y017745D01*
X045074Y017618D01*
X045035Y017474D01*
Y017326D01*
X045074Y017182D01*
X045148Y017053D01*
X045253Y016948D01*
X045382Y016874D01*
X045526Y016835D01*
X045674D01*
X045818Y016874D01*
X045947Y016948D01*
X046052Y017053D01*
X046126Y017182D01*
X046165Y017326D01*
Y017474D01*
X046126Y017618D01*
X046052Y017747D01*
X046037Y017762D01*
Y0206D01*
X046022Y020713D01*
X045978Y020818D01*
X045909Y020909D01*
X040562Y026256D01*
X040575Y026304D01*
X04061Y026313D01*
X040705Y026368D01*
X040782Y026445D01*
X040804Y026483D01*
X04086Y026479D01*
X040892Y026402D01*
X040961Y026298D01*
X041048Y026211D01*
X041152Y026142D01*
X041266Y026094D01*
X041388Y02607D01*
X041512D01*
X041634Y026094D01*
X041748Y026142D01*
X041852Y026211D01*
X041916Y026275D01*
X04195Y026293D01*
X041984Y026275D01*
X042048Y026211D01*
X042152Y026142D01*
X042266Y026094D01*
X042388Y02607D01*
X042512D01*
X042634Y026094D01*
X042748Y026142D01*
X042776Y02616D01*
X04282Y026137D01*
Y02607D01*
X04408D01*
Y02733D01*
X04282D01*
Y027263D01*
X042776Y02724D01*
X042748Y027258D01*
X042634Y027306D01*
X042512Y02733D01*
X042388D01*
X042266Y027306D01*
X042152Y027258D01*
X042048Y027189D01*
X041984Y027125D01*
X04195Y027107D01*
X041916Y027125D01*
X041852Y027189D01*
X041748Y027258D01*
X041634Y027306D01*
X041512Y02733D01*
X041388D01*
X041266Y027306D01*
X041152Y027258D01*
X041048Y027189D01*
X040961Y027102D01*
X040892Y026998D01*
X04086Y026921D01*
X040804Y026917D01*
X040782Y026955D01*
X040705Y027032D01*
X04061Y027087D01*
X040505Y027115D01*
X0405D01*
Y0267D01*
X0404D01*
Y027115D01*
X040395D01*
X04029Y027087D01*
X040195Y027032D01*
X040118Y026955D01*
X040063Y02686D01*
X040054Y026825D01*
X040006Y026812D01*
X039259Y027559D01*
X039237Y027575D01*
X039253Y027623D01*
X044743Y027623D01*
X044764Y027573D01*
D02*
G37*
G36*
X032084Y026125D02*
X032148Y026061D01*
X032252Y025992D01*
X032366Y025944D01*
X032488Y02592D01*
X032612D01*
X032734Y025944D01*
X032774Y025961D01*
X032803Y025919D01*
X02989Y023006D01*
X023548D01*
X023529Y023052D01*
X025289Y024813D01*
X025312Y02481D01*
X0254Y024722D01*
X025507Y02466D01*
X025628Y024628D01*
X025752D01*
X025872Y02466D01*
X02598Y024722D01*
X026068Y02481D01*
X02613Y024918D01*
X026162Y025038D01*
Y025052D01*
X026492Y025382D01*
X026807D01*
X02682Y025334D01*
X02681Y025328D01*
X026722Y02524D01*
X02666Y025132D01*
X026628Y025012D01*
Y024888D01*
X02666Y024768D01*
X026722Y02466D01*
X02681Y024572D01*
X026918Y02451D01*
X027038Y024478D01*
X027162D01*
X027282Y02451D01*
X027351Y024549D01*
X030152D01*
X030195Y024507D01*
X030303Y024445D01*
X030423Y024412D01*
X030547D01*
X030667Y024445D01*
X030775Y024507D01*
X030863Y024595D01*
X030925Y024703D01*
X030957Y024823D01*
Y024947D01*
X030925Y025067D01*
X030863Y025175D01*
X030775Y025263D01*
X030667Y025325D01*
X030547Y025357D01*
X030423D01*
X030303Y025325D01*
X030234Y025286D01*
X027433D01*
X02739Y025328D01*
X02738Y025334D01*
X027393Y025382D01*
X02875D01*
X028845Y025394D01*
X028934Y025431D01*
X02901Y02549D01*
X029441Y02592D01*
X03018D01*
Y025987D01*
X030224Y02601D01*
X030252Y025992D01*
X030366Y025944D01*
X030488Y02592D01*
X030612D01*
X030734Y025944D01*
X030848Y025992D01*
X030952Y026061D01*
X031016Y026125D01*
X03105Y026143D01*
X031084Y026125D01*
X031148Y026061D01*
X031252Y025992D01*
X031366Y025944D01*
X031488Y02592D01*
X031612D01*
X031734Y025944D01*
X031848Y025992D01*
X031952Y026061D01*
X032016Y026125D01*
X03205Y026143D01*
X032084Y026125D01*
D02*
G37*
G36*
X040975Y024607D02*
X040956Y024561D01*
X039592D01*
X039583Y024571D01*
X039475Y024633D01*
X039355Y024665D01*
X03923D01*
X03911Y024633D01*
X039002Y024571D01*
X038996Y024564D01*
X036704D01*
X03669Y024578D01*
X036582Y02464D01*
X036462Y024672D01*
X036338D01*
X036218Y02464D01*
X03611Y024578D01*
X036049Y024517D01*
X034558Y026008D01*
X034453Y026088D01*
X034331Y026139D01*
X0342Y026156D01*
X03325D01*
X033119Y026139D01*
X033083Y026124D01*
X03305Y026165D01*
X033108Y026252D01*
X033156Y026366D01*
X03318Y026488D01*
Y026612D01*
X033156Y026734D01*
X03314Y026772D01*
X033168Y026813D01*
X038769D01*
X040975Y024607D01*
D02*
G37*
G36*
X034432Y024702D02*
X034419Y024654D01*
X034368Y02464D01*
X03426Y024578D01*
X034172Y02449D01*
X03411Y024382D01*
X034078Y024262D01*
Y024248D01*
X031948Y022118D01*
X0312D01*
X03119Y022128D01*
X031082Y02219D01*
X030962Y022222D01*
X030838D01*
X030718Y02219D01*
X03061Y022128D01*
X0306Y022118D01*
X030505D01*
X030484Y022168D01*
X03346Y025144D01*
X03399D01*
X034432Y024702D01*
D02*
G37*
G36*
X037494Y02164D02*
Y021444D01*
X037454Y021413D01*
X037427Y02142D01*
X037303D01*
X037183Y021388D01*
X037075Y021326D01*
X037065Y021316D01*
X036398D01*
X036303Y021303D01*
X036214Y021267D01*
X036138Y021208D01*
X034552Y019622D01*
X034538D01*
X034419Y01959D01*
X034332Y01964D01*
X034212Y019672D01*
X034172D01*
Y019712D01*
X03414Y019832D01*
X034078Y01994D01*
X03399Y020028D01*
X033882Y02009D01*
X033772Y02012D01*
Y020162D01*
X03374Y020282D01*
X033678Y02039D01*
X03359Y020478D01*
X033482Y02054D01*
X033362Y020572D01*
X033238D01*
X033118Y02054D01*
X03301Y020478D01*
X033Y020468D01*
X03105D01*
X03104Y020478D01*
X030932Y02054D01*
X030812Y020572D01*
X030688D01*
X030568Y02054D01*
X03046Y020478D01*
X030372Y02039D01*
X03031Y020282D01*
X030278Y020162D01*
Y020038D01*
X030262Y020018D01*
X029002D01*
X028972Y020048D01*
Y020112D01*
X02894Y020232D01*
X028878Y02034D01*
X02879Y020428D01*
X028682Y02049D01*
X028562Y020522D01*
X028438D01*
X028318Y02049D01*
X02821Y020428D01*
X028122Y02034D01*
X02806Y020232D01*
X028028Y020112D01*
Y019988D01*
X02806Y019868D01*
X028122Y01976D01*
X02821Y019672D01*
X028303Y019618D01*
X02829Y019568D01*
X028138D01*
X027799Y019907D01*
X027799Y019907D01*
X027608Y020098D01*
Y020112D01*
X027576Y020232D01*
X027513Y02034D01*
X027426Y020428D01*
X027318Y02049D01*
X027198Y020522D01*
X027073D01*
X026953Y02049D01*
X026845Y020428D01*
X026757Y02034D01*
X026695Y020232D01*
X026663Y020112D01*
Y019988D01*
X026695Y019868D01*
X026757Y01976D01*
X026845Y019672D01*
X026953Y01961D01*
X027073Y019578D01*
X027087D01*
X027278Y019387D01*
X027278Y019387D01*
X027451Y019214D01*
X027431Y019168D01*
X026302D01*
X024598Y020873D01*
Y020887D01*
X024566Y021007D01*
X024504Y021115D01*
X024416Y021202D01*
X024308Y021265D01*
X024188Y021297D01*
X024063D01*
X023943Y021265D01*
X023835Y021202D01*
X023747Y021115D01*
X023685Y021007D01*
X023653Y020887D01*
Y020762D01*
X023685Y020642D01*
X023747Y020534D01*
X023835Y020446D01*
X023943Y020384D01*
X024063Y020352D01*
X024077D01*
X02589Y01854D01*
X025966Y018481D01*
X026055Y018444D01*
X02615Y018432D01*
X027835D01*
X027845Y018382D01*
X027814Y018369D01*
X027737Y01831D01*
X0258Y016372D01*
X025785D01*
X025665Y01634D01*
X025558Y016278D01*
X02547Y01619D01*
X025407Y016082D01*
X025375Y015962D01*
Y015838D01*
X02536Y015818D01*
X0202D01*
X020105Y015806D01*
X020016Y015769D01*
X01994Y01571D01*
X018781Y014552D01*
X018741Y014582D01*
X01879Y014668D01*
X018822Y014788D01*
Y014912D01*
X018834Y014928D01*
X018912D01*
X019032Y01496D01*
X01914Y015022D01*
X019228Y01511D01*
X01929Y015218D01*
X019322Y015338D01*
Y015462D01*
X01929Y015582D01*
X019228Y01569D01*
X01914Y015778D01*
X019032Y01584D01*
X018912Y015872D01*
X018788D01*
X018758Y015864D01*
X018718Y015895D01*
Y016298D01*
X02371Y02129D01*
X023769Y021366D01*
X023775Y021382D01*
X02625D01*
X02626Y021372D01*
X026368Y02131D01*
X026488Y021278D01*
X026612D01*
X026732Y02131D01*
X02684Y021372D01*
X02685Y021382D01*
X02845D01*
X02846Y021372D01*
X028568Y02131D01*
X028688Y021278D01*
X028812D01*
X028932Y02131D01*
X02904Y021372D01*
X02905Y021382D01*
X0306D01*
X03061Y021372D01*
X030718Y02131D01*
X030838Y021278D01*
X030962D01*
X031082Y02131D01*
X03119Y021372D01*
X0312Y021382D01*
X0321D01*
X032195Y021394D01*
X032284Y021431D01*
X03236Y02149D01*
X034598Y023728D01*
X034612D01*
X034732Y02376D01*
X03484Y023822D01*
X034928Y02391D01*
X03499Y024018D01*
X035004Y024069D01*
X035052Y024082D01*
X037494Y02164D01*
D02*
G37*
G36*
X022751Y025539D02*
X02281Y025481D01*
X02234Y02501D01*
X022281Y024934D01*
X022244Y024845D01*
X022232Y02475D01*
Y02465D01*
X022222Y02464D01*
X02216Y024532D01*
X022128Y024412D01*
Y024288D01*
X02216Y024168D01*
X022222Y02406D01*
X022307Y023975D01*
X019469Y021137D01*
X018888D01*
X018855Y021187D01*
X018889Y021269D01*
X018906Y0214D01*
Y02514D01*
X019008Y025242D01*
X019088Y025347D01*
X019139Y025469D01*
X019154Y025582D01*
X022727D01*
X022751Y025539D01*
D02*
G37*
G36*
X017894Y025108D02*
Y0214D01*
X017911Y021269D01*
X017945Y021187D01*
X017912Y021137D01*
X017554D01*
X017502Y021189D01*
X017398Y021258D01*
X017284Y021306D01*
X017162Y02133D01*
X017038D01*
X016918Y021306D01*
X016907Y021305D01*
X016868Y021336D01*
Y024148D01*
X017848Y025127D01*
X017894Y025108D01*
D02*
G37*
G36*
X019458Y020217D02*
X018411Y019171D01*
X01773D01*
Y01933D01*
X017663D01*
X01764Y019374D01*
X017658Y019402D01*
X017706Y019516D01*
X01773Y019638D01*
Y019762D01*
X017706Y019884D01*
X017658Y019998D01*
X017589Y020102D01*
X017525Y020166D01*
X017507Y0202D01*
X017525Y020234D01*
X017554Y020263D01*
X019438D01*
X019458Y020217D01*
D02*
G37*
G36*
X038297Y01915D02*
X038262Y019103D01*
X038211Y018981D01*
X038194Y01885D01*
Y0094D01*
X038211Y009269D01*
X038235Y00921D01*
X038208Y009168D01*
X027402D01*
X024922Y011648D01*
Y011712D01*
X02489Y011832D01*
X024828Y01194D01*
X024769Y011999D01*
X025481Y012711D01*
X027313D01*
X027345Y012661D01*
X027342Y012644D01*
Y012521D01*
X027314Y012509D01*
X02725Y012445D01*
X027216Y012362D01*
Y012271D01*
X027226Y012248D01*
X027141Y012199D01*
X027049Y012107D01*
X026984Y011995D01*
X026951Y01187D01*
Y01174D01*
X026984Y011615D01*
X027049Y011503D01*
X027141Y011411D01*
X027253Y011346D01*
X027378Y011313D01*
X027508D01*
X027633Y011346D01*
X027642Y011351D01*
X027666Y011327D01*
X02773Y011291D01*
X0278Y011272D01*
X027873D01*
X027944Y011291D01*
X028007Y011327D01*
X028058Y011379D01*
X028095Y011442D01*
X028114Y011512D01*
Y011585D01*
X028095Y011656D01*
X028058Y011719D01*
X028007Y011771D01*
X027944Y011807D01*
X027935Y011809D01*
X027937Y011856D01*
X027965Y011868D01*
X028029Y011932D01*
X028064Y012015D01*
Y012106D01*
X028029Y012189D01*
X027965Y012253D01*
X027882Y012288D01*
X027791D01*
X027716Y012257D01*
X027706Y01226D01*
X027689Y01227D01*
X02767Y012286D01*
Y012347D01*
X027689Y012363D01*
X027706Y012373D01*
X027716Y012376D01*
X027791Y012345D01*
X027882D01*
X027965Y01238D01*
X028029Y012444D01*
X028064Y012527D01*
Y012618D01*
X028046Y012661D01*
X028079Y012711D01*
X028573D01*
X029032Y012252D01*
Y012194D01*
X029057Y012132D01*
X029105Y012085D01*
X029167Y01206D01*
X029233D01*
X029295Y012085D01*
X029343Y012132D01*
X029368Y012194D01*
Y012261D01*
X029343Y012323D01*
X029295Y01237D01*
X029233Y012396D01*
X029176D01*
X029005Y012567D01*
X029026Y012617D01*
X029094D01*
X029204Y012646D01*
X029303Y012703D01*
X029383Y012784D01*
X02944Y012883D01*
X02947Y012993D01*
Y013107D01*
X029447Y013193D01*
X029466Y013203D01*
X029547Y013284D01*
X029604Y013383D01*
X029633Y013493D01*
Y013607D01*
X029604Y013717D01*
X029547Y013816D01*
X029466Y013897D01*
X029367Y013954D01*
X029299Y013972D01*
X02911Y01416D01*
X029034Y014219D01*
X028945Y014256D01*
X02885Y014268D01*
X019609D01*
X019589Y014318D01*
X020352Y015082D01*
X023429D01*
X02346Y014968D01*
X023522Y01486D01*
X02361Y014772D01*
X023718Y01471D01*
X023838Y014678D01*
X023962D01*
X024082Y01471D01*
X02419Y014772D01*
X0242Y014782D01*
X030879D01*
X030974Y014794D01*
X031063Y014831D01*
X031139Y01489D01*
X031377Y015128D01*
X031391D01*
X031511Y01516D01*
X031619Y015222D01*
X031707Y01531D01*
X031769Y015418D01*
X031802Y015538D01*
Y015662D01*
X031769Y015782D01*
X031707Y01589D01*
X031619Y015978D01*
X031511Y01604D01*
X031391Y016072D01*
X031267D01*
X031147Y01604D01*
X031039Y015978D01*
X030951Y01589D01*
X030889Y015782D01*
X030857Y015662D01*
Y015648D01*
X030727Y015518D01*
X027471D01*
X02744Y015632D01*
X027378Y01574D01*
X02729Y015828D01*
X027182Y01589D01*
X027062Y015922D01*
X026938D01*
X026818Y01589D01*
X02671Y015828D01*
X0267Y015818D01*
X026357D01*
X026336Y015868D01*
X02815Y017682D01*
X03195D01*
X032045Y017694D01*
X032134Y017731D01*
X03221Y01779D01*
X032861Y01844D01*
X035741D01*
X03576Y018422D01*
X035868Y01836D01*
X035988Y018328D01*
X036112D01*
X036232Y01836D01*
X03634Y018422D01*
X036428Y01851D01*
X03649Y018618D01*
X036522Y018738D01*
Y018862D01*
X03649Y018982D01*
X036428Y01909D01*
X036373Y019145D01*
X036394Y019195D01*
X038275D01*
X038297Y01915D01*
D02*
G37*
G36*
X027956Y013635D02*
X027964Y013635D01*
X027973Y013633D01*
X027982Y013632D01*
X02799Y01363D01*
X027999Y013627D01*
X028007Y013624D01*
X028015Y013621D01*
X028023Y013617D01*
X028031Y013613D01*
X028038Y013608D01*
X028045Y013603D01*
X028052Y013598D01*
X028059Y013592D01*
X028065Y013586D01*
X028071Y01358D01*
X028077Y013573D01*
X028082Y013566D01*
X028087Y013559D01*
X028092Y013552D01*
X028096Y013544D01*
X0281Y013536D01*
X028103Y013528D01*
X028106Y01352D01*
X028108Y013511D01*
X028111Y013503D01*
X028112Y013494D01*
X028113Y013486D01*
X028114Y013477D01*
X028114Y013468D01*
X028114Y013459D01*
X028113Y013451D01*
X028112Y013442D01*
X028111Y013433D01*
X028108Y013425D01*
X028106Y013416D01*
X028103Y013408D01*
X0281Y0134D01*
X028096Y013392D01*
X028092Y013384D01*
X028087Y013377D01*
X028082Y01337D01*
X028077Y013363D01*
X028071Y013356D01*
X028065Y01335D01*
X028059Y013344D01*
X028052Y013338D01*
X028045Y013333D01*
X028038Y013328D01*
X028031Y013323D01*
X028023Y013319D01*
X028015Y013315D01*
X028007Y013312D01*
X027999Y013309D01*
X02799Y013306D01*
X027982Y013304D01*
X027973Y013303D01*
X027964Y013302D01*
X027956Y013301D01*
X027947Y013301D01*
X027553D01*
X027544Y013301D01*
X027536Y013302D01*
X027527Y013303D01*
X027518Y013304D01*
X02751Y013306D01*
X027501Y013309D01*
X027493Y013312D01*
X027485Y013315D01*
X027477Y013319D01*
X027469Y013323D01*
X027462Y013328D01*
X027455Y013333D01*
X027448Y013338D01*
X027441Y013344D01*
X027435Y01335D01*
X027429Y013356D01*
X027423Y013363D01*
X027418Y01337D01*
X027413Y013377D01*
X027408Y013384D01*
X027404Y013392D01*
X0274Y0134D01*
X027397Y013408D01*
X027394Y013416D01*
X027392Y013425D01*
X027389Y013433D01*
X027388Y013442D01*
X027387Y013451D01*
X027386Y013459D01*
X027386Y013468D01*
X027386Y013477D01*
X027387Y013486D01*
X027388Y013494D01*
X027389Y013503D01*
X027392Y013511D01*
X027394Y01352D01*
X027397Y013528D01*
X0274Y013536D01*
X027404Y013544D01*
X027408Y013552D01*
X027413Y013559D01*
X027418Y013566D01*
X027423Y013573D01*
X027429Y01358D01*
X027435Y013586D01*
X027441Y013592D01*
X027448Y013598D01*
X027455Y013603D01*
X027462Y013608D01*
X027469Y013613D01*
X027477Y013617D01*
X027485Y013621D01*
X027493Y013624D01*
X027501Y013627D01*
X02751Y01363D01*
X027518Y013632D01*
X027527Y013633D01*
X027536Y013635D01*
X027544Y013635D01*
X027553Y013635D01*
X027947D01*
X027956Y013635D01*
D02*
G37*
G36*
X024265Y012536D02*
X020598Y008868D01*
X017204D01*
X017185Y008914D01*
X020852Y012582D01*
X024246D01*
X024265Y012536D01*
D02*
G37*
G36*
X02416Y011272D02*
X024268Y01121D01*
X024339Y011191D01*
X026815Y008714D01*
X026796Y008668D01*
X021504D01*
X021485Y008714D01*
X024101Y011331D01*
X02416Y011272D01*
D02*
G37*
G36*
X013226Y008092D02*
X013217Y008057D01*
Y007943D01*
X013246Y007833D01*
X013303Y007734D01*
X013384Y007653D01*
X013483Y007596D01*
X013593Y007567D01*
X013707D01*
X013817Y007596D01*
X013916Y007653D01*
X013997Y007734D01*
X014054Y007833D01*
X014072Y007901D01*
X014102Y007932D01*
X015032D01*
X015045Y007882D01*
X014984Y007847D01*
X014903Y007766D01*
X014846Y007667D01*
X014828Y007599D01*
X014505Y007276D01*
X014485Y007249D01*
X014427Y007256D01*
X014378Y00734D01*
X01429Y007428D01*
X014182Y00749D01*
X014062Y007522D01*
X013938D01*
X013818Y00749D01*
X01371Y007428D01*
X0137Y007418D01*
X011509D01*
X011489Y007468D01*
X012152Y008132D01*
X013196D01*
X013226Y008092D01*
D02*
G37*
G36*
X030765Y007886D02*
X030152Y007272D01*
X030138D01*
X030018Y00724D01*
X02991Y007178D01*
X029822Y00709D01*
X02976Y006982D01*
X029728Y006862D01*
Y006845D01*
X02968Y006829D01*
X029658Y006858D01*
X02863Y007886D01*
X028649Y007932D01*
X030746D01*
X030765Y007886D01*
D02*
G37*
G36*
X014356Y006667D02*
Y006598D01*
X014383Y006498D01*
X014435Y006408D01*
X014508Y006335D01*
X014537Y006318D01*
X014524Y006268D01*
X011331D01*
X011301Y006308D01*
X011322Y006388D01*
Y006402D01*
X011602Y006682D01*
X0137D01*
X01371Y006672D01*
X013818Y00661D01*
X013938Y006578D01*
X014062D01*
X014182Y00661D01*
X01429Y006672D01*
X014306Y006688D01*
X014356Y006667D01*
D02*
G37*
G36*
X031602Y007423D02*
X030448Y006268D01*
X029806D01*
Y006455D01*
X029856Y006476D01*
X02991Y006422D01*
X030018Y00636D01*
X030138Y006328D01*
X030262D01*
X030382Y00636D01*
X03049Y006422D01*
X030578Y00651D01*
X03064Y006618D01*
X030672Y006738D01*
Y006752D01*
X03139Y007469D01*
X031583D01*
X031602Y007423D01*
D02*
G37*
G36*
X0185Y007894D02*
X018494Y00785D01*
X018511Y007719D01*
X018562Y007597D01*
X018642Y007492D01*
X018747Y007412D01*
X018869Y007361D01*
X019Y007344D01*
X02076D01*
X020779Y007298D01*
X020772Y00729D01*
X02071Y007182D01*
X020678Y007062D01*
Y006938D01*
X02071Y006818D01*
X020772Y00671D01*
X02086Y006622D01*
X020968Y00656D01*
X021088Y006528D01*
X021212D01*
X021332Y00656D01*
X02144Y006622D01*
X02145Y006632D01*
X0242D01*
X02421Y006622D01*
X024318Y00656D01*
X024438Y006528D01*
X024562D01*
X024682Y00656D01*
X02479Y006622D01*
X024878Y00671D01*
X02494Y006818D01*
X024972Y006938D01*
Y007062D01*
X02494Y007182D01*
X024878Y00729D01*
X024871Y007298D01*
X02489Y007344D01*
X02774D01*
X028766Y006318D01*
X028745Y006268D01*
X014976D01*
X014963Y006318D01*
X014992Y006335D01*
X015065Y006408D01*
X015117Y006498D01*
X015144Y006598D01*
Y006702D01*
X015134Y006739D01*
Y006863D01*
X015349Y007078D01*
X015417Y007096D01*
X015516Y007153D01*
X015597Y007234D01*
X015654Y007333D01*
X015683Y007443D01*
Y007557D01*
X015654Y007667D01*
X015597Y007766D01*
X015516Y007847D01*
X015455Y007882D01*
X015468Y007932D01*
X018467D01*
X0185Y007894D01*
D02*
G37*
G36*
X016675Y017613D02*
X01735D01*
X017378Y017571D01*
X017361Y017531D01*
X017344Y0174D01*
Y01385D01*
X017361Y013719D01*
X017412Y013597D01*
X017492Y013492D01*
X017582Y013423D01*
X017594Y013364D01*
X014622Y010393D01*
X014565Y010406D01*
X014502Y010514D01*
X014397Y010619D01*
X014268Y010694D01*
X014124Y010732D01*
X013976D01*
X01388Y010706D01*
X010503D01*
X010468Y010726D01*
X010324Y010765D01*
X010176D01*
X010032Y010726D01*
X009903Y010652D01*
X009798Y010547D01*
X009724Y010418D01*
X009685Y010274D01*
Y010126D01*
X009724Y009982D01*
X009798Y009853D01*
X009903Y009748D01*
X009996Y009694D01*
X00996Y009632D01*
X009928Y009512D01*
Y009388D01*
X00996Y009268D01*
X010022Y00916D01*
X01011Y009072D01*
X010218Y00901D01*
X010338Y008978D01*
X010462D01*
X010582Y00901D01*
X01069Y009072D01*
X0107Y009082D01*
X0142D01*
X014295Y009094D01*
X014384Y009131D01*
X01446Y00919D01*
X014646Y009375D01*
X014694Y009362D01*
X014705Y009322D01*
X014767Y009215D01*
X014855Y009127D01*
X014963Y009065D01*
X015083Y009032D01*
X015207D01*
X015328Y009065D01*
X015435Y009127D01*
X015523Y009215D01*
X015585Y009322D01*
X015611Y009419D01*
X015621Y009424D01*
X015666Y009432D01*
X015734Y009364D01*
X015833Y009307D01*
X015943Y009277D01*
X016057D01*
X016167Y009307D01*
X016266Y009364D01*
X016347Y009444D01*
X016404Y009543D01*
X016422Y009612D01*
X018056Y011246D01*
X018056Y011246D01*
X019892Y013082D01*
X020246D01*
X020265Y013036D01*
X016601Y009372D01*
X016533Y009354D01*
X016434Y009297D01*
X016353Y009216D01*
X016296Y009117D01*
X016267Y009007D01*
Y008893D01*
X016248Y008868D01*
X012D01*
X011905Y008856D01*
X011816Y008819D01*
X01174Y00876D01*
X010902Y007922D01*
X010838D01*
X010718Y00789D01*
X01061Y007828D01*
X010522Y00774D01*
X01046Y007632D01*
X010428Y007512D01*
Y007388D01*
X01046Y007268D01*
X010522Y00716D01*
X01061Y007072D01*
X010718Y00701D01*
X010763Y006998D01*
X01077Y00699D01*
X010783Y00694D01*
X010766Y006917D01*
X010668Y00689D01*
X01056Y006828D01*
X010472Y00674D01*
X01041Y006632D01*
X010378Y006512D01*
Y006388D01*
X01041Y006268D01*
X010472Y00616D01*
X01056Y006072D01*
X010565Y006035D01*
X010052Y005522D01*
X009988D01*
X009868Y00549D01*
X00976Y005428D01*
X009672Y00534D01*
X009666Y00533D01*
X009618Y005343D01*
Y010948D01*
X015548Y016878D01*
X015562D01*
X015682Y01691D01*
X01579Y016972D01*
X015878Y01706D01*
X01594Y017168D01*
X015972Y017288D01*
Y017412D01*
X01594Y017532D01*
X015919Y01757D01*
X015944Y017613D01*
X016675D01*
X016675Y017613D01*
D02*
G37*
%LPC*%
G36*
X00165Y026D02*
X0011D01*
Y02515D01*
X00165D01*
Y026D01*
D02*
G37*
G36*
X001D02*
X00045D01*
Y02515D01*
X001D01*
Y026D01*
D02*
G37*
G36*
X00165Y02505D02*
X0011D01*
Y0242D01*
X00165D01*
Y02505D01*
D02*
G37*
G36*
X001D02*
X00045D01*
Y0242D01*
X001D01*
Y02505D01*
D02*
G37*
G36*
X004365Y026215D02*
X002735D01*
Y023985D01*
X004365D01*
Y026215D01*
D02*
G37*
G36*
X00345Y0237D02*
X0026D01*
Y02315D01*
X00345D01*
Y0237D01*
D02*
G37*
G36*
X0025D02*
X00165D01*
Y02315D01*
X0025D01*
Y0237D01*
D02*
G37*
G36*
X00345Y02305D02*
X0026D01*
Y0225D01*
X00345D01*
Y02305D01*
D02*
G37*
G36*
X0025D02*
X00165D01*
Y0225D01*
X0025D01*
Y02305D01*
D02*
G37*
G36*
X012962Y026072D02*
X012838D01*
X012718Y02604D01*
X01261Y025978D01*
X012522Y02589D01*
X01246Y025782D01*
X012428Y025662D01*
Y025538D01*
X01246Y025418D01*
X012513Y025325D01*
Y021688D01*
X01251Y021682D01*
X012478Y021562D01*
Y021438D01*
X01251Y021318D01*
X012572Y02121D01*
X01266Y021122D01*
X012768Y02106D01*
X012888Y021028D01*
X013012D01*
X013132Y02106D01*
X01324Y021122D01*
X013328Y02121D01*
X01339Y021318D01*
X013422Y021438D01*
Y021562D01*
X01339Y021682D01*
X013387Y021688D01*
Y025529D01*
X013372Y025638D01*
Y025662D01*
X01334Y025782D01*
X013278Y02589D01*
X01319Y025978D01*
X013082Y02604D01*
X012962Y026072D01*
D02*
G37*
G36*
X005912Y023572D02*
X005788D01*
X005668Y02354D01*
X00556Y023478D01*
X005472Y02339D01*
X00541Y023282D01*
X005408Y023276D01*
X003091Y020959D01*
X003022Y020868D01*
X002978Y020763D01*
X002963Y02065D01*
Y012852D01*
X002429Y012318D01*
X00236Y012278D01*
X002272Y01219D01*
X00221Y012082D01*
X002178Y011962D01*
Y011838D01*
X00221Y011718D01*
X002272Y01161D01*
X00236Y011522D01*
X002468Y01146D01*
X002588Y011428D01*
X002712D01*
X002832Y01146D01*
X00294Y011522D01*
X003028Y01161D01*
X00309Y011718D01*
X0031Y011753D01*
X003709Y012362D01*
X003778Y012453D01*
X003822Y012558D01*
X003837Y012671D01*
Y020469D01*
X006026Y022658D01*
X006032Y02266D01*
X00614Y022722D01*
X006228Y02281D01*
X00629Y022918D01*
X006322Y023038D01*
Y023162D01*
X00629Y023282D01*
X006228Y02339D01*
X00614Y023478D01*
X006032Y02354D01*
X005912Y023572D01*
D02*
G37*
G36*
X002262Y00888D02*
X002138D01*
X002016Y008856D01*
X001902Y008808D01*
X001798Y008739D01*
X001711Y008652D01*
X001642Y008548D01*
X001594Y008434D01*
X00157Y008312D01*
Y008188D01*
X001594Y008066D01*
X001642Y007952D01*
X00166Y007924D01*
X001637Y00788D01*
X00157D01*
Y00662D01*
X00283D01*
Y00788D01*
X002763D01*
X00274Y007924D01*
X002758Y007952D01*
X002806Y008066D01*
X00283Y008188D01*
Y008312D01*
X002806Y008434D01*
X002758Y008548D01*
X002689Y008652D01*
X002602Y008739D01*
X002498Y008808D01*
X002384Y008856D01*
X002262Y00888D01*
D02*
G37*
G36*
X002261Y006415D02*
X002139D01*
X002021Y006391D01*
X001909Y006345D01*
X001808Y006278D01*
X001722Y006192D01*
X001655Y006091D01*
X001609Y005979D01*
X001585Y005861D01*
Y005739D01*
X001609Y005621D01*
X001655Y005509D01*
X001722Y005408D01*
X001808Y005322D01*
X001909Y005255D01*
X001963Y005233D01*
X001966Y005177D01*
X001954Y00517D01*
X00188Y005096D01*
X001827Y005004D01*
X0018Y004903D01*
Y0049D01*
X0026D01*
Y004903D01*
X002573Y005004D01*
X00252Y005096D01*
X002446Y00517D01*
X002434Y005177D01*
X002437Y005233D01*
X002491Y005255D01*
X002592Y005322D01*
X002678Y005408D01*
X002745Y005509D01*
X002791Y005621D01*
X002815Y005739D01*
Y005861D01*
X002791Y005979D01*
X002745Y006091D01*
X002678Y006192D01*
X002592Y006278D01*
X002491Y006345D01*
X002379Y006391D01*
X002261Y006415D01*
D02*
G37*
G36*
X031862Y004372D02*
X031738D01*
X031618Y00434D01*
X03151Y004278D01*
X031498Y004266D01*
X029063D01*
X029055Y004274D01*
X028947Y004336D01*
X028827Y004368D01*
X028703D01*
X028583Y004336D01*
X028475Y004274D01*
X028387Y004186D01*
X028325Y004078D01*
X028293Y003958D01*
Y003833D01*
X028325Y003713D01*
X028387Y003606D01*
X028475Y003518D01*
X028583Y003455D01*
X028703Y003423D01*
X028827D01*
X028947Y003455D01*
X029055Y003518D01*
X029067Y00353D01*
X031502D01*
X03151Y003522D01*
X031618Y00346D01*
X031738Y003428D01*
X031862D01*
X031982Y00346D01*
X03209Y003522D01*
X032178Y00361D01*
X03224Y003718D01*
X032272Y003838D01*
Y003962D01*
X03224Y004082D01*
X032178Y00419D01*
X03209Y004278D01*
X031982Y00434D01*
X031862Y004372D01*
D02*
G37*
G36*
X044712Y00678D02*
X044588D01*
X044466Y006756D01*
X044352Y006708D01*
X044248Y006639D01*
X044161Y006552D01*
X044092Y006448D01*
X044044Y006334D01*
X04402Y006212D01*
Y006088D01*
X044044Y005966D01*
X044092Y005852D01*
X044161Y005748D01*
X044225Y005684D01*
X044243Y00565D01*
X044225Y005616D01*
X044161Y005552D01*
X044092Y005448D01*
X044044Y005334D01*
X04402Y005212D01*
Y005088D01*
X044044Y004966D01*
X044092Y004852D01*
X04411Y004824D01*
X044087Y00478D01*
X04402D01*
Y00352D01*
Y003028D01*
X04397Y003021D01*
X04394Y003132D01*
X043878Y00324D01*
X043869Y003249D01*
Y005284D01*
X04388Y005295D01*
X043942Y005403D01*
X043974Y005523D01*
Y005647D01*
X043942Y005768D01*
X04388Y005875D01*
X043792Y005963D01*
X043684Y006025D01*
X043564Y006058D01*
X043439D01*
X043319Y006025D01*
X043211Y005963D01*
X043124Y005875D01*
X043061Y005768D01*
X043029Y005647D01*
Y005523D01*
X043061Y005403D01*
X043124Y005295D01*
X043133Y005286D01*
Y003251D01*
X043122Y00324D01*
X04306Y003132D01*
X043028Y003012D01*
Y002888D01*
X04306Y002768D01*
X043122Y00266D01*
X04321Y002572D01*
X043318Y00251D01*
X043438Y002478D01*
X043562D01*
X043682Y00251D01*
X04379Y002572D01*
X043878Y00266D01*
X04394Y002768D01*
X04397Y002879D01*
X04402Y002872D01*
Y00242D01*
X04528D01*
Y00352D01*
Y00478D01*
X045213D01*
X04519Y004824D01*
X045208Y004852D01*
X045256Y004966D01*
X04528Y005088D01*
Y005212D01*
X045256Y005334D01*
X045208Y005448D01*
X045139Y005552D01*
X045075Y005616D01*
X045057Y00565D01*
X045075Y005684D01*
X045139Y005748D01*
X045208Y005852D01*
X045256Y005966D01*
X04528Y006088D01*
Y006212D01*
X045256Y006334D01*
X045208Y006448D01*
X045139Y006552D01*
X045052Y006639D01*
X044948Y006708D01*
X044834Y006756D01*
X044712Y00678D01*
D02*
G37*
G36*
X005062Y007772D02*
X004938D01*
X004818Y00774D01*
X00471Y007678D01*
X004622Y00759D01*
X00456Y007482D01*
X004528Y007362D01*
Y007238D01*
X00456Y007118D01*
X004607Y007036D01*
Y003175D01*
X004572Y00314D01*
X00451Y003032D01*
X004478Y002912D01*
Y002788D01*
X00451Y002668D01*
X004572Y00256D01*
X00466Y002472D01*
X004768Y00241D01*
X004888Y002378D01*
X005012D01*
X005132Y00241D01*
X00524Y002472D01*
X005328Y00256D01*
X00539Y002668D01*
X005422Y002788D01*
Y002912D01*
X00539Y003032D01*
X005343Y003114D01*
Y006975D01*
X005378Y00701D01*
X00544Y007118D01*
X005472Y007238D01*
Y007362D01*
X00544Y007482D01*
X005378Y00759D01*
X00529Y007678D01*
X005182Y00774D01*
X005062Y007772D01*
D02*
G37*
G36*
X0026Y0048D02*
X0018D01*
Y004797D01*
X001827Y004696D01*
X00188Y004604D01*
X001954Y00453D01*
X002003Y004502D01*
X002003Y004501D01*
X001997Y004448D01*
X001902Y004408D01*
X001798Y004339D01*
X001711Y004252D01*
X001642Y004148D01*
X001594Y004034D01*
X00157Y003912D01*
Y003788D01*
X001594Y003666D01*
X001642Y003552D01*
X00166Y003524D01*
X001637Y00348D01*
X00157D01*
Y00222D01*
X00283D01*
Y00348D01*
X002763D01*
X00274Y003524D01*
X002758Y003552D01*
X002806Y003666D01*
X00283Y003788D01*
Y003912D01*
X002806Y004034D01*
X002758Y004148D01*
X002689Y004252D01*
X002602Y004339D01*
X002498Y004408D01*
X002403Y004448D01*
X002397Y004501D01*
X002397Y004502D01*
X002446Y00453D01*
X00252Y004604D01*
X002573Y004696D01*
X0026Y004797D01*
Y0048D01*
D02*
G37*
G36*
X013062Y00203D02*
X012938D01*
X012816Y002006D01*
X012702Y001958D01*
X012674Y00194D01*
X01263Y001963D01*
Y00203D01*
X01137D01*
Y00077D01*
X01263D01*
Y000837D01*
X012674Y00086D01*
X012702Y000842D01*
X012816Y000794D01*
X012938Y00077D01*
X013062D01*
X013184Y000794D01*
X013298Y000842D01*
X013402Y000911D01*
X013489Y000998D01*
X013558Y001102D01*
X01359Y001179D01*
X013646Y001183D01*
X013668Y001145D01*
X013745Y001068D01*
X01384Y001013D01*
X013945Y000985D01*
X01395D01*
Y0014D01*
Y001815D01*
X013945D01*
X01384Y001787D01*
X013745Y001732D01*
X013668Y001655D01*
X013646Y001617D01*
X01359Y001621D01*
X013558Y001698D01*
X013489Y001802D01*
X013402Y001889D01*
X013298Y001958D01*
X013184Y002006D01*
X013062Y00203D01*
D02*
G37*
G36*
X038059Y0017D02*
X03805D01*
Y0013D01*
X03845D01*
Y001309D01*
X038419Y001424D01*
X03836Y001526D01*
X038276Y00161D01*
X038174Y001669D01*
X038059Y0017D01*
D02*
G37*
G36*
X03845Y0012D02*
X03805D01*
Y0008D01*
X038059D01*
X038174Y000831D01*
X038276Y00089D01*
X03836Y000974D01*
X038419Y001076D01*
X03845Y001191D01*
Y0012D01*
D02*
G37*
G36*
X027947Y011138D02*
X027553D01*
X027549Y011138D01*
X027545Y011138D01*
X027536Y011138D01*
X027528Y011137D01*
X027519Y011137D01*
X027511Y011136D01*
X027503Y011135D01*
X027494Y011135D01*
X027485Y011133D01*
X027477Y011131D01*
X027469Y011131D01*
X02746Y011129D01*
X027453Y011127D01*
X027444Y011126D01*
X027436Y011124D01*
X027428Y011121D01*
X02742Y011119D01*
X027411Y011117D01*
X027404Y011113D01*
X027395Y011112D01*
X027387Y011109D01*
X02738Y011105D01*
X027372Y011103D01*
X027364Y0111D01*
X027356Y011095D01*
X027348Y011093D01*
X02734Y011089D01*
X027333Y011084D01*
X027326Y011081D01*
X027318Y011077D01*
X027311Y011072D01*
X027303Y011069D01*
X027296Y011064D01*
X02729Y011059D01*
X027282Y011055D01*
X027275Y01105D01*
X027269Y011045D01*
X027261Y011041D01*
X027254Y011035D01*
X027249Y011029D01*
X027242Y011025D01*
X027235Y011019D01*
X027229Y011013D01*
X027223Y011008D01*
X027216Y011002D01*
X027211Y010995D01*
X027204Y01099D01*
X027198Y010984D01*
X027193Y010977D01*
X027187Y010971D01*
X027182Y010965D01*
X027177Y010958D01*
X027171Y010952D01*
X027166Y010945D01*
X027162Y010938D01*
X027156Y010931D01*
X027151Y010924D01*
X027147Y010917D01*
X027142Y01091D01*
X027137Y010903D01*
X027134Y010895D01*
X027129Y010888D01*
X027125Y010881D01*
X027122Y010873D01*
X027117Y010866D01*
X027114Y010858D01*
X027111Y01085D01*
X027107Y010843D01*
X027103Y010835D01*
X027101Y010827D01*
X027097Y010819D01*
X027095Y010811D01*
X027093Y010803D01*
X027089Y010795D01*
X027087Y010787D01*
X027086Y010778D01*
X027083Y010771D01*
X027081Y010762D01*
X02708Y010754D01*
X027077Y010746D01*
X027076Y010737D01*
X027075Y010729D01*
X027073Y010721D01*
X027072Y010712D01*
X027072Y010704D01*
X02707Y010696D01*
X027069Y010687D01*
X02707Y010678D01*
X027068Y01067D01*
X027068Y010661D01*
X027069Y010653D01*
X027068Y010645D01*
X027068Y010636D01*
X02707Y010628D01*
X027069Y010619D01*
X02707Y010611D01*
X027072Y010603D01*
X027072Y010594D01*
X027073Y010585D01*
X027075Y010577D01*
X027076Y010569D01*
X027077Y01056D01*
X02708Y010553D01*
X027081Y010544D01*
X027083Y010536D01*
X027086Y010528D01*
X027087Y01052D01*
X027089Y010511D01*
X027093Y010504D01*
X027095Y010495D01*
X027097Y010487D01*
X027101Y01048D01*
X027103Y010472D01*
X027107Y010464D01*
X027111Y010456D01*
X027114Y010448D01*
X027117Y01044D01*
X027122Y010433D01*
X027125Y010426D01*
X027129Y010418D01*
X027134Y010411D01*
X027137Y010403D01*
X027142Y010396D01*
X027147Y01039D01*
X027151Y010382D01*
X027156Y010375D01*
X027162Y010369D01*
X027166Y010361D01*
X027171Y010354D01*
X027177Y010349D01*
X027182Y010342D01*
X027187Y010335D01*
X027193Y010329D01*
X027198Y010323D01*
X027204Y010316D01*
X027211Y010311D01*
X027216Y010304D01*
X027223Y010298D01*
X027229Y010293D01*
X027235Y010287D01*
X027242Y010282D01*
X027249Y010277D01*
X027254Y010271D01*
X027261Y010266D01*
X027269Y010262D01*
X027275Y010256D01*
X027282Y010251D01*
X02729Y010247D01*
X027296Y010242D01*
X027304Y010237D01*
X027311Y010234D01*
X027318Y010229D01*
X027326Y010225D01*
X027333Y010222D01*
X02734Y010217D01*
X027348Y010214D01*
X027356Y010211D01*
X027364Y010207D01*
X027372Y010203D01*
X02738Y010201D01*
X027387Y010197D01*
X027395Y010195D01*
X027404Y010193D01*
X027411Y010189D01*
X02742Y010187D01*
X027428Y010186D01*
X027436Y010183D01*
X027444Y010181D01*
X027453Y01018D01*
X02746Y010177D01*
X027469Y010176D01*
X027477Y010175D01*
X027485Y010173D01*
X027494Y010172D01*
X027503Y010172D01*
X027511Y01017D01*
X027519Y010169D01*
X027528Y01017D01*
X027536Y010168D01*
X027545Y010168D01*
X027549Y010169D01*
X027553Y010168D01*
X027947D01*
X027951Y010169D01*
X027955Y010168D01*
X027964Y010168D01*
X027972Y01017D01*
X027981Y010169D01*
X027989Y01017D01*
X027997Y010172D01*
X028006Y010172D01*
X028015Y010173D01*
X028023Y010175D01*
X028031Y010176D01*
X02804Y010177D01*
X028047Y01018D01*
X028056Y010181D01*
X028064Y010183D01*
X028072Y010186D01*
X02808Y010187D01*
X028089Y010189D01*
X028096Y010193D01*
X028105Y010195D01*
X028113Y010197D01*
X02812Y010201D01*
X028128Y010203D01*
X028136Y010207D01*
X028144Y010211D01*
X028152Y010214D01*
X02816Y010217D01*
X028167Y010222D01*
X028174Y010225D01*
X028182Y010229D01*
X028189Y010234D01*
X028196Y010237D01*
X028204Y010242D01*
X02821Y010247D01*
X028218Y010251D01*
X028225Y010256D01*
X028231Y010262D01*
X028239Y010266D01*
X028246Y010271D01*
X028251Y010277D01*
X028258Y010282D01*
X028265Y010287D01*
X028271Y010293D01*
X028277Y010298D01*
X028284Y010304D01*
X028289Y010311D01*
X028296Y010316D01*
X028302Y010323D01*
X028307Y010329D01*
X028313Y010335D01*
X028318Y010342D01*
X028323Y010349D01*
X028329Y010354D01*
X028334Y010361D01*
X028338Y010369D01*
X028344Y010375D01*
X028349Y010382D01*
X028353Y01039D01*
X028358Y010396D01*
X028363Y010403D01*
X028366Y010411D01*
X028371Y010418D01*
X028375Y010426D01*
X028378Y010433D01*
X028383Y01044D01*
X028386Y010448D01*
X028389Y010456D01*
X028393Y010464D01*
X028397Y010472D01*
X028399Y01048D01*
X028403Y010487D01*
X028405Y010495D01*
X028407Y010504D01*
X028411Y010511D01*
X028413Y01052D01*
X028414Y010528D01*
X028417Y010536D01*
X028419Y010544D01*
X02842Y010553D01*
X028423Y01056D01*
X028424Y010569D01*
X028425Y010577D01*
X028427Y010585D01*
X028428Y010594D01*
X028428Y010603D01*
X02843Y010611D01*
X028431Y010619D01*
X02843Y010628D01*
X028432Y010636D01*
X028432Y010645D01*
X028431Y010653D01*
X028432Y010661D01*
X028432Y01067D01*
X02843Y010678D01*
X028431Y010687D01*
X02843Y010696D01*
X028428Y010704D01*
X028428Y010712D01*
X028427Y010721D01*
X028425Y010729D01*
X028424Y010737D01*
X028423Y010746D01*
X02842Y010754D01*
X028419Y010762D01*
X028417Y010771D01*
X028414Y010778D01*
X028413Y010787D01*
X028411Y010795D01*
X028407Y010803D01*
X028405Y010811D01*
X028403Y010819D01*
X028399Y010827D01*
X028397Y010835D01*
X028393Y010843D01*
X028389Y01085D01*
X028386Y010858D01*
X028383Y010866D01*
X028378Y010873D01*
X028375Y010881D01*
X028371Y010888D01*
X028366Y010895D01*
X028363Y010903D01*
X028358Y01091D01*
X028353Y010917D01*
X028349Y010924D01*
X028344Y010931D01*
X028338Y010938D01*
X028334Y010945D01*
X028329Y010952D01*
X028323Y010958D01*
X028318Y010965D01*
X028313Y010971D01*
X028307Y010977D01*
X028302Y010984D01*
X028296Y01099D01*
X028289Y010995D01*
X028284Y011002D01*
X028277Y011008D01*
X028271Y011013D01*
X028265Y011019D01*
X028258Y011025D01*
X028251Y011029D01*
X028246Y011035D01*
X028239Y011041D01*
X028231Y011045D01*
X028225Y01105D01*
X028218Y011055D01*
X02821Y011059D01*
X028204Y011064D01*
X028197Y011069D01*
X028189Y011072D01*
X028182Y011077D01*
X028174Y011081D01*
X028167Y011084D01*
X02816Y011089D01*
X028152Y011093D01*
X028144Y011095D01*
X028136Y0111D01*
X028128Y011103D01*
X02812Y011105D01*
X028113Y011109D01*
X028105Y011112D01*
X028096Y011113D01*
X028089Y011117D01*
X02808Y011119D01*
X028072Y011121D01*
X028064Y011124D01*
X028056Y011126D01*
X028047Y011127D01*
X02804Y011129D01*
X028031Y011131D01*
X028023Y011131D01*
X028015Y011133D01*
X028006Y011135D01*
X027997Y011135D01*
X027989Y011136D01*
X027981Y011137D01*
X027972Y011137D01*
X027964Y011138D01*
X027955Y011138D01*
X027951Y011138D01*
X027947Y011138D01*
D02*
G37*
%LPD*%
G36*
X027956Y01082D02*
X027964Y01082D01*
X027973Y010818D01*
X027982Y010817D01*
X02799Y010815D01*
X027999Y010812D01*
X028007Y010809D01*
X028015Y010806D01*
X028023Y010802D01*
X028031Y010798D01*
X028038Y010793D01*
X028045Y010789D01*
X028052Y010783D01*
X028059Y010777D01*
X028065Y010771D01*
X028071Y010765D01*
X028077Y010758D01*
X028082Y010752D01*
X028087Y010744D01*
X028092Y010737D01*
X028096Y010729D01*
X0281Y010721D01*
X028103Y010713D01*
X028106Y010705D01*
X028108Y010696D01*
X028111Y010688D01*
X028112Y010679D01*
X028113Y010671D01*
X028114Y010662D01*
X028114Y010653D01*
X028114Y010644D01*
X028113Y010636D01*
X028112Y010627D01*
X028111Y010618D01*
X028108Y01061D01*
X028106Y010601D01*
X028103Y010593D01*
X0281Y010585D01*
X028096Y010577D01*
X028092Y010569D01*
X028087Y010562D01*
X028082Y010555D01*
X028077Y010548D01*
X028071Y010541D01*
X028065Y010535D01*
X028059Y010529D01*
X028052Y010523D01*
X028045Y010518D01*
X028038Y010513D01*
X028031Y010508D01*
X028023Y010504D01*
X028015Y0105D01*
X028007Y010497D01*
X027999Y010494D01*
X02799Y010492D01*
X027982Y010489D01*
X027973Y010488D01*
X027964Y010487D01*
X027956Y010486D01*
X027947Y010486D01*
X027553D01*
X027544Y010486D01*
X027536Y010487D01*
X027527Y010488D01*
X027518Y010489D01*
X02751Y010492D01*
X027501Y010494D01*
X027493Y010497D01*
X027485Y0105D01*
X027477Y010504D01*
X027469Y010508D01*
X027462Y010513D01*
X027455Y010518D01*
X027448Y010523D01*
X027441Y010529D01*
X027435Y010535D01*
X027429Y010541D01*
X027423Y010548D01*
X027418Y010555D01*
X027413Y010562D01*
X027408Y010569D01*
X027404Y010577D01*
X0274Y010585D01*
X027397Y010593D01*
X027394Y010601D01*
X027392Y01061D01*
X027389Y010618D01*
X027388Y010627D01*
X027387Y010636D01*
X027386Y010644D01*
X027386Y010653D01*
X027386Y010662D01*
X027387Y010671D01*
X027388Y010679D01*
X027389Y010688D01*
X027392Y010696D01*
X027394Y010705D01*
X027397Y010713D01*
X0274Y010721D01*
X027404Y010729D01*
X027408Y010737D01*
X027413Y010744D01*
X027418Y010752D01*
X027423Y010758D01*
X027429Y010765D01*
X027435Y010771D01*
X027441Y010777D01*
X027448Y010783D01*
X027455Y010789D01*
X027462Y010793D01*
X027469Y010798D01*
X027477Y010802D01*
X027485Y010806D01*
X027493Y010809D01*
X027501Y010812D01*
X02751Y010815D01*
X027518Y010817D01*
X027527Y010818D01*
X027536Y01082D01*
X027544Y01082D01*
X027553Y01082D01*
X027947D01*
X027956Y01082D01*
D02*
G37*
%LPC*%
G36*
X027947Y010722D02*
X027553D01*
X02755Y010722D01*
X027546Y010722D01*
X027542Y010721D01*
X027539Y010721D01*
X027535Y01072D01*
X027532Y010719D01*
X027528Y010717D01*
X027525Y010716D01*
X027522Y010715D01*
X027519Y010713D01*
X027516Y010711D01*
X027513Y010709D01*
X02751Y010707D01*
X027507Y010704D01*
X027504Y010702D01*
X027502Y010699D01*
X0275Y010697D01*
X027497Y010694D01*
X027495Y010691D01*
X027493Y010688D01*
X027492Y010684D01*
X02749Y010681D01*
X027489Y010678D01*
X027488Y010674D01*
X027487Y010671D01*
X027486Y010667D01*
X027485Y010664D01*
X027485Y01066D01*
X027484Y010657D01*
X027484Y010653D01*
X027484Y01065D01*
X027485Y010646D01*
X027485Y010642D01*
X027486Y010639D01*
X027487Y010635D01*
X027488Y010632D01*
X027489Y010628D01*
X02749Y010625D01*
X027492Y010622D01*
X027493Y010619D01*
X027495Y010616D01*
X027497Y010613D01*
X0275Y01061D01*
X027502Y010607D01*
X027504Y010604D01*
X027507Y010602D01*
X02751Y0106D01*
X027513Y010597D01*
X027516Y010595D01*
X027519Y010593D01*
X027522Y010592D01*
X027525Y01059D01*
X027528Y010589D01*
X027532Y010588D01*
X027535Y010587D01*
X027539Y010586D01*
X027542Y010585D01*
X027546Y010585D01*
X02755Y010584D01*
X027553Y010584D01*
X027947D01*
X02795Y010584D01*
X027954Y010585D01*
X027958Y010585D01*
X027961Y010586D01*
X027965Y010587D01*
X027968Y010588D01*
X027972Y010589D01*
X027975Y01059D01*
X027978Y010592D01*
X027981Y010593D01*
X027984Y010595D01*
X027987Y010597D01*
X02799Y0106D01*
X027993Y010602D01*
X027996Y010604D01*
X027998Y010607D01*
X028Y01061D01*
X028003Y010613D01*
X028005Y010616D01*
X028007Y010619D01*
X028008Y010622D01*
X02801Y010625D01*
X028011Y010628D01*
X028012Y010632D01*
X028013Y010635D01*
X028014Y010639D01*
X028015Y010642D01*
X028015Y010646D01*
X028016Y01065D01*
X028016Y010653D01*
X028016Y010657D01*
X028015Y01066D01*
X028015Y010664D01*
X028014Y010667D01*
X028013Y010671D01*
X028012Y010674D01*
X028011Y010678D01*
X02801Y010681D01*
X028008Y010684D01*
X028007Y010688D01*
X028005Y010691D01*
X028003Y010694D01*
X028Y010697D01*
X027998Y010699D01*
X027996Y010702D01*
X027993Y010704D01*
X02799Y010707D01*
X027987Y010709D01*
X027984Y010711D01*
X027981Y010713D01*
X027978Y010715D01*
X027975Y010716D01*
X027972Y010717D01*
X027968Y010719D01*
X027965Y01072D01*
X027961Y010721D01*
X027958Y010721D01*
X027954Y010722D01*
X02795Y010722D01*
X027947Y010722D01*
D02*
G37*
G36*
Y013537D02*
X027553D01*
X02755Y013537D01*
X027546Y013537D01*
X027542Y013536D01*
X027539Y013535D01*
X027535Y013535D01*
X027532Y013534D01*
X027528Y013532D01*
X027525Y013531D01*
X027522Y013529D01*
X027519Y013528D01*
X027516Y013526D01*
X027513Y013524D01*
X02751Y013522D01*
X027507Y013519D01*
X027504Y013517D01*
X027502Y013514D01*
X0275Y013511D01*
X027497Y013509D01*
X027495Y013506D01*
X027493Y013503D01*
X027492Y013499D01*
X02749Y013496D01*
X027489Y013493D01*
X027488Y013489D01*
X027487Y013486D01*
X027486Y013482D01*
X027485Y013479D01*
X027485Y013475D01*
X027484Y013472D01*
X027484Y013468D01*
X027484Y013464D01*
X027485Y013461D01*
X027485Y013457D01*
X027486Y013454D01*
X027487Y01345D01*
X027488Y013447D01*
X027489Y013443D01*
X02749Y01344D01*
X027492Y013437D01*
X027493Y013434D01*
X027495Y013431D01*
X027497Y013428D01*
X0275Y013425D01*
X027502Y013422D01*
X027504Y013419D01*
X027507Y013417D01*
X02751Y013415D01*
X027513Y013412D01*
X027516Y01341D01*
X027519Y013408D01*
X027522Y013407D01*
X027525Y013405D01*
X027528Y013404D01*
X027532Y013403D01*
X027535Y013402D01*
X027539Y013401D01*
X027542Y0134D01*
X027546Y0134D01*
X02755Y013399D01*
X027553Y013399D01*
X027947D01*
X02795Y013399D01*
X027954Y0134D01*
X027958Y0134D01*
X027961Y013401D01*
X027965Y013402D01*
X027968Y013403D01*
X027972Y013404D01*
X027975Y013405D01*
X027978Y013407D01*
X027981Y013408D01*
X027984Y01341D01*
X027987Y013412D01*
X02799Y013415D01*
X027993Y013417D01*
X027996Y013419D01*
X027998Y013422D01*
X028Y013425D01*
X028003Y013428D01*
X028005Y013431D01*
X028007Y013434D01*
X028008Y013437D01*
X02801Y01344D01*
X028011Y013443D01*
X028012Y013447D01*
X028013Y01345D01*
X028014Y013454D01*
X028015Y013457D01*
X028015Y013461D01*
X028016Y013464D01*
X028016Y013468D01*
X028016Y013472D01*
X028015Y013475D01*
X028015Y013479D01*
X028014Y013482D01*
X028013Y013486D01*
X028012Y013489D01*
X028011Y013493D01*
X02801Y013496D01*
X028008Y013499D01*
X028007Y013503D01*
X028005Y013506D01*
X028003Y013509D01*
X028Y013511D01*
X027998Y013514D01*
X027996Y013517D01*
X027993Y013519D01*
X02799Y013522D01*
X027987Y013524D01*
X027984Y013526D01*
X027981Y013528D01*
X027978Y013529D01*
X027975Y013531D01*
X027972Y013532D01*
X027968Y013534D01*
X027965Y013535D01*
X027961Y013535D01*
X027958Y013536D01*
X027954Y013537D01*
X02795Y013537D01*
X027947Y013537D01*
D02*
G37*
%LPD*%
D12*
X004975Y007275D02*
X005Y0073D01*
X004975Y002875D02*
Y007275D01*
X00495Y00285D02*
X004975Y002875D01*
X03315Y00665D02*
X03465Y00515D01*
Y00335D02*
Y00515D01*
X04025Y0088D02*
X040256Y008806D01*
X02725Y0088D02*
X04025D01*
X028528Y0129D02*
X0292Y012228D01*
X0277Y0129D02*
X028528D01*
X028958Y013076D02*
X029011D01*
X028956Y013079D02*
X028958Y013076D01*
X029011D02*
X029037Y01305D01*
X025329Y013079D02*
X028956D01*
X031329Y0156D02*
Y0156D01*
X030879Y01515D02*
X031329Y0156D01*
X0239Y01515D02*
X030879D01*
X0104Y00945D02*
X0142D01*
X026644Y00665D02*
X0277D01*
X026347Y006353D02*
X026644Y00665D01*
X00935Y0027D02*
Y002758D01*
X00925Y002858D02*
X00935Y002758D01*
X00925Y0111D02*
X0155Y01735D01*
X00925Y002858D02*
Y0111D01*
X01145Y00705D02*
X014D01*
X01085Y00645D02*
X01145Y00705D01*
X01405Y0035D02*
X0161D01*
X011825Y003475D02*
X014025D01*
X01405Y0035D01*
X0118Y00345D02*
X011825Y003475D01*
X01005Y00505D02*
X0101D01*
X01095Y0059D02*
X0306D01*
X0101Y00505D02*
X01095Y0059D01*
X01115Y0057D02*
X0316D01*
X00965Y0042D02*
X01115Y0057D01*
X0109Y00745D02*
X01095D01*
X012Y0085D02*
X02075D01*
X01095Y00745D02*
X012Y0085D01*
X0087Y007815D02*
X0089Y007615D01*
X0087Y007815D02*
Y00785D01*
X00885Y001508D02*
Y003629D01*
X008875Y003654D02*
Y006004D01*
X00885Y003629D02*
X008875Y003654D01*
X0089Y006029D02*
Y007615D01*
X008875Y006004D02*
X0089Y006029D01*
X0142Y00945D02*
X0202Y01545D01*
X00875Y00135D02*
Y001408D01*
X00885Y001508D01*
X0316Y0057D02*
X0334Y0075D01*
X0306Y0059D02*
X03225Y00755D01*
X01954Y0139D02*
X02885D01*
X015145Y009505D02*
X01954Y0139D01*
X0207Y01295D02*
X0247D01*
X0167Y00895D02*
X0207Y01295D01*
X014766Y006666D02*
Y007016D01*
X01525Y0075D01*
X01475Y00665D02*
X014766Y006666D01*
X017796Y011506D02*
X01974Y01345D01*
X017796Y011506D02*
Y011506D01*
X01974Y01345D02*
X02475D01*
X016Y00971D02*
X017796Y011506D01*
X01835Y01485D02*
Y01645D01*
X0202Y01545D02*
X027D01*
X02345Y02155D02*
Y0219D01*
X01835Y01645D02*
X02345Y02155D01*
X031798Y003898D02*
X0318Y0039D01*
X028767Y003898D02*
X031798D01*
X028765Y003896D02*
X028767Y003898D01*
X021425Y001975D02*
X027275D01*
X0214Y00195D02*
X021425Y001975D01*
X027275D02*
X0273Y002D01*
X0226Y02435D02*
Y02475D01*
X027133Y024917D02*
X030452D01*
X030485Y024885D01*
X0271Y02495D02*
X027133Y024917D01*
X023084Y025829D02*
X023129D01*
X022963Y02595D02*
X023084Y025829D01*
X01815Y02595D02*
X022963D01*
X0226Y02475D02*
X0244Y02655D01*
X0165Y0203D02*
Y0243D01*
X0171Y0197D02*
Y0197D01*
X0165Y0203D02*
X0171Y0197D01*
X0165Y0243D02*
X01815Y02595D01*
X02569Y0251D02*
X02634Y02575D01*
X02875D01*
X043501Y002951D02*
Y005584D01*
X043502Y005585D01*
X0435Y00295D02*
X043501Y002951D01*
X0278Y0025D02*
X0352D01*
X0273Y002D02*
X0278Y0025D01*
X03515Y00555D02*
Y0065D01*
Y0043D02*
Y00555D01*
X04085Y0169D02*
Y01865D01*
X0429Y0207D01*
Y0207D01*
X0439Y0217D01*
X042285Y021581D02*
X0423D01*
X040268Y019563D02*
X042285Y021581D01*
X041408Y024192D02*
X0439Y0217D01*
X039292Y024192D02*
X041408D01*
X039289Y024196D02*
X039292Y024192D01*
X036404Y024196D02*
X039289D01*
X0364Y0242D02*
X036404Y024196D01*
X0321Y02175D02*
X03455Y0242D01*
X0309Y02175D02*
X0321D01*
X02875D02*
X0309D01*
X02655D02*
X02875D01*
X023466Y0219D02*
X023616Y02175D01*
X02345Y0219D02*
X023466D01*
X023616Y02175D02*
X02655D01*
X02615Y0188D02*
X0319D01*
X03515Y0043D02*
X03575Y0037D01*
X037226D02*
X038071Y002854D01*
X03575Y0037D02*
X037226D01*
X0352Y00305D02*
Y0031D01*
X0361Y00755D02*
X03915D01*
X0401Y0066D01*
X035813Y019563D02*
X040268D01*
X02445Y0116D02*
X02725Y0088D01*
X02445Y0116D02*
Y01165D01*
X02875Y02575D02*
X02955Y02655D01*
X04065Y0047D02*
Y00975D01*
X02075Y0085D02*
X025329Y013079D01*
X02115Y007D02*
X0245D01*
X0352Y00305D02*
X037Y00125D01*
X022Y0036D02*
X0252D01*
X02035Y00195D02*
X022Y0036D01*
X0346Y01915D02*
X036398Y020948D01*
X037365D01*
X03075Y0201D02*
X0333D01*
X0285Y02D02*
X02885Y01965D01*
X0337D01*
X0285Y02D02*
Y02005D01*
X027985Y0192D02*
X03415D01*
X027538Y019647D02*
Y019647D01*
Y019647D02*
X027985Y0192D01*
X027135Y02005D02*
X027538Y019647D01*
X032709Y018809D02*
X036041D01*
X03195Y01805D02*
X032709Y018809D01*
X036041D02*
X03605Y0188D01*
X024126Y020824D02*
X024126D01*
X02615Y0188D01*
X02885Y0139D02*
X0292Y01355D01*
X01395Y0083D02*
X03935D01*
X01365Y008D02*
X01395Y0083D01*
X03935D02*
X0401Y00755D01*
X0302Y0068D02*
X031237Y007837D01*
X0376D01*
X03225Y00755D02*
X03275D01*
X027444Y012644D02*
X0277Y0129D01*
X025848Y0159D02*
X027998Y01805D01*
X03195D01*
X0401Y00305D02*
Y0066D01*
X027443Y012317D02*
X027444Y012317D01*
Y012644D01*
D103*
X0015Y00555D02*
X0022Y00485D01*
X0015Y0095D02*
X002Y01D01*
X0015Y00555D02*
Y0095D01*
X01395Y0006D02*
X0207D01*
X00575D02*
X01395D01*
Y00135D01*
X014Y0014D01*
X0226Y02435D02*
X022615Y024365D01*
X030464Y024885D02*
X030485D01*
X04365Y01925D02*
X0448Y0204D01*
X04365Y01695D02*
Y01925D01*
X0456Y0174D02*
Y0206D01*
X03895Y02725D02*
X0456Y0206D01*
X04245Y01575D02*
X04365Y01695D01*
X031997Y000703D02*
X037453D01*
X038Y00125D02*
X038056Y001306D01*
X03145Y00125D02*
X031997Y000703D01*
X037453D02*
X038Y00125D01*
X01965Y0207D02*
X0255Y02655D01*
X0171Y0207D02*
X01965D01*
X017134Y018734D02*
X018592D01*
X025896Y026038D01*
X026325Y026475D02*
X026425D01*
X025896Y026038D02*
X026012Y026154D01*
X025896Y026038D02*
X025896D01*
X026012Y026154D02*
Y026162D01*
X026325Y026475D01*
X026425D02*
X0272Y02725D01*
X00415Y0022D02*
X00575Y0006D01*
X00415Y0022D02*
Y00785D01*
X002Y01D02*
X00415Y00785D01*
X002Y01D02*
Y022718D01*
X002382Y0231D02*
X00255D01*
X002Y022718D02*
X002382Y0231D01*
X01985Y00145D02*
Y00285D01*
Y00145D02*
X0207Y0006D01*
X01985Y00285D02*
X021Y004D01*
X0207Y0006D02*
X0308D01*
X03145Y00125D01*
X038056Y001306D02*
Y002839D01*
X038071Y002854D01*
X0171Y0187D02*
X017134Y018734D01*
X0272Y02725D02*
X03895D01*
X00265Y011921D02*
X0034Y012671D01*
X00265Y0119D02*
Y011921D01*
X0034Y012671D02*
Y02065D01*
X00585Y0231D01*
X01295Y0215D02*
Y025529D01*
X0129Y025579D02*
X01295Y025529D01*
X0129Y025579D02*
Y0256D01*
D104*
X0387Y0094D02*
Y01885D01*
X01025Y0102D02*
X013983D01*
X014016Y010167D01*
X01405D01*
X015Y0014D02*
Y00145D01*
X01885Y0053D01*
X0293Y006216D02*
Y0065D01*
X02795Y00785D02*
X0293Y0065D01*
X018869Y018119D02*
X02325Y0225D01*
X0184Y0214D02*
Y02535D01*
X01865Y0256D01*
X03799Y00639D02*
X0387Y0071D01*
X03799Y00455D02*
Y00639D01*
X017525Y018119D02*
X018869D01*
X017525Y018119D02*
X017525Y018119D01*
X016675Y018119D02*
X017525D01*
X0275Y02655D02*
X0285D01*
X00105Y0248D02*
X001937Y023913D01*
X03325Y02565D02*
X0342D01*
X038Y0213D02*
Y02185D01*
X0342Y02565D02*
X038Y02185D01*
X019Y00785D02*
X02795D01*
X02325Y0225D02*
X0301D01*
X03325Y02565D01*
X00225Y0231D02*
X002382D01*
X01785Y01385D02*
Y0174D01*
X008931Y018119D02*
X016675D01*
X016675Y018119D01*
X031089Y00185D02*
X0354D01*
X03045Y00125D02*
X030489D01*
X031089Y00185D01*
X031958Y016346D02*
X03196Y016348D01*
X033448D02*
X03345Y01635D01*
X00605Y021D02*
X008931Y018119D01*
X0354Y00185D02*
X036Y00125D01*
X031984Y0104D02*
X032034Y01035D01*
X03195Y0104D02*
X031984D01*
X0433Y00815D02*
X04495Y0098D01*
Y01065D01*
X0424Y00815D02*
X0433D01*
X001937Y023413D02*
X00225Y0231D01*
X00105Y0248D02*
Y0251D01*
X001937Y023413D02*
Y023913D01*
D105*
X0022Y0058D02*
D03*
Y00485D02*
D03*
D106*
X016Y0014D02*
D03*
X015D02*
D03*
X014D02*
D03*
X013D02*
D03*
X03245Y00125D02*
D03*
X03145D02*
D03*
X03045D02*
D03*
X0022Y00385D02*
D03*
Y00825D02*
D03*
X0171Y0207D02*
D03*
Y0197D02*
D03*
X03255Y02655D02*
D03*
X03155D02*
D03*
X03055D02*
D03*
X0285D02*
D03*
X0275D02*
D03*
X0265D02*
D03*
X04045Y0267D02*
D03*
X04145D02*
D03*
X04245D02*
D03*
X04465Y00615D02*
D03*
Y00515D02*
D03*
D107*
X012Y0014D02*
D03*
X03345Y00125D02*
D03*
X02955Y02655D02*
D03*
X04465Y00305D02*
D03*
X0389Y02065D02*
D03*
X0255Y02655D02*
D03*
X04345Y0267D02*
D03*
D108*
X00115Y0011D02*
D03*
X0455Y02675D02*
D03*
Y0011D02*
D03*
D109*
X00355Y0251D02*
D03*
X00105D02*
D03*
D110*
X00255Y0231D02*
D03*
D111*
X0244Y02655D02*
D03*
X0022Y00285D02*
D03*
Y00725D02*
D03*
X0171Y0187D02*
D03*
X04465Y00415D02*
D03*
D112*
X027837Y012572D02*
D03*
X027443Y012317D02*
D03*
X027837Y012061D02*
D03*
X027443Y011805D02*
D03*
X027837Y011549D02*
D03*
D113*
X02775Y013468D02*
D03*
Y010653D02*
D03*
D114*
X03799Y00455D02*
D03*
X03701D02*
D03*
X036D02*
D03*
D115*
X04141Y00815D02*
D03*
X0424D02*
D03*
D116*
X038Y00125D02*
D03*
X037D02*
D03*
X0448Y0184D02*
D03*
Y0194D02*
D03*
D117*
X036Y00125D02*
D03*
D118*
X0448Y0204D02*
D03*
D119*
X005Y0073D02*
D03*
X04265Y01285D02*
D03*
X0422Y012814D02*
D03*
X04175D02*
D03*
X041281Y012815D02*
D03*
X0426Y013854D02*
D03*
X04305Y012984D02*
D03*
X043021Y0137D02*
D03*
X04215Y01385D02*
D03*
X041747Y013847D02*
D03*
X041279Y013838D02*
D03*
X0449Y0127D02*
D03*
Y0131D02*
D03*
Y013516D02*
D03*
Y01395D02*
D03*
X043457Y012918D02*
D03*
X043451Y013784D02*
D03*
X040354Y012996D02*
D03*
X04085D02*
D03*
Y013704D02*
D03*
X04035D02*
D03*
X044202Y012666D02*
D03*
X0442Y014D02*
D03*
X031329Y0156D02*
D03*
X0104Y00945D02*
D03*
X00495Y00285D02*
D03*
X01085Y00645D02*
D03*
X0161Y0035D02*
D03*
X0118Y00345D02*
D03*
X01005Y00505D02*
D03*
X00965Y0042D02*
D03*
X00935Y0027D02*
D03*
X0109Y00745D02*
D03*
X0087Y00785D02*
D03*
X00885Y003629D02*
D03*
X0089Y006029D02*
D03*
X01885Y0053D02*
D03*
X015145Y009505D02*
D03*
X014Y00705D02*
D03*
X0293Y006216D02*
D03*
X028765Y003896D02*
D03*
X0226Y02435D02*
D03*
X030485Y024885D02*
D03*
X023129Y025829D02*
D03*
X02569Y0251D02*
D03*
X02875Y02175D02*
D03*
X0319Y0188D02*
D03*
X02655Y02175D02*
D03*
X0309D02*
D03*
X0271Y02495D02*
D03*
X02345Y0219D02*
D03*
X01405Y0035D02*
D03*
X00875Y00135D02*
D03*
X0352Y0031D02*
D03*
Y0025D02*
D03*
X0361Y00755D02*
D03*
X04085Y0169D02*
D03*
X02155Y0208D02*
D03*
X0239Y01515D02*
D03*
X0401Y00305D02*
D03*
X0245Y007D02*
D03*
X021Y004D02*
D03*
X02035Y00195D02*
D03*
X02115Y007D02*
D03*
X03075Y0201D02*
D03*
X027135Y02005D02*
D03*
X03605Y0188D02*
D03*
X0346Y01915D02*
D03*
X0285Y02005D02*
D03*
X038Y0213D02*
D03*
X0387Y0094D02*
D03*
X024126Y020824D02*
D03*
X01885Y0154D02*
D03*
X01835Y01485D02*
D03*
X019Y00785D02*
D03*
X01865Y0256D02*
D03*
X0439Y0217D02*
D03*
X039292Y024192D02*
D03*
X0364Y0242D02*
D03*
X03455D02*
D03*
X037365Y020948D02*
D03*
X035813Y019563D02*
D03*
X0184Y0214D02*
D03*
X0155Y01735D02*
D03*
X01785Y0174D02*
D03*
Y01385D02*
D03*
X038071Y002854D02*
D03*
X03465Y00335D02*
D03*
X0273Y002D02*
D03*
X0214Y00195D02*
D03*
X02445Y01165D02*
D03*
X043502Y005585D02*
D03*
X0302Y0068D02*
D03*
X027Y01545D02*
D03*
X025848Y0159D02*
D03*
X0318Y0039D02*
D03*
X0337Y01965D02*
D03*
X03415Y0192D02*
D03*
X0333Y0201D02*
D03*
X04245Y01575D02*
D03*
X0387Y01885D02*
D03*
Y0071D02*
D03*
X03325Y02565D02*
D03*
X00605Y021D02*
D03*
X0435Y00295D02*
D03*
X00265Y0119D02*
D03*
X0376Y007837D02*
D03*
X0252Y0036D02*
D03*
X00585Y0231D02*
D03*
X01295Y0215D02*
D03*
X0129Y0256D02*
D03*
D120*
X03315Y00665D02*
D03*
X0401Y00755D02*
D03*
X040256Y008806D02*
D03*
X0292Y012228D02*
D03*
X029037Y01305D02*
D03*
X0167Y00895D02*
D03*
X0247Y01295D02*
D03*
X01525Y0075D02*
D03*
X016Y00971D02*
D03*
X03515Y00555D02*
D03*
X04065Y0047D02*
D03*
X0292Y01355D02*
D03*
X03515Y0065D02*
D03*
X02475Y01345D02*
D03*
X01365Y008D02*
D03*
X03275Y00755D02*
D03*
X0334Y0075D02*
D03*
X04065Y00975D02*
D03*
D121*
X03495Y010362D02*
D03*
X036446D02*
D03*
X03795Y01036D02*
D03*
X037942Y011937D02*
D03*
X037992Y013354D02*
D03*
X01405Y010167D02*
D03*
X01025Y0102D02*
D03*
X0456Y0174D02*
D03*
X03195Y01335D02*
D03*
Y01185D02*
D03*
X031958Y016346D02*
D03*
X04495Y01065D02*
D03*
X03645Y01335D02*
D03*
X03795Y01485D02*
D03*
Y01635D02*
D03*
X03645D02*
D03*
X03495D02*
D03*
Y01485D02*
D03*
X03345Y01335D02*
D03*
X03495Y01185D02*
D03*
X03345Y01035D02*
D03*
X03195Y0104D02*
D03*
Y01485D02*
D03*
X03345Y01635D02*
D03*
D122*
X01475Y00665D02*
D03*
X026347Y006353D02*
D03*
X0277Y00665D02*
D03*
D123*
X0423Y021581D02*
D03*
M02*
