G04*
G04 #@! TF.GenerationSoftware,Altium Limited,Altium Designer,21.0.8 (223)*
G04*
G04 Layer_Color=32768*
%FSTAX24Y24*%
%MOIN*%
G70*
G04*
G04 #@! TF.SameCoordinates,1A30FD0F-2F50-4216-9531-F08C28C5B71E*
G04*
G04*
G04 #@! TF.FilePolarity,Positive*
G04*
G01*
G75*
%ADD15C,0.0039*%
%ADD124C,0.0020*%
G36*
X019942Y003534D02*
X020729D01*
Y001664D01*
X019942D01*
Y003534D01*
D02*
G37*
G36*
X020942D02*
X021729D01*
Y001664D01*
X020942D01*
Y003534D01*
D02*
G37*
G36*
X021942D02*
X022729D01*
Y001664D01*
X021942D01*
Y003534D01*
D02*
G37*
G36*
X019942Y007136D02*
X020729D01*
Y005266D01*
X019942D01*
Y007136D01*
D02*
G37*
G36*
X020942D02*
X021729D01*
Y005266D01*
X020942D01*
Y007136D01*
D02*
G37*
G36*
X021942D02*
X022729D01*
Y005266D01*
X021942D01*
Y007136D01*
D02*
G37*
D15*
X0208Y004203D02*
Y004597D01*
X020603Y0044D02*
X020997D01*
X0121Y011253D02*
Y011647D01*
X011903Y01145D02*
X012297D01*
X014103Y01855D02*
X014497D01*
X0143Y018353D02*
Y018747D01*
X0066Y014453D02*
Y014847D01*
X006403Y01465D02*
X006797D01*
D124*
X017335Y010561D02*
X024265D01*
X017335Y000502D02*
Y010561D01*
Y000502D02*
X024265D01*
Y010561D01*
X026931Y022042D02*
Y023558D01*
X028269Y022042D02*
Y023558D01*
X026931Y022042D02*
X028269D01*
X026931Y023558D02*
X028269D01*
X024781Y022042D02*
Y023558D01*
X026119Y022042D02*
Y023558D01*
X024781Y022042D02*
X026119D01*
X024781Y023558D02*
X026119D01*
X029131Y022042D02*
Y023558D01*
X030469Y022042D02*
Y023558D01*
X029131Y022042D02*
X030469D01*
X029131Y023558D02*
X030469D01*
X031331Y022042D02*
Y023558D01*
X032669Y022042D02*
Y023558D01*
X031331Y022042D02*
X032669D01*
X031331Y023558D02*
X032669D01*
X040681Y020808D02*
X042019D01*
X040681Y019292D02*
X042019D01*
Y020808D01*
X040681Y019292D02*
Y020808D01*
X041858Y004831D02*
Y006169D01*
X040342Y004831D02*
Y006169D01*
Y004831D02*
X041858D01*
X040342Y006169D02*
X041858D01*
X041808Y002581D02*
Y003919D01*
X040292Y002581D02*
Y003919D01*
Y002581D02*
X041808D01*
X040292Y003919D02*
X041808D01*
X0107Y010761D02*
X0135D01*
X0107Y012139D02*
X0135D01*
Y010761D02*
Y012139D01*
X0107Y010761D02*
Y012139D01*
X014989Y01715D02*
Y01995D01*
X013611Y01715D02*
Y01995D01*
X014989D01*
X013611Y01715D02*
X014989D01*
X010559Y023316D02*
Y026584D01*
X012683D01*
Y027155D01*
X017291D01*
Y022745D02*
Y027155D01*
X012683Y022745D02*
X017291D01*
X012683D02*
Y023316D01*
X010559D02*
X012683D01*
X012131Y003642D02*
X013469D01*
X012131Y005158D02*
X013469D01*
X012131Y003642D02*
Y005158D01*
X013469Y003642D02*
Y005158D01*
X014607Y003625D02*
X015945D01*
X014607Y005141D02*
X015945D01*
X014607Y003625D02*
Y005141D01*
X015945Y003625D02*
Y005141D01*
X005242Y000981D02*
Y002319D01*
X006758Y000981D02*
Y002319D01*
X005242D02*
X006758D01*
X005242Y000981D02*
X006758D01*
X005242Y003231D02*
Y004569D01*
X006758Y003231D02*
Y004569D01*
X005242D02*
X006758D01*
X005242Y003231D02*
X006758D01*
X005242Y005731D02*
Y007069D01*
X006758Y005731D02*
Y007069D01*
X005242D02*
X006758D01*
X005242Y005731D02*
X006758D01*
X005292Y008231D02*
Y009569D01*
X006808Y008231D02*
Y009569D01*
X005292D02*
X006808D01*
X005292Y008231D02*
X006808D01*
X0052Y015339D02*
X008D01*
X0052Y013961D02*
X008D01*
X0052D02*
Y015339D01*
X008Y013961D02*
Y015339D01*
X027061Y013734D02*
X028439D01*
Y010387D02*
Y013734D01*
X027061Y010387D02*
X028439D01*
X027061D02*
Y013734D01*
M02*
