G04*
G04 #@! TF.GenerationSoftware,Altium Limited,Altium Designer,21.0.8 (223)*
G04*
G04 Layer_Physical_Order=1*
G04 Layer_Color=255*
%FSTAX24Y24*%
%MOIN*%
G70*
G04*
G04 #@! TF.SameCoordinates,1A30FD0F-2F50-4216-9531-F08C28C5B71E*
G04*
G04*
G04 #@! TF.FilePolarity,Positive*
G04*
G01*
G75*
%ADD12C,0.0100*%
%ADD13C,0.0118*%
%ADD18R,0.0787X0.0787*%
%ADD19R,0.0394X0.0315*%
%ADD20R,0.0315X0.0394*%
%ADD21O,0.0630X0.0236*%
%ADD22O,0.0236X0.0630*%
%ADD23R,0.0787X0.0787*%
%ADD24R,0.0866X0.0394*%
%ADD25R,0.0394X0.0394*%
%ADD26R,0.0551X0.0630*%
%ADD27R,0.0551X0.0472*%
%ADD28R,0.0591X0.0630*%
G04:AMPARAMS|DCode=29|XSize=48.4mil|YSize=23.6mil|CornerRadius=3mil|HoleSize=0mil|Usage=FLASHONLY|Rotation=90.000|XOffset=0mil|YOffset=0mil|HoleType=Round|Shape=RoundedRectangle|*
%AMROUNDEDRECTD29*
21,1,0.0484,0.0177,0,0,90.0*
21,1,0.0425,0.0236,0,0,90.0*
1,1,0.0059,0.0089,0.0213*
1,1,0.0059,0.0089,-0.0213*
1,1,0.0059,-0.0089,-0.0213*
1,1,0.0059,-0.0089,0.0213*
%
%ADD29ROUNDEDRECTD29*%
%ADD30R,0.0472X0.0551*%
%ADD31R,0.0472X0.0335*%
%ADD32R,0.0669X0.0669*%
%ADD33O,0.2362X0.3937*%
%ADD34R,0.0630X0.0591*%
%ADD35R,0.0650X0.0600*%
%ADD36R,0.0669X0.0669*%
%ADD37R,0.0335X0.0472*%
G04:AMPARAMS|DCode=38|XSize=48.4mil|YSize=23.6mil|CornerRadius=3mil|HoleSize=0mil|Usage=FLASHONLY|Rotation=0.000|XOffset=0mil|YOffset=0mil|HoleType=Round|Shape=RoundedRectangle|*
%AMROUNDEDRECTD38*
21,1,0.0484,0.0177,0,0,0.0*
21,1,0.0425,0.0236,0,0,0.0*
1,1,0.0059,0.0213,-0.0089*
1,1,0.0059,-0.0213,-0.0089*
1,1,0.0059,-0.0213,0.0089*
1,1,0.0059,0.0213,0.0089*
%
%ADD38ROUNDEDRECTD38*%
%ADD39R,0.0984X0.0669*%
%ADD40R,0.1260X0.1575*%
%ADD41R,0.0669X0.0984*%
G04:AMPARAMS|DCode=44|XSize=39.4mil|YSize=59.1mil|CornerRadius=9.8mil|HoleSize=0mil|Usage=FLASHONLY|Rotation=180.000|XOffset=0mil|YOffset=0mil|HoleType=Round|Shape=RoundedRectangle|*
%AMROUNDEDRECTD44*
21,1,0.0394,0.0394,0,0,180.0*
21,1,0.0197,0.0591,0,0,180.0*
1,1,0.0197,-0.0098,0.0197*
1,1,0.0197,0.0098,0.0197*
1,1,0.0197,0.0098,-0.0197*
1,1,0.0197,-0.0098,-0.0197*
%
%ADD44ROUNDEDRECTD44*%
G04:AMPARAMS|DCode=45|XSize=129.1mil|YSize=59.1mil|CornerRadius=14.8mil|HoleSize=0mil|Usage=FLASHONLY|Rotation=180.000|XOffset=0mil|YOffset=0mil|HoleType=Round|Shape=RoundedRectangle|*
%AMROUNDEDRECTD45*
21,1,0.1291,0.0295,0,0,180.0*
21,1,0.0996,0.0591,0,0,180.0*
1,1,0.0295,-0.0498,0.0148*
1,1,0.0295,0.0498,0.0148*
1,1,0.0295,0.0498,-0.0148*
1,1,0.0295,-0.0498,-0.0148*
%
%ADD45ROUNDEDRECTD45*%
%ADD46R,0.1575X0.0787*%
%ADD47R,0.0787X0.1575*%
%ADD48R,0.1102X0.1575*%
%ADD49R,0.0610X0.0315*%
%ADD50R,0.0394X0.0984*%
%ADD51R,0.2126X0.2756*%
%ADD52R,0.1575X0.1260*%
%ADD100R,0.3386X0.4213*%
%ADD101R,0.1339X0.0394*%
%ADD102R,0.0039X0.0039*%
%ADD103C,0.0236*%
%ADD104C,0.0374*%
%ADD105C,0.0600*%
%ADD106C,0.0630*%
%ADD107R,0.0630X0.0630*%
%ADD108C,0.1575*%
%ADD109R,0.1000X0.1600*%
%ADD110R,0.1600X0.1000*%
%ADD111R,0.0630X0.0630*%
%ADD112C,0.0354*%
%ADD113C,0.0138*%
%ADD114O,0.0650X0.0900*%
%ADD115O,0.0700X0.0860*%
%ADD116C,0.0700*%
%ADD117R,0.0700X0.0700*%
%ADD118R,0.0700X0.0700*%
%ADD119C,0.0315*%
%ADD120C,0.0236*%
%ADD121C,0.0500*%
%ADD122C,0.0157*%
%ADD123C,0.0197*%
G36*
X041632Y026055D02*
Y0257D01*
X041301D01*
Y0244D01*
X041259Y02438D01*
X041209D01*
Y02312D01*
X041492D01*
X0415Y023101D01*
X041559Y023025D01*
X04177Y022814D01*
Y022359D01*
X041396D01*
Y021257D01*
X042039D01*
X042046Y02125D01*
X042131Y021201D01*
X042127Y021162D01*
X042123Y021151D01*
X04202D01*
Y020835D01*
X041747D01*
X041739Y020854D01*
X041684Y020926D01*
X041612Y020981D01*
X041529Y021016D01*
X041439Y021027D01*
X041261D01*
X041171Y021016D01*
X041088Y020981D01*
X041016Y020926D01*
X040961Y020854D01*
X040926Y02077D01*
X040914Y02068D01*
Y02051D01*
X040913Y020504D01*
Y020467D01*
X040914Y020462D01*
Y020255D01*
X040918Y020227D01*
X040887Y020193D01*
X040797Y020181D01*
X040714Y020146D01*
X040642Y020091D01*
X040592Y020026D01*
X040566Y020029D01*
X040542Y02004D01*
Y020729D01*
X040327D01*
Y020876D01*
X039951D01*
Y020926D01*
X039901D01*
Y021262D01*
X039576D01*
Y021262D01*
X03953Y021272D01*
Y02128D01*
X038506D01*
Y0213D01*
X038489Y021431D01*
X038457Y021508D01*
X038485Y021549D01*
X038651D01*
Y02145D01*
X041249D01*
Y02275D01*
X041092D01*
X041051Y02277D01*
Y02403D01*
X04076D01*
Y024096D01*
X040943D01*
Y02506D01*
X040941D01*
Y025343D01*
X040945Y025371D01*
X040941Y0254D01*
Y025415D01*
X040944Y025439D01*
Y025674D01*
X041349Y026078D01*
X041388Y02607D01*
X041512D01*
X041593Y026086D01*
X041632Y026055D01*
D02*
G37*
G36*
X032084Y026125D02*
X032148Y026061D01*
X032182Y026038D01*
Y02488D01*
X030957D01*
Y024947D01*
X030925Y025067D01*
X030863Y025175D01*
X030775Y025263D01*
X030769Y025309D01*
X031398Y025938D01*
X031488Y02592D01*
X031612D01*
X031734Y025944D01*
X031848Y025992D01*
X031952Y026061D01*
X032016Y026125D01*
X03205Y026143D01*
X032084Y026125D01*
D02*
G37*
G36*
X04282Y026137D02*
Y02607D01*
X043082D01*
Y0257D01*
X042368D01*
Y026054D01*
X042388Y02607D01*
X042512D01*
X042634Y026094D01*
X042748Y026142D01*
X042776Y02616D01*
X04282Y026137D01*
D02*
G37*
G36*
X046273Y025898D02*
X046273Y001952D01*
X046227Y001932D01*
X046218Y001941D01*
X046078Y002043D01*
X045923Y002122D01*
X045758Y002175D01*
X045587Y002202D01*
X045413D01*
X045242Y002175D01*
X045077Y002122D01*
X045059Y002112D01*
X045013Y002145D01*
X045018Y002187D01*
Y00242D01*
X04528D01*
Y00352D01*
Y00478D01*
X045213D01*
X04519Y004824D01*
X045208Y004852D01*
X045256Y004966D01*
X04528Y005088D01*
Y005212D01*
X045256Y005334D01*
X045208Y005448D01*
X045139Y005552D01*
X045075Y005616D01*
X045057Y00565D01*
X045075Y005684D01*
X045139Y005748D01*
X045208Y005852D01*
X045256Y005966D01*
X04528Y006088D01*
Y006212D01*
X045256Y006334D01*
X045208Y006448D01*
X045139Y006552D01*
X045052Y006639D01*
X044948Y006708D01*
X044834Y006756D01*
X044712Y00678D01*
X044588D01*
X044549Y006772D01*
X04411Y00721D01*
X044034Y007269D01*
X043945Y007306D01*
X04385Y007318D01*
X040852D01*
X040578Y007592D01*
X040597Y007639D01*
X040904D01*
X040938Y007598D01*
X041039Y007514D01*
X041154Y007453D01*
X04128Y007415D01*
X04141Y007402D01*
X04154Y007415D01*
X041666Y007453D01*
X041781Y007514D01*
X041871Y007588D01*
X041905Y007594D01*
X041939Y007588D01*
X042029Y007514D01*
X042144Y007453D01*
X04227Y007415D01*
X0424Y007402D01*
X04253Y007415D01*
X042656Y007453D01*
X042771Y007514D01*
X042872Y007598D01*
X042956Y007699D01*
X043017Y007814D01*
X043055Y00794D01*
X043068Y00807D01*
Y00823D01*
X043055Y00836D01*
X043017Y008486D01*
X042956Y008601D01*
X042872Y008702D01*
X042771Y008786D01*
X042656Y008847D01*
X04253Y008885D01*
X0424Y008898D01*
X04227Y008885D01*
X042144Y008847D01*
X042029Y008786D01*
X041939Y008712D01*
X041905Y008706D01*
X041871Y008712D01*
X041781Y008786D01*
X041666Y008847D01*
X04154Y008885D01*
X04141Y008898D01*
X04128Y008885D01*
X041154Y008847D01*
X041039Y008786D01*
X040938Y008702D01*
X040895Y008651D01*
X040704D01*
X040673Y008691D01*
X040689Y008749D01*
Y008863D01*
X040659Y008973D01*
X040624Y009034D01*
Y009317D01*
X040707D01*
X040817Y009346D01*
X040916Y009403D01*
X040997Y009484D01*
X041054Y009583D01*
X041062Y009616D01*
X04125D01*
Y01005D01*
Y010485D01*
X040865D01*
Y010421D01*
X040819Y010401D01*
X040366Y010854D01*
X040314Y010895D01*
X040331Y010945D01*
X04065D01*
Y0107D01*
X043084D01*
Y009648D01*
X044816D01*
Y01006D01*
X044856Y01009D01*
X044876Y010085D01*
X045024D01*
X045168Y010124D01*
X045297Y010198D01*
X045402Y010303D01*
X045476Y010432D01*
X045515Y010576D01*
Y010724D01*
X045476Y010868D01*
X045402Y010997D01*
X045297Y011102D01*
X045168Y011176D01*
X045024Y011215D01*
X044876D01*
X044856Y01121D01*
X044816Y01124D01*
Y011852D01*
X043613D01*
X043586Y011856D01*
X0431D01*
Y011999D01*
X04065D01*
Y011818D01*
X040302D01*
X040293Y011888D01*
X040259Y011972D01*
X040293Y012056D01*
X040308Y012169D01*
X040293Y012282D01*
X04025Y012387D01*
X04018Y012478D01*
X04009Y012547D01*
X040094Y012563D01*
X040077Y012648D01*
X040029Y01272D01*
X040007Y012734D01*
Y012784D01*
X040029Y012799D01*
X040077Y012871D01*
X040084Y012906D01*
X039674D01*
Y013006D01*
X040084D01*
X040077Y013041D01*
X040038Y013099D01*
X040058Y013149D01*
X041213D01*
Y012972D01*
X041843D01*
Y01368D01*
X041213D01*
Y013551D01*
X040058D01*
X040038Y013601D01*
X040077Y013659D01*
X040084Y013694D01*
X039674D01*
Y013794D01*
X040084D01*
X040077Y013829D01*
X040029Y013901D01*
X040007Y013916D01*
Y013966D01*
X040029Y01398D01*
X040077Y014052D01*
X040084Y014087D01*
X039674D01*
Y014187D01*
X040084D01*
X040077Y014223D01*
X040029Y014295D01*
X040007Y014309D01*
Y014359D01*
X040029Y014374D01*
X040077Y014446D01*
X040084Y014481D01*
X039674D01*
Y014581D01*
X040084D01*
X040077Y014616D01*
X040029Y014688D01*
X040007Y014703D01*
Y014753D01*
X040029Y014768D01*
X040077Y01484D01*
X040084Y014875D01*
X039674D01*
Y014975D01*
X040084D01*
X040077Y01501D01*
X040029Y015082D01*
X040007Y015097D01*
Y015147D01*
X040029Y015161D01*
X040077Y015233D01*
X040094Y015318D01*
X04009Y015335D01*
X04018Y015403D01*
X04025Y015494D01*
X040293Y015599D01*
X040308Y015712D01*
X040293Y015825D01*
X040259Y015909D01*
X040293Y015993D01*
X040308Y016106D01*
X040331Y016131D01*
X04135D01*
X041445Y016144D01*
X041534Y016181D01*
X04161Y016239D01*
X042351Y01698D01*
X042409Y017056D01*
X042446Y017145D01*
X042459Y017241D01*
Y01782D01*
X042701D01*
Y018749D01*
X043185D01*
Y018235D01*
X043815D01*
Y018799D01*
X043861Y018818D01*
X044148Y018531D01*
X044135Y018465D01*
Y018335D01*
X044161Y018206D01*
X044211Y018085D01*
X044283Y017976D01*
X044376Y017883D01*
X044421Y017854D01*
Y016927D01*
X044088D01*
Y016601D01*
X044424D01*
Y016551D01*
X044474D01*
Y016176D01*
X044621D01*
Y015961D01*
X045723D01*
Y016524D01*
X045858Y016659D01*
X045928Y01675D01*
X045971Y016855D01*
X045986Y016968D01*
Y016987D01*
X046052Y017053D01*
X046126Y017182D01*
X046165Y017326D01*
Y017474D01*
X046126Y017618D01*
X046052Y017747D01*
X045947Y017852D01*
X045818Y017926D01*
X045674Y017965D01*
X045526D01*
X045382Y017926D01*
X045366Y017917D01*
X045313Y017945D01*
X045311Y01797D01*
X045317Y017976D01*
X045389Y018085D01*
X045439Y018206D01*
X045465Y018335D01*
Y018465D01*
X045439Y018594D01*
X045389Y018715D01*
X045317Y018824D01*
X04524Y0189D01*
X045317Y018976D01*
X045389Y019085D01*
X045439Y019206D01*
X045465Y019335D01*
Y019465D01*
X045439Y019594D01*
X045389Y019715D01*
X045317Y019824D01*
X04524Y0199D01*
X04525Y01995D01*
X04525D01*
Y02035D01*
X0448D01*
Y0204D01*
X04475D01*
Y02085D01*
X04435D01*
Y020436D01*
X044304Y020417D01*
X043993Y020728D01*
X043917Y020786D01*
X043828Y020823D01*
X043733Y020835D01*
X04328D01*
Y021151D01*
X042477D01*
X042473Y021162D01*
X042469Y021201D01*
X042554Y02125D01*
X042563Y021259D01*
X043104D01*
Y021932D01*
X043438D01*
X043463Y021889D01*
X04346Y021882D01*
X043428Y021762D01*
Y021638D01*
X04346Y021518D01*
X043522Y02141D01*
X04361Y021322D01*
X043718Y02126D01*
X043838Y021228D01*
X043962D01*
X04398Y021232D01*
X04402Y021202D01*
Y021149D01*
X04528D01*
Y021869D01*
X04571Y022299D01*
X045769Y022375D01*
X045806Y022464D01*
X045818Y022559D01*
Y02445D01*
X045806Y024545D01*
X045769Y024634D01*
X04571Y02471D01*
X0453Y025121D01*
Y025627D01*
X045338Y02566D01*
X045413Y025648D01*
X045587D01*
X045758Y025675D01*
X045923Y025728D01*
X046078Y025807D01*
X046218Y025909D01*
X046227Y025918D01*
X046273Y025898D01*
D02*
G37*
G36*
X023156Y025273D02*
Y024936D01*
X023159Y024912D01*
Y024199D01*
X02309D01*
X023059Y024239D01*
X023072Y024288D01*
Y024412D01*
X02304Y024532D01*
X022978Y02464D01*
X02289Y024728D01*
X022782Y02479D01*
X022662Y024822D01*
X022538D01*
X022418Y02479D01*
X02231Y024728D01*
X022222Y02464D01*
X02216Y024532D01*
X022128Y024412D01*
Y024288D01*
X022141Y024239D01*
X02211Y024199D01*
X02195D01*
Y0229D01*
X021908Y022882D01*
X021009D01*
Y023033D01*
X021823D01*
Y024214D01*
X021718D01*
Y024495D01*
X022351Y025128D01*
X02307D01*
Y025289D01*
X02312Y025309D01*
X023156Y025273D01*
D02*
G37*
G36*
X024249Y02362D02*
X024949D01*
X025033Y023536D01*
X025026Y02352D01*
X025014Y02343D01*
Y023005D01*
X025018Y022977D01*
X024987Y022943D01*
X024897Y022931D01*
X024814Y022896D01*
X024742Y022841D01*
X024686Y022769D01*
X024652Y022685D01*
X02464Y022595D01*
Y02217D01*
X024652Y02208D01*
X024686Y021996D01*
X024708Y021968D01*
Y02178D01*
X024249D01*
Y021687D01*
X024203Y021668D01*
X023922Y021948D01*
Y021962D01*
X02389Y022082D01*
X023828Y02219D01*
X023818Y0222D01*
Y0227D01*
X023806Y022795D01*
X023769Y022884D01*
X02371Y02296D01*
X02325Y023421D01*
Y024199D01*
X023374D01*
Y024052D01*
X02375D01*
X024126D01*
Y024199D01*
X024249D01*
Y02362D01*
D02*
G37*
G36*
X044764Y027573D02*
X044659Y027468D01*
X044557Y027328D01*
X044478Y027173D01*
X044425Y027008D01*
X044398Y026837D01*
Y026663D01*
X044425Y026492D01*
X044478Y026327D01*
X044557Y026172D01*
X044659Y026032D01*
X044742Y025949D01*
X044721Y025899D01*
X044D01*
Y0246D01*
Y023301D01*
X04402D01*
Y022831D01*
X043857Y022668D01*
X042734D01*
Y02312D01*
X04361D01*
Y023963D01*
X043618Y024019D01*
Y0244D01*
X043899D01*
Y0257D01*
X043818D01*
Y02607D01*
X04408D01*
Y02733D01*
X04282D01*
Y027263D01*
X042776Y02724D01*
X042748Y027258D01*
X042634Y027306D01*
X042512Y02733D01*
X042388D01*
X042266Y027306D01*
X042152Y027258D01*
X042048Y027189D01*
X041984Y027125D01*
X04195Y027107D01*
X041916Y027125D01*
X041852Y027189D01*
X041748Y027258D01*
X041634Y027306D01*
X041512Y02733D01*
X041388D01*
X041266Y027306D01*
X041152Y027258D01*
X041048Y027189D01*
X040961Y027102D01*
X040892Y026998D01*
X04086Y026921D01*
X040804Y026917D01*
X040782Y026955D01*
X040705Y027032D01*
X04061Y027087D01*
X040505Y027115D01*
X0405D01*
Y0267D01*
X04045D01*
Y02665D01*
X040035D01*
Y026645D01*
X040063Y02654D01*
X040118Y026445D01*
X040195Y026368D01*
X04029Y026313D01*
X040395Y026285D01*
X040444D01*
X040464Y026235D01*
X040316Y026087D01*
X040257Y02601D01*
X040221Y025921D01*
X040208Y025826D01*
Y025804D01*
X039839D01*
Y025434D01*
X038857D01*
Y02499D01*
X038105Y024238D01*
X038046Y024162D01*
X038009Y024073D01*
X037997Y023978D01*
Y023951D01*
X037546D01*
X037527Y023997D01*
X03757Y024041D01*
X037629Y024117D01*
X037666Y024206D01*
X037678Y024301D01*
Y025128D01*
X03793D01*
Y026072D01*
X03669D01*
Y025128D01*
X036942D01*
Y024454D01*
X036885Y024397D01*
X036826Y024408D01*
X036778Y02449D01*
X03669Y024578D01*
X036582Y02464D01*
X036462Y024672D01*
X036338D01*
X036218Y02464D01*
X03611Y024578D01*
X0361Y024568D01*
X03485D01*
X03484Y024578D01*
X034732Y02464D01*
X034612Y024672D01*
X034488D01*
X034368Y02464D01*
X03426Y024578D01*
X034172Y02449D01*
X03411Y024382D01*
X034078Y024262D01*
Y024138D01*
X034049Y024101D01*
X03387D01*
Y02288D01*
X03513D01*
Y023122D01*
X035307D01*
Y022242D01*
X035524D01*
Y02203D01*
X03586D01*
X036196D01*
Y022242D01*
X036291D01*
Y021868D01*
X036474D01*
Y020058D01*
X036487Y019963D01*
X036523Y019874D01*
X036582Y019798D01*
X037732Y018648D01*
Y018541D01*
X037715Y018524D01*
X037664Y018525D01*
X037621Y01858D01*
X037531Y01865D01*
X037425Y018693D01*
X037312Y018708D01*
X037199Y018693D01*
X037115Y018658D01*
X037032Y018693D01*
X036919Y018708D01*
X036805Y018693D01*
X036722Y018658D01*
X036638Y018693D01*
X036565Y018703D01*
X036523Y018737D01*
X036522Y018757D01*
Y018862D01*
X03649Y018982D01*
X036428Y01909D01*
X03634Y019178D01*
X036232Y01924D01*
X036226Y019242D01*
X036206Y019299D01*
X036253Y01938D01*
X036285Y019501D01*
Y019625D01*
X036253Y019745D01*
X036191Y019853D01*
X036103Y019941D01*
X035995Y020003D01*
X035875Y020035D01*
X035751D01*
X03563Y020003D01*
X035523Y019941D01*
X035435Y019853D01*
X035373Y019745D01*
X03534Y019625D01*
Y019611D01*
X035084Y019355D01*
X035022Y019364D01*
X034978Y01944D01*
X03489Y019528D01*
X034782Y01959D01*
X034662Y019622D01*
X034538D01*
X034419Y01959D01*
X034332Y01964D01*
X034212Y019672D01*
X034172D01*
Y019712D01*
X03414Y019832D01*
X034078Y01994D01*
X03399Y020028D01*
X033882Y02009D01*
X033772Y02012D01*
Y020162D01*
X03374Y020282D01*
X033678Y02039D01*
X03359Y020478D01*
X033482Y02054D01*
X033362Y020572D01*
X03335D01*
Y020759D01*
X033337Y020854D01*
X0333Y020943D01*
X033242Y021019D01*
X033201Y02106D01*
Y02178D01*
X032742D01*
Y021968D01*
X032764Y021996D01*
X032798Y02208D01*
X03281Y02217D01*
Y022595D01*
X032798Y022685D01*
X032764Y022769D01*
X032708Y022841D01*
X032636Y022896D01*
X032553Y022931D01*
X032463Y022943D01*
X032432Y022977D01*
X032436Y023005D01*
Y023365D01*
X032654Y023583D01*
X032682Y02362D01*
X033151D01*
Y02488D01*
X032918D01*
Y025251D01*
X032968Y025267D01*
X033068Y02521D01*
X033188Y025178D01*
X033312D01*
X033389Y025198D01*
X03353D01*
Y025128D01*
X03477D01*
Y026072D01*
X03353D01*
Y026072D01*
X033464D01*
X033432Y02609D01*
X033312Y026122D01*
X033188D01*
X033068Y02609D01*
X03303Y026069D01*
X032999Y026109D01*
X033039Y026148D01*
X033108Y026252D01*
X033156Y026366D01*
X03318Y026488D01*
Y026612D01*
X033156Y026734D01*
X033108Y026848D01*
X033039Y026952D01*
X032952Y027039D01*
X032848Y027108D01*
X032734Y027156D01*
X032612Y02718D01*
X032488D01*
X032366Y027156D01*
X032252Y027108D01*
X032148Y027039D01*
X032084Y026975D01*
X03205Y026957D01*
X032016Y026975D01*
X031952Y027039D01*
X031848Y027108D01*
X031734Y027156D01*
X031612Y02718D01*
X031488D01*
X031366Y027156D01*
X031252Y027108D01*
X031148Y027039D01*
X031084Y026975D01*
X03105Y026957D01*
X031016Y026975D01*
X030952Y027039D01*
X030848Y027108D01*
X030734Y027156D01*
X030612Y02718D01*
X030488D01*
X030366Y027156D01*
X030252Y027108D01*
X030224Y02709D01*
X03018Y027113D01*
Y02718D01*
X02892D01*
Y026752D01*
X02887Y026739D01*
X028832Y026805D01*
X028755Y026882D01*
X02866Y026937D01*
X028555Y026965D01*
X02855D01*
Y02655D01*
Y026135D01*
X028555D01*
X02866Y026163D01*
X028755Y026218D01*
X028832Y026295D01*
X02887Y026361D01*
X02892Y026348D01*
Y02592D01*
X029305D01*
X029324Y025874D01*
X02833Y02488D01*
X027578D01*
X027572Y024888D01*
Y025012D01*
X02754Y025132D01*
X027478Y02524D01*
X02739Y025328D01*
X027282Y02539D01*
X027162Y025422D01*
X027148D01*
X026924Y025647D01*
X026848Y025705D01*
X026759Y025742D01*
X026664Y025754D01*
X024386D01*
X024291Y025742D01*
X024202Y025705D01*
X024126Y025647D01*
X023939Y025459D01*
X023886Y025477D01*
X02388Y025521D01*
X023843Y02561D01*
X023785Y025686D01*
X023602Y025869D01*
Y025892D01*
X02357Y026012D01*
X023507Y02612D01*
X02342Y026207D01*
X023312Y02627D01*
X023192Y026302D01*
X023067D01*
X022947Y02627D01*
X022839Y026207D01*
X022751Y02612D01*
X022724Y026072D01*
X02183D01*
Y025648D01*
X02109Y024908D01*
X021031Y024832D01*
X020994Y024743D01*
X020982Y024648D01*
Y024214D01*
X019973D01*
Y023256D01*
X019907D01*
Y023142D01*
X019765D01*
X019669Y02313D01*
X019581Y023093D01*
X019504Y023034D01*
X01949Y02302D01*
X01877D01*
Y021812D01*
X018727Y021781D01*
X018653Y021838D01*
X018531Y021889D01*
X0184Y021906D01*
X018269Y021889D01*
X018147Y021838D01*
X018042Y021758D01*
X017962Y021653D01*
X017911Y021531D01*
X017894Y0214D01*
Y021175D01*
X017911Y021044D01*
X017962Y020922D01*
X018042Y020817D01*
X01891Y019949D01*
Y019435D01*
X019794D01*
X019813Y019389D01*
X019669Y019245D01*
X01891D01*
Y018015D01*
X01892D01*
Y01713D01*
X02018D01*
Y017372D01*
X020494D01*
Y017164D01*
X020423D01*
Y015983D01*
X021354D01*
Y014622D01*
X02028D01*
Y014801D01*
X019356D01*
Y0154D01*
X019339Y015531D01*
X019288Y015653D01*
X019208Y015758D01*
X018065Y016901D01*
X018075Y01695D01*
X018103Y016962D01*
X018208Y017042D01*
X018288Y017147D01*
X018339Y017269D01*
X018356Y0174D01*
Y01995D01*
X018339Y020081D01*
X018288Y020203D01*
X018208Y020308D01*
X017724Y020792D01*
X017706Y020884D01*
X017658Y020998D01*
X017589Y021102D01*
X017502Y021189D01*
X017398Y021258D01*
X017284Y021306D01*
X017162Y02133D01*
X017038D01*
X016916Y021306D01*
X016802Y021258D01*
X016698Y021189D01*
X016611Y021102D01*
X016542Y020998D01*
X016494Y020884D01*
X01647Y020762D01*
Y020638D01*
X016494Y020516D01*
X016542Y020402D01*
X016611Y020298D01*
X016675Y020234D01*
X016693Y0202D01*
X016675Y020166D01*
X016611Y020102D01*
X016542Y019998D01*
X016494Y019884D01*
X016477Y019798D01*
X01524Y01856D01*
X015181Y018484D01*
X015144Y018395D01*
X015132Y0183D01*
Y01765D01*
X015122Y01764D01*
X01506Y017532D01*
X015028Y017412D01*
Y017288D01*
X01506Y017168D01*
X015122Y01706D01*
X01521Y016972D01*
X015318Y01691D01*
X01533Y016907D01*
X015343Y016858D01*
X014534Y016049D01*
X01395D01*
Y015466D01*
X01285Y014366D01*
X012236Y01498D01*
X012255Y015026D01*
X012548D01*
X012669Y015042D01*
X012781Y015088D01*
X012878Y015163D01*
X012952Y015259D01*
X012999Y015372D01*
X013015Y015493D01*
Y015788D01*
X012999Y015909D01*
X012952Y016021D01*
X012878Y016118D01*
X012781Y016192D01*
X012669Y016238D01*
X012548Y016254D01*
X011552D01*
X011431Y016238D01*
X011319Y016192D01*
X011222Y016118D01*
X011148Y016021D01*
X011101Y015909D01*
X011085Y015788D01*
Y015493D01*
X011092Y015444D01*
X011059Y015406D01*
X0098D01*
Y015699D01*
X009216D01*
X009008Y015908D01*
X008903Y015988D01*
X008781Y016039D01*
X00865Y016056D01*
X00687D01*
X006739Y016039D01*
X006617Y015988D01*
X006512Y015908D01*
X005904Y0153D01*
X005006D01*
Y014D01*
X005306D01*
Y012895D01*
X004941D01*
Y012006D01*
X004373D01*
Y012307D01*
X003349D01*
Y010706D01*
X0027D01*
X002612Y010695D01*
X002562Y010738D01*
Y011408D01*
X002588Y011428D01*
X002712D01*
X002832Y01146D01*
X00294Y011522D01*
X003028Y01161D01*
X00309Y011718D01*
X003122Y011838D01*
Y011962D01*
X00309Y012082D01*
X003028Y01219D01*
X00294Y012278D01*
X002832Y01234D01*
X002712Y012372D01*
X002588D01*
X002468Y01234D01*
X002417Y012311D01*
X002129D01*
X0021Y012307D01*
X001538D01*
Y010693D01*
X002448D01*
X002458Y010643D01*
X002447Y010638D01*
X002342Y010558D01*
X000992Y009208D01*
X000912Y009103D01*
X000861Y008981D01*
X000844Y00885D01*
Y00665D01*
X000861Y006519D01*
X000912Y006397D01*
X000992Y006292D01*
X001595Y005689D01*
X001609Y005621D01*
X001655Y005509D01*
X001722Y005408D01*
X001808Y005322D01*
X001909Y005255D01*
X001963Y005233D01*
X001966Y005177D01*
X001954Y00517D01*
X00188Y005096D01*
X001827Y005004D01*
X0018Y004903D01*
Y0049D01*
X0026D01*
Y004903D01*
X002573Y005004D01*
X00252Y005096D01*
X002446Y00517D01*
X002434Y005177D01*
X002437Y005233D01*
X002491Y005255D01*
X002592Y005322D01*
X002678Y005408D01*
X002745Y005509D01*
X002791Y005621D01*
X002815Y005739D01*
Y005861D01*
X002791Y005979D01*
X002745Y006091D01*
X0027Y006159D01*
X002739Y006191D01*
X00333Y005599D01*
X003407Y005541D01*
X00342Y005535D01*
Y005249D01*
X00468D01*
Y005949D01*
X004763Y006032D01*
X005168D01*
X005196Y006011D01*
X00528Y005976D01*
X00537Y005964D01*
X005795D01*
X005817Y005967D01*
X005859Y005922D01*
X005869Y005847D01*
X005904Y005764D01*
X005959Y005692D01*
X006031Y005636D01*
X006115Y005602D01*
X006205Y00559D01*
X006457D01*
X006457Y00559D01*
X006533Y005531D01*
X006622Y005494D01*
X006717Y005482D01*
X00727D01*
Y005199D01*
X00853D01*
Y005441D01*
X008681D01*
X008776Y005454D01*
X008865Y005491D01*
X008941Y005549D01*
X008948Y005556D01*
X008962D01*
X009082Y005588D01*
X00919Y005651D01*
X0092Y005661D01*
X00999D01*
X010078Y005572D01*
X010057Y005522D01*
X009988D01*
X009868Y00549D01*
X00976Y005428D01*
X009672Y00534D01*
X00961Y005232D01*
X009578Y005112D01*
Y004988D01*
X00961Y004868D01*
X009672Y00476D01*
X009682Y00475D01*
Y004672D01*
X009588D01*
X009468Y00464D01*
X00936Y004578D01*
X009345Y004563D01*
X00858D01*
Y005051D01*
X00732D01*
Y004818D01*
X006668D01*
X006573Y004806D01*
X006484Y004769D01*
X006408Y00471D01*
X006407Y00471D01*
X006205D01*
X006115Y004698D01*
X006031Y004664D01*
X005959Y004608D01*
X005904Y004536D01*
X005869Y004453D01*
X005859Y004378D01*
X005817Y004333D01*
X005795Y004336D01*
X005543D01*
X005178Y004701D01*
X005102Y004759D01*
X005013Y004796D01*
X004918Y004809D01*
X00468D01*
Y005051D01*
X00342D01*
Y004668D01*
X00265D01*
X002612Y004663D01*
X002597Y004675D01*
X002576Y004709D01*
X0026Y004797D01*
Y0048D01*
X0018D01*
Y004797D01*
X001827Y004696D01*
X00188Y004604D01*
X001954Y00453D01*
X002003Y004502D01*
X002003Y004501D01*
X001997Y004448D01*
X001902Y004408D01*
X001798Y004339D01*
X001711Y004252D01*
X001642Y004148D01*
X001594Y004034D01*
X00157Y003912D01*
Y003788D01*
X001594Y003666D01*
X001642Y003552D01*
X00166Y003524D01*
X001637Y00348D01*
X00157D01*
Y00222D01*
X002309D01*
X00342Y001109D01*
Y000449D01*
X00468D01*
Y000691D01*
X004868D01*
X004963Y000704D01*
X005052Y000741D01*
X005128Y000799D01*
X005543Y001214D01*
X005795D01*
X005817Y001217D01*
X005859Y001172D01*
X005869Y001097D01*
X005904Y001014D01*
X005959Y000942D01*
X006031Y000886D01*
X006115Y000852D01*
X006205Y00084D01*
X00642D01*
X006484Y000791D01*
X006573Y000754D01*
X006668Y000741D01*
X00732D01*
Y000499D01*
X00858D01*
Y000751D01*
X008605Y000754D01*
X008694Y000791D01*
X00877Y000849D01*
X008798Y000878D01*
X008812D01*
X008932Y00091D01*
X00904Y000972D01*
X009128Y00106D01*
X00919Y001168D01*
X009222Y001288D01*
Y001332D01*
X009609D01*
X009704Y001344D01*
X009793Y001381D01*
X009869Y00144D01*
X01068Y002251D01*
X011341D01*
Y002833D01*
X011554Y003046D01*
X011618Y00301D01*
X011649Y003001D01*
Y00222D01*
X011832D01*
Y00203D01*
X01137D01*
Y00077D01*
X01263D01*
Y000837D01*
X012674Y00086D01*
X012702Y000842D01*
X012816Y000794D01*
X012938Y00077D01*
X013062D01*
X013184Y000794D01*
X013298Y000842D01*
X013402Y000911D01*
X013489Y000998D01*
X013558Y001102D01*
X01359Y001179D01*
X013646Y001183D01*
X013668Y001145D01*
X013745Y001068D01*
X01384Y001013D01*
X013945Y000985D01*
X01395D01*
Y0014D01*
X01405D01*
Y000985D01*
X014055D01*
X01416Y001013D01*
X014255Y001068D01*
X014332Y001145D01*
X014354Y001183D01*
X01441Y001179D01*
X014442Y001102D01*
X014511Y000998D01*
X014598Y000911D01*
X014702Y000842D01*
X014816Y000794D01*
X014938Y00077D01*
X015062D01*
X015184Y000794D01*
X015298Y000842D01*
X015402Y000911D01*
X015466Y000975D01*
X0155Y000993D01*
X015534Y000975D01*
X015598Y000911D01*
X015702Y000842D01*
X015816Y000794D01*
X015938Y00077D01*
X016062D01*
X016184Y000794D01*
X016298Y000842D01*
X016402Y000911D01*
X016489Y000998D01*
X016558Y001102D01*
X016606Y001216D01*
X01663Y001338D01*
Y001462D01*
X016606Y001584D01*
X016558Y001698D01*
X016489Y001802D01*
X016402Y001889D01*
X016298Y001958D01*
X016184Y002006D01*
X016062Y00203D01*
X015938D01*
X015816Y002006D01*
X015702Y001958D01*
X015598Y001889D01*
X015534Y001825D01*
X0155Y001807D01*
X015466Y001825D01*
X015402Y001889D01*
X015298Y001958D01*
X015184Y002006D01*
X015062Y00203D01*
X014938D01*
X014816Y002006D01*
X014702Y001958D01*
X014598Y001889D01*
X014511Y001802D01*
X014442Y001698D01*
X01441Y001621D01*
X014354Y001617D01*
X014332Y001655D01*
X014255Y001732D01*
X014177Y001777D01*
X014163Y001833D01*
X01455Y00222D01*
X016451D01*
Y003071D01*
X016454Y003095D01*
Y003186D01*
X016478Y00321D01*
X01654Y003318D01*
X016572Y003438D01*
Y003562D01*
X01654Y003682D01*
X016478Y00379D01*
X01639Y003878D01*
X016282Y00394D01*
X016162Y003972D01*
X016038D01*
X015918Y00394D01*
X01581Y003878D01*
X015762Y00383D01*
X015712Y003851D01*
Y004178D01*
X015709Y0042D01*
X015754Y004242D01*
X015829Y004252D01*
X015912Y004286D01*
X015984Y004342D01*
X016039Y004414D01*
X016074Y004497D01*
X016086Y004587D01*
Y004839D01*
X016101Y004854D01*
X016159Y004931D01*
X016196Y005019D01*
X016209Y005115D01*
Y00532D01*
X016451D01*
Y006313D01*
X016497Y006332D01*
X020361Y002469D01*
X020342Y002422D01*
X020288D01*
X020168Y00239D01*
X02006Y002328D01*
X019972Y00224D01*
X01991Y002132D01*
X019878Y002012D01*
Y001888D01*
X01991Y001768D01*
X019972Y00166D01*
X019982Y00165D01*
Y001546D01*
X019745D01*
Y000377D01*
X002049D01*
X002024Y000427D01*
X002093Y000522D01*
X002172Y000677D01*
X002225Y000842D01*
X002252Y001013D01*
Y001187D01*
X002225Y001358D01*
X002172Y001523D01*
X002093Y001678D01*
X001991Y001818D01*
X001868Y001941D01*
X001728Y002043D01*
X001573Y002122D01*
X001408Y002175D01*
X001237Y002202D01*
X001063D01*
X000892Y002175D01*
X000727Y002122D01*
X000572Y002043D01*
X000432Y001941D01*
X000423Y001932D01*
X000377Y001952D01*
X000377Y027623D01*
X044743Y027623D01*
X044764Y027573D01*
D02*
G37*
G36*
X029037Y023583D02*
X029364Y023257D01*
Y023005D01*
X029368Y022977D01*
X029337Y022943D01*
X029247Y022931D01*
X029164Y022896D01*
X029092Y022841D01*
X029036Y022769D01*
X029002Y022685D01*
X02899Y022595D01*
Y022215D01*
X02894Y022186D01*
X028932Y02219D01*
X028812Y022222D01*
X028688D01*
X028568Y02219D01*
X028526Y022204D01*
X028519Y022221D01*
X02846Y022297D01*
X02841Y022348D01*
Y022595D01*
X028398Y022685D01*
X028364Y022769D01*
X028308Y022841D01*
X028236Y022896D01*
X028153Y022931D01*
X028063Y022943D01*
X028032Y022977D01*
X028036Y023005D01*
Y02343D01*
X028027Y023496D01*
X028068Y023537D01*
X028068Y023537D01*
X028151Y02362D01*
X029009D01*
X029037Y023583D01*
D02*
G37*
G36*
X027197Y02357D02*
X027176Y02352D01*
X027164Y02343D01*
Y023005D01*
X027168Y022977D01*
X027137Y022943D01*
X027047Y022931D01*
X026964Y022896D01*
X026892Y022841D01*
X026836Y022769D01*
X026802Y022685D01*
X02679Y022595D01*
Y022215D01*
X02674Y022186D01*
X026732Y02219D01*
X026612Y022222D01*
X026488D01*
X026368Y02219D01*
X02636Y022193D01*
X026359Y022194D01*
X026301Y02227D01*
X02626Y02231D01*
Y022315D01*
X02626Y022316D01*
Y022595D01*
X026248Y022685D01*
X026214Y022769D01*
X026158Y022841D01*
X026086Y022896D01*
X026003Y022931D01*
X025913Y022943D01*
X025882Y022977D01*
X025886Y023005D01*
Y02343D01*
X025874Y02352D01*
X025853Y02357D01*
X025887Y02362D01*
X027163D01*
X027197Y02357D01*
D02*
G37*
G36*
X031597D02*
X031576Y02352D01*
X031564Y02343D01*
Y023005D01*
X031568Y022977D01*
X031537Y022943D01*
X031447Y022931D01*
X031364Y022896D01*
X031292Y022841D01*
X031236Y022769D01*
X031202Y022685D01*
X03119Y022595D01*
Y022186D01*
X031157Y022161D01*
X031141Y022156D01*
X031082Y02219D01*
X030962Y022222D01*
X030838D01*
X030718Y02219D01*
X030659Y022156D01*
X030643Y022161D01*
X03061Y022186D01*
Y022595D01*
X030598Y022685D01*
X030564Y022769D01*
X030508Y022841D01*
X030436Y022896D01*
X030353Y022931D01*
X030263Y022943D01*
X030232Y022977D01*
X030236Y023005D01*
Y02343D01*
X030224Y02352D01*
X030203Y02357D01*
X030237Y02362D01*
X031563D01*
X031597Y02357D01*
D02*
G37*
G36*
X020891Y021918D02*
X021325D01*
X021368Y021861D01*
X021946Y021283D01*
X021927Y021237D01*
X021738D01*
X021732Y02124D01*
X021612Y021272D01*
X021488D01*
X021368Y02124D01*
X021362Y021237D01*
X020325D01*
X020212Y021222D01*
X020107Y021178D01*
X020016Y021109D01*
X019599Y020692D01*
X018906Y021385D01*
Y0214D01*
X018889Y021531D01*
X018838Y021653D01*
X018762Y021752D01*
X018771Y021777D01*
X018786Y021799D01*
X02003D01*
Y022292D01*
X020124D01*
Y02208D01*
X02046D01*
X020796D01*
Y022292D01*
X020891D01*
Y021918D01*
D02*
G37*
G36*
X022898Y022731D02*
X022879Y022685D01*
X02265D01*
Y02225D01*
Y021816D01*
X022983D01*
X02301Y021718D01*
X023072Y02161D01*
X02316Y021522D01*
X023268Y02146D01*
X023388Y021428D01*
X023402D01*
X023591Y021239D01*
X023572Y021193D01*
X023078D01*
X022501Y02177D01*
X02252Y021816D01*
X02255D01*
Y0222D01*
X022165D01*
Y022171D01*
X022119Y022151D01*
X021996Y022274D01*
Y022283D01*
X021993Y022307D01*
Y022882D01*
X022036Y0229D01*
X022729D01*
X022898Y022731D01*
D02*
G37*
G36*
X030318Y020296D02*
X03031Y020282D01*
X030278Y020162D01*
Y020038D01*
X03031Y019918D01*
X030372Y01981D01*
X03046Y019722D01*
X030568Y01966D01*
X030688Y019628D01*
X030812D01*
X030932Y01966D01*
X03104Y019722D01*
X031128Y01981D01*
X031165Y019873D01*
X031428D01*
Y020249D01*
X031528D01*
Y019873D01*
X031675D01*
Y019658D01*
X03222D01*
Y019215D01*
X03217Y01919D01*
X032082Y01924D01*
X031962Y019272D01*
X031838D01*
X031718Y01924D01*
X03161Y019178D01*
X031522Y01909D01*
X03146Y018982D01*
X031428Y018862D01*
Y018738D01*
X03146Y018618D01*
X031522Y01851D01*
X03161Y018422D01*
X031617Y01839D01*
X031595Y018356D01*
X031578Y018271D01*
Y017878D01*
X031595Y017792D01*
X031643Y01772D01*
X031715Y017672D01*
X0318Y017655D01*
X031816Y017658D01*
X031885Y017569D01*
X031976Y017499D01*
X032081Y017456D01*
X032194Y017441D01*
X032307Y017456D01*
X032391Y01749D01*
X032475Y017456D01*
X032588Y017441D01*
X032701Y017456D01*
X032785Y01749D01*
X032868Y017456D01*
X032982Y017441D01*
X03305Y01745D01*
X0331Y017406D01*
Y01684D01*
X03296D01*
Y016396D01*
X033454D01*
X033948D01*
Y0167D01*
X034456D01*
Y016396D01*
X03495D01*
X035444D01*
Y0167D01*
X035952D01*
Y016396D01*
X036446D01*
X03694D01*
Y01684D01*
X0368D01*
Y017406D01*
X03685Y01745D01*
X036919Y017441D01*
X037032Y017456D01*
X037115Y01749D01*
X037199Y017456D01*
X037312Y017441D01*
X037425Y017456D01*
X037531Y017499D01*
X037621Y017569D01*
X037678Y017643D01*
X037734D01*
X037791Y017569D01*
X037881Y017499D01*
X037987Y017456D01*
X0381Y017441D01*
X038213Y017456D01*
X038318Y017499D01*
X038409Y017569D01*
X038478Y017659D01*
X038522Y017765D01*
X038536Y017878D01*
Y018271D01*
X038529Y018331D01*
X038549Y018346D01*
X038575Y01836D01*
X0387Y018344D01*
X038831Y018361D01*
X038953Y018412D01*
X039058Y018492D01*
X039138Y018597D01*
X039189Y018719D01*
X039206Y01885D01*
Y01895D01*
X039189Y019081D01*
X039138Y019203D01*
X039058Y019308D01*
X038506Y01986D01*
Y02002D01*
X039361D01*
Y019627D01*
X039582D01*
Y0194D01*
X039594Y019305D01*
X039631Y019216D01*
X03969Y01914D01*
X039882Y018948D01*
Y018131D01*
X039871Y018122D01*
X039478D01*
X039365Y018107D01*
X039259Y018063D01*
X039169Y017994D01*
X039099Y017903D01*
X039056Y017798D01*
X039041Y017685D01*
X039056Y017572D01*
X03909Y017488D01*
X039056Y017404D01*
X039041Y017291D01*
X039056Y017178D01*
X03909Y017094D01*
X039056Y01701D01*
X039041Y016897D01*
X039056Y016784D01*
X039091Y016698D01*
X039056Y016613D01*
X039041Y0165D01*
X039056Y016387D01*
X03909Y016303D01*
X039056Y016219D01*
X039041Y016106D01*
X039018Y01608D01*
X038436D01*
Y016296D01*
X037942D01*
X037448D01*
Y01608D01*
X03694D01*
Y016296D01*
X036446D01*
X035952D01*
Y01608D01*
X035444D01*
Y016296D01*
X03495D01*
X034456D01*
Y01608D01*
X033948D01*
Y016296D01*
X033454D01*
X03296D01*
Y01608D01*
X032452D01*
Y016296D01*
X031958D01*
X031464D01*
Y016076D01*
X031407Y016068D01*
X031391Y016072D01*
X031267D01*
X031147Y01604D01*
X031039Y015978D01*
X030951Y01589D01*
X030898Y015799D01*
X030847Y015809D01*
X030844Y015825D01*
X03081Y015909D01*
X030844Y015993D01*
X030859Y016106D01*
X030844Y016219D01*
X030801Y016324D01*
X030731Y016415D01*
X030642Y016484D01*
X030645Y0165D01*
X030628Y016585D01*
X03058Y016657D01*
X030558Y016672D01*
Y016722D01*
X03058Y016736D01*
X030628Y016808D01*
X030645Y016893D01*
X030641Y016913D01*
X030731Y016982D01*
X030801Y017073D01*
X030844Y017178D01*
X030859Y017291D01*
X030844Y017404D01*
X030801Y017509D01*
X030731Y0176D01*
X030642Y017669D01*
X030645Y017685D01*
X030628Y01777D01*
X03058Y017842D01*
X030508Y01789D01*
X030422Y017907D01*
X030029D01*
X029944Y01789D01*
X029872Y017842D01*
X029823Y01777D01*
X029806Y017685D01*
X02981Y017669D01*
X02972Y0176D01*
X02965Y017509D01*
X029607Y017404D01*
X029592Y017291D01*
X029607Y017178D01*
X02965Y017073D01*
X02972Y016982D01*
X02981Y016913D01*
X029806Y016893D01*
X029823Y016808D01*
X029871Y016736D01*
X029893Y016721D01*
Y016671D01*
X029872Y016657D01*
X029823Y016585D01*
X029806Y0165D01*
X029761Y016474D01*
X029006D01*
X028911Y016461D01*
X028822Y016425D01*
X028746Y016366D01*
X028198Y015818D01*
X0273D01*
X02729Y015828D01*
X027182Y01589D01*
X027062Y015922D01*
X026938D01*
X026818Y01589D01*
X02671Y015828D01*
X026622Y01574D01*
X02656Y015632D01*
X026528Y015512D01*
Y015388D01*
X026542Y015333D01*
X026512Y015293D01*
X026225D01*
X02613Y01528D01*
X026041Y015244D01*
X025965Y015185D01*
X024651Y013872D01*
X02462Y013864D01*
X02457Y013902D01*
Y014102D01*
X025896Y015428D01*
X02591D01*
X02603Y01546D01*
X026138Y015522D01*
X026226Y01561D01*
X026288Y015718D01*
X02632Y015838D01*
Y015899D01*
X02663D01*
Y01712D01*
X02537D01*
Y016894D01*
X025177D01*
Y017117D01*
X024595D01*
X024434Y017278D01*
X024453Y017324D01*
X02457D01*
Y01766D01*
Y017996D01*
X024358D01*
Y018091D01*
X024732D01*
Y019028D01*
X024778Y019047D01*
X025136Y01869D01*
X025212Y018631D01*
X025301Y018594D01*
X02531Y018593D01*
Y018085D01*
X025585D01*
Y017741D01*
X026D01*
X026415D01*
Y018085D01*
X02659D01*
Y019315D01*
X025797D01*
X025768Y019319D01*
X02574Y019315D01*
X025724D01*
X0257Y019318D01*
X025549D01*
X025408Y019459D01*
X025427Y019505D01*
X02659D01*
Y019969D01*
X02664Y019994D01*
X026666Y019978D01*
X026695Y019868D01*
X026757Y01976D01*
X026845Y019672D01*
X026953Y01961D01*
X027073Y019578D01*
X027198D01*
X027318Y01961D01*
X027426Y019672D01*
X027513Y01976D01*
X027576Y019868D01*
X027608Y019988D01*
Y020112D01*
X027576Y020232D01*
X027513Y02034D01*
X027426Y020428D01*
X027353Y02047D01*
X027366Y02052D01*
X027872D01*
Y020309D01*
X027885Y020214D01*
X027922Y020125D01*
X02798Y020049D01*
X028028Y020002D01*
Y019988D01*
X02806Y019868D01*
X028122Y01976D01*
X02821Y019672D01*
X028318Y01961D01*
X028438Y019578D01*
X028562D01*
X028682Y01961D01*
X02879Y019672D01*
X028878Y01976D01*
X02894Y019868D01*
X028972Y019988D01*
Y020112D01*
X02894Y020232D01*
X028878Y02034D01*
X02879Y020428D01*
X028717Y02047D01*
X028731Y02052D01*
X030318D01*
Y020296D01*
D02*
G37*
G36*
X021254Y019193D02*
X020868D01*
Y018209D01*
X020494D01*
Y018109D01*
X02019D01*
Y018724D01*
X020747Y019281D01*
X020756Y01928D01*
X020785Y019283D01*
X021254D01*
Y019193D01*
D02*
G37*
G36*
X01647Y018684D02*
Y01807D01*
X016489D01*
X016508Y018024D01*
X015992Y017507D01*
X015943Y01752D01*
X01594Y017532D01*
X015878Y01764D01*
X015868Y01765D01*
Y018148D01*
X016424Y018703D01*
X01647Y018684D01*
D02*
G37*
G36*
X029592Y015712D02*
X029607Y015599D01*
X029642Y015515D01*
X029607Y015432D01*
X029592Y015318D01*
X02957Y015293D01*
X028779D01*
X02876Y015339D01*
X029158Y015738D01*
X02957D01*
X029592Y015712D01*
D02*
G37*
G36*
X02537Y015943D02*
X024391Y014964D01*
X024346Y01499D01*
X024372Y015088D01*
Y015212D01*
X02434Y015332D01*
X024278Y01544D01*
X024268Y01545D01*
Y015936D01*
X025177D01*
Y016158D01*
X02537D01*
Y015943D01*
D02*
G37*
G36*
X037448Y015344D02*
Y0149D01*
X037942D01*
Y01485D01*
X037992D01*
Y014357D01*
X038296D01*
Y013848D01*
X037992D01*
Y013354D01*
Y01286D01*
X038296D01*
Y012431D01*
X037992D01*
Y011937D01*
Y011443D01*
X038436D01*
Y0115D01*
X039006D01*
X03905Y01145D01*
X039041Y011381D01*
X039056Y011268D01*
X039099Y011163D01*
X039169Y011073D01*
X039243Y011016D01*
Y01096D01*
X039169Y010903D01*
X039099Y010812D01*
X039056Y010707D01*
X039041Y010594D01*
X039056Y010481D01*
X03909Y010397D01*
X039056Y010313D01*
X039041Y0102D01*
X039056Y010087D01*
X03909Y010004D01*
X039056Y00992D01*
X039044Y009832D01*
X038992Y009808D01*
X038953Y009838D01*
X038831Y009889D01*
X0387Y009906D01*
X038569Y009889D01*
X038504Y009862D01*
X038455Y009872D01*
X038455Y009872D01*
X038455Y009872D01*
Y009872D01*
X038436Y009888D01*
X038436Y009902D01*
Y009905D01*
Y010312D01*
X037992D01*
Y009868D01*
X038394D01*
X038394Y009868D01*
X038394D01*
X038404Y009868D01*
X038412Y009842D01*
X038412D01*
Y009842D01*
X038395Y009799D01*
X038342Y009758D01*
X038262Y009653D01*
X038211Y009531D01*
X038194Y0094D01*
Y009285D01*
X038156Y009252D01*
X0381Y009259D01*
X037987Y009244D01*
X037903Y00921D01*
X037819Y009244D01*
X037706Y009259D01*
X037593Y009244D01*
X037509Y00921D01*
X037425Y009244D01*
X037312Y009259D01*
X037199Y009244D01*
X037115Y00921D01*
X037032Y009244D01*
X036919Y009259D01*
X03685Y00925D01*
X0368Y009294D01*
Y009868D01*
X03694D01*
Y010312D01*
X036446D01*
X035952D01*
Y010007D01*
X035444D01*
Y010312D01*
X03495D01*
X034456D01*
Y010007D01*
X033948D01*
Y010312D01*
X033454D01*
X03296D01*
Y009868D01*
X0331D01*
Y009294D01*
X03305Y00925D01*
X032982Y009259D01*
X032868Y009244D01*
X032785Y00921D01*
X032701Y009244D01*
X032588Y009259D01*
X032475Y009244D01*
X032391Y00921D01*
X032307Y009244D01*
X032194Y009259D01*
X032081Y009244D01*
X031997Y00921D01*
X031913Y009244D01*
X0318Y009259D01*
X031687Y009244D01*
X031582Y009201D01*
X031492Y009131D01*
X031422Y009041D01*
X031379Y008935D01*
X031364Y008822D01*
Y008429D01*
X031379Y008316D01*
X031422Y00821D01*
X031432Y008197D01*
Y008D01*
X031445Y007904D01*
X031482Y007816D01*
X03154Y007739D01*
X03154Y007739D01*
X031715Y007564D01*
X031696Y007518D01*
X0296D01*
X029505Y007506D01*
X029416Y007469D01*
X02934Y00741D01*
X028629Y006699D01*
X02785D01*
Y005921D01*
X02759Y00566D01*
X027531Y005584D01*
X027494Y005495D01*
X027482Y0054D01*
Y00269D01*
X027494Y002594D01*
X027531Y002506D01*
X027581Y002441D01*
X027547Y002403D01*
X027482Y00244D01*
X027362Y002472D01*
X027238D01*
X027118Y00244D01*
X027023Y002386D01*
X026973Y002406D01*
Y002821D01*
X02726Y003108D01*
X027319Y003184D01*
X027356Y003273D01*
X027368Y003368D01*
Y007448D01*
X029744Y009824D01*
X029762Y009817D01*
X029769Y00976D01*
X02972Y009722D01*
X02965Y009631D01*
X029607Y009526D01*
X029592Y009413D01*
X029607Y0093D01*
X02965Y009195D01*
X02972Y009104D01*
X02981Y009035D01*
X029806Y009019D01*
X029823Y008934D01*
X029872Y008862D01*
X029944Y008814D01*
X030029Y008797D01*
X030422D01*
X030508Y008814D01*
X03058Y008862D01*
X030628Y008934D01*
X030645Y009019D01*
X030642Y009035D01*
X030731Y009104D01*
X030801Y009195D01*
X030844Y0093D01*
X030859Y009413D01*
X030844Y009526D01*
X030801Y009631D01*
X030731Y009722D01*
X030657Y009779D01*
X030657Y009834D01*
X030731Y009892D01*
X030801Y009982D01*
X030844Y010087D01*
X030859Y0102D01*
X030844Y010313D01*
X03081Y010397D01*
X030844Y010481D01*
X030859Y010594D01*
X030844Y010707D01*
X03081Y010791D01*
X030844Y010875D01*
X030859Y010988D01*
X030844Y011101D01*
X03081Y011185D01*
X030844Y011268D01*
X030859Y011381D01*
X03085Y01145D01*
X030894Y0115D01*
X031464D01*
Y011364D01*
X031908D01*
Y011858D01*
Y012352D01*
X031604D01*
Y012602D01*
Y01286D01*
X031908D01*
Y013354D01*
Y013848D01*
X031604D01*
Y014357D01*
X031908D01*
Y01485D01*
X031958D01*
Y0149D01*
X032452D01*
Y015344D01*
X032501Y015344D01*
X034406D01*
X034456Y015344D01*
X034456Y015294D01*
Y0149D01*
X035444D01*
Y015294D01*
X035444Y015344D01*
X035494Y015344D01*
X037398D01*
X037448Y015344D01*
D02*
G37*
G36*
X0085Y014983D02*
Y0144D01*
X009265D01*
X009298Y014396D01*
X009502D01*
X009517Y014394D01*
X01139D01*
X011967Y013817D01*
X011941Y013772D01*
X011844Y013759D01*
X011743Y013718D01*
X011657Y013652D01*
X01159Y013565D01*
X011549Y013465D01*
X011535Y013357D01*
Y012963D01*
X011544Y012894D01*
Y01213D01*
X011561Y011999D01*
X011591Y011926D01*
X011563Y011885D01*
X011363D01*
Y0115D01*
X01192D01*
X011951Y011513D01*
X01208Y011384D01*
Y0108D01*
X013694D01*
Y010944D01*
X01395D01*
Y010816D01*
X013821Y010687D01*
X013703Y010619D01*
X013598Y010514D01*
X013524Y010385D01*
X013485Y010241D01*
Y010093D01*
X013493Y010063D01*
X013463Y010023D01*
X012636D01*
Y00984D01*
X012464D01*
Y010027D01*
X011283D01*
Y008925D01*
X011498D01*
Y008778D01*
X011874D01*
X01225D01*
Y008925D01*
X012464D01*
Y009104D01*
X012636D01*
Y008921D01*
Y008489D01*
X012325D01*
Y008274D01*
X012178D01*
Y007899D01*
Y007523D01*
X012325D01*
Y007308D01*
X013012D01*
X013031Y007262D01*
X012349Y00658D01*
X011649D01*
Y00532D01*
X012058D01*
Y005232D01*
X012036Y005204D01*
X012002Y00512D01*
X01199Y00503D01*
Y004605D01*
X012002Y004515D01*
X012036Y004431D01*
X012092Y004359D01*
X012164Y004304D01*
X012247Y004269D01*
X012322Y004259D01*
X012367Y004217D01*
X012364Y004195D01*
Y00377D01*
X012376Y00368D01*
X012411Y003596D01*
X012432Y003568D01*
Y003563D01*
X012349Y00348D01*
X012272D01*
Y003512D01*
X01224Y003632D01*
X012178Y00374D01*
X01209Y003828D01*
X011982Y00389D01*
X011862Y003922D01*
X011738D01*
X011618Y00389D01*
X01151Y003828D01*
X0115Y003818D01*
X011437D01*
X011342Y003806D01*
X011253Y003769D01*
X011177Y00371D01*
X011172Y003705D01*
X011126Y003724D01*
Y003886D01*
X0108D01*
Y00355D01*
X0107D01*
Y003886D01*
X010448D01*
X010415Y003924D01*
X010418Y00395D01*
Y004338D01*
X010699D01*
Y004674D01*
X010749D01*
Y004724D01*
X011124D01*
Y004871D01*
X011339D01*
Y005973D01*
X011117D01*
Y006058D01*
X01114Y006072D01*
X011228Y00616D01*
X01129Y006268D01*
X011322Y006388D01*
Y006512D01*
X01129Y006632D01*
X011228Y00674D01*
X01114Y006828D01*
X011032Y00689D01*
X010912Y006922D01*
X010788D01*
X010668Y00689D01*
X01056Y006828D01*
X010472Y00674D01*
X01041Y006632D01*
X010378Y006512D01*
Y006388D01*
X010383Y006367D01*
X010339Y006338D01*
X010326Y006347D01*
X010238Y006384D01*
X010142Y006397D01*
X0092D01*
X00919Y006407D01*
X009082Y006469D01*
X008962Y006501D01*
X008838D01*
X008718Y006469D01*
X00861Y006407D01*
X008577Y006374D01*
X00853Y006397D01*
Y007061D01*
X01063D01*
X010718Y00701D01*
X010838Y006978D01*
X010962D01*
X011082Y00701D01*
X01119Y007072D01*
X011278Y00716D01*
X01134Y007268D01*
X011372Y007388D01*
Y007512D01*
X01134Y007632D01*
X011278Y00774D01*
X01119Y007828D01*
X011082Y00789D01*
X010962Y007922D01*
X010838D01*
X010718Y00789D01*
X01061Y007828D01*
X010579Y007797D01*
X009172D01*
Y007912D01*
X00914Y008032D01*
X009078Y00814D01*
X00899Y008228D01*
X008882Y00829D01*
X008762Y008322D01*
X008675D01*
X008662Y008333D01*
X008573Y00837D01*
X00853Y008375D01*
Y00883D01*
Y009082D01*
X0101D01*
X01011Y009072D01*
X010218Y00901D01*
X010338Y008978D01*
X010462D01*
X010582Y00901D01*
X01069Y009072D01*
X010778Y00916D01*
X01084Y009268D01*
X010872Y009388D01*
Y009512D01*
X01084Y009632D01*
X010778Y00974D01*
X01069Y009828D01*
X010713Y009872D01*
X010776Y009982D01*
X010815Y010126D01*
Y010274D01*
X010776Y010418D01*
X010702Y010547D01*
X010597Y010652D01*
X010468Y010726D01*
X010324Y010765D01*
X010176D01*
X010032Y010726D01*
X009997Y010706D01*
X004373D01*
Y010994D01*
X005436D01*
X005523Y011005D01*
X007146D01*
Y012895D01*
X006319D01*
Y014D01*
X00662D01*
Y014584D01*
X006749Y014713D01*
X00678Y0147D01*
X007387D01*
X00798D01*
Y015044D01*
X00844D01*
X0085Y014983D01*
D02*
G37*
G36*
X022612Y020141D02*
X022703Y020072D01*
X022808Y020028D01*
X022921Y020013D01*
X023273D01*
Y019183D01*
X023456D01*
Y019137D01*
X023469Y019042D01*
X023505Y018953D01*
X023564Y018876D01*
X023768Y018673D01*
Y018209D01*
X023394D01*
Y017117D01*
X023327D01*
Y015936D01*
X023532D01*
Y01545D01*
X023522Y01544D01*
X02346Y015332D01*
X023428Y015212D01*
Y015088D01*
X02346Y014968D01*
X023522Y01486D01*
X02361Y014772D01*
X023718Y01471D01*
X023838Y014678D01*
X023962D01*
X02406Y014704D01*
X024086Y014659D01*
X024049Y014622D01*
X024018D01*
X023989Y014626D01*
X023961Y014622D01*
X02333D01*
Y013678D01*
X024331D01*
X024356Y013634D01*
X024346Y013617D01*
X024317Y013507D01*
Y013393D01*
X024346Y013283D01*
X024374Y013236D01*
X024353Y013216D01*
X024296Y013117D01*
X024267Y013007D01*
Y012893D01*
X024296Y012783D01*
X024353Y012684D01*
X024434Y012603D01*
X024533Y012546D01*
X024643Y012517D01*
X024757D01*
X024867Y012546D01*
X024966Y012603D01*
X025047Y012684D01*
X025104Y012783D01*
X025122Y012851D01*
X026434Y014163D01*
X029218D01*
X029237Y014117D01*
X029088Y013968D01*
X029033Y013954D01*
X028934Y013897D01*
X028853Y013816D01*
X028796Y013717D01*
X028782Y013662D01*
X028492Y013372D01*
X028434Y013382D01*
X028426Y013396D01*
X028427Y0134D01*
X028428Y013409D01*
X028428Y013418D01*
X02843Y013426D01*
X028431Y013434D01*
X02843Y013443D01*
X028432Y013451D01*
X028432Y01346D01*
X028431Y013468D01*
X028432Y013476D01*
X028432Y013485D01*
X02843Y013493D01*
X028431Y013502D01*
X02843Y013511D01*
X028428Y013519D01*
X028428Y013527D01*
X028427Y013536D01*
X028425Y013544D01*
X028424Y013552D01*
X028423Y013561D01*
X02842Y013569D01*
X028419Y013577D01*
X028417Y013586D01*
X028414Y013593D01*
X028413Y013602D01*
X028411Y01361D01*
X028407Y013618D01*
X028405Y013626D01*
X028403Y013634D01*
X028399Y013642D01*
X028397Y01365D01*
X028393Y013658D01*
X028389Y013665D01*
X028386Y013673D01*
X028383Y013681D01*
X028378Y013688D01*
X028375Y013696D01*
X028371Y013703D01*
X028366Y01371D01*
X028363Y013718D01*
X028358Y013725D01*
X028353Y013732D01*
X028349Y013739D01*
X028344Y013746D01*
X028338Y013753D01*
X028334Y01376D01*
X028329Y013767D01*
X028323Y013773D01*
X028318Y01378D01*
X028313Y013786D01*
X028307Y013792D01*
X028302Y013799D01*
X028296Y013805D01*
X028289Y01381D01*
X028284Y013817D01*
X028277Y013823D01*
X028271Y013828D01*
X028265Y013834D01*
X028258Y01384D01*
X028251Y013844D01*
X028246Y01385D01*
X028239Y013856D01*
X028231Y01386D01*
X028225Y013865D01*
X028218Y01387D01*
X02821Y013874D01*
X028204Y013879D01*
X028196Y013884D01*
X028189Y013887D01*
X028182Y013892D01*
X028174Y013896D01*
X028167Y013899D01*
X02816Y013904D01*
X028152Y013908D01*
X028144Y01391D01*
X028136Y013914D01*
X028128Y013918D01*
X02812Y01392D01*
X028113Y013924D01*
X028105Y013927D01*
X028096Y013928D01*
X028089Y013932D01*
X02808Y013934D01*
X028072Y013936D01*
X028064Y013939D01*
X028056Y013941D01*
X028047Y013942D01*
X02804Y013944D01*
X028031Y013946D01*
X028023Y013946D01*
X028015Y013948D01*
X028006Y013949D01*
X027997Y013949D01*
X027989Y013951D01*
X027981Y013952D01*
X027972Y013951D01*
X027964Y013953D01*
X027955Y013953D01*
X027951Y013953D01*
X027947Y013953D01*
X027553D01*
X027549Y013953D01*
X027545Y013953D01*
X027536Y013953D01*
X027528Y013951D01*
X027519Y013952D01*
X027511Y013951D01*
X027503Y013949D01*
X027494Y013949D01*
X027485Y013948D01*
X027477Y013946D01*
X027469Y013946D01*
X02746Y013944D01*
X027453Y013942D01*
X027444Y013941D01*
X027436Y013939D01*
X027428Y013936D01*
X02742Y013934D01*
X027411Y013932D01*
X027404Y013928D01*
X027395Y013927D01*
X027387Y013924D01*
X02738Y01392D01*
X027372Y013918D01*
X027364Y013914D01*
X027356Y01391D01*
X027348Y013908D01*
X02734Y013904D01*
X027333Y013899D01*
X027326Y013896D01*
X027318Y013892D01*
X027311Y013887D01*
X027304Y013884D01*
X027296Y013879D01*
X02729Y013874D01*
X027282Y01387D01*
X027275Y013865D01*
X027269Y01386D01*
X027261Y013856D01*
X027254Y01385D01*
X027249Y013844D01*
X027242Y01384D01*
X027235Y013834D01*
X027229Y013828D01*
X027223Y013823D01*
X027216Y013817D01*
X027211Y01381D01*
X027204Y013805D01*
X027198Y013799D01*
X027193Y013792D01*
X027187Y013786D01*
X027182Y01378D01*
X027177Y013773D01*
X027171Y013767D01*
X027166Y01376D01*
X027162Y013753D01*
X027156Y013746D01*
X027151Y013739D01*
X027147Y013732D01*
X027142Y013725D01*
X027137Y013718D01*
X027134Y01371D01*
X027129Y013703D01*
X027125Y013696D01*
X027122Y013688D01*
X027117Y013681D01*
X027114Y013673D01*
X027111Y013665D01*
X027107Y013658D01*
X027103Y01365D01*
X027101Y013642D01*
X027097Y013634D01*
X027095Y013626D01*
X027093Y013618D01*
X027089Y01361D01*
X027087Y013602D01*
X027086Y013593D01*
X027083Y013586D01*
X027081Y013577D01*
X02708Y013569D01*
X027077Y013561D01*
X027076Y013552D01*
X027075Y013544D01*
X027073Y013536D01*
X027072Y013527D01*
X027072Y013519D01*
X02707Y013511D01*
X027069Y013502D01*
X02707Y013493D01*
X027068Y013485D01*
X027068Y013476D01*
X027069Y013468D01*
X027068Y01346D01*
X027068Y013451D01*
X02707Y013443D01*
X027069Y013434D01*
X02707Y013426D01*
X027072Y013418D01*
X027072Y013409D01*
X027073Y0134D01*
X027075Y013392D01*
X027076Y013384D01*
X027077Y013375D01*
X02708Y013367D01*
X027081Y013359D01*
X027083Y013351D01*
X027086Y013343D01*
X027087Y013335D01*
X027089Y013326D01*
X027093Y013319D01*
X027095Y01331D01*
X027097Y013302D01*
X027101Y013295D01*
X027103Y013287D01*
X027107Y013278D01*
X027111Y013271D01*
X027114Y013263D01*
X027117Y013255D01*
X027122Y013248D01*
X027125Y013241D01*
X027129Y013233D01*
X027134Y013226D01*
X027137Y013218D01*
X027142Y013211D01*
X027147Y013204D01*
X027151Y013197D01*
X027156Y01319D01*
X027162Y013184D01*
X027166Y013176D01*
X027171Y013169D01*
X027177Y013164D01*
X027182Y013156D01*
X027187Y01315D01*
X027193Y013144D01*
X027198Y013137D01*
X027204Y013131D01*
X027211Y013126D01*
X027216Y013119D01*
X027223Y013113D01*
X027229Y013108D01*
X027235Y013102D01*
X027242Y013097D01*
X027249Y013092D01*
X027254Y013086D01*
X027261Y013081D01*
X027269Y013077D01*
X027275Y013071D01*
X027282Y013066D01*
X02729Y013062D01*
X027296Y013057D01*
X027303Y013052D01*
X027311Y013049D01*
X027318Y013044D01*
X027326Y01304D01*
X027333Y013037D01*
X02734Y013032D01*
X027348Y013029D01*
X027356Y013026D01*
X027364Y013022D01*
X027372Y013018D01*
X02738Y013016D01*
X027387Y013012D01*
X027395Y01301D01*
X027404Y013008D01*
X027411Y013004D01*
X02742Y013002D01*
X027428Y013001D01*
X027436Y012998D01*
X027444Y012996D01*
X027453Y012995D01*
X02746Y012992D01*
X027469Y01299D01*
X027477Y01299D01*
X027485Y012988D01*
X027494Y012987D01*
X027503Y012987D01*
X027511Y012985D01*
X027519Y012984D01*
X027528Y012985D01*
X027536Y012983D01*
X027545Y012983D01*
X027549Y012984D01*
X027553Y012983D01*
X027947D01*
X027951Y012984D01*
X027955Y012983D01*
X027964Y012983D01*
X027972Y012985D01*
X027981Y012984D01*
X027989Y012985D01*
X027997Y012987D01*
X028006Y012987D01*
X028015Y012988D01*
X028019Y012989D01*
X028033Y012981D01*
X028043Y012923D01*
X027909Y012789D01*
X027882Y0128D01*
X027791D01*
X027708Y012765D01*
X027644Y012701D01*
X027609Y012618D01*
Y012542D01*
X027591Y012526D01*
X027574Y012516D01*
X027563Y012513D01*
X027488Y012544D01*
X027398D01*
X027314Y012509D01*
X02725Y012445D01*
X027216Y012362D01*
Y012271D01*
X027226Y012248D01*
X027141Y012199D01*
X027049Y012107D01*
X026984Y011995D01*
X026951Y01187D01*
Y01174D01*
X026984Y011615D01*
X027049Y011503D01*
X027087Y011464D01*
X027068Y011418D01*
X024912D01*
X024887Y011461D01*
X02489Y011468D01*
X024922Y011588D01*
Y011712D01*
X02489Y011832D01*
X024828Y01194D01*
X02474Y012028D01*
X024632Y01209D01*
X024512Y012122D01*
X024498D01*
X02209Y01453D01*
Y015983D01*
X022273D01*
Y017164D01*
X021458D01*
Y017324D01*
X02167D01*
Y01766D01*
Y017996D01*
X021458D01*
Y018091D01*
X021832D01*
Y018673D01*
X021883Y018723D01*
X021941Y018799D01*
X021978Y018888D01*
X02199Y018983D01*
Y019283D01*
X022173D01*
Y020363D01*
X02239D01*
X022612Y020141D01*
D02*
G37*
G36*
X016742Y016792D02*
X018192Y015342D01*
X018179Y015293D01*
X018168Y01529D01*
X01806Y015228D01*
X017972Y01514D01*
X01791Y015032D01*
X017878Y014912D01*
Y014788D01*
X01791Y014668D01*
X017972Y01456D01*
X017982Y01455D01*
Y014389D01*
X017932Y014346D01*
X01785Y014356D01*
X017719Y014339D01*
X017597Y014288D01*
X017492Y014208D01*
X01743Y014127D01*
X01738Y014144D01*
Y014907D01*
X0167D01*
Y014069D01*
X017343D01*
X017377Y014019D01*
X017361Y013981D01*
X017344Y01385D01*
Y013611D01*
X016879Y013146D01*
X015705D01*
Y011957D01*
X01525D01*
Y0121D01*
X01395D01*
Y011956D01*
X013694D01*
Y0121D01*
X012796D01*
X012556Y01234D01*
Y01261D01*
X012606Y012634D01*
X012649Y012602D01*
X012749Y01256D01*
X012857Y012546D01*
X013054D01*
X013162Y01256D01*
X013262Y012602D01*
X013349Y012668D01*
X013415Y012755D01*
X013457Y012855D01*
X013471Y012963D01*
Y013357D01*
X013462Y013426D01*
Y013545D01*
X014119Y014203D01*
X014165Y014184D01*
Y01415D01*
X01455D01*
Y014535D01*
X014517D01*
X014498Y014581D01*
X014666Y01475D01*
X01525D01*
Y015333D01*
X01671Y016794D01*
X016742Y016792D01*
D02*
G37*
G36*
X027956Y013635D02*
X027964Y013635D01*
X027973Y013633D01*
X027982Y013632D01*
X02799Y01363D01*
X027999Y013627D01*
X028007Y013624D01*
X028015Y013621D01*
X028023Y013617D01*
X028031Y013613D01*
X028038Y013608D01*
X028045Y013603D01*
X028052Y013598D01*
X028059Y013592D01*
X028065Y013586D01*
X028071Y01358D01*
X028077Y013573D01*
X028082Y013566D01*
X028087Y013559D01*
X028092Y013552D01*
X028096Y013544D01*
X0281Y013536D01*
X028103Y013528D01*
X028106Y01352D01*
X028108Y013511D01*
X028111Y013503D01*
X028112Y013494D01*
X028113Y013486D01*
X028114Y013477D01*
X028114Y013468D01*
X028114Y013459D01*
X028113Y013451D01*
X028112Y013442D01*
X028111Y013433D01*
X028108Y013425D01*
X028106Y013416D01*
X028103Y013408D01*
X0281Y0134D01*
X028096Y013392D01*
X028092Y013384D01*
X028087Y013377D01*
X028082Y01337D01*
X028077Y013363D01*
X028071Y013356D01*
X028065Y01335D01*
X028059Y013344D01*
X028052Y013338D01*
X028045Y013333D01*
X028038Y013328D01*
X028031Y013323D01*
X028023Y013319D01*
X028015Y013315D01*
X028007Y013312D01*
X027999Y013309D01*
X02799Y013306D01*
X027982Y013304D01*
X027973Y013303D01*
X027964Y013302D01*
X027956Y013301D01*
X027947Y013301D01*
X027553D01*
X027544Y013301D01*
X027536Y013302D01*
X027527Y013303D01*
X027518Y013304D01*
X02751Y013306D01*
X027501Y013309D01*
X027493Y013312D01*
X027485Y013315D01*
X027477Y013319D01*
X027469Y013323D01*
X027462Y013328D01*
X027455Y013333D01*
X027448Y013338D01*
X027441Y013344D01*
X027435Y01335D01*
X027429Y013356D01*
X027423Y013363D01*
X027418Y01337D01*
X027413Y013377D01*
X027408Y013384D01*
X027404Y013392D01*
X0274Y0134D01*
X027397Y013408D01*
X027394Y013416D01*
X027392Y013425D01*
X027389Y013433D01*
X027388Y013442D01*
X027387Y013451D01*
X027386Y013459D01*
X027386Y013468D01*
X027386Y013477D01*
X027387Y013486D01*
X027388Y013494D01*
X027389Y013503D01*
X027392Y013511D01*
X027394Y01352D01*
X027397Y013528D01*
X0274Y013536D01*
X027404Y013544D01*
X027408Y013552D01*
X027413Y013559D01*
X027418Y013566D01*
X027423Y013573D01*
X027429Y01358D01*
X027435Y013586D01*
X027441Y013592D01*
X027448Y013598D01*
X027455Y013603D01*
X027462Y013608D01*
X027469Y013613D01*
X027477Y013617D01*
X027485Y013621D01*
X027493Y013624D01*
X027501Y013627D01*
X02751Y01363D01*
X027518Y013632D01*
X027527Y013633D01*
X027536Y013635D01*
X027544Y013635D01*
X027553Y013635D01*
X027947D01*
X027956Y013635D01*
D02*
G37*
G36*
X02861Y013131D02*
X028604Y013107D01*
Y012993D01*
X028633Y012883D01*
X02869Y012784D01*
X028771Y012703D01*
X02887Y012646D01*
X02898Y012617D01*
X029052D01*
X029073Y012567D01*
X028668Y012163D01*
X02804D01*
X028029Y012189D01*
X027965Y012253D01*
X027882Y012288D01*
X027791D01*
X027716Y012257D01*
X027706Y01226D01*
X027689Y01227D01*
X02767Y012286D01*
Y012347D01*
X027689Y012363D01*
X027706Y012373D01*
X027716Y012376D01*
X027791Y012345D01*
X027882D01*
X027965Y01238D01*
X028029Y012444D01*
X028064Y012527D01*
Y012618D01*
X028053Y012644D01*
X028565Y013157D01*
X02861Y013131D01*
D02*
G37*
G36*
X029908Y012441D02*
X029934Y012423D01*
X029937Y012409D01*
X029931Y012366D01*
X029872Y012326D01*
X029823Y012254D01*
X029806Y012169D01*
X029761Y012143D01*
X029575D01*
X02948Y012131D01*
X029391Y012094D01*
X029315Y012035D01*
X028698Y011418D01*
X028135D01*
X028102Y011468D01*
X028114Y011512D01*
Y011585D01*
X028095Y011656D01*
X028058Y011719D01*
X028007Y011771D01*
X027944Y011807D01*
X027935Y011809D01*
X027937Y011856D01*
X027965Y011868D01*
X028029Y011932D01*
X02804Y011959D01*
X028711D01*
X02875Y011966D01*
X028783Y011989D01*
X028986Y012191D01*
X02904Y012175D01*
X029057Y012132D01*
X029105Y012085D01*
X029167Y01206D01*
X029233D01*
X029295Y012085D01*
X029343Y012132D01*
X029368Y012194D01*
Y012261D01*
X029364Y01227D01*
X029555Y012461D01*
X029895D01*
X029908Y012441D01*
D02*
G37*
G36*
X017982Y012751D02*
Y011552D01*
X017641Y011212D01*
X017595Y011231D01*
Y01243D01*
X017936Y01277D01*
X017982Y012751D01*
D02*
G37*
G36*
X027956Y01082D02*
X027964Y01082D01*
X027973Y010818D01*
X027982Y010817D01*
X02799Y010815D01*
X027999Y010812D01*
X028007Y010809D01*
X028015Y010806D01*
X028023Y010802D01*
X028031Y010798D01*
X028038Y010793D01*
X028045Y010789D01*
X028052Y010783D01*
X028059Y010777D01*
X028065Y010771D01*
X028071Y010765D01*
X028077Y010758D01*
X028082Y010752D01*
X028087Y010744D01*
X028092Y010737D01*
X028096Y010729D01*
X0281Y010721D01*
X028103Y010713D01*
X028106Y010705D01*
X028108Y010696D01*
X028111Y010688D01*
X028112Y010679D01*
X028113Y010671D01*
X028114Y010662D01*
X028114Y010653D01*
X028114Y010644D01*
X028113Y010636D01*
X028112Y010627D01*
X028111Y010618D01*
X028108Y01061D01*
X028106Y010601D01*
X028103Y010593D01*
X0281Y010585D01*
X028096Y010577D01*
X028092Y010569D01*
X028087Y010562D01*
X028082Y010555D01*
X028077Y010548D01*
X028071Y010541D01*
X028065Y010535D01*
X028059Y010529D01*
X028052Y010523D01*
X028045Y010518D01*
X028038Y010513D01*
X028031Y010508D01*
X028023Y010504D01*
X028015Y0105D01*
X028007Y010497D01*
X027999Y010494D01*
X02799Y010492D01*
X027982Y010489D01*
X027973Y010488D01*
X027964Y010487D01*
X027956Y010486D01*
X027947Y010486D01*
X027553D01*
X027544Y010486D01*
X027536Y010487D01*
X027527Y010488D01*
X027518Y010489D01*
X02751Y010492D01*
X027501Y010494D01*
X027493Y010497D01*
X027485Y0105D01*
X027477Y010504D01*
X027469Y010508D01*
X027462Y010513D01*
X027455Y010518D01*
X027448Y010523D01*
X027441Y010529D01*
X027435Y010535D01*
X027429Y010541D01*
X027423Y010548D01*
X027418Y010555D01*
X027413Y010562D01*
X027408Y010569D01*
X027404Y010577D01*
X0274Y010585D01*
X027397Y010593D01*
X027394Y010601D01*
X027392Y01061D01*
X027389Y010618D01*
X027388Y010627D01*
X027387Y010636D01*
X027386Y010644D01*
X027386Y010653D01*
X027386Y010662D01*
X027387Y010671D01*
X027388Y010679D01*
X027389Y010688D01*
X027392Y010696D01*
X027394Y010705D01*
X027397Y010713D01*
X0274Y010721D01*
X027404Y010729D01*
X027408Y010737D01*
X027413Y010744D01*
X027418Y010752D01*
X027423Y010758D01*
X027429Y010765D01*
X027435Y010771D01*
X027441Y010777D01*
X027448Y010783D01*
X027455Y010789D01*
X027462Y010793D01*
X027469Y010798D01*
X027477Y010802D01*
X027485Y010806D01*
X027493Y010809D01*
X027501Y010812D01*
X02751Y010815D01*
X027518Y010817D01*
X027527Y010818D01*
X027536Y01082D01*
X027544Y01082D01*
X027553Y01082D01*
X027947D01*
X027956Y01082D01*
D02*
G37*
G36*
X015705Y010941D02*
X017305D01*
X017324Y010895D01*
X016397Y009968D01*
X016348Y009974D01*
X016347Y009976D01*
X016266Y010057D01*
X016167Y010114D01*
X016057Y010143D01*
X015943D01*
X015833Y010114D01*
X015734Y010057D01*
X015653Y009976D01*
X015596Y009877D01*
X015578Y009809D01*
X015559Y00979D01*
X015523Y009795D01*
X015435Y009883D01*
X015328Y009945D01*
X015207Y009977D01*
X015083D01*
X014963Y009945D01*
X014855Y009883D01*
X014845Y009873D01*
X014583D01*
X014558Y009916D01*
X014576Y009949D01*
X014599Y010033D01*
X014958Y010392D01*
X015038Y010497D01*
X015089Y010619D01*
X015106Y01075D01*
Y010801D01*
X01525D01*
Y010944D01*
X015705D01*
Y010941D01*
D02*
G37*
G36*
X014858Y009102D02*
X01486Y009091D01*
X014031Y008261D01*
X013997Y008266D01*
X013916Y008347D01*
X013817Y008404D01*
X013817Y008404D01*
Y008921D01*
Y009137D01*
X014835D01*
X014858Y009102D01*
D02*
G37*
G36*
X035974Y008271D02*
X036046Y008223D01*
X036131Y008206D01*
X036147Y00821D01*
X036209Y008129D01*
X036102Y008022D01*
X036038D01*
X035918Y00799D01*
X03581Y007928D01*
X035722Y00784D01*
X03566Y007732D01*
X035628Y007612D01*
Y007488D01*
X03566Y007368D01*
X035722Y00726D01*
X035731Y007251D01*
X034776Y006297D01*
X03473Y006316D01*
Y006701D01*
X033583D01*
Y006707D01*
X033554Y006817D01*
X033497Y006916D01*
X033416Y006997D01*
X033381Y007017D01*
X033394Y007067D01*
X033457D01*
X033567Y007096D01*
X033666Y007153D01*
X033747Y007234D01*
X033804Y007333D01*
X033833Y007443D01*
Y007557D01*
X033804Y007667D01*
X033747Y007766D01*
X033666Y007847D01*
X033567Y007904D01*
X033499Y007922D01*
X03335Y008071D01*
Y008159D01*
X033366Y008176D01*
X033417Y008175D01*
X03346Y00812D01*
X033551Y00805D01*
X033656Y008007D01*
X033769Y007992D01*
X033882Y008007D01*
X033966Y008042D01*
X03405Y008007D01*
X034163Y007992D01*
X034276Y008007D01*
X034359Y008042D01*
X034443Y008007D01*
X034556Y007992D01*
X034669Y008007D01*
X034753Y008042D01*
X034837Y008007D01*
X03495Y007992D01*
X035063Y008007D01*
X035147Y008042D01*
X035231Y008007D01*
X035344Y007992D01*
X035457Y008007D01*
X035562Y00805D01*
X035653Y00812D01*
X035721Y00821D01*
X035737Y008206D01*
X035823Y008223D01*
X035895Y008271D01*
X035909Y008293D01*
X035959D01*
X035974Y008271D01*
D02*
G37*
G36*
X027027Y01068D02*
X027039Y010675D01*
X027068Y010645D01*
X027068Y010636D01*
X02707Y010628D01*
X027069Y010619D01*
X02707Y010611D01*
X027072Y010603D01*
X027072Y010594D01*
X027073Y010585D01*
X027075Y010577D01*
X027076Y010569D01*
X027077Y01056D01*
X02708Y010553D01*
X027081Y010544D01*
X027083Y010536D01*
X027086Y010528D01*
X027087Y01052D01*
X027089Y010511D01*
X027093Y010504D01*
X027095Y010495D01*
X027097Y010487D01*
X027101Y01048D01*
X027103Y010472D01*
X027107Y010464D01*
X027111Y010456D01*
X027114Y010448D01*
X027117Y01044D01*
X027122Y010433D01*
X027125Y010426D01*
X027129Y010418D01*
X027134Y010411D01*
X027137Y010403D01*
X027142Y010396D01*
X027147Y01039D01*
X027151Y010382D01*
X027156Y010375D01*
X027162Y010369D01*
X027166Y010361D01*
X027171Y010354D01*
X027177Y010349D01*
X027182Y010342D01*
X027187Y010335D01*
X027193Y010329D01*
X027198Y010323D01*
X027204Y010316D01*
X027211Y010311D01*
X027216Y010304D01*
X027223Y010298D01*
X027229Y010293D01*
X027235Y010287D01*
X027242Y010282D01*
X027249Y010277D01*
X027254Y010271D01*
X027261Y010266D01*
X027269Y010262D01*
X027275Y010256D01*
X027282Y010251D01*
X02729Y010247D01*
X027296Y010242D01*
X027304Y010237D01*
X027311Y010234D01*
X027318Y010229D01*
X027326Y010225D01*
X027333Y010222D01*
X02734Y010217D01*
X027348Y010214D01*
X027356Y010211D01*
X027364Y010207D01*
X027372Y010203D01*
X02738Y010201D01*
X027387Y010197D01*
X027395Y010195D01*
X027404Y010193D01*
X027411Y010189D01*
X02742Y010187D01*
X027428Y010186D01*
X027436Y010183D01*
X027444Y010181D01*
X027453Y01018D01*
X02746Y010177D01*
X027469Y010176D01*
X027477Y010175D01*
X027485Y010173D01*
X027494Y010172D01*
X027503Y010172D01*
X027511Y01017D01*
X027519Y010169D01*
X027528Y01017D01*
X027536Y010168D01*
X027545Y010168D01*
X027549Y010169D01*
X027553Y010168D01*
X027682D01*
X027701Y010122D01*
X026453Y008873D01*
X025758D01*
Y008851D01*
X02462D01*
Y00763D01*
Y007498D01*
X02458Y007468D01*
X024562Y007472D01*
X024438D01*
X024318Y00744D01*
X02421Y007378D01*
X024122Y00729D01*
X024068Y007196D01*
X024018Y00721D01*
Y0106D01*
X024299D01*
Y010682D01*
X02702D01*
X027027Y01068D01*
D02*
G37*
G36*
X037186Y007609D02*
X037222Y007547D01*
X03731Y007459D01*
X037418Y007397D01*
X037538Y007365D01*
X037662D01*
X037692Y007373D01*
X037732Y007342D01*
Y006923D01*
X036914D01*
Y006927D01*
X036513D01*
X036494Y006973D01*
X037136Y007616D01*
X037186Y007609D01*
D02*
G37*
G36*
X005073Y008815D02*
Y008811D01*
X005084Y008721D01*
X005119Y008638D01*
X005174Y008566D01*
X005246Y008511D01*
X00533Y008476D01*
X00542Y008464D01*
X005845D01*
X005867Y008467D01*
X005909Y008422D01*
X005919Y008347D01*
X005954Y008264D01*
X006009Y008192D01*
X006081Y008136D01*
X006165Y008102D01*
X006255Y00809D01*
X006522D01*
X006533Y008081D01*
X006622Y008044D01*
X006717Y008032D01*
X00727D01*
Y007649D01*
X00727D01*
Y007601D01*
X00727D01*
X00727Y007599D01*
Y007359D01*
X006758D01*
X006663Y007346D01*
X006574Y007309D01*
X006498Y007251D01*
X006457Y00721D01*
X006205D01*
X006115Y007198D01*
X006031Y007164D01*
X005959Y007108D01*
X005904Y007036D01*
X005869Y006953D01*
X005859Y006878D01*
X005817Y006833D01*
X005795Y006836D01*
X00537D01*
X00528Y006824D01*
X005196Y006789D01*
X005168Y006768D01*
X00468D01*
Y006885D01*
X00473Y00691D01*
X004818Y00686D01*
X004938Y006828D01*
X005062D01*
X005182Y00686D01*
X00529Y006922D01*
X005378Y00701D01*
X00544Y007118D01*
X005472Y007238D01*
Y007362D01*
X00544Y007482D01*
X005378Y00759D01*
X00529Y007678D01*
X005182Y00774D01*
X005083Y007767D01*
X00468Y00817D01*
Y00883D01*
Y009072D01*
X004816D01*
X005073Y008815D01*
D02*
G37*
G36*
X00342Y008884D02*
Y00883D01*
Y007649D01*
Y006616D01*
X003374Y006597D01*
X00283Y007141D01*
Y00788D01*
X002763D01*
X00274Y007924D01*
X002758Y007952D01*
X002806Y008066D01*
X00283Y008188D01*
Y008312D01*
X002822Y008351D01*
X003374Y008903D01*
X00342Y008884D01*
D02*
G37*
G36*
X025973Y007624D02*
X026349D01*
Y007574D01*
X026399D01*
Y007238D01*
X026453D01*
Y006042D01*
X026453Y006042D01*
X025871D01*
Y005827D01*
X025724D01*
Y005451D01*
X025674D01*
Y005401D01*
X025338D01*
Y005076D01*
X025338D01*
X025328Y00503D01*
X024599D01*
Y00377D01*
X024715D01*
X024746Y00373D01*
X024728Y003662D01*
Y003538D01*
X02476Y003418D01*
X024822Y00331D01*
X02491Y003222D01*
X025018Y00316D01*
X025138Y003128D01*
X025262D01*
X025292Y003135D01*
X025338Y003096D01*
Y002801D01*
X025624D01*
Y003127D01*
X025426D01*
X025412Y003177D01*
X02549Y003222D01*
X025578Y00331D01*
X02564Y003418D01*
X025672Y003538D01*
Y003662D01*
X025654Y00373D01*
X025685Y00377D01*
X026632D01*
Y003521D01*
X026453Y003342D01*
X025871D01*
Y003127D01*
X025724D01*
Y002751D01*
Y002376D01*
X025871D01*
Y00223D01*
X024599D01*
Y00151D01*
X023807Y000718D01*
X022926D01*
Y001025D01*
X02391Y002009D01*
X023968Y002085D01*
X024005Y002174D01*
X024018Y002269D01*
Y00679D01*
X024068Y006804D01*
X024122Y00671D01*
X02421Y006622D01*
X024318Y00656D01*
X024438Y006528D01*
X024562D01*
X02458Y006532D01*
X02462Y006502D01*
Y006449D01*
X02588D01*
Y00763D01*
Y007771D01*
X025973D01*
Y007624D01*
D02*
G37*
G36*
X039718Y007346D02*
X039753Y007284D01*
X039834Y007203D01*
X039933Y007146D01*
X040001Y007128D01*
X04044Y00669D01*
X040516Y006631D01*
X040605Y006594D01*
X0407Y006582D01*
X04192D01*
Y005937D01*
X04187Y005903D01*
X04182Y005924D01*
X04173Y005936D01*
X041305D01*
X041283Y005933D01*
X041242Y005969D01*
X041231Y006053D01*
X041196Y006136D01*
X041141Y006208D01*
X041069Y006264D01*
X040985Y006298D01*
X040895Y00631D01*
X04047D01*
X04038Y006298D01*
X040296Y006264D01*
X040268Y006242D01*
X04008D01*
Y006601D01*
X038937D01*
X038927Y006651D01*
X038953Y006662D01*
X039058Y006742D01*
X039668Y007352D01*
X039718Y007346D01*
D02*
G37*
G36*
X018344Y010808D02*
Y008D01*
X018361Y007869D01*
X018412Y007747D01*
X018492Y007642D01*
X018494Y00764D01*
Y00566D01*
X018492Y005658D01*
X018412Y005553D01*
X018401Y005528D01*
X018352Y005518D01*
X01656Y00731D01*
X016484Y007369D01*
X016395Y007406D01*
X0163Y007418D01*
X015754D01*
X015735Y007464D01*
X016799Y008528D01*
X016867Y008546D01*
X016966Y008603D01*
X017047Y008684D01*
X017104Y008783D01*
X017133Y008893D01*
Y009007D01*
X017104Y009117D01*
X017047Y009216D01*
X016966Y009297D01*
X016885Y009343D01*
X01687Y0094D01*
X018298Y010827D01*
X018344Y010808D01*
D02*
G37*
G36*
X044028Y006251D02*
X04402Y006212D01*
Y006088D01*
X044044Y005966D01*
X044092Y005852D01*
X044161Y005748D01*
X044225Y005684D01*
X044243Y00565D01*
X044225Y005616D01*
X044161Y005552D01*
X044138Y005518D01*
X043978D01*
X043974Y005523D01*
Y005647D01*
X043942Y005768D01*
X04388Y005875D01*
X043792Y005963D01*
X043684Y006025D01*
X043564Y006058D01*
X04355D01*
X043307Y006301D01*
X04323Y006359D01*
X04318Y00638D01*
Y006582D01*
X043698D01*
X044028Y006251D01*
D02*
G37*
G36*
X030066Y004707D02*
X030155D01*
X030166Y004672D01*
X030133Y00463D01*
X029806D01*
Y005689D01*
X030066D01*
Y004707D01*
D02*
G37*
G36*
X03864Y004061D02*
X03882Y00388D01*
Y003701D01*
X037987Y002868D01*
X037062D01*
Y003099D01*
X036726D01*
Y003149D01*
X036676D01*
Y003524D01*
X036529D01*
Y003739D01*
X036368D01*
Y003899D01*
X036455Y00397D01*
X03648Y004001D01*
X03653D01*
X036555Y00397D01*
X036653Y00389D01*
X036764Y003831D01*
X036885Y003794D01*
X03701Y003782D01*
X037135Y003794D01*
X037256Y003831D01*
X037367Y00389D01*
X037465Y00397D01*
X037475Y003983D01*
X037525D01*
X037535Y00397D01*
X037633Y00389D01*
X037744Y003831D01*
X037865Y003794D01*
X03799Y003782D01*
X038115Y003794D01*
X038236Y003831D01*
X038347Y00389D01*
X038445Y00397D01*
X038525Y004068D01*
X038544Y004103D01*
X038603Y004108D01*
X03864Y004061D01*
D02*
G37*
G36*
X041585Y005064D02*
X041616D01*
X041883Y004796D01*
X04192Y004768D01*
Y004249D01*
Y004032D01*
X041883Y004004D01*
X041566Y003686D01*
X041535D01*
X041534Y003686D01*
X041454D01*
X041427Y003736D01*
X041456Y003805D01*
X041468Y0039D01*
Y005064D01*
X041584D01*
X041585Y005064D01*
D02*
G37*
G36*
X035733Y006147D02*
Y005825D01*
X035948D01*
Y005678D01*
X036324D01*
Y005578D01*
X035948D01*
Y005313D01*
X035875Y005306D01*
X035754Y005269D01*
X035643Y00521D01*
X035545Y00513D01*
X035465Y005032D01*
X035406Y004921D01*
X035369Y0048D01*
X035357Y004675D01*
Y004425D01*
X035369Y0043D01*
X035406Y004179D01*
X035465Y004068D01*
X035545Y00397D01*
X035632Y003899D01*
Y003739D01*
X035427D01*
Y003565D01*
X035401Y00355D01*
X035377Y003542D01*
X035262Y003572D01*
X035138D01*
X035077Y003556D01*
X035028Y00364D01*
X03494Y003728D01*
X034832Y00379D01*
X034712Y003822D01*
X034593D01*
Y00388D01*
X034468D01*
Y004299D01*
X03473D01*
Y005131D01*
X034733Y005155D01*
Y005212D01*
X035687Y006167D01*
X035733Y006147D01*
D02*
G37*
G36*
X014291Y005167D02*
X014304Y005071D01*
X014341Y004982D01*
X014399Y004906D01*
X014466Y004839D01*
Y004587D01*
X014478Y004497D01*
X014512Y004414D01*
X014568Y004342D01*
X01464Y004286D01*
X014723Y004252D01*
X014798Y004242D01*
X014843Y0042D01*
X01484Y004178D01*
Y003753D01*
X014852Y003663D01*
X014875Y003606D01*
X014749Y00348D01*
X014522D01*
Y003562D01*
X01449Y003682D01*
X014428Y00379D01*
X01434Y003878D01*
X014232Y00394D01*
X014112Y003972D01*
X013988D01*
X013868Y00394D01*
X01376Y003878D01*
X013672Y00379D01*
X01361Y003682D01*
X013578Y003562D01*
Y003527D01*
X01353Y00348D01*
X013168D01*
Y003568D01*
X013189Y003596D01*
X013224Y00368D01*
X013236Y00377D01*
Y004195D01*
X013233Y004217D01*
X013278Y004259D01*
X013353Y004269D01*
X013436Y004304D01*
X013508Y004359D01*
X013564Y004431D01*
X013598Y004515D01*
X01361Y004605D01*
Y00503D01*
X013598Y00512D01*
X013568Y005193D01*
Y00532D01*
X014291D01*
Y005167D01*
D02*
G37*
G36*
X04402Y00352D02*
Y003028D01*
X04397Y003021D01*
X04394Y003132D01*
X043878Y00324D01*
X04379Y003328D01*
X043682Y00339D01*
X043562Y003422D01*
X043438D01*
X043318Y00339D01*
X04323Y00334D01*
X04318Y003365D01*
Y003782D01*
X04402D01*
Y00352D01*
D02*
G37*
G36*
X04192Y002855D02*
Y0025D01*
X041899Y002479D01*
X041841Y002403D01*
X041804Y002314D01*
X041803Y002309D01*
X041732Y002318D01*
X040542D01*
X040521Y002368D01*
X040593Y00244D01*
X040845D01*
X040935Y002452D01*
X041019Y002486D01*
X041091Y002542D01*
X041146Y002614D01*
X041181Y002697D01*
X041191Y002772D01*
X041233Y002817D01*
X041255Y002814D01*
X04168D01*
X04177Y002826D01*
X041854Y002861D01*
X041875Y002877D01*
X04192Y002855D01*
D02*
G37*
G36*
X005023Y003815D02*
Y003811D01*
X005034Y003721D01*
X005069Y003638D01*
X005124Y003566D01*
X005196Y003511D01*
X00528Y003476D01*
X00537Y003464D01*
X005795D01*
X005817Y003467D01*
X005859Y003422D01*
X005869Y003347D01*
X005904Y003264D01*
X005959Y003192D01*
X006031Y003136D01*
X006115Y003102D01*
X006205Y00309D01*
X006452D01*
X006453Y00309D01*
X006529Y003031D01*
X006618Y002994D01*
X006713Y002982D01*
X00732D01*
Y002518D01*
X006667D01*
X006572Y002506D01*
X006483Y002469D01*
X006472Y00246D01*
X006205D01*
X006115Y002448D01*
X006031Y002414D01*
X005961Y00236D01*
X005422Y002898D01*
Y002912D01*
X00539Y003032D01*
X005328Y00314D01*
X00524Y003228D01*
X005132Y00329D01*
X005012Y003322D01*
X004888D01*
X004768Y00329D01*
X004723Y003265D01*
X00468Y00329D01*
Y00383D01*
Y004072D01*
X004766D01*
X005023Y003815D01*
D02*
G37*
G36*
X032507Y00329D02*
X032509D01*
Y002546D01*
X032692D01*
Y002244D01*
X032646Y002224D01*
X031999Y002871D01*
Y003469D01*
X03209Y003522D01*
X0321Y003532D01*
X032507D01*
Y00329D01*
D02*
G37*
G36*
X00342Y00383D02*
Y002649D01*
Y002216D01*
X003374Y002197D01*
X00283Y002741D01*
Y00348D01*
X002763D01*
X00274Y003524D01*
X002758Y003552D01*
X002806Y003666D01*
X00283Y003788D01*
Y003912D01*
X002846Y003932D01*
X00342D01*
Y00383D01*
D02*
G37*
G36*
X036315Y002086D02*
X036144Y001915D01*
X035335D01*
Y001551D01*
X035289Y001532D01*
X035018Y001802D01*
Y002019D01*
X035058Y002049D01*
X035138Y002028D01*
X035262D01*
X035382Y00206D01*
X03549Y002122D01*
X0355Y002132D01*
X036296D01*
X036315Y002086D01*
D02*
G37*
G36*
X04402Y002872D02*
Y00242D01*
X044282D01*
Y002339D01*
X043623Y001681D01*
X043577Y0017D01*
Y001862D01*
X043251D01*
Y001526D01*
X043151D01*
Y001862D01*
X042826D01*
X042789Y001894D01*
Y001999D01*
X04318D01*
Y002244D01*
X043255Y002254D01*
X043344Y002291D01*
X04342Y002349D01*
X043548Y002478D01*
X043562D01*
X043682Y00251D01*
X04379Y002572D01*
X043878Y00266D01*
X04394Y002768D01*
X04397Y002879D01*
X04402Y002872D01*
D02*
G37*
G36*
X021462Y014117D02*
X023634Y011946D01*
X023614Y0119D01*
X023D01*
Y0106D01*
X023281D01*
Y002422D01*
X022405Y001546D01*
X021734D01*
X021714Y001596D01*
X021778Y00166D01*
X02184Y001768D01*
X021872Y001888D01*
Y002012D01*
X02184Y002132D01*
X021778Y00224D01*
X02169Y002328D01*
X021582Y00239D01*
X021462Y002422D01*
X021448D01*
X019068Y004802D01*
X019078Y004851D01*
X019103Y004862D01*
X019208Y004942D01*
X019358Y005092D01*
X019438Y005197D01*
X019489Y005319D01*
X019506Y00545D01*
Y00785D01*
X019489Y007981D01*
X019438Y008103D01*
X019358Y008208D01*
X019356Y00821D01*
Y012614D01*
X0196D01*
Y013009D01*
Y013405D01*
X019356D01*
Y01358D01*
X02028D01*
Y013678D01*
X02141D01*
Y014107D01*
X021457Y014123D01*
X021462Y014117D01*
D02*
G37*
G36*
X034282Y00165D02*
X034294Y001555D01*
X034331Y001466D01*
X03439Y00139D01*
X035356Y000423D01*
X035337Y000377D01*
X024573D01*
X024553Y000423D01*
X0251Y00097D01*
X027001D01*
Y001569D01*
X027051Y001598D01*
X027118Y00156D01*
X027238Y001528D01*
X027362D01*
X027482Y00156D01*
X02759Y001622D01*
X0276Y001632D01*
X02787D01*
Y001449D01*
X02913D01*
Y001789D01*
X029176Y001808D01*
X029826Y001158D01*
X029844Y001066D01*
X029892Y000952D01*
X029961Y000848D01*
X030048Y000761D01*
X030152Y000692D01*
X030266Y000644D01*
X030388Y00062D01*
X030512D01*
X030634Y000644D01*
X030748Y000692D01*
X030852Y000761D01*
X030939Y000848D01*
X031008Y000952D01*
X03104Y001029D01*
X031096Y001033D01*
X031118Y000995D01*
X031195Y000918D01*
X03129Y000863D01*
X031395Y000835D01*
X0314D01*
Y00125D01*
Y001665D01*
X031395D01*
X03129Y001637D01*
X031195Y001582D01*
X031118Y001505D01*
X031096Y001467D01*
X03104Y001471D01*
X031008Y001548D01*
X030939Y001652D01*
X030852Y001739D01*
X030818Y001762D01*
Y00235D01*
X031479D01*
X032052Y001777D01*
X032048Y001739D01*
X031961Y001652D01*
X031892Y001548D01*
X03186Y001471D01*
X031804Y001467D01*
X031782Y001505D01*
X031705Y001582D01*
X03161Y001637D01*
X031505Y001665D01*
X0315D01*
Y00125D01*
Y000835D01*
X031505D01*
X03161Y000863D01*
X031705Y000918D01*
X031782Y000995D01*
X031804Y001033D01*
X03186Y001029D01*
X031892Y000952D01*
X031961Y000848D01*
X032048Y000761D01*
X032152Y000692D01*
X032266Y000644D01*
X032388Y00062D01*
X032512D01*
X032634Y000644D01*
X032748Y000692D01*
X032776Y00071D01*
X03282Y000687D01*
Y00062D01*
X03408D01*
Y00188D01*
X033428D01*
Y002546D01*
X033611D01*
Y002916D01*
X034282D01*
Y00165D01*
D02*
G37*
G36*
X041608Y001553D02*
Y000971D01*
X041823D01*
Y000824D01*
X042199D01*
Y000724D01*
X041823D01*
Y000718D01*
X037479D01*
X037459Y000768D01*
X037517Y000826D01*
X037589Y000935D01*
X037598Y000955D01*
X037654Y00096D01*
X037724Y00089D01*
X037826Y000831D01*
X037941Y0008D01*
X03795D01*
Y00125D01*
X038D01*
Y0013D01*
X03845D01*
Y001309D01*
X038419Y001424D01*
X03836Y001526D01*
X038351Y001536D01*
X03837Y001582D01*
X041579D01*
X041608Y001553D01*
D02*
G37*
G36*
X044432Y001379D02*
X044425Y001358D01*
X044398Y001187D01*
Y001013D01*
X044425Y000842D01*
X044478Y000677D01*
X044557Y000522D01*
X044626Y000427D01*
X044601Y000377D01*
X043792D01*
Y000808D01*
X044389Y001405D01*
X044432Y001379D01*
D02*
G37*
%LPC*%
G36*
X040327Y021262D02*
X040001D01*
Y020976D01*
X040327D01*
Y021262D01*
D02*
G37*
G36*
X04525Y02085D02*
X04485D01*
Y02045D01*
X04525D01*
Y02085D01*
D02*
G37*
G36*
X044374Y016501D02*
X044088D01*
Y016176D01*
X044374D01*
Y016501D01*
D02*
G37*
G36*
X044733Y014297D02*
X04425D01*
Y01405D01*
X044733D01*
Y014297D01*
D02*
G37*
G36*
X04415D02*
X043667D01*
Y01405D01*
X04415D01*
Y014297D01*
D02*
G37*
G36*
X044733Y01395D02*
X04425D01*
Y013703D01*
X044733D01*
Y01395D01*
D02*
G37*
G36*
X04415D02*
X043667D01*
Y013703D01*
X04415D01*
Y01395D01*
D02*
G37*
G36*
X042591Y01368D02*
X041961D01*
Y012972D01*
X042591D01*
Y013138D01*
X04326D01*
Y013076D01*
X043811D01*
Y013627D01*
X04326D01*
Y013539D01*
X042591D01*
Y01368D01*
D02*
G37*
G36*
X044735Y012963D02*
X044252D01*
Y012716D01*
X044735D01*
Y012963D01*
D02*
G37*
G36*
X044152D02*
X043669D01*
Y012716D01*
X044152D01*
Y012963D01*
D02*
G37*
G36*
X044735Y012616D02*
X044252D01*
Y012369D01*
X044735D01*
Y012616D01*
D02*
G37*
G36*
X044152D02*
X043669D01*
Y012369D01*
X044152D01*
Y012616D01*
D02*
G37*
G36*
X042885Y010485D02*
X0425D01*
Y0101D01*
X042885D01*
Y010485D01*
D02*
G37*
G36*
X041735D02*
X04135D01*
Y0101D01*
X041735D01*
Y010485D01*
D02*
G37*
G36*
X0424D02*
X042015D01*
Y0101D01*
X0424D01*
Y010485D01*
D02*
G37*
G36*
X042885Y01D02*
X0425D01*
Y009616D01*
X042885D01*
Y01D01*
D02*
G37*
G36*
X0424D02*
X042015D01*
Y009616D01*
X0424D01*
Y01D01*
D02*
G37*
G36*
X041735D02*
X04135D01*
Y009616D01*
X041735D01*
Y01D01*
D02*
G37*
G36*
X044601Y009157D02*
X044D01*
Y00832D01*
X044601D01*
Y009157D01*
D02*
G37*
G36*
X0439D02*
X043299D01*
Y00832D01*
X0439D01*
Y009157D01*
D02*
G37*
G36*
X044601Y00822D02*
X044D01*
Y007382D01*
X044601D01*
Y00822D01*
D02*
G37*
G36*
X0439D02*
X043299D01*
Y007382D01*
X0439D01*
Y00822D01*
D02*
G37*
G36*
X024126Y023952D02*
X0238D01*
Y023666D01*
X024126D01*
Y023952D01*
D02*
G37*
G36*
X0237D02*
X023374D01*
Y023666D01*
X0237D01*
Y023952D01*
D02*
G37*
G36*
X026562Y02718D02*
X026438D01*
X026316Y027156D01*
X026202Y027108D01*
X026174Y02709D01*
X02613Y027113D01*
Y02718D01*
X02487D01*
Y02718D01*
X02377D01*
Y02592D01*
X02503D01*
Y02592D01*
X02613D01*
Y025987D01*
X026174Y02601D01*
X026202Y025992D01*
X026316Y025944D01*
X026438Y02592D01*
X026562D01*
X026684Y025944D01*
X026798Y025992D01*
X026902Y026061D01*
X026989Y026148D01*
X027058Y026252D01*
X02709Y026329D01*
X027146Y026333D01*
X027168Y026295D01*
X027245Y026218D01*
X02734Y026163D01*
X027445Y026135D01*
X02745D01*
Y02655D01*
Y026965D01*
X027445D01*
X02734Y026937D01*
X027245Y026882D01*
X027168Y026805D01*
X027146Y026767D01*
X02709Y026771D01*
X027058Y026848D01*
X026989Y026952D01*
X026902Y027039D01*
X026798Y027108D01*
X026684Y027156D01*
X026562Y02718D01*
D02*
G37*
G36*
X0404Y027115D02*
X040395D01*
X04029Y027087D01*
X040195Y027032D01*
X040118Y026955D01*
X040063Y02686D01*
X040035Y026755D01*
Y02675D01*
X0404D01*
Y027115D01*
D02*
G37*
G36*
X02845Y026965D02*
X028445D01*
X02834Y026937D01*
X028245Y026882D01*
X028168Y026805D01*
X028113Y02671D01*
X028085Y026605D01*
Y0266D01*
X02845D01*
Y026965D01*
D02*
G37*
G36*
X027555D02*
X02755D01*
Y0266D01*
X027915D01*
Y026605D01*
X027887Y02671D01*
X027832Y026805D01*
X027755Y026882D01*
X02766Y026937D01*
X027555Y026965D01*
D02*
G37*
G36*
X02845Y0265D02*
X028085D01*
Y026495D01*
X028113Y02639D01*
X028168Y026295D01*
X028245Y026218D01*
X02834Y026163D01*
X028445Y026135D01*
X02845D01*
Y0265D01*
D02*
G37*
G36*
X027915D02*
X02755D01*
Y026135D01*
X027555D01*
X02766Y026163D01*
X027755Y026218D01*
X027832Y026295D01*
X027887Y02639D01*
X027915Y026495D01*
Y0265D01*
D02*
G37*
G36*
X007959Y027194D02*
X006541D01*
Y026056D01*
X00563D01*
Y02616D01*
X00437D01*
X004365Y026208D01*
Y026215D01*
X002735D01*
Y023985D01*
X003711D01*
X003769Y023961D01*
X0039Y023944D01*
X00437D01*
Y023759D01*
X005413D01*
Y023288D01*
X00541Y023282D01*
X005378Y023162D01*
Y023038D01*
X00541Y022918D01*
X005472Y02281D01*
X00556Y022722D01*
X005599Y0227D01*
X005585Y02265D01*
X004351D01*
Y02135D01*
X004494D01*
Y019509D01*
X003595D01*
Y018091D01*
X0058D01*
Y018294D01*
X005949D01*
Y017963D01*
X005968Y017728D01*
X006023Y017499D01*
X006113Y017281D01*
X006236Y017081D01*
X006389Y016901D01*
X006568Y016749D01*
X006769Y016625D01*
X006986Y016535D01*
X007215Y01648D01*
X00745Y016462D01*
X007685Y01648D01*
X007914Y016535D01*
X008131Y016625D01*
X008332Y016749D01*
X008511Y016901D01*
X008664Y017081D01*
X008787Y017281D01*
X008877Y017499D01*
X008932Y017728D01*
X008951Y017963D01*
Y019537D01*
X008932Y019772D01*
X008877Y020001D01*
X008805Y020176D01*
X009324Y020695D01*
X010649D01*
X010667Y020649D01*
X010562Y020559D01*
X010409Y02038D01*
X010286Y020179D01*
X010196Y019962D01*
X010141Y019733D01*
X010123Y019498D01*
Y017923D01*
X010141Y017688D01*
X010196Y017459D01*
X010286Y017242D01*
X010409Y017041D01*
X010562Y016862D01*
X010741Y016709D01*
X010942Y016586D01*
X011159Y016496D01*
X011388Y016441D01*
X011623Y016423D01*
X011858Y016441D01*
X012087Y016496D01*
X012305Y016586D01*
X012505Y016709D01*
X012684Y016862D01*
X012837Y017041D01*
X01296Y017242D01*
X01305Y017459D01*
X013105Y017688D01*
X013124Y017923D01*
Y018818D01*
X01365D01*
Y01853D01*
X01495D01*
Y020144D01*
X014223D01*
X013387Y020981D01*
Y021312D01*
X01339Y021318D01*
X013422Y021438D01*
Y021562D01*
X01339Y021682D01*
X013328Y02179D01*
X01324Y021878D01*
X013132Y02194D01*
X013012Y021972D01*
X012888D01*
X012768Y02194D01*
X01266Y021878D01*
X012572Y02179D01*
X01251Y021682D01*
X012478Y021562D01*
Y021438D01*
X01251Y021318D01*
X012513Y021312D01*
Y0208D01*
X012518Y020763D01*
X012472Y020733D01*
X012305Y020835D01*
X012087Y020925D01*
X011858Y02098D01*
X011623Y020999D01*
X01148Y020987D01*
X011459Y021033D01*
X011796Y02137D01*
X012301D01*
Y02263D01*
X010787D01*
Y023315D01*
X011277D01*
Y023611D01*
X011327D01*
Y023661D01*
X012096D01*
Y023769D01*
X012311D01*
Y024793D01*
X012096D01*
Y0249D01*
X010557D01*
Y024793D01*
X010343D01*
Y02451D01*
X010131Y024299D01*
X010085Y024318D01*
Y024735D01*
X0097D01*
Y0243D01*
Y023866D01*
X009913D01*
Y02263D01*
X009899D01*
Y022506D01*
X009651D01*
Y02263D01*
X00843D01*
Y02137D01*
X008501D01*
X00852Y021324D01*
X008089Y020892D01*
X007914Y020965D01*
X007685Y02102D01*
X00745Y021038D01*
X007215Y02102D01*
X006986Y020965D01*
X006769Y020875D01*
X006568Y020751D01*
X006529Y020718D01*
X006488Y020747D01*
X006539Y020869D01*
X006556Y021D01*
X006539Y021131D01*
X006488Y021253D01*
X006408Y021358D01*
X006303Y021438D01*
X00626Y021456D01*
X006197Y021519D01*
X006216Y021565D01*
X00625D01*
Y02195D01*
X005865D01*
Y021917D01*
X005819Y021898D01*
X00565Y022066D01*
Y022615D01*
X005699Y022651D01*
X005788Y022628D01*
X005912D01*
X006032Y02266D01*
X00614Y022722D01*
X006228Y02281D01*
X00629Y022918D01*
X006322Y023038D01*
Y023162D01*
X00629Y023282D01*
X006287Y023288D01*
Y02472D01*
X006272Y024833D01*
X006228Y024938D01*
X006186Y024994D01*
X00621Y025044D01*
X006541D01*
Y024989D01*
X007959D01*
Y025585D01*
X008948D01*
X009Y025533D01*
Y02495D01*
X0103D01*
Y02509D01*
X010343Y025107D01*
Y025107D01*
X010557D01*
Y025D01*
X012096D01*
Y025107D01*
X012311D01*
Y025173D01*
X01268D01*
X012682Y025172D01*
X012787Y025128D01*
X0129Y025113D01*
X013013Y025128D01*
X013118Y025172D01*
X013165Y025207D01*
X01319Y025222D01*
X013278Y02531D01*
X01334Y025418D01*
X013372Y025538D01*
Y025662D01*
X01334Y025782D01*
X013278Y02589D01*
X01319Y025978D01*
X013082Y02604D01*
X012962Y026072D01*
X012838D01*
X012741Y026046D01*
X012311D01*
Y0268D01*
X010343D01*
Y026785D01*
X010329D01*
X010198Y026768D01*
X010076Y026717D01*
X009971Y026637D01*
X009675Y026341D01*
X009625D01*
X009516Y02645D01*
X009516Y02645D01*
X009516Y02645D01*
X009411Y02653D01*
X009411Y02653D01*
X009411Y02653D01*
X009348Y026556D01*
X009289Y026581D01*
X009289Y026581D01*
X009289Y026581D01*
X009158Y026598D01*
X009158Y026598D01*
X009158Y026598D01*
X007959D01*
Y027194D01*
D02*
G37*
G36*
X00165Y026D02*
X0011D01*
Y02515D01*
X00165D01*
Y026D01*
D02*
G37*
G36*
X001D02*
X00045D01*
Y02515D01*
X001D01*
Y026D01*
D02*
G37*
G36*
X01991Y026072D02*
X018588D01*
X018468Y02604D01*
X01836Y025978D01*
X018272Y02589D01*
X01821Y025782D01*
X018178Y025662D01*
Y025538D01*
X01821Y025418D01*
X018272Y02531D01*
X01836Y025222D01*
X018468Y02516D01*
X018588Y025128D01*
X01991D01*
Y026072D01*
D02*
G37*
G36*
X017293Y027156D02*
X01555D01*
Y025D01*
X017293D01*
Y027156D01*
D02*
G37*
G36*
X01545D02*
X013707D01*
Y025D01*
X01545D01*
Y027156D01*
D02*
G37*
G36*
X0096Y024735D02*
X009215D01*
Y02435D01*
X0096D01*
Y024735D01*
D02*
G37*
G36*
X00165Y02505D02*
X0011D01*
Y0242D01*
X00165D01*
Y02505D01*
D02*
G37*
G36*
X001D02*
X00045D01*
Y0242D01*
X001D01*
Y02505D01*
D02*
G37*
G36*
X0096Y02425D02*
X009215D01*
Y023866D01*
X0096D01*
Y02425D01*
D02*
G37*
G36*
X007744Y024696D02*
X0073D01*
Y023858D01*
X007744D01*
Y024696D01*
D02*
G37*
G36*
X0072D02*
X006756D01*
Y023858D01*
X0072D01*
Y024696D01*
D02*
G37*
G36*
X019815Y023986D02*
X01945D01*
Y023641D01*
X019815D01*
Y023986D01*
D02*
G37*
G36*
X01935D02*
X018985D01*
Y023641D01*
X01935D01*
Y023986D01*
D02*
G37*
G36*
X012096Y023561D02*
X011377D01*
Y023315D01*
X012096D01*
Y023561D01*
D02*
G37*
G36*
X019815Y023541D02*
X01945D01*
Y023195D01*
X019815D01*
Y023541D01*
D02*
G37*
G36*
X01935D02*
X018985D01*
Y023195D01*
X01935D01*
Y023541D01*
D02*
G37*
G36*
X00345Y0237D02*
X0026D01*
Y02315D01*
X00345D01*
Y0237D01*
D02*
G37*
G36*
X0025D02*
X00165D01*
Y02315D01*
X0025D01*
Y0237D01*
D02*
G37*
G36*
X007744Y023758D02*
X0073D01*
Y022921D01*
X007744D01*
Y023758D01*
D02*
G37*
G36*
X0072D02*
X006756D01*
Y022921D01*
X0072D01*
Y023758D01*
D02*
G37*
G36*
X017293Y0249D02*
X01555D01*
Y022744D01*
X017293D01*
Y0249D01*
D02*
G37*
G36*
X01545D02*
X013707D01*
Y022744D01*
X01545D01*
Y0249D01*
D02*
G37*
G36*
X00345Y02305D02*
X0026D01*
Y0225D01*
X00345D01*
Y02305D01*
D02*
G37*
G36*
X0025D02*
X00165D01*
Y0225D01*
X0025D01*
Y02305D01*
D02*
G37*
G36*
X034915Y022705D02*
X03455D01*
Y022359D01*
X034915D01*
Y022705D01*
D02*
G37*
G36*
X03445D02*
X034085D01*
Y022359D01*
X03445D01*
Y022705D01*
D02*
G37*
G36*
X006734Y022435D02*
X00635D01*
Y02205D01*
X006734D01*
Y022435D01*
D02*
G37*
G36*
X008255Y022415D02*
X007909D01*
Y02205D01*
X008255D01*
Y022415D01*
D02*
G37*
G36*
X007809D02*
X007464D01*
Y02205D01*
X007809D01*
Y022415D01*
D02*
G37*
G36*
X00625Y022435D02*
X005865D01*
Y02205D01*
X00625D01*
Y022435D01*
D02*
G37*
G36*
X034915Y022259D02*
X03455D01*
Y021914D01*
X034915D01*
Y022259D01*
D02*
G37*
G36*
X03445D02*
X034085D01*
Y021914D01*
X03445D01*
Y022259D01*
D02*
G37*
G36*
X036196Y02193D02*
X03591D01*
Y021713D01*
X036196D01*
Y02193D01*
D02*
G37*
G36*
X03581D02*
X035524D01*
Y021713D01*
X03581D01*
Y02193D01*
D02*
G37*
G36*
X008255Y02195D02*
X007909D01*
Y021585D01*
X008255D01*
Y02195D01*
D02*
G37*
G36*
X007809D02*
X007464D01*
Y021585D01*
X007809D01*
Y02195D01*
D02*
G37*
G36*
X006734D02*
X00635D01*
Y021565D01*
X006734D01*
Y02195D01*
D02*
G37*
G36*
X00279Y019294D02*
X001952D01*
Y01885D01*
X00279D01*
Y019294D01*
D02*
G37*
G36*
X001852D02*
X001015D01*
Y01885D01*
X001852D01*
Y019294D01*
D02*
G37*
G36*
X00279Y01875D02*
X001952D01*
Y018306D01*
X00279D01*
Y01875D01*
D02*
G37*
G36*
X001852D02*
X001015D01*
Y018306D01*
X001852D01*
Y01875D01*
D02*
G37*
G36*
X014735Y018355D02*
X01435D01*
Y017813D01*
X014735D01*
Y018355D01*
D02*
G37*
G36*
X01425D02*
X013865D01*
Y017813D01*
X01425D01*
Y018355D01*
D02*
G37*
G36*
X014735Y017713D02*
X01435D01*
Y01717D01*
X014735D01*
Y017713D01*
D02*
G37*
G36*
X01425D02*
X013865D01*
Y01717D01*
X01425D01*
Y017713D01*
D02*
G37*
G36*
X019965Y016955D02*
X0196D01*
Y016609D01*
X019965D01*
Y016955D01*
D02*
G37*
G36*
X0195D02*
X019135D01*
Y016609D01*
X0195D01*
Y016955D01*
D02*
G37*
G36*
X019965Y016509D02*
X0196D01*
Y016164D01*
X019965D01*
Y016509D01*
D02*
G37*
G36*
X0195D02*
X019135D01*
Y016164D01*
X0195D01*
Y016509D01*
D02*
G37*
G36*
X004119Y015734D02*
X003006D01*
Y014306D01*
X004119D01*
Y015734D01*
D02*
G37*
G36*
X002906D02*
X001793D01*
Y014306D01*
X002906D01*
Y015734D01*
D02*
G37*
G36*
X004119Y014206D02*
X003006D01*
Y012778D01*
X004119D01*
Y014206D01*
D02*
G37*
G36*
X002906D02*
X001793D01*
Y012778D01*
X002906D01*
Y014206D01*
D02*
G37*
%LPD*%
G36*
X005642Y020642D02*
X005747Y020562D01*
X005869Y020511D01*
X006Y020494D01*
X00605D01*
X006181Y020511D01*
X006285Y020554D01*
X006315Y020512D01*
X006236Y020419D01*
X006113Y020219D01*
X006023Y020001D01*
X005968Y019772D01*
X005949Y019537D01*
Y019306D01*
X0058D01*
Y019509D01*
X005507D01*
Y020712D01*
X005553Y020731D01*
X005642Y020642D01*
D02*
G37*
%LPC*%
G36*
X020796Y02198D02*
X02051D01*
Y021763D01*
X020796D01*
Y02198D01*
D02*
G37*
G36*
X02041D02*
X020124D01*
Y021763D01*
X02041D01*
Y02198D01*
D02*
G37*
G36*
X02255Y022685D02*
X022165D01*
Y0223D01*
X02255D01*
Y022685D01*
D02*
G37*
G36*
X024887Y017996D02*
X02467D01*
Y01771D01*
X024887D01*
Y017996D01*
D02*
G37*
G36*
Y01761D02*
X02467D01*
Y017324D01*
X024887D01*
Y01761D01*
D02*
G37*
G36*
X026415Y017641D02*
X02605D01*
Y017295D01*
X026415D01*
Y017641D01*
D02*
G37*
G36*
X02595D02*
X025585D01*
Y017295D01*
X02595D01*
Y017641D01*
D02*
G37*
G36*
X038436Y01684D02*
X037992D01*
Y016396D01*
X038436D01*
Y01684D01*
D02*
G37*
G36*
X032452D02*
X032008D01*
Y016396D01*
X032452D01*
Y01684D01*
D02*
G37*
G36*
X037892D02*
X037448D01*
Y016396D01*
X037892D01*
Y01684D01*
D02*
G37*
G36*
X031908D02*
X031464D01*
Y016396D01*
X031908D01*
Y01684D01*
D02*
G37*
G36*
X037892Y0148D02*
X037448D01*
Y014357D01*
X037892D01*
Y0148D01*
D02*
G37*
G36*
X035444D02*
X035D01*
Y014357D01*
X035444D01*
Y0148D01*
D02*
G37*
G36*
X0349D02*
X034456D01*
Y014357D01*
X0349D01*
Y0148D01*
D02*
G37*
G36*
X032452D02*
X032008D01*
Y014357D01*
X032452D01*
Y0148D01*
D02*
G37*
G36*
X037892Y013848D02*
X037448D01*
Y013404D01*
X037892D01*
Y013848D01*
D02*
G37*
G36*
X03694D02*
X036496D01*
Y013404D01*
X03694D01*
Y013848D01*
D02*
G37*
G36*
X036396D02*
X035952D01*
Y013404D01*
X036396D01*
Y013848D01*
D02*
G37*
G36*
X033948D02*
X033504D01*
Y013404D01*
X033948D01*
Y013848D01*
D02*
G37*
G36*
X033404D02*
X03296D01*
Y013404D01*
X033404D01*
Y013848D01*
D02*
G37*
G36*
X032452D02*
X032008D01*
Y013404D01*
X032452D01*
Y013848D01*
D02*
G37*
G36*
X037892Y013304D02*
X037448D01*
Y01286D01*
X037892D01*
Y013304D01*
D02*
G37*
G36*
X03694D02*
X036496D01*
Y01286D01*
X03694D01*
Y013304D01*
D02*
G37*
G36*
X036396D02*
X035952D01*
Y01286D01*
X036396D01*
Y013304D01*
D02*
G37*
G36*
X033948D02*
X033504D01*
Y01286D01*
X033948D01*
Y013304D01*
D02*
G37*
G36*
X033404D02*
X03296D01*
Y01286D01*
X033404D01*
Y013304D01*
D02*
G37*
G36*
X032452D02*
X032008D01*
Y01286D01*
X032452D01*
Y013304D01*
D02*
G37*
G36*
X037892Y012431D02*
X037448D01*
Y011987D01*
X037892D01*
Y012431D01*
D02*
G37*
G36*
X035444Y012352D02*
X035D01*
Y011908D01*
X035444D01*
Y012352D01*
D02*
G37*
G36*
X0349D02*
X034456D01*
Y011908D01*
X0349D01*
Y012352D01*
D02*
G37*
G36*
X032452D02*
X032008D01*
Y011908D01*
X032452D01*
Y012352D01*
D02*
G37*
G36*
X037892Y011887D02*
X037448D01*
Y011443D01*
X037892D01*
Y011887D01*
D02*
G37*
G36*
X035444Y011808D02*
X035D01*
Y011364D01*
X035444D01*
Y011808D01*
D02*
G37*
G36*
X0349D02*
X034456D01*
Y011364D01*
X0349D01*
Y011808D01*
D02*
G37*
G36*
X032452D02*
X032008D01*
Y011364D01*
X032452D01*
Y011808D01*
D02*
G37*
G36*
X033948Y010856D02*
X033504D01*
Y010412D01*
X033948D01*
Y010856D01*
D02*
G37*
G36*
X038436D02*
X037992D01*
Y010412D01*
X038436D01*
Y010856D01*
D02*
G37*
G36*
X03694D02*
X036496D01*
Y010412D01*
X03694D01*
Y010856D01*
D02*
G37*
G36*
X035444D02*
X035D01*
Y010412D01*
X035444D01*
Y010856D01*
D02*
G37*
G36*
X032452D02*
X032008D01*
Y010412D01*
X032452D01*
Y010856D01*
D02*
G37*
G36*
X031908D02*
X031464D01*
Y010412D01*
X031908D01*
Y010856D01*
D02*
G37*
G36*
X033404D02*
X03296D01*
Y010412D01*
X033404D01*
Y010856D01*
D02*
G37*
G36*
X037892D02*
X037448D01*
Y010412D01*
X037892D01*
Y010856D01*
D02*
G37*
G36*
X036396D02*
X035952D01*
Y010412D01*
X036396D01*
Y010856D01*
D02*
G37*
G36*
X0349D02*
X034456D01*
Y010412D01*
X0349D01*
Y010856D01*
D02*
G37*
G36*
X032452Y010312D02*
X032008D01*
Y009868D01*
X032452D01*
Y010312D01*
D02*
G37*
G36*
X031908D02*
X031464D01*
Y009868D01*
X031908D01*
Y010312D01*
D02*
G37*
G36*
X037892D02*
X037448D01*
Y009868D01*
X037892D01*
Y010312D01*
D02*
G37*
G36*
X00798Y0146D02*
X007437D01*
Y014215D01*
X00798D01*
Y0146D01*
D02*
G37*
G36*
X007337D02*
X006795D01*
Y014215D01*
X007337D01*
Y0146D01*
D02*
G37*
G36*
X009585Y014185D02*
X0092D01*
Y0138D01*
X009585D01*
Y014185D01*
D02*
G37*
G36*
X0091D02*
X008715D01*
Y0138D01*
X0091D01*
Y014185D01*
D02*
G37*
G36*
X009585Y0137D02*
X0092D01*
Y013316D01*
X009585D01*
Y0137D01*
D02*
G37*
G36*
X0091D02*
X008715D01*
Y013316D01*
X0091D01*
Y0137D01*
D02*
G37*
G36*
X011243Y013559D02*
X011194D01*
Y01321D01*
X011445D01*
Y013357D01*
X01143Y013434D01*
X011386Y0135D01*
X01132Y013544D01*
X011243Y013559D01*
D02*
G37*
G36*
X011094D02*
X011046D01*
X010969Y013544D01*
X010903Y0135D01*
X010859Y013434D01*
X010844Y013357D01*
Y01321D01*
X011094D01*
Y013559D01*
D02*
G37*
G36*
X011445Y01311D02*
X011194D01*
Y012761D01*
X011243D01*
X01132Y012776D01*
X011386Y01282D01*
X01143Y012886D01*
X011445Y012963D01*
Y01311D01*
D02*
G37*
G36*
X011094D02*
X010844D01*
Y012963D01*
X010859Y012886D01*
X010903Y01282D01*
X010969Y012776D01*
X011046Y012761D01*
X011094D01*
Y01311D01*
D02*
G37*
G36*
X009844Y01268D02*
X009007D01*
Y012D01*
X009844D01*
Y01268D01*
D02*
G37*
G36*
X008907D02*
X008069D01*
Y012D01*
X008907D01*
Y01268D01*
D02*
G37*
G36*
X011263Y011885D02*
X01072D01*
Y0115D01*
X011263D01*
Y011885D01*
D02*
G37*
G36*
X009844Y0119D02*
X009007D01*
Y01122D01*
X009844D01*
Y0119D01*
D02*
G37*
G36*
X008907D02*
X008069D01*
Y01122D01*
X008907D01*
Y0119D01*
D02*
G37*
G36*
X011905Y0114D02*
X011363D01*
Y011015D01*
X011905D01*
Y0114D01*
D02*
G37*
G36*
X011263D02*
X01072D01*
Y011015D01*
X011263D01*
Y0114D01*
D02*
G37*
G36*
X01225Y008678D02*
X011924D01*
Y008392D01*
X01225D01*
Y008678D01*
D02*
G37*
G36*
X011824D02*
X011498D01*
Y008392D01*
X011824D01*
Y008678D01*
D02*
G37*
G36*
X012078Y008274D02*
X011791D01*
Y007949D01*
X012078D01*
Y008274D01*
D02*
G37*
G36*
Y007849D02*
X011791D01*
Y007523D01*
X012078D01*
Y007849D01*
D02*
G37*
G36*
X011124Y004624D02*
X010799D01*
Y004338D01*
X011124D01*
Y004624D01*
D02*
G37*
G36*
X021987Y017996D02*
X02177D01*
Y01771D01*
X021987D01*
Y017996D01*
D02*
G37*
G36*
Y01761D02*
X02177D01*
Y017324D01*
X021987D01*
Y01761D01*
D02*
G37*
G36*
X01738Y015844D02*
X0167D01*
Y015007D01*
X01738D01*
Y015844D01*
D02*
G37*
G36*
X0166D02*
X01592D01*
Y015007D01*
X0166D01*
Y015844D01*
D02*
G37*
G36*
X015035Y014535D02*
X01465D01*
Y01415D01*
X015035D01*
Y014535D01*
D02*
G37*
G36*
X0166Y014907D02*
X01592D01*
Y014069D01*
X0166D01*
Y014907D01*
D02*
G37*
G36*
X015035Y01405D02*
X01465D01*
Y013666D01*
X015035D01*
Y01405D01*
D02*
G37*
G36*
X01455D02*
X014165D01*
Y013666D01*
X01455D01*
Y01405D01*
D02*
G37*
G36*
X015035Y013184D02*
X01465D01*
Y0128D01*
X015035D01*
Y013184D01*
D02*
G37*
G36*
X01455D02*
X014165D01*
Y0128D01*
X01455D01*
Y013184D01*
D02*
G37*
G36*
X015035Y0127D02*
X01465D01*
Y012315D01*
X015035D01*
Y0127D01*
D02*
G37*
G36*
X01455D02*
X014165D01*
Y012315D01*
X01455D01*
Y0127D01*
D02*
G37*
G36*
X027947Y013537D02*
X027553D01*
X02755Y013537D01*
X027546Y013537D01*
X027542Y013536D01*
X027539Y013535D01*
X027535Y013535D01*
X027532Y013534D01*
X027528Y013532D01*
X027525Y013531D01*
X027522Y013529D01*
X027519Y013528D01*
X027516Y013526D01*
X027513Y013524D01*
X02751Y013522D01*
X027507Y013519D01*
X027504Y013517D01*
X027502Y013514D01*
X0275Y013511D01*
X027497Y013509D01*
X027495Y013506D01*
X027493Y013503D01*
X027492Y013499D01*
X02749Y013496D01*
X027489Y013493D01*
X027488Y013489D01*
X027487Y013486D01*
X027486Y013482D01*
X027485Y013479D01*
X027485Y013475D01*
X027484Y013472D01*
X027484Y013468D01*
X027484Y013464D01*
X027485Y013461D01*
X027485Y013457D01*
X027486Y013454D01*
X027487Y01345D01*
X027488Y013447D01*
X027489Y013443D01*
X02749Y01344D01*
X027492Y013437D01*
X027493Y013434D01*
X027495Y013431D01*
X027497Y013428D01*
X0275Y013425D01*
X027502Y013422D01*
X027504Y013419D01*
X027507Y013417D01*
X02751Y013415D01*
X027513Y013412D01*
X027516Y01341D01*
X027519Y013408D01*
X027522Y013407D01*
X027525Y013405D01*
X027528Y013404D01*
X027532Y013403D01*
X027535Y013402D01*
X027539Y013401D01*
X027542Y0134D01*
X027546Y0134D01*
X02755Y013399D01*
X027553Y013399D01*
X027947D01*
X02795Y013399D01*
X027954Y0134D01*
X027958Y0134D01*
X027961Y013401D01*
X027965Y013402D01*
X027968Y013403D01*
X027972Y013404D01*
X027975Y013405D01*
X027978Y013407D01*
X027981Y013408D01*
X027984Y01341D01*
X027987Y013412D01*
X02799Y013415D01*
X027993Y013417D01*
X027996Y013419D01*
X027998Y013422D01*
X028Y013425D01*
X028003Y013428D01*
X028005Y013431D01*
X028007Y013434D01*
X028008Y013437D01*
X02801Y01344D01*
X028011Y013443D01*
X028012Y013447D01*
X028013Y01345D01*
X028014Y013454D01*
X028015Y013457D01*
X028015Y013461D01*
X028016Y013464D01*
X028016Y013468D01*
X028016Y013472D01*
X028015Y013475D01*
X028015Y013479D01*
X028014Y013482D01*
X028013Y013486D01*
X028012Y013489D01*
X028011Y013493D01*
X02801Y013496D01*
X028008Y013499D01*
X028007Y013503D01*
X028005Y013506D01*
X028003Y013509D01*
X028Y013511D01*
X027998Y013514D01*
X027996Y013517D01*
X027993Y013519D01*
X02799Y013522D01*
X027987Y013524D01*
X027984Y013526D01*
X027981Y013528D01*
X027978Y013529D01*
X027975Y013531D01*
X027972Y013532D01*
X027968Y013534D01*
X027965Y013535D01*
X027961Y013535D01*
X027958Y013536D01*
X027954Y013537D01*
X02795Y013537D01*
X027947Y013537D01*
D02*
G37*
G36*
Y010722D02*
X027553D01*
X02755Y010722D01*
X027546Y010722D01*
X027542Y010721D01*
X027539Y010721D01*
X027535Y01072D01*
X027532Y010719D01*
X027528Y010717D01*
X027525Y010716D01*
X027522Y010715D01*
X027519Y010713D01*
X027516Y010711D01*
X027513Y010709D01*
X02751Y010707D01*
X027507Y010704D01*
X027504Y010702D01*
X027502Y010699D01*
X0275Y010697D01*
X027497Y010694D01*
X027495Y010691D01*
X027493Y010688D01*
X027492Y010684D01*
X02749Y010681D01*
X027489Y010678D01*
X027488Y010674D01*
X027487Y010671D01*
X027486Y010667D01*
X027485Y010664D01*
X027485Y01066D01*
X027484Y010657D01*
X027484Y010653D01*
X027484Y01065D01*
X027485Y010646D01*
X027485Y010642D01*
X027486Y010639D01*
X027487Y010635D01*
X027488Y010632D01*
X027489Y010628D01*
X02749Y010625D01*
X027492Y010622D01*
X027493Y010619D01*
X027495Y010616D01*
X027497Y010613D01*
X0275Y01061D01*
X027502Y010607D01*
X027504Y010604D01*
X027507Y010602D01*
X02751Y0106D01*
X027513Y010597D01*
X027516Y010595D01*
X027519Y010593D01*
X027522Y010592D01*
X027525Y01059D01*
X027528Y010589D01*
X027532Y010588D01*
X027535Y010587D01*
X027539Y010586D01*
X027542Y010585D01*
X027546Y010585D01*
X02755Y010584D01*
X027553Y010584D01*
X027947D01*
X02795Y010584D01*
X027954Y010585D01*
X027958Y010585D01*
X027961Y010586D01*
X027965Y010587D01*
X027968Y010588D01*
X027972Y010589D01*
X027975Y01059D01*
X027978Y010592D01*
X027981Y010593D01*
X027984Y010595D01*
X027987Y010597D01*
X02799Y0106D01*
X027993Y010602D01*
X027996Y010604D01*
X027998Y010607D01*
X028Y01061D01*
X028003Y010613D01*
X028005Y010616D01*
X028007Y010619D01*
X028008Y010622D01*
X02801Y010625D01*
X028011Y010628D01*
X028012Y010632D01*
X028013Y010635D01*
X028014Y010639D01*
X028015Y010642D01*
X028015Y010646D01*
X028016Y01065D01*
X028016Y010653D01*
X028016Y010657D01*
X028015Y01066D01*
X028015Y010664D01*
X028014Y010667D01*
X028013Y010671D01*
X028012Y010674D01*
X028011Y010678D01*
X02801Y010681D01*
X028008Y010684D01*
X028007Y010688D01*
X028005Y010691D01*
X028003Y010694D01*
X028Y010697D01*
X027998Y010699D01*
X027996Y010702D01*
X027993Y010704D01*
X02799Y010707D01*
X027987Y010709D01*
X027984Y010711D01*
X027981Y010713D01*
X027978Y010715D01*
X027975Y010716D01*
X027972Y010717D01*
X027968Y010719D01*
X027965Y01072D01*
X027961Y010721D01*
X027958Y010721D01*
X027954Y010722D01*
X02795Y010722D01*
X027947Y010722D01*
D02*
G37*
G36*
X026299Y007524D02*
X025973D01*
Y007238D01*
X026299D01*
Y007524D01*
D02*
G37*
G36*
X025624Y005827D02*
X025338D01*
Y005501D01*
X025624D01*
Y005827D01*
D02*
G37*
G36*
Y002701D02*
X025338D01*
Y002376D01*
X025624D01*
Y002701D01*
D02*
G37*
G36*
X037062Y003524D02*
X036776D01*
Y003199D01*
X037062D01*
Y003524D01*
D02*
G37*
G36*
X020065Y013405D02*
X0197D01*
Y013059D01*
X020065D01*
Y013405D01*
D02*
G37*
G36*
Y012959D02*
X0197D01*
Y012614D01*
X020065D01*
Y012959D01*
D02*
G37*
G36*
X022785Y011685D02*
X0224D01*
Y0113D01*
X022785D01*
Y011685D01*
D02*
G37*
G36*
X0223D02*
X021916D01*
Y0113D01*
X0223D01*
Y011685D01*
D02*
G37*
G36*
X022785Y0112D02*
X0224D01*
Y010815D01*
X022785D01*
Y0112D01*
D02*
G37*
G36*
X0223D02*
X021916D01*
Y010815D01*
X0223D01*
Y0112D01*
D02*
G37*
G36*
X022385Y008299D02*
Y007934D01*
X022711D01*
Y008299D01*
X022385D01*
D02*
G37*
G36*
X022711Y007834D02*
X022385D01*
Y007469D01*
X022711D01*
Y007834D01*
D02*
G37*
G36*
X021926Y008514D02*
X019745D01*
Y007254D01*
X020405D01*
X020678Y006982D01*
Y006938D01*
X02071Y006818D01*
X020772Y00671D01*
X02086Y006622D01*
X020968Y00656D01*
X021088Y006528D01*
X021212D01*
X021332Y00656D01*
X02144Y006622D01*
X021528Y00671D01*
X02159Y006818D01*
X021622Y006938D01*
Y007062D01*
X02159Y007182D01*
X021574Y007211D01*
X021599Y007254D01*
X021926D01*
Y007433D01*
X02196Y007469D01*
X021976Y007469D01*
X022285D01*
Y007884D01*
Y008299D01*
X021976D01*
X02196Y008299D01*
X021926Y008335D01*
Y008514D01*
D02*
G37*
G36*
X03845Y0012D02*
X03805D01*
Y0008D01*
X038059D01*
X038174Y000831D01*
X038276Y00089D01*
X03836Y000974D01*
X038419Y001076D01*
X03845Y001191D01*
Y0012D01*
D02*
G37*
%LPD*%
D12*
X00407Y008259D02*
X005Y007329D01*
Y0073D02*
Y007329D01*
X0318Y008D02*
X0318D01*
X03315Y00665D01*
X039871Y0102D02*
X040256Y009816D01*
Y008806D02*
Y009816D01*
X027837Y012061D02*
X028711D01*
X0292Y012228D02*
Y012237D01*
X029265Y012301D02*
Y012315D01*
X028711Y012061D02*
X029606Y012956D01*
X030226D01*
X0292Y012237D02*
X029265Y012301D01*
Y012315D02*
X029513Y012563D01*
X030226D01*
X027838Y01155D02*
X029D01*
X029619Y012169D02*
X030226D01*
X029Y01155D02*
X029619Y012169D01*
X029037Y01305D02*
X029045Y013058D01*
X029208D02*
X0295Y01335D01*
X030226D01*
X029045Y013058D02*
X029208D01*
X029994Y010594D02*
X030226D01*
X027Y003368D02*
Y0076D01*
X029994Y010594D01*
X02885Y01105D02*
X029575Y011775D01*
X02365Y01125D02*
X02385Y01105D01*
X02885D01*
X02365Y002269D02*
Y01125D01*
X025332Y008322D02*
X026349D01*
X026535Y008508D02*
X026609D01*
X026349Y008322D02*
X026535Y008508D01*
X029481Y011381D02*
X030226D01*
X026609Y008508D02*
X029481Y011381D01*
X04351Y013326D02*
X043535Y013351D01*
X030226Y012169D02*
X030422D01*
X029575Y011775D02*
X030226D01*
X031387Y0156D02*
X031499Y015712D01*
X039674D01*
X031329Y0156D02*
X031387D01*
X03793Y01035D02*
X03795D01*
X007909Y00945D02*
X0104D01*
X01965Y014191D02*
X020749D01*
X02079Y01415D01*
X032824Y003889D02*
X032941D01*
X033058Y003772D01*
X032813Y0039D02*
X032824Y003889D01*
X0318Y0039D02*
X032813D01*
X00405Y007041D02*
Y008259D01*
X00407D01*
X00405Y002241D02*
Y003259D01*
X00495Y00285D02*
X0061Y0017D01*
X004491Y002241D02*
X004909Y002659D01*
Y002809D01*
X00495Y00285D01*
X00405Y002241D02*
X004491D01*
X00935Y0027D02*
X010609D01*
X010711Y002802D01*
X009609Y0017D02*
X010609Y0027D01*
X010711Y002802D02*
X01075D01*
X0061Y0017D02*
X009609D01*
X006609Y001168D02*
X006668Y001109D01*
X006417Y001276D02*
X006541D01*
X006668Y001109D02*
X008509D01*
X006541Y001276D02*
X006609Y001208D01*
Y001168D02*
Y001208D01*
X00405Y001059D02*
X004868D01*
X005459Y00165D01*
X010749Y005422D02*
Y00629D01*
X01085Y006392D01*
Y00645D01*
X01405Y007D02*
X014061Y006989D01*
X014Y00705D02*
X01405Y007D01*
X014041Y006992D02*
X014099Y00705D01*
X016086Y003095D02*
Y003486D01*
X0161Y0035D01*
X015841Y00285D02*
X016086Y003095D01*
X01405Y003479D02*
Y0035D01*
X013441Y00285D02*
Y00287D01*
X01405Y003479D01*
X011437Y00345D02*
X0118D01*
X010789Y002802D02*
X011437Y00345D01*
X01075Y002802D02*
X010789D01*
X01005Y00395D02*
Y00505D01*
X008636Y002536D02*
X01005Y00395D01*
X009645Y004195D02*
X00965Y0042D01*
X007862Y004195D02*
X009645D01*
X0155Y0183D02*
X016799Y019599D01*
X0155Y01735D02*
Y0183D01*
X016999Y019599D02*
X0171Y0197D01*
X016799Y019599D02*
X016999D01*
X008195Y002536D02*
X008636D01*
X010879Y007429D02*
X0109Y00745D01*
X008358Y007429D02*
X010879D01*
X008478Y008014D02*
X008642Y00785D01*
X00792Y006991D02*
X008358Y007429D01*
X008642Y00785D02*
X0087D01*
X0079Y005809D02*
X008681D01*
X008481Y003259D02*
X00885Y003629D01*
X008681Y005809D02*
X0089Y006029D01*
X007783Y004274D02*
X007862Y004195D01*
X0089Y006029D02*
X010142D01*
X010749Y005422D01*
X006541Y004274D02*
X006609Y004342D01*
Y004391D01*
X006668Y00445D01*
X007941D02*
X00795Y004441D01*
X006417Y004274D02*
X006541D01*
X006668Y00445D02*
X007941D01*
X006541Y006026D02*
X006717Y00585D01*
X007859D01*
X006417Y006026D02*
X006541D01*
X007859Y00585D02*
X0079Y005809D01*
X006659Y009342D02*
Y009382D01*
X006718Y009441D01*
X0079D01*
X006467Y009274D02*
X006591D01*
X006659Y009342D01*
X0079Y009441D02*
X007909Y00945D01*
X006717Y0084D02*
X007759D01*
X006591Y008526D02*
X006717Y0084D01*
X006467Y008526D02*
X006591D01*
X007759Y0084D02*
X008145Y008014D01*
X006417Y002024D02*
X006541D01*
X007809Y00215D02*
X008195Y002536D01*
X006667Y00215D02*
X007809D01*
X006541Y002024D02*
X006667Y00215D01*
X006609Y003453D02*
Y003458D01*
Y003453D02*
X006713Y00335D01*
X006417Y003526D02*
X006541D01*
X006713Y00335D02*
X007859D01*
X00795Y003259D01*
X006541Y003526D02*
X006609Y003458D01*
X00795Y003259D02*
X008481D01*
X008509Y001109D02*
X00875Y00135D01*
X008145Y008014D02*
X008478D01*
X0163Y00705D02*
X0214Y00195D01*
X014099Y00705D02*
X015677D01*
X0163D01*
X010749Y004674D02*
X010935Y00486D01*
X01101D02*
X01155Y0054D01*
X010935Y00486D02*
X01101D01*
X01155Y0054D02*
Y007321D01*
X012128Y007899D01*
X01525Y0075D02*
X0167Y00895D01*
X0247Y01295D02*
X026281Y014531D01*
X030226D01*
X01475Y006041D02*
Y00665D01*
X014659Y00595D02*
X01475Y006041D01*
X012259Y00597D02*
X0159Y00961D01*
X016Y00971D01*
X013226Y009472D02*
X013259Y009505D01*
X015145D01*
X012259Y00595D02*
Y00597D01*
X014Y00705D02*
Y00705D01*
X01835Y0114D01*
Y01485D01*
X01585Y005959D02*
Y006877D01*
X015841Y00595D02*
X01585Y005959D01*
X015677Y00705D02*
X01585Y006877D01*
X0132Y005709D02*
X01355Y006059D01*
X03293Y00607D02*
X03295D01*
X031409Y02113D02*
X031626Y021347D01*
X01355Y006059D02*
Y0066D01*
X014Y00705D01*
X010749Y003551D02*
Y004674D01*
Y003551D02*
X01075Y00355D01*
X0122Y0016D02*
Y002791D01*
X012Y0014D02*
X0122Y0016D01*
Y002791D02*
X012259Y00285D01*
X030178Y00624D02*
X0302Y006262D01*
Y0068D01*
X030019Y003031D02*
Y004D01*
Y003031D02*
X03005Y003D01*
X03045Y00125D02*
Y0026D01*
X03005Y003D02*
X03045Y0026D01*
X028765Y003486D02*
Y004485D01*
X0285Y00475D02*
X028765Y004485D01*
X028679Y0034D02*
X028765Y003486D01*
X028641Y0034D02*
X028679D01*
X030548Y004672D02*
X0312Y00402D01*
Y004D02*
Y00402D01*
X030548Y004672D02*
Y005258D01*
X031275Y003075D02*
Y003925D01*
X0312Y004D02*
X031275Y003925D01*
X03245Y00125D02*
Y0019D01*
X03135Y003D02*
X03245Y0019D01*
X03306Y00164D02*
X03345Y00125D01*
X03306Y00164D02*
Y003028D01*
X0341Y003456D02*
Y004909D01*
X034042Y003398D02*
X0341Y003456D01*
X0318Y004909D02*
X031959Y00475D01*
X03295D01*
X030922Y005768D02*
Y006242D01*
Y005768D02*
X03178Y004909D01*
X03178D01*
X03297Y00607D02*
X03408D01*
X03295Y00605D02*
X03297Y00607D01*
X03185Y00715D02*
X032909Y006091D01*
X0318D02*
X032909D01*
X03293Y00607D01*
X0296Y00715D02*
X03185D01*
X0285Y00605D02*
X0296Y00715D01*
X02785Y00269D02*
X02848Y002059D01*
X02785Y00269D02*
Y0054D01*
X02848Y002059D02*
X02848D01*
X02785Y0054D02*
X0285Y00605D01*
X028421Y002D02*
X02848Y002059D01*
X0273Y002D02*
X028421D01*
X023959Y00035D02*
X024944Y001335D01*
X021862Y00035D02*
X023959D01*
X021335Y000876D02*
X021862Y00035D01*
X01942Y022409D02*
X019665Y022655D01*
X0194Y022409D02*
X01942D01*
X019765Y022774D02*
X020458D01*
X019665Y022674D02*
X019765Y022774D01*
X019665Y022655D02*
Y022674D01*
X020458Y022774D02*
X020475D01*
X020524Y022823D02*
Y023624D01*
X020475Y022774D02*
X020524Y022823D01*
X02135Y023702D02*
Y024648D01*
X021272Y023624D02*
X02135Y023702D01*
X022302Y0256D02*
X02245D01*
X02135Y024648D02*
X022302Y0256D01*
X02185Y02425D02*
X0223Y0247D01*
X02185Y02275D02*
Y02425D01*
X0223Y0247D02*
X023D01*
X023512Y024188D02*
X023564D01*
X023Y0247D02*
X023512Y024188D01*
X02185Y02275D02*
X0221D01*
X0211D02*
X02185D01*
X0226Y02355D02*
Y02435D01*
X023564Y024188D02*
X02375Y024002D01*
X030391Y02425D02*
X031359D01*
X030391D02*
X030485Y024344D01*
Y024885D01*
X0271Y024291D02*
Y02495D01*
X027059Y02425D02*
X0271Y024291D01*
X026041Y02425D02*
X027059D01*
X029209Y02427D02*
X03149Y02655D01*
X03155D01*
X028241Y02427D02*
X030521Y02655D01*
X028241Y02423D02*
Y02425D01*
Y02427D01*
X030521Y02655D02*
X03055D01*
X023129Y025821D02*
X023524Y025426D01*
Y024936D02*
Y025426D01*
X023129Y025821D02*
Y025829D01*
X024386Y025386D02*
X026664D01*
X02375Y02475D02*
X023789D01*
X023976Y024936D02*
Y024976D01*
X024386Y025386D01*
X023789Y02475D02*
X023976Y024936D01*
X026664Y025386D02*
X0271Y02495D01*
X024859Y02427D02*
X02569Y0251D01*
X023711Y02475D02*
X02375D01*
X023524Y024936D02*
X023711Y02475D01*
X0226Y02355D02*
X02345Y0227D01*
Y0219D02*
Y0227D01*
X041732Y00195D02*
X042159Y001522D01*
X036Y00125D02*
X0367Y00195D01*
X041732D01*
X042159Y001522D02*
Y002219D01*
X03465Y00165D02*
X03595Y00035D01*
X042774D01*
X042976Y000552D01*
X043162Y000778D02*
X043241D01*
X042976Y000591D02*
X043162Y000778D01*
X042976Y000552D02*
Y000591D01*
X041684Y00125D02*
X042159Y000774D01*
X042199D01*
X038Y00125D02*
X041684D01*
X042385Y00096D02*
X042597D01*
X043162Y001526D02*
X043201D01*
X042597Y00096D02*
X043162Y001526D01*
X042199Y000774D02*
X042385Y00096D01*
X043241Y000778D02*
X04465Y002187D01*
Y00305D01*
X043046Y006041D02*
X043502Y005585D01*
X04255Y006041D02*
X043046D01*
X043159Y002609D02*
X0435Y00295D01*
X04255Y002609D02*
X043159D01*
X04253D02*
X04255D01*
X042285Y002364D02*
X04253Y002609D01*
X042285Y002344D02*
Y002364D01*
X042159Y002219D02*
X042285Y002344D01*
X03943Y003791D02*
X03945D01*
X0352Y0025D02*
X03814D01*
X03943Y003791D01*
Y005991D02*
X03945D01*
X039185Y004036D02*
Y004036D01*
Y004036D02*
X03943Y003791D01*
X0389Y004321D02*
X039185Y004036D01*
X0389Y00546D02*
X03943Y005991D01*
X0389Y004321D02*
Y00546D01*
X039567Y005874D02*
X040683D01*
X03945Y005991D02*
X039567Y005874D01*
X040441Y022259D02*
X0406Y0221D01*
X040441Y022259D02*
Y0234D01*
X040392Y023448D02*
X040441Y0234D01*
X040392Y023448D02*
Y024578D01*
X040576Y025439D02*
Y025826D01*
X040459Y025322D02*
X040576Y025439D01*
Y025826D02*
X04145Y0267D01*
X04265Y019359D02*
X043841D01*
X0448Y0184D01*
X04135Y020467D02*
X043733D01*
X0448Y0194D01*
X04085Y0169D02*
Y017521D01*
X040878Y017549D01*
X040909Y01758D01*
Y01845D01*
X040976Y018517D01*
Y019633D01*
X044591Y0217D02*
X04465Y021759D01*
X0439Y0217D02*
X044591D01*
X04465Y021759D02*
X04467D01*
X044915Y022005D01*
Y022024D01*
X04545Y022559D01*
Y02445D01*
X044935Y024965D02*
X04545Y02445D01*
X04465Y02525D02*
X044935Y024965D01*
Y024965D02*
Y024965D01*
X044471Y023772D02*
X04465Y02395D01*
X044471Y023119D02*
Y023772D01*
Y023119D02*
X04465Y022941D01*
X044009Y0223D02*
X04465Y022941D01*
X041819Y023285D02*
Y02375D01*
X042126Y022978D02*
X042135D01*
X042252Y022792D02*
Y022861D01*
X041819Y023285D02*
X042126Y022978D01*
X042135D02*
X042252Y022861D01*
X041819Y024918D02*
X04195Y02505D01*
X042Y0251D01*
X041819Y02375D02*
Y024918D01*
X042Y02625D02*
X04245Y0267D01*
X042Y0251D02*
Y02625D01*
X04325Y02505D02*
X04345Y02525D01*
Y0267D01*
X043Y02375D02*
Y02377D01*
X04325Y024019D02*
Y02505D01*
X043Y02377D02*
X04325Y024019D01*
X042064Y021994D02*
X04237Y0223D01*
X044009D01*
X041878Y021877D02*
X041995Y021994D01*
X042064D01*
X041878Y021808D02*
Y021877D01*
X0423Y021581D02*
X042326D01*
X042369Y021624D01*
X042505D01*
X039259Y0234D02*
X039292Y023433D01*
Y024192D01*
X039259Y022141D02*
X0393Y0221D01*
X039241Y022159D02*
X039259Y022141D01*
X0381Y022159D02*
X039241D01*
X039259Y022141D02*
Y0234D01*
X039222Y024835D02*
Y024835D01*
X038365Y023978D02*
X039222Y024835D01*
X038365Y023586D02*
Y023978D01*
X039222Y024835D02*
X039339Y024952D01*
X03812Y023341D02*
X038365Y023586D01*
X0381Y023341D02*
X03812D01*
X039339Y024952D02*
X039408D01*
X036622Y023574D02*
Y023613D01*
X03731Y024301D01*
Y0256D01*
X035858Y022724D02*
X035874Y02274D01*
Y023574D01*
X035791Y023491D02*
X035866Y023566D01*
X0345Y023491D02*
X035791D01*
X03455Y0242D02*
X0364D01*
X031626Y021347D02*
Y022383D01*
X028047Y022191D02*
X0282Y022037D01*
Y021191D02*
Y022037D01*
X029259Y02115D02*
Y02117D01*
X028791Y021638D02*
X029259Y02117D01*
X028042Y022191D02*
X028047D01*
X027974Y022259D02*
X028042Y022191D01*
X027974Y022259D02*
Y022383D01*
X02345Y0219D02*
X02415Y0212D01*
X024809D01*
X024859Y02115D01*
X025076Y021367D02*
Y022383D01*
X024859Y02115D02*
X025076Y021367D01*
X026591Y021638D02*
X027059Y02117D01*
Y02115D02*
Y02117D01*
X027226Y021317D02*
Y022383D01*
X027059Y02115D02*
X027226Y021317D01*
X029426D02*
Y022383D01*
X029259Y02115D02*
X029426Y021317D01*
X0318Y018074D02*
Y018271D01*
X031478Y018594D02*
Y020249D01*
Y018594D02*
X0318Y018271D01*
X032226Y020209D02*
X032588Y019847D01*
Y018074D02*
Y019847D01*
X032226Y020209D02*
Y020249D01*
X031409Y02113D02*
Y02115D01*
Y02113D02*
X03204Y0205D01*
Y020435D02*
Y0205D01*
Y020435D02*
X032226Y020249D01*
X031409Y02115D02*
Y02117D01*
X030941Y021638D02*
X031409Y02117D01*
X031934Y0188D02*
X032194Y018539D01*
X0319Y0188D02*
X031934D01*
X0276Y023217D02*
Y02359D01*
X027807Y023797D01*
X027807D01*
X028241Y02423D01*
X029209Y02425D02*
Y02427D01*
Y02425D02*
X029298Y024162D01*
Y023844D02*
Y024162D01*
X024859Y02423D02*
Y02427D01*
Y02423D02*
X02545Y02364D01*
Y023217D02*
Y02364D01*
X029732Y023409D02*
X029732D01*
X0298Y023341D01*
Y023217D02*
Y023341D01*
X030174Y021436D02*
Y022383D01*
Y021436D02*
X030441Y02117D01*
Y02115D02*
Y02117D01*
Y02115D02*
X030686Y020905D01*
X032374Y021347D02*
X032591Y02113D01*
X032836Y020885D01*
X032856D01*
X032982Y020759D01*
X032Y023217D02*
X032061Y023279D01*
Y023511D01*
X032374Y021347D02*
Y022383D01*
X029298Y023844D02*
X029732Y023409D01*
X032061Y023511D02*
X032394Y023844D01*
Y024103D01*
X032541Y02425D01*
Y02423D02*
X03255Y02424D01*
X025824Y022383D02*
X025892Y022315D01*
Y022158D02*
Y022315D01*
Y022158D02*
X026041Y022009D01*
Y02113D02*
Y022009D01*
Y02113D02*
X027121Y02005D01*
X028241Y020309D02*
Y02115D01*
Y020309D02*
X0285Y02005D01*
X030686Y020222D02*
Y020905D01*
Y020222D02*
X03075Y020158D01*
X032982Y018074D02*
Y020759D01*
X03255Y02424D02*
Y02655D01*
X015841Y005115D02*
Y00595D01*
X01565Y004924D02*
X015841Y005115D01*
X01565Y0048D02*
Y004924D01*
X014659Y005167D02*
X014902Y004924D01*
X014659Y005167D02*
Y00595D01*
X014902Y0048D02*
Y004924D01*
X015276Y003486D02*
Y003965D01*
X014659Y00285D02*
Y00287D01*
X015276Y003486D01*
X0128Y00341D02*
Y003983D01*
X012259Y00287D02*
X0128Y00341D01*
X0132Y004843D02*
Y005709D01*
X013174Y004817D02*
X0132Y004843D01*
X012426Y004817D02*
Y005783D01*
X012259Y00595D02*
X012426Y005783D01*
X014414Y002585D02*
X014659Y00283D01*
X013311Y001501D02*
X014394Y002585D01*
X013Y0014D02*
X013101Y001501D01*
X014659Y00283D02*
Y00285D01*
X013101Y001501D02*
X013311D01*
X014394Y002585D02*
X014414D01*
X038335Y005438D02*
X038377D01*
X038444Y003227D02*
Y005371D01*
X038149Y005624D02*
X038335Y005438D01*
X038377D02*
X038444Y005371D01*
X038071Y002854D02*
X038444Y003227D01*
X03701Y00455D02*
Y005438D01*
X037196Y005624D01*
X037226D01*
X0381Y006421D02*
Y008626D01*
Y006421D02*
X038149Y006372D01*
X037226D02*
X038149D01*
X036324Y006376D02*
X037223D01*
X037226Y006372D01*
X03515Y00555D02*
X03627D01*
X036726Y003149D02*
X037777D01*
X038071Y002854D01*
X03627Y00555D02*
X036325Y005605D01*
X035978Y003149D02*
X036Y003171D01*
Y00455D01*
X0352Y0031D02*
X035929D01*
X035978Y003149D01*
X03615Y00755D02*
X036892Y008292D01*
Y0086D01*
X0361Y00755D02*
X03615D01*
X036892Y0086D02*
X036919Y008626D01*
X034365Y005155D02*
Y005365D01*
X037286Y008286D02*
Y0086D01*
X037312Y008626D01*
X034365Y005365D02*
X037286Y008286D01*
X03515Y00785D02*
X035737Y008437D01*
X03515Y0065D02*
Y00785D01*
X035737Y008437D02*
Y008626D01*
X0341Y004909D02*
X03412D01*
X034365Y005155D01*
X040062Y020815D02*
X040318D01*
X040884Y02025D02*
X040884D01*
X039951Y020926D02*
X040062Y020815D01*
X040318D02*
X040884Y02025D01*
X040884D02*
X04145Y019684D01*
Y017724D02*
X041626Y017549D01*
X04145Y017724D02*
Y019684D01*
X041845Y018695D02*
X042091Y01845D01*
X039951Y020926D02*
X039991D01*
X041724Y019509D02*
Y019633D01*
Y019509D02*
X041845Y019387D01*
Y018695D02*
Y019387D01*
X042091Y017241D02*
Y01845D01*
X04135Y0165D02*
X042091Y017241D01*
X039674Y0165D02*
X04135D01*
X03995Y020176D02*
X039951Y020178D01*
X03995Y0194D02*
X04025Y0191D01*
X03995Y0194D02*
Y020176D01*
X04025Y0175D02*
Y0191D01*
X03944Y02065D02*
X039912Y020178D01*
X039951D01*
X0389Y02065D02*
X03944D01*
X042505Y021624D02*
X042622Y021741D01*
X0285Y003241D02*
X02852D01*
X020391Y02203D02*
X02046D01*
X03947Y002609D02*
X040242D01*
X03945D02*
X03947D01*
X040509Y002876D02*
X040633D01*
X040242Y002609D02*
X040509Y002876D01*
X0257Y01895D02*
X02595Y0187D01*
X024572Y019735D02*
Y019774D01*
Y019735D02*
X024759Y019548D01*
X024798D01*
X025396Y01895D01*
X0257D01*
X02425Y018642D02*
Y018711D01*
X023824Y019137D02*
Y019774D01*
Y019137D02*
X02425Y018711D01*
X023876Y017315D02*
Y017658D01*
Y017315D02*
X024626Y016565D01*
Y016526D02*
Y016565D01*
X025983Y016526D02*
X025992Y016518D01*
X024626Y016526D02*
X025983D01*
X023878D02*
X0239Y016504D01*
Y01515D02*
Y016504D01*
X020688Y019648D02*
X020874Y019835D01*
X01955Y01863D02*
X019575D01*
X020593Y019648D01*
X020688D01*
X02135Y018642D02*
Y018711D01*
X021622Y018983D02*
Y019874D01*
X02135Y018711D02*
X021622Y018983D01*
X020892Y017741D02*
X020975Y017657D01*
X020974Y016574D02*
X020976Y016576D01*
Y017658D01*
X01955Y017741D02*
X020892D01*
X021722Y014378D02*
X02445Y01165D01*
X021722Y014378D02*
Y016574D01*
X041504Y01335D02*
X041528Y013326D01*
X0022Y00725D02*
X002465Y006985D01*
X003591Y005859D02*
X00407D01*
X002465Y006985D02*
X003591Y005859D01*
X002465Y006985D02*
X002465D01*
X00461Y0064D02*
X005583D01*
X00407Y005859D02*
X00461Y0064D01*
X00405Y009441D02*
X004968D01*
X005509Y0089D01*
X005633D01*
X0022Y00825D02*
X003391Y009441D01*
X00405D01*
X005459Y00165D02*
X005583D01*
X005459Y0039D02*
X005583D01*
X00405Y004441D02*
X004918D01*
X005459Y0039D01*
X002465Y002585D02*
X003745Y001305D01*
X0022Y00285D02*
X002465Y002585D01*
Y002585D02*
Y002585D01*
X003745Y001305D02*
X003805D01*
X00265Y0043D02*
X003909D01*
X0022Y00385D02*
X00265Y0043D01*
X003909D02*
X00405Y004441D01*
X003805Y001305D02*
X00405Y001059D01*
X039695Y005055D02*
X039755D01*
X039826Y005126D02*
X040683D01*
X03945Y004809D02*
X039695Y005055D01*
X039755D02*
X039826Y005126D01*
X039559Y0047D02*
X04065D01*
X03945Y004809D02*
X039559Y0047D01*
X041768Y005432D02*
X042144Y005056D01*
X041585Y005432D02*
X041768D01*
X041517Y0055D02*
X041585Y005432D01*
X042353Y005056D02*
X04255Y004859D01*
X042144Y005056D02*
X042353D01*
X041467Y00325D02*
X041535Y003318D01*
X041718D01*
X042144Y003744D01*
X042503D01*
X04255Y003791D01*
X04257Y004859D02*
X04286Y00515D01*
X04255Y004859D02*
X04257D01*
X04286Y00515D02*
X04465D01*
X04255Y003791D02*
X04257D01*
X042929Y00415D02*
X04465D01*
X04257Y003791D02*
X042929Y00415D01*
X04385Y00695D02*
X04465Y00615D01*
X027837Y011549D02*
X027838Y01155D01*
X0245Y007D02*
X025191D01*
X02525Y007059D01*
X03465Y00165D02*
Y00335D01*
X039674Y017291D02*
X039679Y017296D01*
X040046D02*
X04025Y0175D01*
X039679Y017296D02*
X040046D01*
X006758Y006991D02*
X00792D01*
X006541Y006774D02*
X006758Y006991D01*
X006417Y006774D02*
X006541D01*
X025674Y005491D02*
X026336Y006152D01*
X026347Y007572D02*
X026349Y007574D01*
X026347Y006353D02*
Y007572D01*
X026336Y006152D02*
Y006342D01*
X026347Y006353D01*
X02525Y008241D02*
X025332Y008322D01*
X022335Y000916D02*
Y000955D01*
X02365Y002269D01*
X021335Y000876D02*
Y000916D01*
X020335D02*
X02035Y00093D01*
Y00195D01*
X02115Y007D02*
Y00703D01*
X020335Y007845D02*
Y007884D01*
Y007845D02*
X02115Y00703D01*
X025674Y005451D02*
Y005491D01*
X0252Y004391D02*
X025209Y0044D01*
X0252Y0036D02*
Y004391D01*
X02635Y004441D02*
X026422Y004513D01*
Y005451D01*
Y005491D02*
X026821Y00589D01*
X026422Y005451D02*
Y005491D01*
X026391Y0016D02*
X026422Y001632D01*
Y002751D01*
Y002791D02*
X027Y003368D01*
X026422Y002751D02*
Y002791D01*
X012876Y007938D02*
X013226Y008288D01*
X012876Y007899D02*
Y007938D01*
X013226Y008288D02*
Y008724D01*
X011874Y009476D02*
X011877Y009472D01*
X013226D01*
X042622Y021741D02*
Y02181D01*
X03808Y023341D02*
X0381D01*
X037365Y022606D02*
X037835Y023076D01*
X037365Y020948D02*
Y022606D01*
X037835Y023095D02*
X03808Y023341D01*
X037835Y023076D02*
Y023095D01*
X03075Y0201D02*
Y020158D01*
X027121Y02005D02*
X027135D01*
X034578Y019128D02*
X0346Y01915D01*
X03605Y018742D02*
X036131Y018661D01*
X034578Y018096D02*
Y019128D01*
X03605Y018742D02*
Y0188D01*
X036131Y018074D02*
Y018661D01*
X021628Y022122D02*
X022926Y020824D01*
X024126D01*
X021628Y022122D02*
Y022283D01*
X021511Y0224D02*
X021628Y022283D01*
X021442Y0224D02*
X021511D01*
X032194Y018074D02*
Y018539D01*
X0407Y00695D02*
X04385D01*
X0401Y00755D02*
X0407Y00695D01*
X03947Y002609D02*
X039869Y003009D01*
X040059D01*
X0401Y00305D01*
X027837Y012572D02*
X029402Y014137D01*
X030226D01*
X029394Y013744D02*
X030226D01*
X0292Y01355D02*
X029394Y013744D01*
X024098Y01415D02*
X025848Y0159D01*
X025848D01*
X02395Y01415D02*
X024098D01*
X026821Y00589D02*
Y00778D01*
X030029Y010988D01*
X0411Y0039D02*
Y005581D01*
X04105Y00385D02*
Y00385D01*
X0411Y0039D01*
X040633Y003624D02*
X040701Y003692D01*
X040892D02*
X04105Y00385D01*
X040701Y003692D02*
X040892D01*
X040807Y005874D02*
X0411Y005581D01*
X040683Y005874D02*
X040807D01*
X036842Y020058D02*
X0381Y0188D01*
Y018074D02*
Y0188D01*
X036842Y020058D02*
Y02235D01*
X037706Y018074D02*
Y018594D01*
X0345Y0218D02*
Y022309D01*
Y0218D02*
X037706Y018594D01*
X02046Y02203D02*
X020516D01*
X03495Y0187D02*
X035813Y019563D01*
X0277Y00665D02*
Y00745D01*
X029269Y009019D01*
X030226D01*
X024503Y017846D02*
X024635Y017714D01*
X024464Y017846D02*
X024503D01*
X02221Y01815D02*
X024161D01*
X024635Y017675D02*
Y017714D01*
X024161Y01815D02*
X024464Y017846D01*
X021906D02*
X02221Y01815D01*
X02172Y01766D02*
Y017729D01*
X021837Y017846D01*
X021906D01*
X02475Y01345D02*
X026225Y014925D01*
X012876Y007899D02*
X013533D01*
X013634Y008D02*
X01365D01*
X013533Y007899D02*
X013634Y008D01*
X032588Y007712D02*
Y008626D01*
Y007712D02*
X03275Y00755D01*
X032982Y007918D02*
Y008626D01*
Y007918D02*
X0334Y0075D01*
X014659Y006D02*
Y00602D01*
X027Y01545D02*
X02835D01*
X029006Y016106D02*
X030226D01*
X02835Y01545D02*
X029006Y016106D01*
X026225Y014925D02*
X030226D01*
X0318Y008D02*
Y008626D01*
X04065Y00975D02*
X040659Y009759D01*
Y010041D01*
X040106Y010594D02*
X040659Y010041D01*
X039674Y0102D02*
X039871D01*
X039674Y010594D02*
X040106D01*
X03495Y018074D02*
Y0187D01*
X034156Y018081D02*
Y019194D01*
Y018081D02*
X034163Y018074D01*
X03415Y0192D02*
X034156Y019194D01*
X033375Y018074D02*
Y019967D01*
X034556Y018074D02*
X034578Y018096D01*
X020633Y022147D02*
Y022283D01*
X0211Y02275D01*
X020516Y02203D02*
X020633Y022147D01*
X0221Y02275D02*
X0226Y02225D01*
X033769Y018074D02*
Y019523D01*
X037706Y008001D02*
Y008626D01*
X0376Y007837D02*
Y007895D01*
X037706Y008001D01*
X024964Y001335D02*
X025209Y00158D01*
Y0016D01*
X024944Y001335D02*
X024964D01*
X030029Y010988D02*
X030226D01*
X030422Y012169D02*
X03075Y011841D01*
Y009807D02*
Y011841D01*
X0155Y024537D02*
Y02495D01*
Y024537D02*
X017143Y022894D01*
X036409Y0091D02*
X03668D01*
X03793Y01035D01*
X036131Y008822D02*
X036409Y0091D01*
X036131Y008626D02*
Y008822D01*
X039478Y010988D02*
X039674D01*
X039478Y014137D02*
X039674D01*
X031958Y010362D02*
X033349Y008971D01*
X03195Y01037D02*
X031958Y010362D01*
X033349Y008652D02*
Y008971D01*
X03195Y01037D02*
Y0104D01*
X033349Y008652D02*
X033375Y008626D01*
D13*
X017875Y022525D02*
X0186Y0218D01*
X017506Y022894D02*
X017875Y022525D01*
X01845Y017659D02*
Y01995D01*
X01953Y016559D02*
X01955D01*
X019294Y016796D02*
X01953Y016559D01*
X019294Y016796D02*
Y016815D01*
X01845Y017659D02*
X019294Y016815D01*
X017875Y020525D02*
X01845Y01995D01*
X017875Y020525D02*
Y022525D01*
X0186Y0218D02*
X020161D01*
X020391Y02203D01*
X017143Y022894D02*
X017506D01*
D18*
X037942Y016346D02*
D03*
X036446D02*
D03*
X03495D02*
D03*
X033454D02*
D03*
X031958D02*
D03*
X033454Y010362D02*
D03*
X03495D02*
D03*
X036446D02*
D03*
X037942D02*
D03*
Y011937D02*
D03*
D19*
X038808Y012523D02*
D03*
Y011972D02*
D03*
Y013074D02*
D03*
Y013626D02*
D03*
Y014177D02*
D03*
Y014728D02*
D03*
X031092Y014177D02*
D03*
Y014728D02*
D03*
Y013626D02*
D03*
Y013074D02*
D03*
Y012523D02*
D03*
Y011972D02*
D03*
D20*
X034123Y009496D02*
D03*
X033572D02*
D03*
X034674D02*
D03*
X035226D02*
D03*
X035777D02*
D03*
X036328D02*
D03*
X033572Y017212D02*
D03*
X034123D02*
D03*
X034674D02*
D03*
X035226D02*
D03*
X036328D02*
D03*
X035777D02*
D03*
D21*
X039674Y009807D02*
D03*
Y009413D02*
D03*
Y009019D02*
D03*
X030226Y0165D02*
D03*
Y016106D02*
D03*
Y015712D02*
D03*
Y015318D02*
D03*
Y014925D02*
D03*
Y014531D02*
D03*
Y014137D02*
D03*
Y013744D02*
D03*
Y01335D02*
D03*
Y012956D02*
D03*
Y012563D02*
D03*
Y012169D02*
D03*
Y011775D02*
D03*
Y011381D02*
D03*
Y010988D02*
D03*
Y010594D02*
D03*
Y0102D02*
D03*
X039674D02*
D03*
Y010594D02*
D03*
Y010988D02*
D03*
Y011381D02*
D03*
Y011775D02*
D03*
Y012169D02*
D03*
Y012563D02*
D03*
Y012956D02*
D03*
Y01335D02*
D03*
Y013744D02*
D03*
Y014137D02*
D03*
Y014531D02*
D03*
Y014925D02*
D03*
Y015318D02*
D03*
Y015712D02*
D03*
Y016106D02*
D03*
Y0165D02*
D03*
X030226Y016893D02*
D03*
X030226Y017291D02*
D03*
Y017685D02*
D03*
Y009019D02*
D03*
Y009413D02*
D03*
Y009807D02*
D03*
X039674Y017685D02*
D03*
Y017291D02*
D03*
Y016897D02*
D03*
D22*
X0381Y018074D02*
D03*
X037706D02*
D03*
X037312D02*
D03*
X036919D02*
D03*
X036525D02*
D03*
X036131D02*
D03*
X035737D02*
D03*
X035344D02*
D03*
X03495D02*
D03*
X034556D02*
D03*
X034163D02*
D03*
X033769D02*
D03*
X033375D02*
D03*
X032982D02*
D03*
X032588D02*
D03*
X032194D02*
D03*
X0318D02*
D03*
Y008626D02*
D03*
X032194D02*
D03*
X032588D02*
D03*
X032982D02*
D03*
X033375D02*
D03*
X033769D02*
D03*
X034163D02*
D03*
X034556D02*
D03*
X03495D02*
D03*
X035344D02*
D03*
X035737D02*
D03*
X036131D02*
D03*
X036525D02*
D03*
X036919D02*
D03*
X037312D02*
D03*
X037706D02*
D03*
X0381D02*
D03*
D23*
X031958Y01485D02*
D03*
Y013354D02*
D03*
Y011858D02*
D03*
Y010362D02*
D03*
X033454Y013354D02*
D03*
X03495Y01485D02*
D03*
X037942D02*
D03*
Y013354D02*
D03*
X03495Y011858D02*
D03*
X036446Y013354D02*
D03*
D24*
X0442Y014D02*
D03*
X044202Y012666D02*
D03*
D25*
X043535Y013351D02*
D03*
D26*
X022335Y000916D02*
D03*
X021335D02*
D03*
X020335D02*
D03*
X022335Y007884D02*
D03*
X021335D02*
D03*
X020335D02*
D03*
D27*
X042199Y001522D02*
D03*
Y000774D02*
D03*
X043201Y001526D02*
D03*
Y000778D02*
D03*
X02375Y024002D02*
D03*
Y02475D02*
D03*
X01075Y002802D02*
D03*
Y00355D02*
D03*
X037226Y006372D02*
D03*
Y005624D02*
D03*
X036324Y005628D02*
D03*
Y006376D02*
D03*
X038149Y006372D02*
D03*
Y005624D02*
D03*
X039951Y020178D02*
D03*
Y020926D02*
D03*
X010749Y005422D02*
D03*
Y004674D02*
D03*
X013226Y008724D02*
D03*
Y009472D02*
D03*
X011874Y009476D02*
D03*
Y008728D02*
D03*
X026349Y008322D02*
D03*
Y007574D02*
D03*
D28*
X024859Y02425D02*
D03*
X026041D02*
D03*
X028241D02*
D03*
X027059D02*
D03*
X029209D02*
D03*
X030391D02*
D03*
X026041Y02115D02*
D03*
X024859D02*
D03*
X028241D02*
D03*
X027059D02*
D03*
X030441D02*
D03*
X029259D02*
D03*
X032591D02*
D03*
X031409D02*
D03*
X032541Y02425D02*
D03*
X031359D02*
D03*
X0312Y004D02*
D03*
X030019D02*
D03*
X040441Y0234D02*
D03*
X039259D02*
D03*
X040909Y01845D02*
D03*
X042091D02*
D03*
X043Y02375D02*
D03*
X041819D02*
D03*
X025209Y0044D02*
D03*
X026391D02*
D03*
X025209Y0016D02*
D03*
X026391D02*
D03*
X013441Y00595D02*
D03*
X012259D02*
D03*
X013441Y00285D02*
D03*
X012259D02*
D03*
X015841D02*
D03*
X014659D02*
D03*
X015841Y00595D02*
D03*
X014659D02*
D03*
X011691Y022D02*
D03*
X010509D02*
D03*
X007859D02*
D03*
X009041D02*
D03*
D29*
X027226Y022383D02*
D03*
X0276Y023217D02*
D03*
X027974Y022383D02*
D03*
X025076D02*
D03*
X02545Y023217D02*
D03*
X025824Y022383D02*
D03*
X029426D02*
D03*
X0298Y023217D02*
D03*
X030174Y022383D02*
D03*
X031626D02*
D03*
X032Y023217D02*
D03*
X032374Y022383D02*
D03*
X041724Y019633D02*
D03*
X04135Y020467D02*
D03*
X040976Y019633D02*
D03*
X012426Y004817D02*
D03*
X0128Y003983D02*
D03*
X013174Y004817D02*
D03*
X014902Y0048D02*
D03*
X015276Y003965D02*
D03*
X01565Y0048D02*
D03*
D30*
X031478Y020249D02*
D03*
X032226D02*
D03*
X035978Y003149D02*
D03*
X036726D02*
D03*
X040878Y017549D02*
D03*
X041626D02*
D03*
X045172Y016551D02*
D03*
X044424D02*
D03*
X020524Y023624D02*
D03*
X021272D02*
D03*
X023824Y019774D02*
D03*
X024572D02*
D03*
X020874Y019874D02*
D03*
X021622D02*
D03*
X024626Y016526D02*
D03*
X023878D02*
D03*
X020974Y016574D02*
D03*
X021722D02*
D03*
X042276Y013326D02*
D03*
X041528D02*
D03*
X026422Y005451D02*
D03*
X025674D02*
D03*
X026422Y002751D02*
D03*
X025674D02*
D03*
X012128Y007899D02*
D03*
X012876D02*
D03*
X035874Y023574D02*
D03*
X036622D02*
D03*
D31*
X020458Y022774D02*
D03*
X02046Y02203D02*
D03*
X021442Y0224D02*
D03*
X034042Y003398D02*
D03*
X03306Y003028D02*
D03*
X033058Y003772D02*
D03*
X036842Y02235D02*
D03*
X03586Y02198D02*
D03*
X035858Y022724D02*
D03*
X039408Y024952D02*
D03*
X04039Y025322D02*
D03*
X040392Y024578D02*
D03*
D32*
X04465Y02395D02*
D03*
Y02525D02*
D03*
X04245Y01005D02*
D03*
Y01135D02*
D03*
X0413Y01005D02*
D03*
Y01135D02*
D03*
X0146Y01145D02*
D03*
Y01275D02*
D03*
X00915Y01505D02*
D03*
Y01375D02*
D03*
X0146Y0154D02*
D03*
Y0141D02*
D03*
X03295Y00475D02*
D03*
Y00605D02*
D03*
X0285D02*
D03*
Y00475D02*
D03*
X0226Y02225D02*
D03*
Y02355D02*
D03*
X00965Y0243D02*
D03*
Y0256D02*
D03*
D33*
X011623Y018711D02*
D03*
X00745Y01875D02*
D03*
D34*
X005Y024369D02*
D03*
X0341Y006091D02*
D03*
Y004909D02*
D03*
X0285Y003241D02*
D03*
Y002059D02*
D03*
X03945Y003791D02*
D03*
Y002609D02*
D03*
X0345Y023491D02*
D03*
Y022309D02*
D03*
X04265Y019359D02*
D03*
Y020541D02*
D03*
X04465Y022941D02*
D03*
Y021759D02*
D03*
X01955Y017741D02*
D03*
Y016559D02*
D03*
X026Y017691D02*
D03*
Y016509D02*
D03*
X04255Y002609D02*
D03*
Y003791D02*
D03*
X00795Y003259D02*
D03*
Y004441D02*
D03*
Y001109D02*
D03*
Y002291D02*
D03*
X00405Y003259D02*
D03*
Y004441D02*
D03*
Y002241D02*
D03*
Y001059D02*
D03*
Y007041D02*
D03*
Y005859D02*
D03*
X0079Y005809D02*
D03*
Y006991D02*
D03*
Y008259D02*
D03*
Y009441D02*
D03*
X00405Y008259D02*
D03*
Y009441D02*
D03*
X005Y02555D02*
D03*
X0194Y023591D02*
D03*
Y022409D02*
D03*
X0318Y004909D02*
D03*
Y006091D02*
D03*
X02525Y008241D02*
D03*
Y007059D02*
D03*
X01965Y013009D02*
D03*
Y014191D02*
D03*
X0381Y022159D02*
D03*
Y023341D02*
D03*
X04255Y004859D02*
D03*
Y006041D02*
D03*
X03945Y004809D02*
D03*
Y005991D02*
D03*
D35*
X02595Y02012D02*
D03*
Y0187D02*
D03*
X01955Y02005D02*
D03*
Y01863D02*
D03*
D36*
X03135Y003D02*
D03*
X03005D02*
D03*
X0406Y0221D02*
D03*
X0393D02*
D03*
X04325Y02505D02*
D03*
X04195D02*
D03*
X02365Y01125D02*
D03*
X02235D02*
D03*
X005Y022D02*
D03*
X0063D02*
D03*
D37*
X030548Y005258D02*
D03*
X030178Y00624D02*
D03*
X030922Y006242D02*
D03*
X042252Y022792D02*
D03*
X042622Y02181D02*
D03*
X041878Y021808D02*
D03*
X020976Y017658D02*
D03*
X02172Y01766D02*
D03*
X02135Y018642D02*
D03*
X023876Y017658D02*
D03*
X02462Y01766D02*
D03*
X02425Y018642D02*
D03*
D38*
X040683Y005126D02*
D03*
X041517Y0055D02*
D03*
X040683Y005874D02*
D03*
X040633Y002876D02*
D03*
X041467Y00325D02*
D03*
X040633Y003624D02*
D03*
X006417Y002024D02*
D03*
X005583Y00165D02*
D03*
X006417Y001276D02*
D03*
Y004274D02*
D03*
X005583Y0039D02*
D03*
X006417Y003526D02*
D03*
Y006774D02*
D03*
X005583Y0064D02*
D03*
X006417Y006026D02*
D03*
X006467Y009274D02*
D03*
X005633Y0089D02*
D03*
X006467Y008526D02*
D03*
D39*
X012887Y01145D02*
D03*
X011313D02*
D03*
X005813Y01465D02*
D03*
X007387D02*
D03*
D40*
X01665Y014957D02*
D03*
Y012043D02*
D03*
D41*
X0143Y019337D02*
D03*
Y017763D02*
D03*
D44*
X011144Y01316D02*
D03*
X01205D02*
D03*
X012956D02*
D03*
D45*
X01205Y01564D02*
D03*
D46*
X001902Y0188D02*
D03*
X004698D02*
D03*
D47*
X00725Y023808D02*
D03*
Y026092D02*
D03*
D48*
X04395Y00827D02*
D03*
Y01075D02*
D03*
D49*
X01929Y0256D02*
D03*
X02245D02*
D03*
X02079Y01415D02*
D03*
X02395D02*
D03*
X03415Y0256D02*
D03*
X03731D02*
D03*
D50*
X003861Y0115D02*
D03*
X00205D02*
D03*
D51*
X002956Y014256D02*
D03*
D52*
X006043Y01195D02*
D03*
X008957D02*
D03*
D100*
X0155Y02495D02*
D03*
D101*
X011327Y023611D02*
D03*
Y024281D02*
D03*
Y02495D02*
D03*
Y025619D02*
D03*
Y026289D02*
D03*
D102*
X02775Y01335D02*
D03*
Y010535D02*
D03*
D103*
X042841Y012865D02*
X042945Y012969D01*
X042215Y012829D02*
X042608D01*
X0422Y012814D02*
X042215Y012829D01*
X042608D02*
X042629Y01285D01*
X04265D02*
X042665Y012865D01*
X042841D01*
X042629Y01285D02*
X04265D01*
X042945Y012969D02*
X043035D01*
X041781Y012814D02*
X0422D01*
X04175Y012814D02*
X04175Y012814D01*
X041288Y012814D02*
X04175D01*
X041281Y012822D02*
X041288Y012814D01*
X041265Y01283D02*
X041281Y012815D01*
X041037Y01283D02*
X041265D01*
X04085Y013017D02*
X041037Y01283D01*
X043056Y013D02*
X043122Y012933D01*
X043438D01*
X043035Y012969D02*
X04305Y012984D01*
X043438Y012933D02*
X043457Y012914D01*
X043482D01*
X043651Y012745D01*
X043006Y013715D02*
X043021Y0137D01*
X042659Y013835D02*
X042779Y013715D01*
X042165Y013835D02*
X042659D01*
X041752Y01385D02*
X04215D01*
X042779Y013715D02*
X043006D01*
X043021Y0137D02*
X043043D01*
X043112Y013769D02*
X043451D01*
X043043Y0137D02*
X043112Y013769D01*
X04215Y01385D02*
X042165Y013835D01*
X043451Y013769D02*
X043451Y01377D01*
X043458D01*
X043609Y013921D01*
X041289Y013842D02*
X041744D01*
X041752Y01385D01*
X041269Y013822D02*
X041289Y013842D01*
X041035Y013822D02*
X041269D01*
X040917Y013704D02*
X041035Y013822D01*
X043651Y012745D02*
X044123D01*
X0442Y012668D02*
X044202Y012666D01*
X044123Y012745D02*
X044202Y012666D01*
X043609Y013921D02*
X044121D01*
X0442Y014D01*
X039674Y012956D02*
X040294D01*
X040333Y012996D01*
X04085D01*
X040354Y013704D02*
X040917D01*
X039674Y01335D02*
X041504D01*
X040289Y013744D02*
X040329Y013704D01*
X04035D01*
X039674Y013744D02*
X040289D01*
X0442Y012668D02*
Y014D01*
X042288Y013339D02*
X043498D01*
X042276Y013326D02*
X042288Y013339D01*
X043498D02*
X04351Y013326D01*
X03795Y01485D02*
Y014858D01*
X038218Y015126D01*
X038226D01*
X038419Y015318D01*
X039674D01*
Y013744D02*
Y014137D01*
X044424Y016512D02*
Y016551D01*
X03195Y01485D02*
Y014858D01*
X03085Y0165D02*
X03175D01*
X030226D02*
X03085D01*
X031682Y015126D02*
X03195Y014858D01*
X03085Y01535D02*
X031074Y015126D01*
X031682D01*
X03085Y01535D02*
Y0165D01*
X03795Y01035D02*
Y01037D01*
X03195Y010354D02*
Y01037D01*
X037706Y016594D02*
X03795Y01635D01*
X00305Y010938D02*
X003355Y010634D01*
X007483D02*
X008799Y01195D01*
X003355Y010634D02*
X007483D01*
X00305Y010938D02*
Y014161D01*
X008829Y003629D02*
X00885D01*
X01865Y0256D02*
X01929D01*
X019575Y02005D02*
X020325Y0208D01*
X022571D01*
X01955Y02005D02*
X019575D01*
X022571Y0208D02*
X022921Y02045D01*
X025595D01*
X03047Y02487D02*
X030485Y024885D01*
X03325Y02565D02*
X033265Y025635D01*
X034115D01*
X03415Y0256D01*
X04245Y01575D02*
X043094Y016394D01*
X042018Y015318D02*
X04245Y01575D01*
X0282Y021191D02*
X028241Y02115D01*
X043094Y016394D02*
X044306D01*
X044424Y016512D01*
X044857Y016906D02*
Y018343D01*
X045172Y016551D02*
Y016591D01*
X0448Y0184D02*
X044857Y018343D01*
Y016906D02*
X045172Y016591D01*
X04555Y016968D01*
Y01735D01*
X0456Y0174D01*
X039991Y020926D02*
X040215Y02115D01*
X04405D01*
X0448Y0204D01*
X020343Y001943D02*
X02035Y00195D01*
X022335Y005335D02*
Y007884D01*
X021Y004D02*
X022335Y005335D01*
X025174Y005451D02*
X025674D01*
X0245Y004777D02*
X025174Y005451D01*
X025214Y002751D02*
X025674D01*
X0245Y003465D02*
X025214Y002751D01*
X0346Y019129D02*
Y01915D01*
X03965Y011381D02*
Y012169D01*
Y011381D02*
X039674D01*
X03965Y012169D02*
X039674D01*
X02395Y01415D02*
X023989Y014189D01*
X025833Y015885D02*
X025848Y0159D01*
X025925Y02012D02*
X02595D01*
X025595Y02045D02*
X025925Y02012D01*
X038Y00125D02*
X038076Y001326D01*
X013911Y012611D02*
X014461D01*
X0137Y0124D02*
X013911Y012611D01*
X014461D02*
X0146Y01275D01*
X0125Y01285D02*
X01295Y0124D01*
X0137D01*
X0125Y01285D02*
Y013423D01*
X011636Y01375D02*
X012173D01*
X0125Y013423D01*
X011144Y013258D02*
X011636Y01375D01*
X011144Y01316D02*
Y013258D01*
X04348Y005585D02*
X043502D01*
X04255Y006041D02*
X042727Y005863D01*
X011874Y008192D02*
X012128Y007938D01*
Y007899D02*
Y007938D01*
X011874Y008192D02*
Y008728D01*
X030189Y006789D02*
X0302Y0068D01*
X027837Y012572D02*
Y012587D01*
X039674Y015318D02*
X042018D01*
X0318Y016504D02*
X031958Y016346D01*
X030619Y017685D02*
X0318Y016504D01*
Y018074D01*
X030023Y017691D02*
X030029Y017685D01*
X026Y017691D02*
X030023D01*
X030029Y017685D02*
X030226D01*
X002956Y014256D02*
X00305Y014161D01*
X008799Y01195D02*
X008957D01*
X002629Y0119D02*
X00265D01*
X002603Y011874D02*
X002629Y0119D01*
X002129Y011874D02*
X002603D01*
X00205Y011795D02*
X002129Y011874D01*
X004635Y01625D02*
X0122D01*
X013339Y017389D02*
X014083D01*
X0122Y01625D02*
X013339Y017389D01*
X002956Y014571D02*
X004635Y01625D01*
X0143Y017605D02*
Y017763D01*
X014083Y017389D02*
X0143Y017605D01*
X002956Y014256D02*
Y014571D01*
X011313Y01145D02*
X01147D01*
X01095Y009609D02*
X011547Y009013D01*
X01095Y011245D02*
X011155Y01145D01*
X01095Y009609D02*
Y011245D01*
X011547Y009013D02*
X011549D01*
X011835Y008728D02*
X011874D01*
X011549Y009013D02*
X011835Y008728D01*
X011155Y01145D02*
X011313D01*
X039674Y010988D02*
X040363D01*
X0413Y01005D01*
X034051Y003398D02*
X0341Y003447D01*
X034042Y003398D02*
X034051D01*
X03287Y00483D02*
X03295Y00475D01*
X03178Y004909D02*
X0318D01*
X031275Y003075D02*
X03135Y003D01*
X022343Y007892D02*
Y011243D01*
X022335Y007884D02*
X022343Y007892D01*
Y011243D02*
X02235Y01125D01*
X0252Y0036D02*
X025205Y003605D01*
X0245Y003465D02*
Y004777D01*
X03075Y009807D02*
X03105D01*
X030226D02*
X03075D01*
X037706Y016594D02*
Y018074D01*
X040392Y024578D02*
X040416Y024554D01*
X04335Y0266D02*
X04345Y0267D01*
X040459Y025322D02*
X040508Y025371D01*
X042613Y020504D02*
X04265Y020541D01*
X04135Y020467D02*
Y020504D01*
X035858Y022724D02*
X035866Y022732D01*
X0345Y023491D02*
X034542Y023532D01*
X0345Y022309D02*
X035462D01*
X035791Y02198D01*
X03586D01*
X032545Y026545D02*
X03255Y02655D01*
X0194Y022409D02*
X01942D01*
X019597Y022587D01*
X025992Y016518D02*
X026Y016509D01*
X025985Y017675D02*
X026Y017691D01*
X024635Y017675D02*
X025985D01*
X025768Y018882D02*
X02595Y0187D01*
X020756Y019716D02*
X020874Y019835D01*
X038568Y010988D02*
X039478D01*
X039674Y012563D02*
Y012956D01*
Y014137D02*
Y014531D01*
Y014925D01*
Y015318D01*
X03795Y01037D02*
X038568Y010988D01*
X035737Y008626D02*
X036131D01*
X03105Y009807D02*
X031402D01*
X03105Y0093D02*
Y009807D01*
X030226Y009019D02*
X030769D01*
X03105Y0093D01*
X031402Y009807D02*
X03195Y010354D01*
X030226Y016893D02*
X030226D01*
Y0165D02*
Y016893D01*
Y0165D02*
X030226D01*
Y017685D02*
X030619D01*
X0413Y01135D02*
X04245D01*
X039674Y011381D02*
X041268D01*
X0413Y01135D01*
X00205Y0115D02*
Y011795D01*
X00502Y02555D02*
X00585Y02472D01*
Y0231D02*
Y02472D01*
X005Y02555D02*
X00502D01*
X01295Y0208D02*
Y0215D01*
X014039Y019711D02*
X014083D01*
X0143Y019337D02*
Y019495D01*
X014083Y019711D02*
X0143Y019495D01*
X01295Y0208D02*
X014039Y019711D01*
X011623Y018711D02*
Y019373D01*
X01035Y0239D02*
X010652Y024202D01*
X011248D01*
X01035Y022159D02*
Y0239D01*
X011248Y024202D02*
X011327Y024281D01*
X01035Y022159D02*
X010509Y022D01*
X0129Y02555D02*
Y0256D01*
X01289Y02561D02*
X0129Y0256D01*
X011336Y02561D02*
X01289D01*
X011327Y025619D02*
X011336Y02561D01*
D104*
X037942Y013354D02*
Y014842D01*
X03795Y01485D01*
X03195D02*
X031958Y014842D01*
X036442Y01335D02*
X03645D01*
X034743Y012057D02*
X03495Y01185D01*
X036239Y013147D02*
Y013147D01*
X036442Y01335D01*
X03495Y01185D02*
Y011858D01*
X036239Y013147D01*
X03345Y01335D02*
X033458D01*
X034743Y012065D01*
Y012057D02*
Y012065D01*
X03495Y01485D02*
X03495D01*
X03495Y01485D01*
X033454Y013354D02*
X03495Y01485D01*
X03345Y01335D02*
X033454Y013354D01*
X03345Y01335D02*
Y01335D01*
X037942Y01485D02*
X03795D01*
X03495D02*
X037942D01*
X03795D02*
X03795Y01485D01*
X037942Y011937D02*
Y013354D01*
Y010362D02*
Y011937D01*
Y010358D02*
Y010362D01*
X037938D02*
X037942Y010358D01*
X03795Y01035D01*
X036446Y010362D02*
X037938D01*
X03495D02*
X036446D01*
X033462D02*
X03495D01*
X033438D02*
X03345Y01035D01*
X033462Y010362D01*
X03195Y0104D02*
X031988Y010362D01*
X033438D01*
X031958Y010408D02*
Y011842D01*
X03195Y0104D02*
X031958Y010408D01*
X03195Y01185D02*
X031958Y011842D01*
X03195Y01335D02*
X031958Y013342D01*
X03195Y01335D02*
X031958Y013358D01*
Y011858D02*
Y013342D01*
Y011858D02*
Y011858D01*
X03195Y01185D02*
X031958Y011858D01*
Y013358D02*
Y014842D01*
X037942Y016346D02*
X037946D01*
X036454D02*
X037942D01*
X03645Y01635D02*
X036454Y016346D01*
X037946D02*
X03795Y01635D01*
X034946Y016346D02*
X03495Y01635D01*
X034954Y016346D01*
X036446D02*
X036446D01*
X034954D02*
X036446D01*
X036446D02*
X03645Y01635D01*
X033454Y016346D02*
X034946D01*
X033454D02*
X033454D01*
X03345Y01635D02*
X033454Y016346D01*
X031958D02*
X033446D01*
X03345Y01635D01*
X01405Y010167D02*
Y0102D01*
X0146Y01075D01*
Y01145D01*
X0027Y0102D02*
X01025D01*
X00135Y00885D02*
X0027Y0102D01*
X00135Y00665D02*
X0022Y0058D01*
X00135Y00665D02*
Y00885D01*
X01885Y0053D02*
X019Y00545D01*
Y00785D01*
X0116Y0149D02*
X012956Y013544D01*
X0293Y0024D02*
Y006216D01*
Y0024D02*
X03045Y00125D01*
X0184Y021175D02*
X019525Y02005D01*
X0184Y021175D02*
Y0214D01*
X02915Y0272D02*
X03995D01*
X0285Y02655D02*
X02915Y0272D01*
X03995D02*
X04045Y0267D01*
X0039Y02445D02*
X004919D01*
X001663Y025713D02*
X0034Y02745D01*
X001363Y025713D02*
X001663D01*
X00355Y0248D02*
X0039Y02445D01*
X00355Y0248D02*
Y0251D01*
X004919Y02445D02*
X005Y024369D01*
X030019Y004D02*
X030035Y003984D01*
X00245Y014761D02*
X002956Y014256D01*
X00245Y014761D02*
Y018646D01*
X002296Y0188D02*
X00245Y018646D01*
X01885Y008D02*
Y0154D01*
Y008D02*
X019Y00785D01*
X0171Y01715D02*
Y0179D01*
Y01715D02*
X01885Y0154D01*
X017387Y02725D02*
X02685D01*
X0155Y025363D02*
X017387Y02725D01*
X0275Y02655D02*
Y0266D01*
X02685Y02725D02*
X0275Y0266D01*
X019525Y02005D02*
X01955D01*
X0171Y0179D02*
Y0187D01*
X014748Y015547D02*
Y015547D01*
X0171Y0179D01*
X012956Y013755D02*
X014748Y015547D01*
X0171Y0207D02*
X01785Y01995D01*
Y0174D02*
Y01995D01*
X01665Y012043D02*
Y012201D01*
X01785Y013401D01*
Y01385D01*
X009041Y022D02*
X01035D01*
X010509D01*
X00865Y01555D02*
X009298Y014902D01*
X0387Y01885D02*
Y01895D01*
X038Y01965D02*
Y0213D01*
Y01965D02*
X0387Y01895D01*
Y0071D02*
Y0094D01*
X0155Y02495D02*
Y025363D01*
X0387Y0071D02*
X039745Y008145D01*
X041405D01*
X04141Y00815D01*
X006Y021D02*
X00605D01*
X005Y022D02*
X006Y021D01*
X021429Y01125D02*
X02235D01*
X01965Y013009D02*
X01967D01*
X021429Y01125D01*
X01665Y014957D02*
Y015114D01*
X03408Y00607D02*
X0341Y006091D01*
X0318D02*
X03182Y00607D01*
X04395Y01075D02*
X04405Y01065D01*
X04495D01*
X04395Y01075D02*
Y010985D01*
X043586Y008634D02*
X04395Y00827D01*
X04245Y01005D02*
X043586Y008915D01*
Y008634D02*
Y008915D01*
X0413Y01005D02*
X04245D01*
Y01135D02*
X043586D01*
X04395Y010985D01*
X008957Y01195D02*
X00915Y012143D01*
Y01375D01*
X010655Y01195D02*
X011155Y01145D01*
X008957Y01195D02*
X010655D01*
X011144Y011598D02*
Y01316D01*
X01273Y01145D02*
X012887D01*
X01205Y01213D02*
Y01316D01*
Y01213D02*
X01273Y01145D01*
X012888Y01145D02*
X0146D01*
X012887Y01145D02*
X012888Y01145D01*
X0146D02*
X0146Y01145D01*
X016207D01*
X01665Y011893D01*
Y012043D01*
X0146Y01275D02*
Y0141D01*
X015951D02*
X01665Y014799D01*
Y014957D01*
X0146Y0141D02*
X015951D01*
X012956Y01316D02*
Y013544D01*
Y013755D01*
X009517Y0149D02*
X0116D01*
X009298Y014902D02*
X009515D01*
X009517Y0149D01*
X00835Y01375D02*
X00915D01*
X007545Y01465D02*
X007693Y014502D01*
Y014407D02*
Y014502D01*
X007387Y01465D02*
X007545D01*
X007693Y014407D02*
X00835Y01375D01*
X00597Y01465D02*
X00687Y01555D01*
X00865D01*
X005813Y01465D02*
X00597D01*
X0155Y02495D02*
X018021D01*
X01938Y023591D01*
X0194D01*
X0103Y02495D02*
X011327D01*
X00965Y0243D02*
X0103Y02495D01*
X013413Y02745D02*
X0155Y025363D01*
X0034Y02745D02*
X013413D01*
X00105Y0251D02*
Y0254D01*
X001363Y025713D01*
X00502Y02555D02*
X007043D01*
X003861Y0115D02*
X005436D01*
X005886Y01195D01*
X006043D01*
X005813Y012181D02*
Y01465D01*
Y012181D02*
X006043Y01195D01*
X00245Y018954D02*
Y023D01*
X002296Y0188D02*
X00245Y018954D01*
Y023D02*
X00255Y0231D01*
X001902Y0188D02*
X002296D01*
X011623Y018711D02*
X012237Y019324D01*
X014287D02*
X0143Y019337D01*
X012237Y019324D02*
X014287D01*
X01295Y02495D02*
X0155D01*
X011327D02*
X01295D01*
Y0241D02*
Y02495D01*
X012461Y023611D02*
X01295Y0241D01*
X011327Y023611D02*
X012461D01*
X007457Y0243D02*
X00965D01*
X00725Y023808D02*
Y024094D01*
X007457Y0243D01*
X009114Y021202D02*
X010912D01*
X00745Y019537D02*
X009114Y021202D01*
X00745Y01875D02*
Y019537D01*
X011691Y02198D02*
Y022D01*
X010912Y021202D02*
X011691Y02198D01*
X004794Y0188D02*
X0074D01*
X004698D02*
X004794D01*
X0074D02*
X00745Y01875D01*
X005Y019007D02*
Y022D01*
X004794Y0188D02*
X005Y019007D01*
X0063Y022D02*
X007859D01*
X00725Y022609D02*
X007732Y022128D01*
X00725Y022609D02*
Y023808D01*
X007732Y022128D02*
X007751D01*
X007859Y02202D01*
Y022D02*
Y02202D01*
X00965Y0256D02*
X010329Y026279D01*
X011317D01*
X011327Y026289D01*
X00725Y026092D02*
X009158D01*
X00965Y0256D01*
X007043Y02555D02*
X00725Y025757D01*
Y026092D01*
D105*
X0022Y0058D02*
D03*
Y00485D02*
D03*
D106*
X016Y0014D02*
D03*
X015D02*
D03*
X014D02*
D03*
X013D02*
D03*
X03245Y00125D02*
D03*
X03145D02*
D03*
X03045D02*
D03*
X0022Y00385D02*
D03*
Y00825D02*
D03*
X0171Y0207D02*
D03*
Y0197D02*
D03*
X03255Y02655D02*
D03*
X03155D02*
D03*
X03055D02*
D03*
X0285D02*
D03*
X0275D02*
D03*
X0265D02*
D03*
X04045Y0267D02*
D03*
X04145D02*
D03*
X04245D02*
D03*
X04465Y00615D02*
D03*
Y00515D02*
D03*
D107*
X012Y0014D02*
D03*
X03345Y00125D02*
D03*
X02955Y02655D02*
D03*
X04465Y00305D02*
D03*
X0389Y02065D02*
D03*
X0255Y02655D02*
D03*
X04345Y0267D02*
D03*
D108*
X00115Y0011D02*
D03*
X0455Y02675D02*
D03*
Y0011D02*
D03*
D109*
X00355Y0251D02*
D03*
X00105D02*
D03*
D110*
X00255Y0231D02*
D03*
D111*
X0244Y02655D02*
D03*
X0022Y00285D02*
D03*
Y00725D02*
D03*
X0171Y0187D02*
D03*
X04465Y00415D02*
D03*
D112*
X027837Y012572D02*
D03*
X027443Y012317D02*
D03*
X027837Y012061D02*
D03*
X027443Y011805D02*
D03*
X027837Y011549D02*
D03*
D113*
X02775Y013468D02*
D03*
Y010653D02*
D03*
D114*
X03799Y00455D02*
D03*
X03701D02*
D03*
X036D02*
D03*
D115*
X04141Y00815D02*
D03*
X0424D02*
D03*
D116*
X038Y00125D02*
D03*
X037D02*
D03*
X0448Y0184D02*
D03*
Y0194D02*
D03*
D117*
X036Y00125D02*
D03*
D118*
X0448Y0204D02*
D03*
D119*
X005Y0073D02*
D03*
X04265Y01285D02*
D03*
X0422Y012814D02*
D03*
X04175D02*
D03*
X041281Y012815D02*
D03*
X0426Y013854D02*
D03*
X04305Y012984D02*
D03*
X043021Y0137D02*
D03*
X04215Y01385D02*
D03*
X041747Y013847D02*
D03*
X041279Y013838D02*
D03*
X0449Y0127D02*
D03*
Y0131D02*
D03*
Y013516D02*
D03*
Y01395D02*
D03*
X043457Y012918D02*
D03*
X043451Y013784D02*
D03*
X040354Y012996D02*
D03*
X04085D02*
D03*
Y013704D02*
D03*
X04035D02*
D03*
X044202Y012666D02*
D03*
X0442Y014D02*
D03*
X031329Y0156D02*
D03*
X0104Y00945D02*
D03*
X00495Y00285D02*
D03*
X01085Y00645D02*
D03*
X0161Y0035D02*
D03*
X0118Y00345D02*
D03*
X01005Y00505D02*
D03*
X00965Y0042D02*
D03*
X00935Y0027D02*
D03*
X0109Y00745D02*
D03*
X0087Y00785D02*
D03*
X00885Y003629D02*
D03*
X0089Y006029D02*
D03*
X01885Y0053D02*
D03*
X015145Y009505D02*
D03*
X014Y00705D02*
D03*
X0293Y006216D02*
D03*
X028765Y003896D02*
D03*
X0226Y02435D02*
D03*
X030485Y024885D02*
D03*
X023129Y025829D02*
D03*
X02569Y0251D02*
D03*
X02875Y02175D02*
D03*
X0319Y0188D02*
D03*
X02655Y02175D02*
D03*
X0309D02*
D03*
X0271Y02495D02*
D03*
X02345Y0219D02*
D03*
X01405Y0035D02*
D03*
X00875Y00135D02*
D03*
X0352Y0031D02*
D03*
Y0025D02*
D03*
X0361Y00755D02*
D03*
X04085Y0169D02*
D03*
X02155Y0208D02*
D03*
X0239Y01515D02*
D03*
X0401Y00305D02*
D03*
X0245Y007D02*
D03*
X021Y004D02*
D03*
X02035Y00195D02*
D03*
X02115Y007D02*
D03*
X03075Y0201D02*
D03*
X027135Y02005D02*
D03*
X03605Y0188D02*
D03*
X0346Y01915D02*
D03*
X0285Y02005D02*
D03*
X038Y0213D02*
D03*
X0387Y0094D02*
D03*
X024126Y020824D02*
D03*
X01885Y0154D02*
D03*
X01835Y01485D02*
D03*
X019Y00785D02*
D03*
X01865Y0256D02*
D03*
X0439Y0217D02*
D03*
X039292Y024192D02*
D03*
X0364Y0242D02*
D03*
X03455D02*
D03*
X037365Y020948D02*
D03*
X035813Y019563D02*
D03*
X0184Y0214D02*
D03*
X0155Y01735D02*
D03*
X01785Y0174D02*
D03*
Y01385D02*
D03*
X038071Y002854D02*
D03*
X03465Y00335D02*
D03*
X0273Y002D02*
D03*
X0214Y00195D02*
D03*
X02445Y01165D02*
D03*
X043502Y005585D02*
D03*
X0302Y0068D02*
D03*
X027Y01545D02*
D03*
X025848Y0159D02*
D03*
X0318Y0039D02*
D03*
X0337Y01965D02*
D03*
X03415Y0192D02*
D03*
X0333Y0201D02*
D03*
X04245Y01575D02*
D03*
X0387Y01885D02*
D03*
Y0071D02*
D03*
X03325Y02565D02*
D03*
X00605Y021D02*
D03*
X0435Y00295D02*
D03*
X00265Y0119D02*
D03*
X0376Y007837D02*
D03*
X0252Y0036D02*
D03*
X00585Y0231D02*
D03*
X01295Y0215D02*
D03*
X0129Y0256D02*
D03*
D120*
X03315Y00665D02*
D03*
X0401Y00755D02*
D03*
X040256Y008806D02*
D03*
X0292Y012228D02*
D03*
X029037Y01305D02*
D03*
X0167Y00895D02*
D03*
X0247Y01295D02*
D03*
X01525Y0075D02*
D03*
X016Y00971D02*
D03*
X03515Y00555D02*
D03*
X04065Y0047D02*
D03*
X0292Y01355D02*
D03*
X03515Y0065D02*
D03*
X02475Y01345D02*
D03*
X01365Y008D02*
D03*
X03275Y00755D02*
D03*
X0334Y0075D02*
D03*
X04065Y00975D02*
D03*
D121*
X03495Y010362D02*
D03*
X036446D02*
D03*
X03795Y01036D02*
D03*
X037942Y011937D02*
D03*
X037992Y013354D02*
D03*
X01405Y010167D02*
D03*
X01025Y0102D02*
D03*
X0456Y0174D02*
D03*
X03195Y01335D02*
D03*
Y01185D02*
D03*
X031958Y016346D02*
D03*
X04495Y01065D02*
D03*
X03645Y01335D02*
D03*
X03795Y01485D02*
D03*
Y01635D02*
D03*
X03645D02*
D03*
X03495D02*
D03*
Y01485D02*
D03*
X03345Y01335D02*
D03*
X03495Y01185D02*
D03*
X03345Y01035D02*
D03*
X03195Y0104D02*
D03*
Y01485D02*
D03*
X03345Y01635D02*
D03*
D122*
X01475Y00665D02*
D03*
X026347Y006353D02*
D03*
X0277Y00665D02*
D03*
D123*
X0423Y021581D02*
D03*
M02*
