G04*
G04 #@! TF.GenerationSoftware,Altium Limited,Altium Designer,21.0.8 (223)*
G04*
G04 Layer_Color=255*
%FSTAX24Y24*%
%MOIN*%
G70*
G04*
G04 #@! TF.SameCoordinates,1A30FD0F-2F50-4216-9531-F08C28C5B71E*
G04*
G04*
G04 #@! TF.FilePolarity,Positive*
G04*
G01*
G75*
%ADD105C,0.0600*%
%ADD106C,0.0630*%
%ADD107R,0.0630X0.0630*%
%ADD108C,0.1575*%
%ADD109R,0.1000X0.1600*%
%ADD110R,0.1600X0.1000*%
%ADD111R,0.0630X0.0630*%
%ADD112C,0.0354*%
%ADD113C,0.0138*%
%ADD114O,0.0650X0.0900*%
%ADD115O,0.0700X0.0860*%
%ADD116C,0.0700*%
%ADD117R,0.0700X0.0700*%
%ADD118R,0.0700X0.0700*%
D105*
X0022Y0058D02*
D03*
Y00485D02*
D03*
D106*
X016Y0014D02*
D03*
X015D02*
D03*
X014D02*
D03*
X013D02*
D03*
X03245Y00125D02*
D03*
X03145D02*
D03*
X03045D02*
D03*
X0022Y00385D02*
D03*
Y00825D02*
D03*
X0171Y0207D02*
D03*
Y0197D02*
D03*
X03255Y02655D02*
D03*
X03155D02*
D03*
X03055D02*
D03*
X0285D02*
D03*
X0275D02*
D03*
X0265D02*
D03*
X04045Y0267D02*
D03*
X04145D02*
D03*
X04245D02*
D03*
X04465Y00615D02*
D03*
Y00515D02*
D03*
D107*
X012Y0014D02*
D03*
X03345Y00125D02*
D03*
X02955Y02655D02*
D03*
X04465Y00305D02*
D03*
X0389Y02065D02*
D03*
X0255Y02655D02*
D03*
X04345Y0267D02*
D03*
D108*
X00115Y0011D02*
D03*
X0455Y02675D02*
D03*
Y0011D02*
D03*
D109*
X00355Y0251D02*
D03*
X00105D02*
D03*
D110*
X00255Y0231D02*
D03*
D111*
X0244Y02655D02*
D03*
X0022Y00285D02*
D03*
Y00725D02*
D03*
X0171Y0187D02*
D03*
X04465Y00415D02*
D03*
D112*
X027837Y012572D02*
D03*
X027443Y012317D02*
D03*
X027837Y012061D02*
D03*
X027443Y011805D02*
D03*
X027837Y011549D02*
D03*
D113*
X02775Y013468D02*
D03*
Y010653D02*
D03*
D114*
X03799Y00455D02*
D03*
X03701D02*
D03*
X036D02*
D03*
D115*
X04141Y00815D02*
D03*
X0424D02*
D03*
D116*
X038Y00125D02*
D03*
X037D02*
D03*
X0448Y0184D02*
D03*
Y0194D02*
D03*
D117*
X036Y00125D02*
D03*
D118*
X0448Y0204D02*
D03*
M02*
