G04*
G04 #@! TF.GenerationSoftware,Altium Limited,Altium Designer,21.0.8 (223)*
G04*
G04 Layer_Color=255*
%FSTAX24Y24*%
%MOIN*%
G70*
G04*
G04 #@! TF.SameCoordinates,1A30FD0F-2F50-4216-9531-F08C28C5B71E*
G04*
G04*
G04 #@! TF.FilePolarity,Positive*
G04*
G01*
G75*
%ADD18R,0.0787X0.0787*%
%ADD19R,0.0394X0.0315*%
%ADD20R,0.0315X0.0394*%
%ADD21O,0.0630X0.0236*%
%ADD22O,0.0236X0.0630*%
%ADD23R,0.0787X0.0787*%
%ADD24R,0.0866X0.0394*%
%ADD25R,0.0394X0.0394*%
%ADD26R,0.0551X0.0630*%
%ADD27R,0.0551X0.0472*%
%ADD28R,0.0591X0.0630*%
G04:AMPARAMS|DCode=29|XSize=48.4mil|YSize=23.6mil|CornerRadius=3mil|HoleSize=0mil|Usage=FLASHONLY|Rotation=90.000|XOffset=0mil|YOffset=0mil|HoleType=Round|Shape=RoundedRectangle|*
%AMROUNDEDRECTD29*
21,1,0.0484,0.0177,0,0,90.0*
21,1,0.0425,0.0236,0,0,90.0*
1,1,0.0059,0.0089,0.0213*
1,1,0.0059,0.0089,-0.0213*
1,1,0.0059,-0.0089,-0.0213*
1,1,0.0059,-0.0089,0.0213*
%
%ADD29ROUNDEDRECTD29*%
%ADD30R,0.0472X0.0551*%
%ADD31R,0.0472X0.0335*%
%ADD32R,0.0669X0.0669*%
%ADD33O,0.2362X0.3937*%
%ADD34R,0.0630X0.0591*%
%ADD35R,0.0650X0.0600*%
%ADD36R,0.0669X0.0669*%
%ADD37R,0.0335X0.0472*%
G04:AMPARAMS|DCode=38|XSize=48.4mil|YSize=23.6mil|CornerRadius=3mil|HoleSize=0mil|Usage=FLASHONLY|Rotation=0.000|XOffset=0mil|YOffset=0mil|HoleType=Round|Shape=RoundedRectangle|*
%AMROUNDEDRECTD38*
21,1,0.0484,0.0177,0,0,0.0*
21,1,0.0425,0.0236,0,0,0.0*
1,1,0.0059,0.0213,-0.0089*
1,1,0.0059,-0.0213,-0.0089*
1,1,0.0059,-0.0213,0.0089*
1,1,0.0059,0.0213,0.0089*
%
%ADD38ROUNDEDRECTD38*%
%ADD39R,0.0984X0.0669*%
%ADD40R,0.1260X0.1575*%
%ADD41R,0.0669X0.0984*%
G04:AMPARAMS|DCode=44|XSize=39.4mil|YSize=59.1mil|CornerRadius=9.8mil|HoleSize=0mil|Usage=FLASHONLY|Rotation=180.000|XOffset=0mil|YOffset=0mil|HoleType=Round|Shape=RoundedRectangle|*
%AMROUNDEDRECTD44*
21,1,0.0394,0.0394,0,0,180.0*
21,1,0.0197,0.0591,0,0,180.0*
1,1,0.0197,-0.0098,0.0197*
1,1,0.0197,0.0098,0.0197*
1,1,0.0197,0.0098,-0.0197*
1,1,0.0197,-0.0098,-0.0197*
%
%ADD44ROUNDEDRECTD44*%
G04:AMPARAMS|DCode=45|XSize=129.1mil|YSize=59.1mil|CornerRadius=14.8mil|HoleSize=0mil|Usage=FLASHONLY|Rotation=180.000|XOffset=0mil|YOffset=0mil|HoleType=Round|Shape=RoundedRectangle|*
%AMROUNDEDRECTD45*
21,1,0.1291,0.0295,0,0,180.0*
21,1,0.0996,0.0591,0,0,180.0*
1,1,0.0295,-0.0498,0.0148*
1,1,0.0295,0.0498,0.0148*
1,1,0.0295,0.0498,-0.0148*
1,1,0.0295,-0.0498,-0.0148*
%
%ADD45ROUNDEDRECTD45*%
%ADD46R,0.1575X0.0787*%
%ADD47R,0.0787X0.1575*%
%ADD48R,0.1102X0.1575*%
%ADD49R,0.0610X0.0315*%
%ADD50R,0.0394X0.0984*%
%ADD51R,0.2126X0.2756*%
%ADD52R,0.1575X0.1260*%
%ADD100R,0.3386X0.4213*%
%ADD101R,0.1339X0.0394*%
%ADD102R,0.0039X0.0039*%
%ADD105C,0.0600*%
%ADD106C,0.0630*%
%ADD107R,0.0630X0.0630*%
%ADD108C,0.1575*%
%ADD109R,0.1000X0.1600*%
%ADD110R,0.1600X0.1000*%
%ADD111R,0.0630X0.0630*%
%ADD112C,0.0354*%
%ADD113C,0.0138*%
%ADD114O,0.0650X0.0900*%
%ADD115O,0.0700X0.0860*%
%ADD116C,0.0700*%
%ADD117R,0.0700X0.0700*%
%ADD118R,0.0700X0.0700*%
D18*
X037942Y016346D02*
D03*
X036446D02*
D03*
X03495D02*
D03*
X033454D02*
D03*
X031958D02*
D03*
X033454Y010362D02*
D03*
X03495D02*
D03*
X036446D02*
D03*
X037942D02*
D03*
Y011937D02*
D03*
D19*
X038808Y012523D02*
D03*
Y011972D02*
D03*
Y013074D02*
D03*
Y013626D02*
D03*
Y014177D02*
D03*
Y014728D02*
D03*
X031092Y014177D02*
D03*
Y014728D02*
D03*
Y013626D02*
D03*
Y013074D02*
D03*
Y012523D02*
D03*
Y011972D02*
D03*
D20*
X034123Y009496D02*
D03*
X033572D02*
D03*
X034674D02*
D03*
X035226D02*
D03*
X035777D02*
D03*
X036328D02*
D03*
X033572Y017212D02*
D03*
X034123D02*
D03*
X034674D02*
D03*
X035226D02*
D03*
X036328D02*
D03*
X035777D02*
D03*
D21*
X039674Y009807D02*
D03*
Y009413D02*
D03*
Y009019D02*
D03*
X030226Y0165D02*
D03*
Y016106D02*
D03*
Y015712D02*
D03*
Y015318D02*
D03*
Y014925D02*
D03*
Y014531D02*
D03*
Y014137D02*
D03*
Y013744D02*
D03*
Y01335D02*
D03*
Y012956D02*
D03*
Y012563D02*
D03*
Y012169D02*
D03*
Y011775D02*
D03*
Y011381D02*
D03*
Y010988D02*
D03*
Y010594D02*
D03*
Y0102D02*
D03*
X039674D02*
D03*
Y010594D02*
D03*
Y010988D02*
D03*
Y011381D02*
D03*
Y011775D02*
D03*
Y012169D02*
D03*
Y012563D02*
D03*
Y012956D02*
D03*
Y01335D02*
D03*
Y013744D02*
D03*
Y014137D02*
D03*
Y014531D02*
D03*
Y014925D02*
D03*
Y015318D02*
D03*
Y015712D02*
D03*
Y016106D02*
D03*
Y0165D02*
D03*
X030226Y016893D02*
D03*
X030226Y017291D02*
D03*
Y017685D02*
D03*
Y009019D02*
D03*
Y009413D02*
D03*
Y009807D02*
D03*
X039674Y017685D02*
D03*
Y017291D02*
D03*
Y016897D02*
D03*
D22*
X0381Y018074D02*
D03*
X037706D02*
D03*
X037312D02*
D03*
X036919D02*
D03*
X036525D02*
D03*
X036131D02*
D03*
X035737D02*
D03*
X035344D02*
D03*
X03495D02*
D03*
X034556D02*
D03*
X034163D02*
D03*
X033769D02*
D03*
X033375D02*
D03*
X032982D02*
D03*
X032588D02*
D03*
X032194D02*
D03*
X0318D02*
D03*
Y008626D02*
D03*
X032194D02*
D03*
X032588D02*
D03*
X032982D02*
D03*
X033375D02*
D03*
X033769D02*
D03*
X034163D02*
D03*
X034556D02*
D03*
X03495D02*
D03*
X035344D02*
D03*
X035737D02*
D03*
X036131D02*
D03*
X036525D02*
D03*
X036919D02*
D03*
X037312D02*
D03*
X037706D02*
D03*
X0381D02*
D03*
D23*
X031958Y01485D02*
D03*
Y013354D02*
D03*
Y011858D02*
D03*
Y010362D02*
D03*
X033454Y013354D02*
D03*
X03495Y01485D02*
D03*
X037942D02*
D03*
Y013354D02*
D03*
X03495Y011858D02*
D03*
X036446Y013354D02*
D03*
D24*
X0442Y014D02*
D03*
X044202Y012666D02*
D03*
D25*
X043535Y013351D02*
D03*
D26*
X022335Y000916D02*
D03*
X021335D02*
D03*
X020335D02*
D03*
X022335Y007884D02*
D03*
X021335D02*
D03*
X020335D02*
D03*
D27*
X042199Y001522D02*
D03*
Y000774D02*
D03*
X043201Y001526D02*
D03*
Y000778D02*
D03*
X02375Y024002D02*
D03*
Y02475D02*
D03*
X01075Y002802D02*
D03*
Y00355D02*
D03*
X037226Y006372D02*
D03*
Y005624D02*
D03*
X036324Y005628D02*
D03*
Y006376D02*
D03*
X038149Y006372D02*
D03*
Y005624D02*
D03*
X039951Y020178D02*
D03*
Y020926D02*
D03*
X010749Y005422D02*
D03*
Y004674D02*
D03*
X013226Y008724D02*
D03*
Y009472D02*
D03*
X011874Y009476D02*
D03*
Y008728D02*
D03*
X026349Y008322D02*
D03*
Y007574D02*
D03*
D28*
X024859Y02425D02*
D03*
X026041D02*
D03*
X028241D02*
D03*
X027059D02*
D03*
X029209D02*
D03*
X030391D02*
D03*
X026041Y02115D02*
D03*
X024859D02*
D03*
X028241D02*
D03*
X027059D02*
D03*
X030441D02*
D03*
X029259D02*
D03*
X032591D02*
D03*
X031409D02*
D03*
X032541Y02425D02*
D03*
X031359D02*
D03*
X0312Y004D02*
D03*
X030019D02*
D03*
X040441Y0234D02*
D03*
X039259D02*
D03*
X040909Y01845D02*
D03*
X042091D02*
D03*
X043Y02375D02*
D03*
X041819D02*
D03*
X025209Y0044D02*
D03*
X026391D02*
D03*
X025209Y0016D02*
D03*
X026391D02*
D03*
X013441Y00595D02*
D03*
X012259D02*
D03*
X013441Y00285D02*
D03*
X012259D02*
D03*
X015841D02*
D03*
X014659D02*
D03*
X015841Y00595D02*
D03*
X014659D02*
D03*
X011691Y022D02*
D03*
X010509D02*
D03*
X007859D02*
D03*
X009041D02*
D03*
D29*
X027226Y022383D02*
D03*
X0276Y023217D02*
D03*
X027974Y022383D02*
D03*
X025076D02*
D03*
X02545Y023217D02*
D03*
X025824Y022383D02*
D03*
X029426D02*
D03*
X0298Y023217D02*
D03*
X030174Y022383D02*
D03*
X031626D02*
D03*
X032Y023217D02*
D03*
X032374Y022383D02*
D03*
X041724Y019633D02*
D03*
X04135Y020467D02*
D03*
X040976Y019633D02*
D03*
X012426Y004817D02*
D03*
X0128Y003983D02*
D03*
X013174Y004817D02*
D03*
X014902Y0048D02*
D03*
X015276Y003965D02*
D03*
X01565Y0048D02*
D03*
D30*
X031478Y020249D02*
D03*
X032226D02*
D03*
X035978Y003149D02*
D03*
X036726D02*
D03*
X040878Y017549D02*
D03*
X041626D02*
D03*
X045172Y016551D02*
D03*
X044424D02*
D03*
X020524Y023624D02*
D03*
X021272D02*
D03*
X023824Y019774D02*
D03*
X024572D02*
D03*
X020874Y019874D02*
D03*
X021622D02*
D03*
X024626Y016526D02*
D03*
X023878D02*
D03*
X020974Y016574D02*
D03*
X021722D02*
D03*
X042276Y013326D02*
D03*
X041528D02*
D03*
X026422Y005451D02*
D03*
X025674D02*
D03*
X026422Y002751D02*
D03*
X025674D02*
D03*
X012128Y007899D02*
D03*
X012876D02*
D03*
X035874Y023574D02*
D03*
X036622D02*
D03*
D31*
X020458Y022774D02*
D03*
X02046Y02203D02*
D03*
X021442Y0224D02*
D03*
X034042Y003398D02*
D03*
X03306Y003028D02*
D03*
X033058Y003772D02*
D03*
X036842Y02235D02*
D03*
X03586Y02198D02*
D03*
X035858Y022724D02*
D03*
X039408Y024952D02*
D03*
X04039Y025322D02*
D03*
X040392Y024578D02*
D03*
D32*
X04465Y02395D02*
D03*
Y02525D02*
D03*
X04245Y01005D02*
D03*
Y01135D02*
D03*
X0413Y01005D02*
D03*
Y01135D02*
D03*
X0146Y01145D02*
D03*
Y01275D02*
D03*
X00915Y01505D02*
D03*
Y01375D02*
D03*
X0146Y0154D02*
D03*
Y0141D02*
D03*
X03295Y00475D02*
D03*
Y00605D02*
D03*
X0285D02*
D03*
Y00475D02*
D03*
X0226Y02225D02*
D03*
Y02355D02*
D03*
X00965Y0243D02*
D03*
Y0256D02*
D03*
D33*
X011623Y018711D02*
D03*
X00745Y01875D02*
D03*
D34*
X005Y024369D02*
D03*
X0341Y006091D02*
D03*
Y004909D02*
D03*
X0285Y003241D02*
D03*
Y002059D02*
D03*
X03945Y003791D02*
D03*
Y002609D02*
D03*
X0345Y023491D02*
D03*
Y022309D02*
D03*
X04265Y019359D02*
D03*
Y020541D02*
D03*
X04465Y022941D02*
D03*
Y021759D02*
D03*
X01955Y017741D02*
D03*
Y016559D02*
D03*
X026Y017691D02*
D03*
Y016509D02*
D03*
X04255Y002609D02*
D03*
Y003791D02*
D03*
X00795Y003259D02*
D03*
Y004441D02*
D03*
Y001109D02*
D03*
Y002291D02*
D03*
X00405Y003259D02*
D03*
Y004441D02*
D03*
Y002241D02*
D03*
Y001059D02*
D03*
Y007041D02*
D03*
Y005859D02*
D03*
X0079Y005809D02*
D03*
Y006991D02*
D03*
Y008259D02*
D03*
Y009441D02*
D03*
X00405Y008259D02*
D03*
Y009441D02*
D03*
X005Y02555D02*
D03*
X0194Y023591D02*
D03*
Y022409D02*
D03*
X0318Y004909D02*
D03*
Y006091D02*
D03*
X02525Y008241D02*
D03*
Y007059D02*
D03*
X01965Y013009D02*
D03*
Y014191D02*
D03*
X0381Y022159D02*
D03*
Y023341D02*
D03*
X04255Y004859D02*
D03*
Y006041D02*
D03*
X03945Y004809D02*
D03*
Y005991D02*
D03*
D35*
X02595Y02012D02*
D03*
Y0187D02*
D03*
X01955Y02005D02*
D03*
Y01863D02*
D03*
D36*
X03135Y003D02*
D03*
X03005D02*
D03*
X0406Y0221D02*
D03*
X0393D02*
D03*
X04325Y02505D02*
D03*
X04195D02*
D03*
X02365Y01125D02*
D03*
X02235D02*
D03*
X005Y022D02*
D03*
X0063D02*
D03*
D37*
X030548Y005258D02*
D03*
X030178Y00624D02*
D03*
X030922Y006242D02*
D03*
X042252Y022792D02*
D03*
X042622Y02181D02*
D03*
X041878Y021808D02*
D03*
X020976Y017658D02*
D03*
X02172Y01766D02*
D03*
X02135Y018642D02*
D03*
X023876Y017658D02*
D03*
X02462Y01766D02*
D03*
X02425Y018642D02*
D03*
D38*
X040683Y005126D02*
D03*
X041517Y0055D02*
D03*
X040683Y005874D02*
D03*
X040633Y002876D02*
D03*
X041467Y00325D02*
D03*
X040633Y003624D02*
D03*
X006417Y002024D02*
D03*
X005583Y00165D02*
D03*
X006417Y001276D02*
D03*
Y004274D02*
D03*
X005583Y0039D02*
D03*
X006417Y003526D02*
D03*
Y006774D02*
D03*
X005583Y0064D02*
D03*
X006417Y006026D02*
D03*
X006467Y009274D02*
D03*
X005633Y0089D02*
D03*
X006467Y008526D02*
D03*
D39*
X012887Y01145D02*
D03*
X011313D02*
D03*
X005813Y01465D02*
D03*
X007387D02*
D03*
D40*
X01665Y014957D02*
D03*
Y012043D02*
D03*
D41*
X0143Y019337D02*
D03*
Y017763D02*
D03*
D44*
X011144Y01316D02*
D03*
X01205D02*
D03*
X012956D02*
D03*
D45*
X01205Y01564D02*
D03*
D46*
X001902Y0188D02*
D03*
X004698D02*
D03*
D47*
X00725Y023808D02*
D03*
Y026092D02*
D03*
D48*
X04395Y00827D02*
D03*
Y01075D02*
D03*
D49*
X01929Y0256D02*
D03*
X02245D02*
D03*
X02079Y01415D02*
D03*
X02395D02*
D03*
X03415Y0256D02*
D03*
X03731D02*
D03*
D50*
X003861Y0115D02*
D03*
X00205D02*
D03*
D51*
X002956Y014256D02*
D03*
D52*
X006043Y01195D02*
D03*
X008957D02*
D03*
D100*
X0155Y02495D02*
D03*
D101*
X011327Y023611D02*
D03*
Y024281D02*
D03*
Y02495D02*
D03*
Y025619D02*
D03*
Y026289D02*
D03*
D102*
X02775Y01335D02*
D03*
Y010535D02*
D03*
D105*
X0022Y0058D02*
D03*
Y00485D02*
D03*
D106*
X016Y0014D02*
D03*
X015D02*
D03*
X014D02*
D03*
X013D02*
D03*
X03245Y00125D02*
D03*
X03145D02*
D03*
X03045D02*
D03*
X0022Y00385D02*
D03*
Y00825D02*
D03*
X0171Y0207D02*
D03*
Y0197D02*
D03*
X03255Y02655D02*
D03*
X03155D02*
D03*
X03055D02*
D03*
X0285D02*
D03*
X0275D02*
D03*
X0265D02*
D03*
X04045Y0267D02*
D03*
X04145D02*
D03*
X04245D02*
D03*
X04465Y00615D02*
D03*
Y00515D02*
D03*
D107*
X012Y0014D02*
D03*
X03345Y00125D02*
D03*
X02955Y02655D02*
D03*
X04465Y00305D02*
D03*
X0389Y02065D02*
D03*
X0255Y02655D02*
D03*
X04345Y0267D02*
D03*
D108*
X00115Y0011D02*
D03*
X0455Y02675D02*
D03*
Y0011D02*
D03*
D109*
X00355Y0251D02*
D03*
X00105D02*
D03*
D110*
X00255Y0231D02*
D03*
D111*
X0244Y02655D02*
D03*
X0022Y00285D02*
D03*
Y00725D02*
D03*
X0171Y0187D02*
D03*
X04465Y00415D02*
D03*
D112*
X027837Y012572D02*
D03*
X027443Y012317D02*
D03*
X027837Y012061D02*
D03*
X027443Y011805D02*
D03*
X027837Y011549D02*
D03*
D113*
X02775Y013468D02*
D03*
Y010653D02*
D03*
D114*
X03799Y00455D02*
D03*
X03701D02*
D03*
X036D02*
D03*
D115*
X04141Y00815D02*
D03*
X0424D02*
D03*
D116*
X038Y00125D02*
D03*
X037D02*
D03*
X0448Y0184D02*
D03*
Y0194D02*
D03*
D117*
X036Y00125D02*
D03*
D118*
X0448Y0204D02*
D03*
M02*
