M48
;Layer_Color=9474304
;FILE_FORMAT=2:4
INCH,LZ
;TYPE=PLATED
T1F00S00C0.0079
T2F00S00C0.0118
T3F00S00C0.0157
T4F00S00C0.0280
T5F00S00C0.0300
T6F00S00C0.0354
T7F00S00C0.0360
T8F00S00C0.0394
T9F00S00C0.0433
T11F00S00C0.1181
;TYPE=NON_PLATED
%
T01
X026347Y006353
X0277Y00665
X01475
T02
X04065Y0047
X0401Y00755
X040256Y008806
X04065Y00975
X03515Y0065
Y00555
X03315Y00665
X0334Y0075
X03275Y00755
X0292Y012228
X029037Y01305
X0292Y01355
X02475Y01345
X0247Y01295
X016Y00971
X0167Y00895
X01525Y0075
X01365Y008
X0423Y021581
T03
X00495Y00285
X00935Y0027
X00875Y00135
X0118Y00345
X01405Y0035
X0161
X02035Y00195
X0214
X0273Y002
X0352Y0025
Y0031
X03465Y00335
X038071Y002854
X0401Y00305
X0435Y00295
X043502Y005585
X0387Y0071
X0376Y007837
X0361Y00755
X0387Y0094
X040354Y012996
X04085
X041281Y012815
X04175Y012814
X0422
X04265Y01285
X04305Y012984
X043457Y012918
X043451Y013784
X043021Y0137
X0426Y013854
X04215Y01385
X041747Y013847
X041279Y013838
X04085Y013704
X04035
X04085Y0169
X04245Y01575
X0442Y014
X0449Y01395
Y013516
Y0131
Y0127
X044202Y012666
X0387Y01885
X03605Y0188
X0346Y01915
X0319Y0188
X031329Y0156
X027Y01545
X025848Y0159
X0239Y01515
X02445Y01165
X027443Y011805
Y012317
X027837Y012572
Y012061
Y011549
X0293Y006216
X0302Y0068
X028765Y003896
X0318Y0039
X0252Y0036
X0245Y007
X02115
X021Y004
X01885Y0053
X019Y00785
X015145Y009505
X014Y00705
X0109Y00745
X01085Y00645
X01005Y00505
X00965Y0042
X00885Y003629
X0089Y006029
X0087Y00785
X0104Y00945
X005Y0073
X01785Y01385
X01835Y01485
X01885Y0154
X01785Y0174
X0155Y01735
X00265Y0119
X00605Y021
X00585Y0231
X01295Y0215
X0129Y0256
X01865
X0184Y0214
X02155Y0208
X024126Y020824
X02345Y0219
X02655Y02175
X02875
X0285Y02005
X027135
X03075Y0201
X0309Y02175
X030485Y024885
X0271Y02495
X02569Y0251
X023129Y025829
X0226Y02435
X03325Y02565
X03455Y0242
X0333Y0201
X0337Y01965
X03415Y0192
X035813Y019563
X037365Y020948
X038Y0213
X039292Y024192
X0364Y0242
X0439Y0217
T04
X04495Y01065
X0456Y0174
X01405Y010167
X01025Y0102
T05
X0022Y00485
Y0058
T06
X036446Y010362
X03795Y01036
X037942Y011937
X037992Y013354
X03795Y01485
Y01635
X03645
Y01335
X03495Y01485
Y01635
X03345
X031958Y016346
X03195Y01485
Y01335
Y01185
Y0104
X03345Y01035
X03495Y010362
X03495Y01185
X03345Y01335
T07
X036Y00455
X03701
X03799
X04141Y00815
X0424
T08
X036Y00125
X037
X038
X0448Y0184
Y0194
Y0204
T09
X0022Y00285
X012Y0014
X013
X014
X015
X016
X03045Y00125
X03145
X03245
X03345
X04465Y00305
Y00415
Y00515
Y00615
X0171Y0187
X0022Y00825
Y00725
Y00385
X0171Y0197
Y0207
X0244Y02655
X0255Y02655
X0265
X0275
X0285
X02955
X03055
X03155
X03255
X04045Y0267
X04145
X04245
X04345
X0389Y02065
T11
X00115Y0011
X0455
Y02675
M30
